<svg width="579" height="37" viewBox="0 0 579 37" fill="none" xmlns="http://www.w3.org/2000/svg">
<path d="M267.25 17.4639C267.094 17.1709 266.902 16.9065 266.703 16.6636C266.603 16.5421 266.496 16.4206 266.39 16.2991C266.34 16.2348 266.283 16.1777 266.233 16.1276C266.176 16.0633 266.127 16.0205 266.07 15.9562C265.849 15.7346 265.615 15.5203 265.373 15.3202C265.231 15.1987 265.074 15.0772 264.918 14.9701L264.804 14.8986C264.804 14.8986 264.719 14.8486 264.683 14.8128C264.598 14.7628 264.527 14.7128 264.441 14.6628L264.2 14.5199C264.121 14.4699 264.036 14.4198 263.951 14.3841C263.787 14.2984 263.617 14.2126 263.453 14.1269C263.282 14.0411 263.105 13.9697 262.934 13.8982C262.856 13.8625 262.756 13.8267 262.671 13.7982C262.628 13.791 262.593 13.7624 262.543 13.7553L262.408 13.7053L262.28 13.6552C262.28 13.6552 262.194 13.6195 262.145 13.6052L261.881 13.5195C261.881 13.5195 261.803 13.498 261.754 13.4838L261.618 13.448L261.49 13.4123C261.49 13.4123 261.398 13.3837 261.355 13.3766C261 13.2765 260.63 13.2194 260.26 13.1551C259.89 13.0907 259.521 13.0693 259.151 13.0479C259.051 13.0479 258.959 13.0479 258.874 13.0336H258.177C258.177 13.0336 258.084 13.0336 258.034 13.0336C257.942 13.0336 257.842 13.0336 257.764 13.0479L257.487 13.0693H257.416C257.416 13.0693 257.366 13.0693 257.345 13.0693H257.203C257.103 13.0907 257.018 13.105 256.925 13.1193C255.446 13.298 254.01 13.741 252.659 14.3698C251.308 15.0058 250.049 15.8347 248.925 16.7993C248.783 16.9208 248.655 17.0423 248.513 17.1638L248.307 17.3567C248.307 17.3567 248.236 17.421 248.214 17.4567L248.115 17.5496C247.987 17.6854 247.845 17.8212 247.709 17.9569L247.688 17.9141C247.624 17.8426 247.567 17.7854 247.503 17.7068L247.425 17.6139L247.34 17.4996L247.169 17.2995C247.062 17.1495 246.956 17.0137 246.849 16.8708L246.764 16.7636C246.764 16.7636 246.721 16.685 246.685 16.6493L246.529 16.4349C246.529 16.4349 246.479 16.3563 246.458 16.3206L246.38 16.2134C246.337 16.1419 246.287 16.0633 246.237 15.9776L246.095 15.7489C246.045 15.6775 246.003 15.5917 245.967 15.5203L245.896 15.3988L245.832 15.2773C245.782 15.1987 245.747 15.113 245.704 15.0415C245.619 14.8843 245.533 14.7271 245.448 14.5699L245.391 14.4484C245.391 14.4484 245.356 14.3627 245.334 14.3269L245.213 14.084L245.185 14.0197L245.164 13.9625L245.114 13.8339C245.078 13.7553 245.043 13.6767 245.007 13.5909L244.481 12.2261L244.09 11.2043L244.062 11.1471C244.062 11.1471 244.062 11.1114 244.054 11.1328V11.1686L243.99 11.3043L243.912 11.5616L243.727 12.0689L243.55 12.5834L243.464 12.8406L243.422 12.9621V12.9836H243.407V13.0336L243.301 13.2908L243.251 13.4123C243.251 13.4123 243.215 13.498 243.201 13.5338C242.931 14.2055 242.618 14.8486 242.27 15.4917C241.928 16.1276 241.551 16.7493 241.16 17.3567C241.039 17.5425 240.911 17.7211 240.791 17.9069C240.67 17.7569 240.563 17.5997 240.442 17.4567C240.243 17.1995 240.037 16.9565 239.823 16.7136C240.058 16.4421 240.3 16.1491 240.513 15.8561C240.741 15.556 240.933 15.2344 241.089 14.9486C241.246 14.6556 241.366 14.3698 241.445 14.1412C241.615 13.6695 241.651 13.348 241.551 13.3123C241.459 13.2765 241.267 13.5195 241.004 13.9125C240.876 14.1054 240.705 14.3484 240.542 14.6056C240.357 14.8629 240.165 15.1415 239.951 15.4345C239.759 15.6918 239.56 15.9419 239.347 16.1848C239.212 16.0562 239.091 15.9204 238.963 15.7989C238.437 15.2773 237.861 14.7771 237.242 14.3484C236.929 14.1269 236.609 13.9339 236.275 13.7553C236.19 13.7053 236.104 13.6695 236.019 13.6195C235.976 13.5909 235.941 13.5838 235.891 13.5552C235.841 13.5338 235.806 13.5195 235.756 13.498C235.592 13.4266 235.415 13.3408 235.23 13.2765C234.874 13.1408 234.519 13.0336 234.156 12.9335C233.786 12.8478 233.416 12.7763 233.047 12.7263C232.677 12.6834 232.293 12.6549 231.923 12.6549C231.553 12.6549 231.169 12.6834 230.8 12.7192C230.43 12.762 230.06 12.8264 229.683 12.9264C229.313 13.0193 228.958 13.1408 228.609 13.2908C228.524 13.3265 228.432 13.3623 228.346 13.398C228.304 13.4266 228.261 13.4337 228.218 13.4623L228.083 13.5195L227.955 13.5838C227.955 13.5838 227.87 13.6267 227.82 13.641L227.699 13.7124L227.642 13.7553L227.586 13.791L227.465 13.8625C227.465 13.8625 227.415 13.8839 227.401 13.8982C227.379 13.9125 227.358 13.9196 227.344 13.9339C227.258 13.9982 227.18 14.0411 227.102 14.1054C226.953 14.2269 226.803 14.3484 226.661 14.4841C226.391 14.7485 226.128 15.0272 225.886 15.3488C225.829 15.4345 225.765 15.506 225.715 15.5917C225.658 15.6775 225.609 15.7632 225.566 15.8561L225.53 15.9347C225.53 15.9347 225.502 15.9776 225.495 16.0062C225.495 16.0276 225.466 16.0562 225.452 16.0776C225.452 16.0991 225.431 16.1276 225.431 16.1634C225.431 16.1848 225.417 16.2277 225.41 16.2491L225.381 16.3349C225.381 16.3349 225.381 16.392 225.374 16.4349C225.374 16.4706 225.374 16.5064 225.374 16.5278C225.374 16.5421 225.374 16.5635 225.374 16.5778V16.7207C225.374 16.7207 225.395 16.785 225.41 16.8208V16.8708L225.431 16.9065C225.431 16.9065 225.466 17.0137 225.495 17.0637C225.516 17.1138 225.538 17.1638 225.566 17.2138C225.587 17.2567 225.609 17.3067 225.637 17.3567L225.673 17.4282L225.715 17.4996L225.801 17.6282C225.801 17.6282 225.865 17.7068 225.886 17.7497C226.078 18.0141 226.291 18.2428 226.519 18.4643C226.291 18.6858 226.078 18.9288 225.886 19.186C225.865 19.2217 225.829 19.2717 225.801 19.3075L225.758 19.3646L225.715 19.4289L225.673 19.5004L225.637 19.5719C225.637 19.5719 225.587 19.6719 225.566 19.7219C225.538 19.7719 225.516 19.8148 225.495 19.8648C225.466 19.9149 225.452 19.972 225.431 20.022V20.0578L225.41 20.1078C225.41 20.1078 225.395 20.1721 225.381 20.2078V20.3507C225.381 20.3507 225.374 20.3865 225.374 20.4008C225.374 20.4365 225.374 20.4722 225.374 20.5008C225.374 20.5365 225.374 20.558 225.381 20.5937L225.41 20.6794C225.41 20.6794 225.417 20.7438 225.431 20.7652C225.431 20.7938 225.452 20.8295 225.452 20.8509C225.452 20.8795 225.481 20.901 225.495 20.9224C225.495 20.951 225.516 20.9724 225.53 21.001L225.566 21.0725C225.609 21.1725 225.658 21.2511 225.715 21.3368C225.779 21.4226 225.829 21.5083 225.886 21.5798C226.128 21.9014 226.391 22.18 226.661 22.4444C226.803 22.5802 226.953 22.7017 227.102 22.8231C227.18 22.8875 227.258 22.9446 227.344 22.9946C227.365 23.0089 227.379 23.0232 227.401 23.0304C227.429 23.0447 227.45 23.0589 227.465 23.0661L227.586 23.1447L227.699 23.2162L227.82 23.2876C227.82 23.2876 227.906 23.3376 227.955 23.3519L228.083 23.4091L228.218 23.4734C228.218 23.4734 228.304 23.5091 228.346 23.5306C228.432 23.5663 228.517 23.602 228.609 23.6449C228.958 23.7878 229.313 23.9093 229.683 24.0093C230.06 24.1022 230.43 24.1665 230.8 24.2165C231.169 24.2594 231.553 24.288 231.923 24.2737C232.293 24.2737 232.677 24.2523 233.047 24.2023C233.416 24.1522 233.786 24.0808 234.156 23.995C234.526 23.9093 234.888 23.7878 235.23 23.652C235.415 23.5949 235.578 23.5091 235.756 23.4377C235.806 23.4091 235.841 23.3948 235.891 23.3734C235.941 23.3519 235.976 23.3376 236.019 23.3162C236.104 23.2662 236.19 23.2304 236.275 23.1804C236.609 22.9946 236.929 22.8017 237.242 22.5802C237.861 22.1586 238.437 21.6584 238.963 21.1296C239.091 21.001 239.226 20.8795 239.347 20.7438C239.56 20.9867 239.759 21.2439 239.951 21.5012C240.165 21.787 240.357 22.0728 240.542 22.3229C240.719 22.5802 240.876 22.8231 241.004 23.0232C241.281 23.4091 241.473 23.652 241.551 23.6163C241.637 23.5806 241.615 23.2662 241.445 22.7874C241.366 22.5588 241.246 22.2801 241.089 21.9871C240.933 21.6941 240.741 21.3726 240.513 21.0725C240.3 20.7795 240.072 20.4865 239.823 20.2221C240.037 19.972 240.243 19.7219 240.442 19.479C240.563 19.3289 240.684 19.1717 240.791 19.0288C240.918 19.2074 241.039 19.3932 241.16 19.5719C241.551 20.1721 241.935 20.7938 242.27 21.4369C242.618 22.0728 242.931 22.7302 243.201 23.3948C243.215 23.4377 243.237 23.4805 243.251 23.5163L243.301 23.6449L243.393 23.895V23.9307H243.422V23.9736L243.464 24.0951L243.55 24.3452L243.727 24.8597L243.912 25.3741L243.99 25.6242L244.04 25.76V25.7957L244.062 25.7814L244.09 25.7243L244.495 24.7025L245.022 23.3519C245.057 23.2662 245.093 23.1804 245.128 23.109L245.178 22.9803L245.199 22.9232L245.221 22.8589L245.341 22.6159C245.341 22.6159 245.377 22.5302 245.405 22.4944L245.462 22.373C245.548 22.2158 245.633 22.0586 245.711 21.9014C245.761 21.8299 245.797 21.7441 245.846 21.6655L245.903 21.5441L245.974 21.4226C246.024 21.3511 246.074 21.2654 246.124 21.1939L246.266 20.9653C246.309 20.8867 246.358 20.8152 246.408 20.7295L246.479 20.6223C246.479 20.6223 246.529 20.5508 246.55 20.5079L246.707 20.2936C246.707 20.2936 246.757 20.2221 246.792 20.1792L246.87 20.0721C246.984 19.9291 247.091 19.7791 247.197 19.6433L247.361 19.4361L247.446 19.3289L247.532 19.236C247.589 19.1574 247.653 19.1002 247.709 19.0288L247.731 18.9859C247.866 19.1217 247.994 19.2575 248.129 19.3932L248.221 19.4861C248.221 19.4861 248.293 19.5504 248.321 19.5862L248.52 19.7791C248.669 19.9006 248.797 20.0363 248.94 20.1435C250.077 21.1225 251.322 21.9514 252.673 22.573C254.017 23.2019 255.453 23.6449 256.939 23.8235C257.032 23.8378 257.117 23.845 257.21 23.8593H257.352C257.352 23.8593 257.402 23.8878 257.43 23.8878H257.501L257.771 23.9093C257.871 23.9093 257.963 23.9093 258.049 23.9236C258.098 23.9236 258.141 23.9236 258.191 23.9236H258.888C258.98 23.9236 259.073 23.9236 259.158 23.9093C259.528 23.8878 259.898 23.8593 260.274 23.8021C260.644 23.7378 261.014 23.6806 261.37 23.5806C261.419 23.5806 261.469 23.5591 261.505 23.5449L261.633 23.5091L261.768 23.4734C261.768 23.4734 261.86 23.4448 261.896 23.4377L262.159 23.3519C262.159 23.3519 262.244 23.3233 262.294 23.3019L262.422 23.2519L262.557 23.2019C262.557 23.2019 262.635 23.1661 262.685 23.1518C262.77 23.1161 262.863 23.0804 262.948 23.0589C263.119 22.9803 263.297 22.9089 263.46 22.8231C263.631 22.7517 263.794 22.6516 263.965 22.573C264.05 22.523 264.129 22.4873 264.214 22.4373L264.335 22.3658L264.456 22.2872C264.541 22.2443 264.612 22.1943 264.69 22.1443C264.726 22.1157 264.776 22.0943 264.811 22.0586L264.875 22.0228L264.932 21.9871C265.089 21.8728 265.245 21.7513 265.387 21.6298C265.622 21.4226 265.849 21.2154 266.077 21.001C266.184 20.8867 266.297 20.7795 266.404 20.658C266.511 20.5365 266.603 20.4293 266.71 20.2936C266.809 20.1721 266.902 20.0363 267.001 19.9006C267.094 19.7719 267.179 19.6362 267.264 19.4861C267.35 19.3432 267.421 19.186 267.478 19.0145C267.492 18.9645 267.499 18.9288 267.513 18.8787C267.513 18.8287 267.535 18.7787 267.549 18.743C267.549 18.7001 267.563 18.6501 267.57 18.6001C267.57 18.55 267.57 18.5 267.57 18.4428C267.57 18.2356 267.528 18.0498 267.464 17.8783C267.407 17.7068 267.336 17.5496 267.25 17.4067V17.4639ZM226.391 17.3424C226.391 17.3424 226.341 17.271 226.32 17.2495L226.277 17.1995L226.242 17.1495V17.128L226.206 17.0995L226.17 17.0494C226.17 17.0494 226.135 16.978 226.128 16.9565C226.114 16.9208 226.092 16.8851 226.078 16.8565C226.078 16.8208 226.057 16.7993 226.042 16.7636C226.014 16.6993 226.014 16.635 226.014 16.5993V16.4778C226.014 16.4778 226.042 16.4421 226.057 16.4349C226.078 16.3706 226.099 16.2991 226.135 16.2348C226.17 16.1634 226.206 16.0991 226.256 16.0276C226.306 15.9562 226.355 15.899 226.398 15.8204C226.604 15.556 226.839 15.2988 227.095 15.0558C227.223 14.9343 227.358 14.8271 227.486 14.7128C227.557 14.6628 227.621 14.6199 227.692 14.5699C227.699 14.5699 227.728 14.5413 227.742 14.5342C227.749 14.5342 227.778 14.5056 227.785 14.4913L227.891 14.4198L227.955 14.3841L228.012 14.3484L228.119 14.2912C228.119 14.2912 228.19 14.2483 228.24 14.2269L228.361 14.1626L228.481 14.1054C228.481 14.1054 228.567 14.0697 228.602 14.0411C228.681 14.0054 228.752 13.9697 228.837 13.9482C229.164 13.8125 229.484 13.7053 229.818 13.6195C230.153 13.5338 230.501 13.4695 230.849 13.4266C231.191 13.3766 231.539 13.3623 231.888 13.3623C232.229 13.3623 232.577 13.3837 232.926 13.4266C233.274 13.4695 233.616 13.5338 233.957 13.6195C234.291 13.7053 234.625 13.7982 234.945 13.9339C235.116 13.9982 235.265 14.0697 235.422 14.1412C235.457 14.1554 235.507 14.1769 235.543 14.2055C235.578 14.2269 235.628 14.2412 235.664 14.2626C235.735 14.2984 235.82 14.3341 235.891 14.3841C236.204 14.5556 236.503 14.7414 236.787 14.9343C237.363 15.3345 237.911 15.7989 238.408 16.2991C238.543 16.4349 238.671 16.5635 238.807 16.6993C238.295 17.2138 237.733 17.6854 237.135 18.0856C236.51 17.6997 235.856 17.371 235.159 17.1138C234.455 16.8422 233.729 16.6636 232.983 16.5635C232.243 16.4706 231.482 16.4564 230.729 16.5635C229.975 16.6636 229.242 16.8565 228.538 17.1638C228.19 17.3067 227.856 17.4782 227.522 17.6711L227.401 17.7497L227.344 17.7854C227.344 17.7854 227.294 17.8069 227.287 17.8212C227.202 17.8783 227.116 17.9284 227.045 17.9927L226.995 18.0284C226.782 17.8069 226.569 17.5854 226.391 17.3424ZM236.453 18.5C235.962 18.7787 235.45 19.0288 234.924 19.2217C234.263 19.4647 233.58 19.6362 232.89 19.7291C232.193 19.8148 231.504 19.8291 230.807 19.7291C230.131 19.6433 229.449 19.4647 228.816 19.186C228.489 19.0502 228.183 18.893 227.884 18.7072L227.778 18.6358L227.728 18.6001C227.728 18.6001 227.692 18.5715 227.678 18.5643C227.628 18.5357 227.593 18.5 227.55 18.4643C227.593 18.4286 227.628 18.4071 227.678 18.3714C227.692 18.3714 227.714 18.3428 227.728 18.3285L227.778 18.2928L227.884 18.2213C228.183 18.0355 228.489 17.8783 228.816 17.7497C229.449 17.4782 230.131 17.2995 230.807 17.1995C231.504 17.1138 232.193 17.1138 232.89 17.1995C233.58 17.2852 234.263 17.4639 234.924 17.7068C235.45 17.9069 235.962 18.1499 236.453 18.4286V18.5ZM238.408 20.7152C237.911 21.2154 237.363 21.6798 236.787 22.08C236.503 22.2872 236.197 22.473 235.891 22.6302C235.82 22.6659 235.735 22.716 235.664 22.7517C235.628 22.7803 235.578 22.7874 235.543 22.816C235.507 22.8374 235.457 22.8517 235.422 22.8732C235.265 22.9446 235.102 23.0232 234.945 23.0804C234.625 23.2019 234.291 23.3162 233.957 23.3948C233.616 23.4805 233.274 23.5449 232.926 23.5949C232.577 23.6449 232.229 23.652 231.888 23.652C231.539 23.652 231.191 23.6449 230.849 23.5949C230.501 23.5591 230.167 23.4805 229.818 23.3948C229.484 23.3162 229.15 23.2019 228.837 23.0661C228.752 23.0304 228.681 22.9946 228.602 22.9732C228.56 22.9589 228.517 22.9375 228.481 22.9089L228.361 22.8517L228.24 22.7874C228.24 22.7874 228.169 22.7517 228.119 22.7302L228.012 22.6659L227.955 22.6302L227.891 22.5945L227.785 22.523C227.785 22.523 227.749 22.4944 227.742 22.4873C227.728 22.4873 227.699 22.4587 227.692 22.4444C227.621 22.4015 227.557 22.3515 227.486 22.3015C227.358 22.1943 227.223 22.08 227.095 21.9585C226.839 21.7299 226.604 21.4726 226.398 21.1939C226.355 21.1225 226.306 21.0582 226.256 20.9867C226.206 20.9152 226.17 20.8509 226.135 20.7795C226.099 20.708 226.078 20.6437 226.057 20.5865C226.057 20.5723 226.057 20.5508 226.042 20.5365V20.4151C226.042 20.4151 226.042 20.315 226.042 20.2578C226.042 20.2221 226.064 20.1935 226.078 20.1578C226.092 20.1221 226.099 20.0863 226.128 20.0578C226.135 20.022 226.163 19.9863 226.17 19.9649L226.206 19.9149V19.8934L226.242 19.8648L226.277 19.8148L226.32 19.7719C226.32 19.7719 226.362 19.6933 226.391 19.6719C226.569 19.4289 226.768 19.2074 226.995 18.9859L227.045 19.0288C227.116 19.086 227.202 19.1503 227.287 19.1931C227.308 19.2074 227.322 19.2217 227.344 19.236L227.401 19.2717L227.522 19.3432C227.849 19.5361 228.19 19.7076 228.538 19.8505C229.235 20.1578 229.975 20.3507 230.729 20.4508C231.482 20.5508 232.229 20.5365 232.983 20.4508C233.729 20.3507 234.469 20.1721 235.159 19.9006C235.841 19.6433 236.51 19.3146 237.135 18.9288C237.733 19.3289 238.295 19.8077 238.807 20.315C238.671 20.4508 238.543 20.5865 238.408 20.7152ZM239.831 19.1074C239.653 19.3432 239.461 19.5647 239.269 19.7934C238.807 19.3289 238.302 18.893 237.768 18.5143C238.302 18.1213 238.807 17.6997 239.269 17.2352C239.461 17.4567 239.646 17.6854 239.831 17.9141C239.987 18.1141 240.143 18.3214 240.3 18.5286C240.143 18.7358 239.987 18.9288 239.831 19.136V19.1074ZM247.126 18.5858C247.062 18.6572 247.005 18.7358 246.941 18.8073L246.849 18.9145L246.764 19.0288L246.586 19.2432C246.479 19.3932 246.358 19.5361 246.252 19.6933L246.166 19.8077C246.166 19.8077 246.109 19.8791 246.081 19.9149L245.932 20.1435C245.932 20.1435 245.882 20.2221 245.846 20.265L245.775 20.3865C245.725 20.4651 245.669 20.5508 245.619 20.6223L245.477 20.8652C245.427 20.951 245.377 21.0224 245.334 21.1082L245.263 21.2297L245.185 21.3511C245.142 21.4369 245.093 21.5083 245.057 21.5941C244.972 21.7656 244.879 21.9228 244.794 22.0943L244.737 22.2158C244.737 22.2158 244.687 22.3015 244.673 22.3372L244.552 22.5945L244.531 22.6516L244.51 22.716L244.446 22.8517C244.41 22.9375 244.36 23.0232 244.339 23.109L244.062 23.8092V23.7878H244.054L244.026 23.7164L243.919 23.4591L243.877 23.3233C243.877 23.3233 243.834 23.2376 243.813 23.1876C243.528 22.4944 243.201 21.8299 242.846 21.1725C242.49 20.5079 242.106 19.8791 241.701 19.2575C241.53 19.0002 241.366 18.7573 241.182 18.5143C241.366 18.2713 241.53 18.0141 241.701 17.7712C242.106 17.1495 242.49 16.5135 242.846 15.8561C243.201 15.1987 243.528 14.5342 243.813 13.8339C243.834 13.791 243.848 13.7553 243.877 13.7053L243.919 13.5695L244.026 13.3123L244.054 13.2551V13.2194L244.325 13.9125C244.36 13.9982 244.396 14.084 244.438 14.1626L244.495 14.2984L244.517 14.3627L244.545 14.4198L244.659 14.6771C244.659 14.6771 244.702 14.7628 244.723 14.7986L244.78 14.92C244.865 15.0915 244.95 15.2487 245.043 15.4202C245.093 15.506 245.142 15.5774 245.178 15.6632L245.32 15.9061C245.37 15.9919 245.413 16.0633 245.462 16.1491L245.605 16.392C245.654 16.4778 245.704 16.5564 245.761 16.6278L245.832 16.7493C245.832 16.7493 245.882 16.8208 245.917 16.8708L246.074 17.0995C246.074 17.0995 246.131 17.1709 246.159 17.2138L246.237 17.321C246.344 17.4782 246.465 17.6282 246.572 17.7712C246.636 17.8426 246.693 17.9141 246.757 17.9927L246.835 18.0999L246.934 18.207C246.991 18.2856 247.055 18.3571 247.112 18.4286L247.183 18.5143L247.112 18.6001L247.126 18.5858ZM266.788 18.8287C266.745 18.9502 266.688 19.0717 266.632 19.186C266.568 19.3075 266.489 19.4289 266.411 19.5361C266.333 19.6576 266.248 19.7719 266.162 19.8791C266.07 19.9863 265.984 20.1006 265.885 20.2078C265.793 20.315 265.7 20.4293 265.586 20.5222C265.387 20.7295 265.174 20.9224 264.946 21.1082C264.811 21.2154 264.669 21.3297 264.541 21.4226L264.491 21.4583L264.441 21.5012C264.441 21.5012 264.37 21.5441 264.335 21.5726L264.107 21.7084L264.001 21.7799L263.88 21.837C263.809 21.8728 263.723 21.9228 263.652 21.9585C263.496 22.0443 263.339 22.1157 263.176 22.1943C263.019 22.2658 262.856 22.3372 262.699 22.4087C262.614 22.4444 262.529 22.473 262.443 22.5087C262.408 22.523 262.365 22.5445 262.329 22.5588L262.209 22.6088L262.088 22.6516C262.088 22.6516 262.002 22.6802 261.967 22.6945L261.718 22.7803C261.718 22.7803 261.633 22.8017 261.583 22.816L261.455 22.8517L261.32 22.8875C261.32 22.8875 261.242 22.9089 261.192 22.9232C260.858 23.0089 260.509 23.0804 260.161 23.1304C259.819 23.1804 259.471 23.2162 259.108 23.2376C259.03 23.2376 258.93 23.2376 258.852 23.2376H258.191C258.191 23.2376 258.106 23.2376 258.063 23.2376C257.978 23.2376 257.878 23.2376 257.8 23.2376L257.537 23.2162H257.466C257.466 23.2162 257.416 23.2162 257.402 23.2162H257.274C257.188 23.1876 257.089 23.1804 257.011 23.1661C255.61 22.9946 254.237 22.573 252.957 21.9728C251.663 21.3726 250.468 20.5865 249.38 19.6433C249.253 19.5361 249.117 19.4147 248.975 19.2932L248.783 19.1074C248.783 19.1074 248.726 19.0502 248.691 19.0145L248.591 18.9145C248.449 18.7787 248.321 18.6358 248.186 18.5C248.321 18.3571 248.463 18.2213 248.591 18.0856L248.691 17.9927C248.691 17.9927 248.748 17.9284 248.783 17.8926L248.975 17.7068C249.11 17.5854 249.238 17.4639 249.38 17.3567C250.468 16.4349 251.663 15.6417 252.957 15.0272C254.237 14.4341 255.61 14.0054 257.011 13.8339C257.089 13.8267 257.188 13.8125 257.274 13.8125H257.402L257.466 13.791H257.537L257.8 13.7624C257.878 13.7624 257.978 13.7624 258.063 13.7624C258.106 13.7624 258.141 13.7624 258.191 13.7624H258.852C258.93 13.7624 259.03 13.7624 259.108 13.7767C259.457 13.7982 259.819 13.8267 260.161 13.8839C260.509 13.9339 260.858 14.0054 261.192 14.0911C261.242 14.0911 261.277 14.1197 261.32 14.1269L261.455 14.1626L261.583 14.2055C261.583 14.2055 261.668 14.2269 261.718 14.2412L261.967 14.3269C261.967 14.3269 262.052 14.3484 262.088 14.3627L262.209 14.4127L262.329 14.4556C262.329 14.4556 262.408 14.4984 262.443 14.5056C262.529 14.5413 262.614 14.5699 262.699 14.6056C262.856 14.6771 263.019 14.7414 263.176 14.8271C263.332 14.8986 263.489 14.9843 263.652 15.0558C263.737 15.0915 263.809 15.1415 263.88 15.1773L264.001 15.2344L264.107 15.313L264.335 15.4417C264.335 15.4417 264.406 15.4917 264.441 15.5203L264.541 15.5917C264.683 15.6918 264.811 15.7989 264.946 15.9061C265.174 16.0919 265.387 16.2991 265.586 16.5064C265.636 16.5564 265.686 16.6136 265.743 16.6636C265.793 16.7136 265.842 16.7708 265.885 16.8208C265.984 16.928 266.077 17.0423 266.162 17.1495C266.34 17.371 266.511 17.6139 266.639 17.8426C266.703 17.9641 266.76 18.0856 266.809 18.207C266.845 18.3285 266.866 18.4428 266.866 18.5357C266.866 18.6358 266.845 18.743 266.809 18.8644L266.788 18.8287Z" fill="#AF9146"/>
<path d="M204.787 18.5001C204.787 17.807 204.24 17.2354 203.55 17.2354C203.045 17.2354 202.604 17.5498 202.412 17.9928H198.658C198.48 17.6641 198.146 17.4283 197.741 17.4283C197.335 17.4283 197.001 17.6498 196.816 17.9928H0V19.0003H196.845C197.022 19.329 197.357 19.5648 197.762 19.5648C198.167 19.5648 198.501 19.3433 198.686 19.0003H202.434C202.626 19.4505 203.059 19.7578 203.571 19.7578C204.254 19.7578 204.816 19.1933 204.816 18.493L204.787 18.5001Z" fill="#AF9146"/>
<path d="M217.068 16.856C216.35 17.6491 215.405 18.2351 214.338 18.4923C215.405 18.7424 216.35 19.3284 217.068 20.1215C217.41 19.4355 224.044 18.8639 224.706 18.4923C224.044 18.1136 217.41 17.5419 217.068 16.856Z" fill="#AF9146"/>
<path d="M217.018 21.0936L216.933 20.9864L216.883 20.9364L216.84 20.8792L216.705 20.7435L216.577 20.5934L216.421 20.4362L216.392 20.4148L216.371 20.3862L216.25 20.2647C216.25 20.2647 216.193 20.2075 216.172 20.179L216.072 20.1004C216.072 20.1004 216.015 20.036 215.98 20.0146L215.88 19.9289L215.859 19.9003L215.831 19.8788L215.788 19.8288L215.575 19.6573L215.511 19.6073L215.489 19.5859L215.347 19.4787L215.283 19.4287L215.226 19.3786L215.105 19.2929C215.105 19.2929 215.02 19.2357 214.97 19.2071C214.892 19.15 214.792 19.1 214.707 19.0357L214.671 19.0142L214.636 18.9856L214.494 18.9142L214.458 18.8927L214.423 18.8642L214.28 18.7927L214.245 18.7713L214.209 18.7427L214.067 18.6712L214.032 18.6498H213.996L213.84 18.564H213.804L213.768 18.5283L213.697 18.4926H213.669L213.697 18.464L213.768 18.4283H213.804L213.84 18.3925L213.996 18.3211H214.032L214.067 18.2854L214.138 18.2425L214.209 18.2068L214.28 18.1639L214.423 18.0853L214.458 18.0638L214.494 18.0353L214.636 17.9638L214.671 17.9424L214.707 17.9138C214.807 17.8566 214.892 17.8066 214.97 17.7494C215.02 17.7208 215.055 17.6851 215.105 17.6637L215.226 17.5779L215.283 17.5279L215.347 17.4779L215.489 17.3707L215.511 17.3421L215.575 17.2993L215.788 17.1278L215.831 17.0777L215.88 17.0277L215.98 16.942C215.98 16.942 216.037 16.8848 216.072 16.8562L216.172 16.7705C216.172 16.7705 216.229 16.7133 216.25 16.6847L216.577 16.356L216.705 16.2131L216.84 16.0773L216.883 16.0202L216.933 15.9702L217.018 15.8558C217.018 15.8558 217.068 15.7987 217.089 15.7701L217.217 15.6057L217.054 15.7344C217.054 15.7344 216.997 15.7844 216.954 15.813L216.847 15.8987L216.776 15.9416L216.634 16.0416L216.599 16.0631L216.563 16.0916L216.392 16.1988L216.215 16.306H216.193L216.172 16.3346L216.122 16.356L216.023 16.4203C216.023 16.4203 215.951 16.4561 215.916 16.4775L215.809 16.5418C215.809 16.5418 215.738 16.5775 215.703 16.599L215.596 16.6633H215.575L215.546 16.6847L215.489 16.7133L215.368 16.7705L215.247 16.8348L215.191 16.8562H215.155L215.119 16.8848L214.984 16.942L214.927 16.9634L214.863 16.992L214.735 17.042C214.735 17.042 214.65 17.0777 214.6 17.092C214.522 17.1278 214.423 17.1492 214.33 17.1849H214.295L214.259 17.2135L214.188 17.2349L214.11 17.2564H214.074L214.039 17.285L213.896 17.335H213.861L213.825 17.3564L213.754 17.3779L213.683 17.4064H213.648L213.612 17.4279L213.47 17.4636H213.399L213.328 17.4993H213.249L213.214 17.5279H213.178L213.036 17.5636H212.965L212.894 17.5851C212.801 17.6137 212.702 17.628 212.609 17.6351C212.417 17.6708 212.225 17.6994 212.033 17.7066C211.941 17.7066 211.841 17.7351 211.749 17.7351C211.72 17.7351 211.699 17.7351 211.678 17.7351H211.472C211.102 17.7709 210.753 17.7852 210.44 17.7852C210.121 17.7852 209.772 17.7852 209.417 17.7494H209.21C209.21 17.7494 209.168 17.7208 209.139 17.7208C209.047 17.7208 208.947 17.7066 208.855 17.6994C208.663 17.6708 208.471 17.6494 208.279 17.628C208.186 17.6137 208.087 17.5851 207.994 17.5779H207.923L207.888 17.5494H207.852L207.71 17.5136H207.639L207.561 17.4779H207.489L207.454 17.4565H207.418L207.276 17.4064H207.241L207.205 17.3779L207.063 17.335H207.027L206.992 17.3064L206.849 17.2564H206.814L206.778 17.2349L206.7 17.2135L206.629 17.1849H206.593L206.558 17.1635C206.465 17.1278 206.38 17.0992 206.288 17.0634C206.238 17.0492 206.202 17.0277 206.153 17.0134L206.025 16.9634L205.961 16.942L205.904 16.9205L205.769 16.8562H205.733L205.698 16.8348L205.641 16.8062L205.52 16.749L205.399 16.6847L205.342 16.6633H205.314L205.292 16.6347L205.186 16.5775C205.186 16.5775 205.114 16.5418 205.079 16.5132L204.972 16.4561C204.972 16.4561 204.901 16.4203 204.866 16.3918L204.716 16.306H204.695L204.674 16.2846L204.489 16.1774L204.325 16.0631L204.254 16.0202L204.112 15.9201L204.076 15.8987L204.041 15.8701L203.927 15.7844C203.927 15.7844 203.856 15.7344 203.834 15.7129L203.671 15.5771L203.799 15.7486C203.799 15.7486 203.849 15.813 203.87 15.8487L203.955 15.9559L204.005 16.0059L204.048 16.0631L204.183 16.1988L204.311 16.3489L204.638 16.6776C204.638 16.6776 204.695 16.7347 204.716 16.7633L204.816 16.8419C204.816 16.8419 204.873 16.9062 204.908 16.9277L205.008 17.0134L205.029 17.042L205.1 17.1135L205.314 17.285L205.378 17.335L205.399 17.3564L205.541 17.4636L205.605 17.5136L205.662 17.5636L205.783 17.6494C205.783 17.6494 205.868 17.7066 205.918 17.7351C205.996 17.7923 206.096 17.8423 206.174 17.9066L206.217 17.9281L206.252 17.9567L206.394 18.0281L206.43 18.0496L206.465 18.0781L206.608 18.1496L206.643 18.171L206.679 18.1996L206.821 18.2711L206.857 18.2925H206.892L207.049 18.3783H207.084L207.12 18.414L207.191 18.4497H207.219L207.191 18.4783L207.12 18.514H207.084L207.049 18.5497L206.892 18.6212H206.857L206.821 18.6569L206.75 18.6998L206.679 18.7355L206.608 18.7784L206.465 18.857L206.323 18.9428L206.252 18.9785L206.217 18.9999L206.174 19.0285C206.081 19.0857 205.996 19.1357 205.918 19.1929C205.868 19.2214 205.833 19.2572 205.783 19.2786L205.662 19.3644L205.605 19.4144L205.541 19.4644L205.399 19.5716L205.378 19.6002L205.314 19.643L205.1 19.8145L205.05 19.8646L205.029 19.8931L205.008 19.9146L204.908 20.0003C204.908 20.0003 204.851 20.0575 204.816 20.0861L204.716 20.1718C204.716 20.1718 204.659 20.229 204.638 20.2576L204.517 20.379L204.489 20.4005L204.467 20.4291L204.311 20.5863L204.183 20.7292L204.048 20.8649L204.005 20.9221L203.955 20.9721L203.87 21.0865C203.87 21.0865 203.82 21.1436 203.799 21.1794L203.671 21.3508L203.834 21.2151C203.834 21.2151 203.891 21.1722 203.927 21.1436L204.041 21.0579L204.076 21.0364L204.112 21.0079L204.183 20.965L204.254 20.915L204.29 20.8864L204.325 20.8649L204.489 20.7578L204.674 20.6434H204.695L204.716 20.622L204.866 20.5362C204.866 20.5362 204.937 20.5005 204.972 20.4719L205.079 20.4148C205.079 20.4148 205.15 20.379 205.186 20.3505L205.292 20.2933H205.314L205.342 20.2647L205.399 20.2433L205.52 20.179L205.641 20.1218L205.698 20.1004H205.733L205.769 20.0718L205.904 20.0146L205.961 19.986L206.025 19.9646L206.153 19.9146C206.153 19.9146 206.238 19.8788 206.288 19.8646C206.366 19.8288 206.465 19.8074 206.558 19.7717H206.593L206.629 19.7431L206.7 19.7216L206.778 19.6931H206.814L206.849 19.6716L206.992 19.6216H207.027L207.063 19.6002L207.134 19.5716L207.205 19.5501H207.241L207.276 19.5216L207.418 19.4858H207.489L207.561 19.4501H207.639L207.674 19.4287H207.71L207.852 19.3929H207.923L207.994 19.3644C208.087 19.3429 208.186 19.3286 208.279 19.3143C208.471 19.2786 208.663 19.2572 208.855 19.2429C208.947 19.2429 209.047 19.2214 209.139 19.2214C209.168 19.2214 209.189 19.2214 209.21 19.2214H209.417C209.786 19.1857 210.135 19.1714 210.44 19.1714C210.768 19.1714 211.116 19.1714 211.472 19.2071H211.678C211.678 19.2071 211.72 19.2357 211.749 19.2357C211.841 19.2357 211.941 19.2429 212.033 19.2572C212.225 19.2786 212.417 19.3072 212.609 19.3286C212.702 19.3429 212.801 19.3644 212.894 19.3786H212.965L213 19.4001H213.036L213.178 19.4358H213.249L213.328 19.4787H213.399L213.434 19.5001H213.47L213.612 19.5501H213.648L213.683 19.5716L213.754 19.6002L213.825 19.6216H213.861L213.896 19.643L214.039 19.6931H214.074L214.11 19.7216L214.188 19.7431L214.259 19.7717H214.295L214.33 19.7931C214.423 19.8288 214.508 19.8503 214.6 19.8931C214.65 19.9003 214.686 19.9289 214.735 19.936L214.863 19.986L214.927 20.0146L214.984 20.036L215.119 20.1004H215.155L215.191 20.1218L215.247 20.1432L215.368 20.2075L215.489 20.2647L215.546 20.2933H215.575L215.596 20.3147L215.703 20.379C215.703 20.379 215.774 20.4148 215.809 20.4362L215.916 20.5005C215.916 20.5005 215.987 20.5362 216.023 20.5577L216.122 20.622L216.172 20.6434H216.193L216.215 20.672L216.392 20.7792L216.563 20.8864L216.599 20.915L216.634 20.9364L216.776 21.0364L216.812 21.0579L216.954 21.1722C216.954 21.1722 217.032 21.2151 217.054 21.2437L217.217 21.3723L217.089 21.2079C217.089 21.2079 217.039 21.1436 217.018 21.1222V21.0936Z" fill="#AF9146"/>
<path d="M353.157 17.7707C353.157 17.7707 353.221 17.685 353.243 17.6492L353.292 17.5849L353.328 17.5277L353.349 17.492L353.378 17.4563L353.413 17.3777C353.413 17.3777 353.456 17.2848 353.484 17.2348C353.506 17.1848 353.527 17.1347 353.556 17.0919C353.577 17.0418 353.591 16.9775 353.612 16.9275V16.8918L353.641 16.8418C353.641 16.8418 353.648 16.7846 353.662 16.7489V16.5988C353.662 16.5988 353.676 16.5631 353.676 16.5559C353.676 16.5131 353.676 16.4773 353.676 16.4559C353.676 16.4202 353.676 16.3916 353.662 16.3559L353.641 16.2701C353.641 16.2701 353.627 16.2129 353.612 16.1844C353.612 16.1629 353.591 16.1272 353.591 16.0986C353.591 16.0772 353.563 16.0557 353.556 16.0272C353.556 16.0057 353.527 15.9771 353.52 15.9557L353.484 15.8842C353.435 15.7842 353.385 15.6985 353.328 15.6127C353.264 15.527 353.221 15.4412 353.157 15.3698C352.923 15.0553 352.66 14.7767 352.382 14.5051C352.24 14.3694 352.098 14.2479 351.941 14.1264C351.87 14.0692 351.785 14.0049 351.7 13.9621C351.678 13.9478 351.664 13.9335 351.643 13.9192C351.614 13.912 351.593 13.8977 351.579 13.8835L351.465 13.812L351.401 13.7763L351.344 13.7405L351.223 13.6691C351.223 13.6691 351.138 13.6191 351.095 13.6048L350.96 13.5476L350.832 13.4833C350.832 13.4833 350.747 13.4476 350.697 13.4261C350.612 13.3833 350.533 13.3475 350.434 13.3118C350.085 13.1689 349.73 13.0474 349.36 12.9474C348.99 12.8473 348.621 12.7902 348.251 12.7401C347.874 12.6901 347.497 12.6687 347.127 12.683C346.75 12.683 346.374 12.7044 346.004 12.7544C345.627 12.8045 345.257 12.8759 344.887 12.9617C344.518 13.0474 344.162 13.1689 343.814 13.2975C343.636 13.3618 343.465 13.4476 343.287 13.519C343.238 13.5476 343.202 13.5548 343.159 13.5833C343.11 13.6048 343.074 13.6191 343.024 13.6405C342.939 13.6905 342.861 13.7262 342.775 13.7763C342.441 13.9621 342.114 14.155 341.808 14.3694C341.183 14.7981 340.614 15.2983 340.087 15.8199C339.952 15.9557 339.824 16.0772 339.704 16.2129C339.49 15.97 339.284 15.7127 339.092 15.4555C338.879 15.1625 338.687 14.8838 338.509 14.6266C338.331 14.3694 338.175 14.1264 338.04 13.9335C337.769 13.5476 337.577 13.2975 337.492 13.3404C337.407 13.3761 337.428 13.6905 337.599 14.1621C337.684 14.3979 337.805 14.6766 337.954 14.9696C338.111 15.2626 338.303 15.577 338.53 15.8842C338.744 16.1772 338.971 16.4702 339.227 16.7346C339.007 16.9775 338.808 17.2348 338.601 17.4777C338.48 17.6278 338.367 17.785 338.253 17.9279C338.125 17.7493 338.004 17.5635 337.883 17.3777C337.492 16.7846 337.108 16.1629 336.774 15.5198C336.425 14.8838 336.12 14.2264 335.842 13.5548C335.828 13.519 335.807 13.469 335.792 13.4333L335.743 13.3118L335.65 13.0546V13.0188H335.629V12.9831L335.579 12.8616L335.494 12.6044L335.316 12.097L335.138 11.5825L335.053 11.3253L335.003 11.1967V11.1538L334.982 11.1681L334.961 11.2324L334.562 12.2542L334.036 13.6191C334.001 13.7048 333.965 13.7906 333.929 13.862L333.88 13.9835L333.858 14.0407L333.837 14.105L333.716 14.3479C333.716 14.3479 333.681 14.4337 333.652 14.4694L333.595 14.5909C333.51 14.7481 333.425 14.9053 333.346 15.0696C333.297 15.1411 333.261 15.2268 333.211 15.2983L333.154 15.4198L333.083 15.5413C333.033 15.6127 332.984 15.6985 332.948 15.7699L332.806 16.0057C332.756 16.0772 332.713 16.1486 332.664 16.2344L332.593 16.3487C332.593 16.3487 332.543 16.4202 332.521 16.4559L332.365 16.6774C332.365 16.6774 332.315 16.7489 332.28 16.7846L332.194 16.8918C332.088 17.0418 331.981 17.1848 331.874 17.3205L331.704 17.5277L331.625 17.6349L331.54 17.735C331.476 17.8064 331.419 17.8707 331.362 17.9422L331.334 17.9779C331.206 17.8422 331.071 17.6992 330.929 17.5778L330.836 17.4777C330.836 17.4777 330.765 17.4206 330.737 17.3777L330.538 17.1848C330.395 17.0633 330.26 16.9275 330.118 16.8203C328.98 15.8485 327.736 15.0196 326.385 14.3979C325.041 13.762 323.604 13.3261 322.118 13.1403C322.026 13.1332 321.94 13.1189 321.848 13.1046H321.706C321.706 13.1046 321.656 13.0831 321.635 13.0831H321.556L321.286 13.0546C321.187 13.0546 321.094 13.0546 321.009 13.0474C320.959 13.0474 320.916 13.0474 320.867 13.0474H320.17C320.077 13.0474 319.985 13.0474 319.9 13.0546C319.53 13.0831 319.16 13.1189 318.79 13.1689C318.413 13.2261 318.044 13.2904 317.688 13.3833C317.638 13.3833 317.589 13.4118 317.553 13.4261L317.425 13.4619L317.29 13.4976C317.29 13.4976 317.197 13.519 317.162 13.5333L316.899 13.6191C316.899 13.6191 316.813 13.6405 316.764 13.6691L316.636 13.712L316.501 13.762C316.501 13.762 316.422 13.7977 316.373 13.812C316.287 13.8477 316.195 13.8835 316.109 13.912C315.939 13.9835 315.761 14.055 315.597 14.1407C315.427 14.2122 315.263 14.3122 315.093 14.3979C315.007 14.448 314.929 14.4837 314.844 14.5337L314.602 14.6766C314.517 14.7266 314.446 14.7767 314.367 14.8267C314.332 14.8481 314.282 14.8696 314.246 14.9053L314.182 14.9482L314.126 14.9839C313.969 15.0911 313.813 15.2125 313.67 15.334C313.436 15.5412 313.208 15.7485 312.981 15.97C312.917 16.0272 312.874 16.0772 312.81 16.1415C312.76 16.1987 312.703 16.2487 312.654 16.3058C312.547 16.4345 312.454 16.5559 312.348 16.6774C312.142 16.9204 311.964 17.1848 311.793 17.4777C311.715 17.6278 311.637 17.785 311.58 17.9565C311.523 18.1208 311.487 18.3066 311.473 18.5138C311.473 18.5639 311.473 18.6139 311.473 18.6711C311.473 18.7211 311.487 18.7711 311.494 18.8211C311.494 18.864 311.523 18.914 311.53 18.9497C311.544 18.9998 311.558 19.0355 311.566 19.0855C311.63 19.257 311.701 19.4142 311.786 19.5643C311.864 19.7072 311.95 19.8501 312.049 19.9716C312.142 20.1073 312.234 20.2431 312.334 20.3646C312.426 20.4861 312.533 20.6075 312.646 20.729C312.753 20.8505 312.86 20.9648 312.966 21.072C313.18 21.2935 313.422 21.5079 313.656 21.708C313.806 21.8294 313.955 21.9509 314.111 22.0581L314.175 22.0938L314.232 22.1296C314.232 22.1296 314.318 22.1796 314.353 22.2153C314.438 22.2653 314.51 22.3153 314.595 22.3654L314.709 22.4368L314.829 22.5083C314.915 22.5583 315 22.6083 315.078 22.644C315.249 22.7298 315.42 22.8155 315.583 22.9013C315.754 22.9799 315.932 23.0585 316.095 23.13C316.181 23.1657 316.28 23.2014 316.358 23.23C316.408 23.2371 316.444 23.2657 316.493 23.2729L316.621 23.3229L316.757 23.3729C316.757 23.3729 316.842 23.4086 316.885 23.4229L317.148 23.5087C317.148 23.5087 317.233 23.5301 317.283 23.5444L317.411 23.5801L317.546 23.6159C317.546 23.6159 317.638 23.6444 317.674 23.6516C318.037 23.7516 318.406 23.8088 318.776 23.8731C319.146 23.9303 319.516 23.9588 319.885 23.9803C319.985 23.9803 320.077 23.9803 320.163 23.9946H320.852C320.852 23.9946 320.952 23.9946 320.995 23.9946C321.094 23.9946 321.187 23.9946 321.272 23.9803L321.549 23.9588H321.62C321.62 23.9588 321.67 23.9588 321.692 23.9588H321.834C321.933 23.9303 322.012 23.9231 322.111 23.9088C323.59 23.723 325.027 23.2872 326.378 22.6512C327.729 22.0224 328.98 21.2078 330.104 20.2288C330.246 20.1073 330.381 19.9859 330.523 19.8644L330.73 19.6714C330.73 19.6714 330.801 19.6071 330.822 19.5714L330.914 19.4785C331.05 19.3427 331.192 19.207 331.313 19.0712L331.334 19.1069C331.398 19.1855 331.455 19.2427 331.512 19.3142L331.597 19.4142L331.682 19.5214L331.853 19.7286C331.96 19.8787 332.066 20.0144 332.173 20.1574L332.258 20.2645C332.258 20.2645 332.301 20.3431 332.337 20.3789L332.493 20.5932C332.493 20.5932 332.543 20.6718 332.564 20.7076L332.635 20.8148C332.685 20.8862 332.735 20.9648 332.785 21.0434L332.927 21.2792C332.977 21.3507 333.019 21.4364 333.069 21.5079L333.14 21.6294L333.197 21.7508C333.247 21.8294 333.282 21.908 333.332 21.9866C333.417 22.1439 333.496 22.3011 333.581 22.4583L333.645 22.5797C333.645 22.5797 333.681 22.6655 333.702 22.7012L333.823 22.9442L333.844 23.0085L333.873 23.0656L333.915 23.1871C333.951 23.2729 333.986 23.3515 334.022 23.4372L334.548 24.7877L334.961 25.8096L334.982 25.8667C334.982 25.8667 334.982 25.9096 334.996 25.881V25.8453L335.053 25.7095L335.138 25.4523L335.316 24.945L335.494 24.4305L335.579 24.1804L335.629 24.0517V24.0303H335.636V23.9803L335.743 23.723L335.792 23.6016C335.792 23.6016 335.828 23.5158 335.842 23.4801C336.12 22.8155 336.425 22.1653 336.774 21.5222C337.122 20.8862 337.492 20.2645 337.883 19.6572C338.004 19.4785 338.139 19.2927 338.253 19.1069C338.374 19.257 338.48 19.4142 338.601 19.5643C338.808 19.8144 339.007 20.0573 339.227 20.3074C338.985 20.5718 338.744 20.8648 338.53 21.1577C338.303 21.4579 338.111 21.7794 337.954 22.0724C337.805 22.3654 337.684 22.644 337.599 22.8727C337.428 23.3515 337.392 23.6659 337.492 23.7016C337.584 23.7373 337.776 23.4944 338.04 23.1085C338.175 22.9084 338.338 22.6655 338.509 22.4082C338.687 22.1581 338.879 21.8723 339.092 21.5793C339.284 21.3292 339.49 21.072 339.704 20.829C339.832 20.9648 339.952 21.0934 340.087 21.2149C340.614 21.7437 341.183 22.2439 341.808 22.6655C342.114 22.887 342.441 23.0799 342.775 23.2657C342.861 23.3157 342.939 23.3515 343.024 23.3943C343.074 23.4229 343.11 23.4372 343.159 23.4587C343.202 23.4801 343.238 23.4944 343.287 23.5158C343.458 23.5944 343.636 23.6802 343.814 23.7373C344.169 23.8731 344.532 23.9803 344.887 24.0803C345.257 24.1661 345.627 24.2375 346.004 24.2876C346.374 24.3376 346.75 24.359 347.127 24.359C347.497 24.359 347.874 24.3376 348.251 24.3018C348.621 24.2518 348.99 24.1875 349.36 24.0946C349.73 23.9946 350.085 23.8731 350.434 23.723C350.519 23.6873 350.612 23.6516 350.697 23.6159C350.747 23.5944 350.782 23.5801 350.832 23.5587L350.96 23.4944L351.095 23.4372C351.095 23.4372 351.173 23.3872 351.223 23.3729L351.344 23.3014L351.401 23.2657L351.465 23.23L351.579 23.1514C351.579 23.1514 351.629 23.13 351.643 23.1157C351.664 23.1085 351.693 23.0942 351.7 23.0799C351.785 23.0228 351.87 22.9727 351.941 22.9084C352.098 22.787 352.24 22.6655 352.382 22.5297C352.66 22.2653 352.923 21.9866 353.157 21.6651C353.221 21.5793 353.278 21.5079 353.328 21.4221C353.385 21.3364 353.435 21.2506 353.484 21.1577L353.52 21.0863C353.52 21.0863 353.541 21.0363 353.556 21.0077C353.556 20.9862 353.577 20.9648 353.591 20.9362C353.591 20.9148 353.612 20.8862 353.612 20.8505C353.612 20.829 353.627 20.7933 353.641 20.7647L353.662 20.679C353.662 20.679 353.662 20.6218 353.676 20.5861C353.676 20.5504 353.676 20.5075 353.676 20.4861C353.676 20.4718 353.676 20.4503 353.676 20.436V20.2931C353.676 20.2931 353.648 20.2288 353.641 20.1931V20.1431L353.612 20.1073C353.612 20.1073 353.577 20.0001 353.556 19.9501C353.527 19.9001 353.506 19.8501 353.484 19.8072C353.456 19.7572 353.435 19.7072 353.413 19.6572L353.378 19.5857L353.349 19.55L353.328 19.5142L353.292 19.4499L353.243 19.3928C353.243 19.3928 353.186 19.307 353.157 19.2713C352.965 18.9998 352.752 18.7711 352.524 18.5496C352.752 18.3281 352.965 18.0851 353.157 17.835V17.7707ZM330.402 18.914L330.31 19.014C330.31 19.014 330.246 19.0712 330.21 19.1069L330.018 19.2927C329.89 19.4142 329.755 19.5357 329.613 19.6429C328.525 20.5718 327.331 21.365 326.043 21.9724C324.763 22.5726 323.391 22.9942 321.99 23.1657C321.905 23.18 321.812 23.1871 321.727 23.1871H321.592C321.592 23.1871 321.549 23.2157 321.535 23.2157H321.464L321.201 23.2371C321.116 23.2371 321.023 23.2371 320.938 23.2371C320.888 23.2371 320.852 23.2371 320.81 23.2371H320.148C320.063 23.2371 319.971 23.2371 319.885 23.23C319.537 23.2014 319.181 23.18 318.833 23.1157C318.485 23.0656 318.143 22.9942 317.809 22.9084C317.759 22.9084 317.724 22.887 317.674 22.8727L317.546 22.837L317.411 22.8013C317.411 22.8013 317.325 22.7798 317.283 22.7655L317.027 22.6798C317.027 22.6798 316.949 22.6512 316.913 22.644L316.671 22.544C316.671 22.544 316.586 22.5083 316.55 22.494C316.465 22.4583 316.387 22.4368 316.301 22.4011C316.131 22.3225 315.981 22.2653 315.825 22.1796C315.669 22.1081 315.512 22.0224 315.341 21.9509C315.263 21.908 315.192 21.8652 315.121 21.8294L315 21.7651L314.893 21.6937L314.666 21.5579C314.666 21.5579 314.595 21.5079 314.559 21.4864L314.46 21.415C314.318 21.315 314.182 21.2078 314.054 21.0934C313.827 20.9148 313.614 20.7076 313.407 20.5075C313.301 20.4146 313.208 20.3074 313.109 20.1931C313.016 20.0859 312.917 19.9716 312.831 19.8644C312.739 19.7572 312.654 19.6357 312.582 19.5214C312.497 19.3999 312.426 19.2927 312.369 19.1713C312.312 19.0498 312.248 18.9283 312.213 18.8211C312.177 18.6996 312.156 18.5853 312.156 18.4924C312.156 18.3924 312.177 18.2852 312.213 18.1637C312.248 18.0351 312.312 17.9136 312.383 17.7921C312.511 17.5492 312.682 17.3205 312.86 17.099C312.952 16.9918 313.038 16.8846 313.13 16.7703C313.18 16.7203 313.23 16.6631 313.279 16.6131C313.322 16.5631 313.372 16.5059 313.436 16.4559C313.635 16.2487 313.848 16.0557 314.076 15.8557C314.211 15.7485 314.353 15.6413 314.481 15.5413L314.581 15.4698C314.581 15.4698 314.652 15.4198 314.687 15.3983L314.915 15.2626L315.021 15.1911L315.142 15.1268C315.213 15.0911 315.299 15.0411 315.37 15.0053C315.526 14.9196 315.683 14.8481 315.846 14.7767C316.003 14.6981 316.166 14.6266 316.323 14.5551C316.408 14.5194 316.493 14.4908 316.579 14.4551C316.614 14.448 316.657 14.4194 316.693 14.4122L316.934 14.3122C316.934 14.3122 317.02 14.2908 317.055 14.2765L317.304 14.1907C317.304 14.1907 317.389 14.1621 317.439 14.155L317.567 14.1193L317.702 14.0835C317.702 14.0835 317.781 14.055 317.83 14.0407C318.165 13.9621 318.513 13.8835 318.861 13.8334C319.203 13.7906 319.551 13.7548 319.907 13.7262C319.992 13.7262 320.092 13.7262 320.17 13.7262H320.831C320.831 13.7262 320.916 13.7262 320.959 13.7262C321.044 13.7262 321.144 13.7262 321.222 13.7262L321.485 13.7548H321.62L321.748 13.7763C321.834 13.7763 321.933 13.7906 322.012 13.7977C323.412 13.9692 324.785 14.3979 326.065 14.991C327.359 15.5913 328.554 16.3844 329.642 17.3205C329.77 17.4277 329.905 17.5492 330.047 17.6707L330.239 17.8564C330.239 17.8564 330.296 17.9136 330.331 17.9565L330.431 18.0494C330.573 18.1851 330.701 18.3281 330.836 18.4638C330.701 18.6139 330.559 18.7425 330.431 18.8783L330.402 18.914ZM337.286 19.2427C336.88 19.8644 336.496 20.5003 336.141 21.1577C335.778 21.8151 335.458 22.4868 335.174 23.18C335.145 23.23 335.138 23.2657 335.11 23.3157L335.067 23.4444L334.961 23.7016L334.932 23.7659V23.8016L334.662 23.1085C334.619 23.0228 334.584 22.937 334.548 22.8513L334.491 22.7155L334.47 22.6512L334.441 22.594L334.321 22.3368C334.321 22.3368 334.285 22.251 334.264 22.2153L334.207 22.0938C334.121 21.9223 334.036 21.7651 333.944 21.5936C333.894 21.5079 333.844 21.4364 333.809 21.3507L333.666 21.1077C333.617 21.022 333.574 20.9505 333.524 20.8648L333.382 20.6218C333.332 20.5361 333.282 20.4646 333.225 20.386L333.154 20.2645C333.154 20.2645 333.105 20.1931 333.069 20.1431L332.913 19.9144C332.913 19.9144 332.856 19.8429 332.827 19.8072L332.749 19.6929C332.635 19.5357 332.521 19.3928 332.415 19.2427L332.23 19.0283L332.152 18.914L332.052 18.8068C331.995 18.7354 331.931 18.6568 331.874 18.5853L331.803 18.4996L331.874 18.4138C331.931 18.3424 331.995 18.2709 332.052 18.1994L332.152 18.0851L332.23 17.9779C332.294 17.9065 332.351 17.835 332.415 17.7564C332.521 17.6135 332.635 17.4634 332.749 17.3062L332.827 17.199C332.827 17.199 332.891 17.1276 332.913 17.0919L333.069 16.8561C333.069 16.8561 333.119 16.7846 333.154 16.7346L333.225 16.6131C333.275 16.5416 333.332 16.4559 333.382 16.3844L333.524 16.1415C333.574 16.0557 333.617 15.9771 333.666 15.8985L333.737 15.7699L333.809 15.6484C333.858 15.5627 333.908 15.4912 333.944 15.4055C334.022 15.234 334.121 15.0768 334.207 14.9053L334.264 14.7838C334.264 14.7838 334.313 14.6981 334.321 14.6623L334.441 14.4122L334.47 14.3479L334.491 14.2908L334.548 14.155C334.584 14.0692 334.633 13.9835 334.662 13.8977L334.932 13.2046V13.2261H334.946L334.968 13.2975L335.074 13.5548L335.124 13.6905C335.124 13.6905 335.16 13.7763 335.181 13.8263C335.473 14.5194 335.792 15.1911 336.155 15.8485C336.511 16.5059 336.895 17.1347 337.3 17.7564C337.464 18.0137 337.634 18.2566 337.812 18.4996C337.634 18.7425 337.464 18.9998 337.3 19.2427H337.286ZM339.704 19.7786C339.512 19.5643 339.334 19.3285 339.142 19.0998C338.985 18.8997 338.829 18.6996 338.672 18.4924C338.829 18.2852 338.985 18.0851 339.142 17.8779C339.32 17.6492 339.512 17.4277 339.704 17.199C340.166 17.6635 340.671 18.0994 341.211 18.4781C340.671 18.864 340.166 19.2927 339.704 19.7572V19.7786ZM352.596 19.6572C352.596 19.6572 352.645 19.7286 352.667 19.7572L352.702 19.8072L352.738 19.8501V19.8787L352.78 19.9001L352.816 19.9501C352.816 19.9501 352.852 20.0216 352.859 20.0502C352.873 20.0859 352.894 20.1216 352.908 20.1431C352.908 20.1788 352.93 20.2074 352.944 20.2431C352.965 20.3074 352.965 20.3646 352.965 20.4003V20.5218C352.965 20.5218 352.944 20.5575 352.93 20.5718C352.908 20.6361 352.887 20.7076 352.852 20.7647C352.816 20.8433 352.78 20.9005 352.731 20.972C352.681 21.0434 352.631 21.1077 352.588 21.1792C352.382 21.4507 352.141 21.708 351.892 21.9509C351.764 22.0724 351.629 22.1796 351.501 22.2868C351.429 22.3368 351.365 22.3868 351.294 22.4368C351.28 22.4368 351.259 22.4583 351.245 22.4726C351.237 22.4726 351.209 22.494 351.202 22.5083L351.095 22.5797L351.031 22.6155L350.974 22.6512L350.868 22.7155C350.868 22.7155 350.797 22.7512 350.747 22.7798L350.626 22.837L350.505 22.9013C350.505 22.9013 350.42 22.937 350.384 22.9585C350.306 22.9942 350.235 23.0299 350.149 23.0585C349.822 23.1871 349.502 23.3014 349.168 23.3872C348.834 23.4729 348.485 23.5301 348.137 23.5801C347.796 23.6301 347.447 23.6444 347.099 23.6444C346.75 23.6444 346.409 23.6159 346.061 23.5801C345.712 23.5301 345.364 23.4729 345.03 23.3872C344.695 23.3014 344.361 23.2014 344.041 23.0656C343.871 23.0085 343.721 22.937 343.565 22.8584C343.529 22.8513 343.479 22.8227 343.444 22.8013C343.408 22.7798 343.359 22.7655 343.323 22.7369C343.252 22.7012 343.167 22.6655 343.095 22.6155C342.783 22.444 342.484 22.2653 342.199 22.0724C341.623 21.6651 341.076 21.2078 340.571 20.7076C340.443 20.5718 340.315 20.436 340.18 20.3074C340.692 19.7929 341.254 19.3142 341.851 18.914C342.477 19.307 343.131 19.6357 343.828 19.893C344.532 20.1574 345.257 20.3431 346.004 20.436C346.743 20.5361 347.504 20.5504 348.258 20.436C349.012 20.3431 349.744 20.1431 350.448 19.8429C350.797 19.6929 351.131 19.5214 351.465 19.3285L351.579 19.257C351.579 19.257 351.629 19.2356 351.643 19.2213C351.664 19.207 351.693 19.1927 351.7 19.1855C351.785 19.1212 351.87 19.0712 351.941 19.014L351.991 18.9783C352.205 19.1927 352.418 19.4142 352.596 19.6572ZM342.534 18.4996C343.024 18.2209 343.536 17.9779 344.062 17.785C344.724 17.542 345.399 17.3705 346.096 17.2705C346.786 17.1848 347.483 17.1705 348.173 17.2705C348.855 17.3563 349.538 17.542 350.171 17.8207C350.491 17.9565 350.804 18.1137 351.102 18.2923L351.209 18.3709L351.259 18.4067C351.259 18.4067 351.294 18.4281 351.309 18.4424C351.358 18.4638 351.394 18.4996 351.437 18.5353C351.394 18.571 351.358 18.5996 351.309 18.6353C351.294 18.6353 351.273 18.6568 351.259 18.6711L351.209 18.7068L351.102 18.7782C350.804 18.964 350.491 19.1212 350.171 19.257C349.538 19.5214 348.855 19.7072 348.173 19.8072C347.483 19.893 346.786 19.893 346.096 19.8072C345.399 19.7215 344.724 19.5357 344.062 19.2927C343.536 19.0998 343.024 18.8568 342.534 18.571V18.4996ZM352.596 17.342C352.418 17.5849 352.219 17.8064 351.991 18.0279L351.941 17.9922C351.87 17.9279 351.785 17.8707 351.7 17.8207C351.678 17.8064 351.664 17.7921 351.643 17.785C351.614 17.7707 351.593 17.7564 351.579 17.7493L351.465 17.6707C351.138 17.4777 350.797 17.3062 350.448 17.1633C349.751 16.8561 349.012 16.6631 348.258 16.5631C347.504 16.4702 346.75 16.4773 346.004 16.5631C345.257 16.6631 344.518 16.8418 343.828 17.1133C343.145 17.3705 342.477 17.6992 341.851 18.0851C341.254 17.685 340.692 17.2133 340.18 16.6988C340.308 16.5631 340.443 16.4345 340.571 16.2987C341.076 15.7985 341.623 15.334 342.199 14.9339C342.484 14.7266 342.783 14.5409 343.095 14.3837C343.167 14.3479 343.252 14.2979 343.323 14.2622C343.359 14.2407 343.408 14.2264 343.444 14.205C343.479 14.1764 343.529 14.1621 343.565 14.1407C343.721 14.0692 343.885 13.9978 344.041 13.9335C344.361 13.812 344.695 13.7048 345.03 13.6191C345.364 13.5333 345.712 13.469 346.061 13.4261C346.409 13.3761 346.75 13.3618 347.099 13.3618C347.447 13.3618 347.796 13.3761 348.137 13.4261C348.485 13.4619 348.82 13.5333 349.168 13.6191C349.502 13.7048 349.837 13.812 350.149 13.9478C350.235 13.9835 350.306 14.0192 350.384 14.0407C350.42 14.055 350.469 14.0835 350.505 14.105L350.626 14.1621L350.747 14.2264C350.747 14.2264 350.818 14.2622 350.868 14.2908L350.974 14.3479L351.031 14.3837L351.095 14.4194L351.202 14.4908C351.202 14.4908 351.237 14.5194 351.245 14.5337C351.259 14.5337 351.28 14.5551 351.294 14.5694C351.365 14.6195 351.429 14.6623 351.501 14.7124C351.629 14.8267 351.764 14.9339 351.892 15.0553C352.141 15.284 352.382 15.5413 352.588 15.8199C352.631 15.8985 352.681 15.9557 352.731 16.0272C352.78 16.0986 352.816 16.1629 352.852 16.2344C352.887 16.3058 352.908 16.3701 352.93 16.4345C352.93 16.4416 352.93 16.4702 352.944 16.4773V16.5988C352.944 16.5988 352.944 16.6988 352.944 16.7632C352.944 16.7989 352.923 16.8203 352.908 16.8561C352.894 16.8918 352.887 16.9275 352.859 16.9561C352.852 16.9918 352.823 17.0275 352.816 17.049L352.78 17.099V17.1276L352.738 17.149L352.667 17.2491C352.667 17.2491 352.624 17.3205 352.596 17.342Z" fill="#AF9146"/>
<path d="M382.155 17.9928C381.978 17.6641 381.643 17.4283 381.231 17.4283C380.826 17.4283 380.491 17.6498 380.314 17.9928H376.559C376.367 17.5426 375.94 17.2354 375.428 17.2354C374.746 17.2354 374.184 17.7927 374.184 18.5001C374.184 19.2076 374.732 19.7721 375.428 19.7721C375.926 19.7721 376.367 19.4505 376.559 19.0146H380.314C380.491 19.3433 380.826 19.572 381.231 19.572C381.643 19.572 381.978 19.3576 382.155 19.0146H579V17.9999H382.155V17.9928Z" fill="#AF9146"/>
<path d="M361.932 20.1367C362.65 19.3435 363.596 18.7576 364.655 18.5003C363.596 18.2431 362.65 17.6643 361.932 16.8711C361.583 17.5499 354.949 18.1216 354.294 18.5003C354.949 18.879 361.583 19.4507 361.932 20.1367Z" fill="#AF9146"/>
<path d="M375.13 21.0937L375.045 20.9866L375.016 20.9651L374.995 20.9365L374.945 20.8794L374.888 20.8151L374.817 20.7436L374.682 20.5935L374.504 20.4149L374.483 20.3863L374.362 20.2648C374.362 20.2648 374.305 20.2077 374.277 20.1791L374.184 20.1005C374.184 20.1005 374.12 20.0362 374.085 20.0147L373.992 19.929L373.971 19.9004L373.943 19.879L373.893 19.829L373.68 19.6575L373.623 19.6074L373.594 19.586L373.573 19.5646L373.452 19.4788C373.452 19.4788 373.416 19.4502 373.395 19.4288L373.331 19.3788L373.217 19.293C373.217 19.293 373.132 19.2359 373.082 19.2073C372.997 19.1501 372.904 19.1001 372.819 19.0358L372.784 19.0143L372.748 18.9858L372.606 18.9143L372.57 18.8929L372.535 18.8643L372.392 18.7928L372.357 18.7714L372.321 18.7428L372.243 18.7071L372.172 18.6714L372.136 18.6499H372.101L371.944 18.5642H371.909L371.873 18.5284L371.802 18.4927H371.781L371.802 18.4641L371.873 18.4284H371.909L371.944 18.3927L372.101 18.3212H372.136L372.172 18.2855L372.243 18.2426L372.321 18.2069L372.392 18.164L372.535 18.0854L372.57 18.064L372.606 18.0354L372.748 17.9639L372.784 17.9425L372.819 17.9139C372.919 17.8567 372.997 17.8067 373.082 17.7496C373.132 17.721 373.168 17.6853 373.217 17.6638L373.331 17.5781L373.395 17.528L373.452 17.478L373.573 17.3923L373.623 17.3423L373.68 17.2994L373.893 17.1279L373.992 17.0279L374.085 16.9421C374.085 16.9421 374.149 16.8849 374.184 16.8564L374.277 16.7706C374.277 16.7706 374.341 16.7134 374.362 16.6849L374.504 16.5419L374.526 16.5134L374.682 16.3562L374.817 16.2132L374.888 16.1418L374.945 16.0775L374.995 16.0203L375.016 15.9917L375.045 15.9703L375.13 15.856C375.13 15.856 375.173 15.7988 375.201 15.7631L375.329 15.5916L375.166 15.7273C375.166 15.7273 375.102 15.7702 375.066 15.7988L374.96 15.8845L374.924 15.906L374.888 15.9346L374.817 15.9774L374.746 16.0275L374.711 16.056L374.675 16.0775L374.504 16.1847L374.327 16.299H374.305L374.277 16.3204L374.227 16.349L374.135 16.4062C374.135 16.4062 374.064 16.4419 374.028 16.4705L373.921 16.5277C373.921 16.5277 373.85 16.5634 373.815 16.592L373.708 16.6491H373.68L373.658 16.6777L373.594 16.6991L373.48 16.7635L373.36 16.8206L373.296 16.8421H373.26L373.224 16.8706L373.032 16.9564L372.976 16.9778L372.848 17.0279C372.848 17.0279 372.762 17.0636 372.712 17.0779C372.627 17.1136 372.535 17.135 372.435 17.1708H372.4L372.364 17.1993L372.293 17.2208L372.222 17.2494H372.186L372.151 17.2708L372.008 17.3208H371.973L371.937 17.3423L371.866 17.3708L371.795 17.3923H371.76L371.724 17.4209L371.575 17.4566H371.504L371.433 17.4923H371.361L371.326 17.5138H371.29L371.148 17.5495H371.077L371.006 17.5781C370.906 17.5995 370.814 17.6138 370.714 17.6281C370.522 17.6638 370.337 17.6853 370.145 17.6995C370.046 17.6995 369.953 17.721 369.854 17.721C369.833 17.721 369.811 17.721 369.783 17.721H369.584C369.214 17.7567 368.865 17.771 368.553 17.771C368.233 17.771 367.884 17.771 367.529 17.7353H367.322C367.322 17.7353 367.273 17.7067 367.251 17.7067C367.152 17.7067 367.059 17.6995 366.967 17.6853C366.775 17.6638 366.583 17.6352 366.391 17.6138C366.291 17.5995 366.199 17.5781 366.106 17.5638H366.035L365.993 17.5423H365.957L365.815 17.4995H365.744L365.673 17.4637H365.602L365.566 17.4423H365.53L365.388 17.3923H365.353L365.317 17.3708L365.246 17.3423L365.168 17.3208H365.132L365.097 17.2994L364.954 17.2494H364.919L364.883 17.2208L364.812 17.1993L364.741 17.1708H364.706L364.67 17.1493C364.57 17.1136 364.492 17.0922 364.393 17.0493C364.35 17.0421 364.307 17.0136 364.265 17.0064L364.13 16.9564L364.073 16.9278L364.009 16.9064L363.881 16.8421H363.845L363.81 16.8206L363.746 16.7992L363.632 16.7349L363.511 16.6777L363.447 16.6491H363.426L363.404 16.6277L363.298 16.5634C363.298 16.5634 363.227 16.5277 363.191 16.5062L363.077 16.4419C363.077 16.4419 363.006 16.4062 362.971 16.3847L362.878 16.3204L362.828 16.299H362.807L362.779 16.2704L362.601 16.1632L362.437 16.056L362.402 16.0275L362.366 16.006L362.288 15.956L362.217 15.906L362.181 15.8845L362.039 15.7702C362.039 15.7702 361.968 15.7273 361.947 15.6988L361.776 15.563L361.911 15.7345C361.911 15.7345 361.954 15.7988 361.982 15.8202L362.067 15.9346L362.11 15.9774L362.16 16.0417L362.217 16.0989L362.252 16.1418L362.288 16.1775L362.423 16.3204L362.579 16.4776L362.601 16.5062L362.629 16.5277L362.665 16.5634L362.743 16.6491C362.743 16.6491 362.807 16.7134 362.828 16.7349L362.928 16.8206C362.928 16.8206 362.985 16.8849 363.02 16.9064L363.113 16.9921L363.141 17.0136L363.163 17.0421L363.212 17.0922L363.319 17.1708L363.426 17.2565L363.49 17.3065L363.511 17.3351L363.532 17.3566L363.653 17.4423L363.71 17.4923L363.774 17.5423L363.895 17.6281C363.895 17.6281 363.973 17.6853 364.023 17.7067C364.108 17.771 364.201 17.821 364.286 17.8782L364.322 17.9068L364.357 17.9282L364.499 17.9997L364.535 18.0282L364.57 18.0497L364.72 18.1211L364.755 18.1497L364.791 18.1712L364.933 18.2426L364.969 18.2712H365.004L365.161 18.3569H365.196L365.232 18.3927L365.303 18.4284H365.324L365.303 18.4498L365.232 18.4927H365.196L365.161 18.5284L365.004 18.5999H364.969L364.933 18.6356L364.791 18.7071L364.755 18.7357L364.72 18.7571L364.57 18.8286L364.535 18.8571L364.499 18.8786L364.357 18.95L364.322 18.9786L364.286 19.0001C364.194 19.0644 364.108 19.1072 364.023 19.1716C363.973 19.193 363.938 19.2359 363.895 19.2573L363.774 19.343L363.71 19.3931L363.653 19.4359L363.532 19.5217L363.511 19.5503L363.49 19.5717L363.426 19.6217L363.212 19.7932L363.113 19.8933L363.02 19.9719C363.02 19.9719 362.963 20.0362 362.928 20.0576L362.828 20.1434C362.828 20.1434 362.771 20.2077 362.743 20.2291L362.665 20.3149L362.423 20.5578L362.288 20.7079L362.217 20.7793L362.16 20.8436L362.11 20.9008L362.089 20.9222L362.067 20.9508L361.982 21.058C361.982 21.058 361.932 21.1223 361.911 21.1438L361.776 21.3153L361.947 21.1795C361.947 21.1795 362.003 21.1295 362.039 21.108L362.146 21.0223L362.181 21.0008L362.217 20.9723L362.288 20.9222L362.366 20.8794L362.402 20.8508L362.437 20.8293L362.601 20.715L362.779 20.6078H362.807L362.828 20.5864L362.878 20.5578L362.971 20.5006C362.971 20.5006 363.042 20.4649 363.077 20.4363L363.191 20.3792C363.191 20.3792 363.262 20.3434 363.298 20.3149L363.404 20.2577H363.426L363.447 20.2291L363.511 20.2077L363.632 20.1434L363.746 20.0862L363.81 20.0576H363.845L363.881 20.0362L364.009 19.9719L364.073 19.9504L364.13 19.929L364.265 19.879C364.265 19.879 364.35 19.8432 364.393 19.829C364.478 19.7932 364.57 19.7718 364.67 19.7289H364.706L364.741 19.7075L364.812 19.686L364.883 19.6575H364.919L364.954 19.636L365.097 19.586H365.132L365.168 19.5646L365.246 19.536L365.317 19.5145H365.353L365.388 19.486L365.53 19.4502H365.602L365.673 19.4145H365.744L365.779 19.3931H365.815L365.957 19.3573H366.035L366.106 19.3288C366.199 19.3073 366.291 19.293 366.391 19.2787C366.583 19.243 366.775 19.2216 366.967 19.2073C367.059 19.2073 367.152 19.1858 367.251 19.1858C367.273 19.1858 367.301 19.1858 367.322 19.1858H367.529C367.898 19.1501 368.24 19.1358 368.553 19.1358C368.88 19.1358 369.221 19.1358 369.584 19.1716H369.783C369.783 19.1716 369.833 19.193 369.854 19.193C369.953 19.193 370.046 19.2073 370.145 19.2216C370.337 19.243 370.522 19.2716 370.714 19.293C370.814 19.3073 370.906 19.3288 371.006 19.343H371.077L371.113 19.3645H371.148L371.29 19.4002H371.361L371.433 19.4359H371.504L371.539 19.4645H371.575L371.724 19.5145H371.76L371.795 19.536L371.866 19.5646L371.937 19.586H371.973L372.008 19.6074L372.151 19.6575H372.186L372.222 19.686L372.364 19.7289H372.4L372.435 19.7575C372.535 19.7932 372.62 19.8147 372.712 19.8504C372.762 19.8647 372.798 19.8933 372.848 19.9004L372.976 19.9504L373.032 19.9719L373.224 20.0576H373.26L373.296 20.0862L373.36 20.1076L373.48 20.1719L373.594 20.2291L373.658 20.2577H373.68L373.708 20.2791L373.815 20.3434C373.815 20.3434 373.886 20.3792 373.921 20.4006L374.028 20.4649C374.028 20.4649 374.099 20.5006 374.135 20.5221L374.227 20.5864L374.277 20.6078H374.305L374.327 20.6364L374.504 20.7436L374.675 20.8508L374.711 20.8794L374.746 20.9008L374.888 21.0008L374.96 21.0437L375.066 21.1295C375.066 21.1295 375.137 21.1795 375.166 21.2081L375.329 21.3367L375.201 21.1723C375.201 21.1723 375.152 21.108 375.13 21.0723V21.0937Z" fill="#AF9146"/>
<mask id="mask0_71_6748" style="mask-type:luminance" maskUnits="userSpaceOnUse" x="284" y="0" width="21" height="16">
<path d="M284.067 0H304.091V15.0631H284.067V0Z" fill="white"/>
</mask>
<g mask="url(#mask0_71_6748)">
<path d="M285.432 5.00942L285.454 5.18807L285.475 5.37385V5.4596L285.511 5.54535L285.596 5.90978C285.631 6.03125 285.653 6.13844 285.688 6.25992L285.717 6.34566C285.717 6.34566 285.731 6.40998 285.738 6.43141L285.802 6.60291L285.859 6.7744C285.859 6.7744 285.88 6.83157 285.895 6.86015L285.93 6.9459L286.065 7.28175C286.108 7.39608 286.158 7.50326 286.215 7.61759L286.25 7.6962C286.25 7.6962 286.279 7.76051 286.293 7.78194L286.371 7.94629L286.456 8.1035C286.456 8.1035 286.478 8.14637 286.506 8.18925L286.549 8.275L286.734 8.58941C286.79 8.69659 286.862 8.79663 286.933 8.88952C286.968 8.93954 286.997 8.98956 287.039 9.03958L287.153 9.1825L287.26 9.33255C287.26 9.33255 287.295 9.38257 287.317 9.40401L287.374 9.47547L287.601 9.75415C287.686 9.85419 287.772 9.93994 287.843 10.0257C288.177 10.3758 288.526 10.7188 288.895 11.0261C288.945 11.0618 288.988 11.0975 289.038 11.1333L289.18 11.2404L289.322 11.3548C289.322 11.3548 289.422 11.4262 289.471 11.462L289.77 11.6692C289.77 11.6692 289.862 11.7335 289.919 11.7692L290.076 11.8621L290.232 11.9622C290.232 11.9622 290.339 12.0265 290.389 12.0479C290.495 12.1051 290.595 12.1694 290.701 12.2266C290.915 12.3409 291.121 12.4624 291.341 12.5553C291.562 12.6696 291.775 12.7553 292.003 12.8482C292.109 12.8982 292.23 12.934 292.337 12.984L292.508 13.0483L292.671 13.1055H292.693C292.899 13.1912 293.105 13.2555 293.304 13.3127C293.546 13.3841 293.795 13.4628 294.037 13.5199L294.378 13.6057C294.499 13.6271 294.605 13.6557 294.726 13.6914L294.897 13.7271C294.897 13.7271 295.011 13.7557 295.075 13.7629L295.423 13.8343C296.355 14.0058 297.293 14.1202 298.239 14.1559C298.481 14.163 298.708 14.163 298.943 14.1773C299.185 14.1773 299.412 14.1773 299.654 14.1773C300.116 14.1773 300.593 14.1559 301.062 14.1202C301.539 14.0844 301.972 13.9987 302.271 13.8986C302.57 13.7986 302.747 13.6914 302.733 13.6057C302.726 13.5199 302.52 13.4628 302.207 13.4485C301.901 13.427 301.482 13.4485 301.012 13.4699C300.557 13.5056 300.095 13.5342 299.64 13.5342C299.412 13.5342 299.185 13.5342 298.943 13.5342C298.716 13.5342 298.495 13.5342 298.253 13.5056C297.336 13.4699 296.426 13.3627 295.516 13.2055L295.181 13.1412C295.181 13.1412 295.075 13.1198 295.011 13.1055L294.847 13.0697C294.74 13.0483 294.62 13.0197 294.513 12.9983L294.179 12.9125C293.965 12.8482 293.745 12.7911 293.517 12.7267C293.553 12.6339 293.589 12.5481 293.617 12.4624L293.724 12.1051C293.724 12.1051 293.759 11.9836 293.773 11.9407L293.816 11.7692C293.816 11.7692 293.852 11.6477 293.866 11.5977L293.916 11.4119C293.937 11.2905 293.973 11.1833 294.001 11.0618L294.072 10.7045L294.129 10.3401C294.2 9.85419 294.236 9.36828 294.25 8.88238C294.25 8.39647 294.229 7.90342 294.165 7.41751L294.115 7.05309C294.093 6.93161 294.072 6.81013 294.044 6.68866C294.022 6.56718 294.001 6.4457 293.965 6.33852C293.937 6.2099 293.901 6.08842 293.866 5.98124C293.738 5.50962 293.567 5.04515 293.368 4.60927C293.269 4.37346 293.148 4.16624 293.041 3.94472L292.863 3.63031L292.813 3.54456L292.764 3.47311L292.671 3.3159C292.145 2.50129 291.477 1.76529 290.701 1.15791C290.602 1.08645 290.509 1.01499 290.403 0.936392C290.303 0.864935 290.197 0.807769 290.104 0.736314C289.898 0.600546 289.685 0.47907 289.457 0.364739C289.23 0.257553 289.002 0.171807 288.753 0.100349C288.497 0.0288933 288.248 -0.00683594 287.985 -0.00683594C287.722 -0.00683594 287.452 0.0288929 287.189 0.121786C286.926 0.207534 286.684 0.357594 286.478 0.536235C286.279 0.722021 286.108 0.929248 285.966 1.14362C285.838 1.36513 285.731 1.60808 285.631 1.85104C285.546 2.09399 285.475 2.33694 285.439 2.58704C285.418 2.70852 285.39 2.83 285.383 2.95862C285.368 3.08009 285.354 3.20871 285.347 3.33019C285.311 3.8161 285.319 4.31629 285.383 4.80935C285.383 4.87366 285.383 4.93797 285.404 4.99513L285.432 5.00942ZM286.001 3.38736C286.001 3.28017 286.015 3.1587 286.03 3.04437C286.037 2.93718 286.051 2.82999 286.072 2.71566C286.108 2.50129 286.172 2.29407 286.243 2.08685C286.314 1.87962 286.406 1.67954 286.513 1.5009C286.627 1.31511 286.755 1.15791 286.897 1.03643C287.196 0.772043 287.566 0.650566 287.971 0.650566C288.383 0.650566 288.789 0.779187 289.18 0.964975C289.372 1.06501 289.578 1.1722 289.756 1.29368C289.848 1.35084 289.948 1.41515 290.033 1.47232C290.126 1.53663 290.211 1.60808 290.303 1.6724C291.007 2.21547 291.633 2.90145 292.124 3.66604L292.216 3.8161L292.316 3.95901L292.479 4.25198C292.586 4.45921 292.693 4.65214 292.778 4.85936C292.97 5.27382 293.126 5.70255 293.247 6.15273C293.283 6.25992 293.304 6.37425 293.325 6.48143C293.354 6.58862 293.389 6.70295 293.404 6.81013C293.425 6.91732 293.446 7.03165 293.461 7.15313L293.51 7.48897C293.567 7.94629 293.589 8.40362 293.581 8.86809C293.581 9.33256 293.532 9.78273 293.475 10.2472L293.411 10.583L293.34 10.926C293.318 11.0332 293.29 11.1476 293.269 11.269L293.233 11.4405C293.233 11.4405 293.197 11.5477 293.183 11.612L293.141 11.7764C293.141 11.7764 293.105 11.8907 293.091 11.9479L292.984 12.2766C292.949 12.3766 292.913 12.4767 292.877 12.5553L292.828 12.5338L292.671 12.4766L292.515 12.4123C292.408 12.3766 292.301 12.3266 292.195 12.2909C291.989 12.1908 291.775 12.1051 291.569 12.0122C291.37 11.9121 291.164 11.805 290.965 11.7049C290.865 11.6478 290.758 11.5977 290.666 11.5334C290.616 11.512 290.566 11.4763 290.517 11.4477L290.374 11.3619L290.232 11.2833C290.232 11.2833 290.14 11.219 290.09 11.1833L289.813 10.9903C289.813 10.9903 289.72 10.926 289.685 10.8903L289.55 10.7903L289.422 10.6974C289.422 10.6974 289.336 10.6188 289.286 10.583C288.931 10.3044 288.611 9.98996 288.298 9.64696C288.227 9.56122 288.142 9.47547 288.07 9.38972L287.857 9.12533L287.807 9.06102C287.807 9.06102 287.772 9.01814 287.758 8.98956L287.665 8.8538L287.566 8.72517C287.566 8.72517 287.509 8.62513 287.473 8.57511C287.416 8.48222 287.352 8.38218 287.281 8.28214L287.11 7.98917L287.068 7.91771C287.068 7.91771 287.039 7.86769 287.032 7.84626L286.947 7.6962L286.862 7.55328C286.862 7.55328 286.84 7.50326 286.826 7.48183L286.79 7.41037C286.741 7.29604 286.698 7.20315 286.648 7.08881L286.513 6.7744L286.478 6.68866C286.478 6.68866 286.456 6.63864 286.456 6.60291L286.399 6.4457L286.335 6.2885C286.335 6.2885 286.328 6.23848 286.314 6.20275L286.293 6.117C286.264 6.00982 286.229 5.89549 286.193 5.7883L286.122 5.4596L286.101 5.37385V5.28811L286.065 5.11661L286.037 4.94511C286.037 4.94511 286.03 4.83793 286.015 4.77362C285.951 4.32344 285.951 3.86612 285.98 3.40879L286.001 3.38736Z" fill="#AF9146"/>
</g>
<path d="M293.304 30.7546C293.162 30.2759 292.984 29.8257 292.778 29.3898C292.565 28.9539 292.337 28.5252 292.06 28.1107C291.797 27.7106 291.498 27.3176 291.178 26.9531C291.093 26.8674 291.022 26.7745 290.929 26.6887C290.88 26.6387 290.844 26.603 290.794 26.553L290.666 26.4315L290.531 26.31C290.531 26.31 290.481 26.2743 290.46 26.2457L290.389 26.1885L290.112 25.9456C289.735 25.6383 289.336 25.3596 288.931 25.1024L288.618 24.9166C288.618 24.9166 288.512 24.8594 288.462 24.838L288.312 24.7523C288.312 24.7523 288.199 24.688 288.156 24.6665L287.985 24.5879L287.822 24.5165L287.651 24.445L287.317 24.3021L286.983 24.1663C286.876 24.1163 286.755 24.0806 286.649 24.0448C286.542 24.0091 286.421 23.9591 286.314 23.9234C286.25 23.8948 286.193 23.8876 286.122 23.8591C285.916 23.8019 285.717 23.7376 285.511 23.6804C285.319 23.6304 285.127 23.5804 284.949 23.5304C284.828 23.5089 284.721 23.4732 284.608 23.4446L283.911 23.3017L283.747 23.266L283.562 23.2302C283.1 23.1445 282.631 23.0659 282.169 23.0087L281.82 22.9587C281.699 22.9444 281.578 22.9373 281.472 22.923C281.237 22.9015 281.01 22.8872 280.768 22.8587C279.822 22.8015 278.876 22.7872 277.938 22.8372C277.696 22.8372 277.468 22.8872 277.269 22.9087C277.063 22.9444 276.885 22.9944 276.729 23.0444C276.43 23.1445 276.252 23.2517 276.259 23.3374C276.274 23.4232 276.48 23.4803 276.786 23.4946C276.942 23.5089 277.12 23.5089 277.326 23.4946C277.532 23.4946 277.746 23.4803 277.98 23.4732C278.905 23.4089 279.815 23.4232 280.732 23.4946C280.96 23.5161 281.187 23.5304 281.415 23.5589C281.536 23.5589 281.642 23.5804 281.763 23.5947L282.105 23.6304C282.56 23.6876 283.015 23.7662 283.47 23.8448L283.634 23.8876L283.804 23.9234L284.473 24.0663C284.579 24.0949 284.7 24.1163 284.807 24.152C284.977 24.1878 285.141 24.2378 285.297 24.2878C285.205 24.5879 285.105 24.8952 285.034 25.2024C285.013 25.3239 284.985 25.4454 284.949 25.5526C284.942 25.6169 284.928 25.6741 284.913 25.7384L284.878 25.917L284.842 26.1028C284.842 26.1028 284.821 26.2243 284.821 26.2814L284.771 26.653C284.714 27.1389 284.686 27.6248 284.686 28.1107C284.686 29.0825 284.828 30.0615 285.084 31.0119C285.347 31.948 285.738 32.8626 286.265 33.6772C286.791 34.5061 287.459 35.235 288.227 35.8352C288.277 35.8709 288.32 35.9067 288.369 35.9424L288.512 36.0496C288.512 36.0496 288.611 36.1282 288.668 36.1496L288.824 36.2496C289.024 36.3783 289.244 36.4997 289.472 36.6141C289.699 36.7213 289.934 36.807 290.176 36.8785C290.41 36.9499 290.673 36.9928 290.936 36.9999C291.2 36.9999 291.477 36.9785 291.74 36.8928L291.832 36.857C291.832 36.857 291.896 36.8284 291.932 36.8213L291.982 36.7927L292.024 36.7713C292.024 36.7713 292.088 36.7355 292.124 36.7213C292.245 36.6498 292.351 36.5783 292.458 36.4783C292.565 36.3926 292.65 36.2925 292.743 36.1853C292.828 36.0853 292.913 35.9781 292.97 35.8709C293.041 35.7566 293.105 35.6351 293.162 35.5279C293.176 35.5065 293.183 35.4708 293.198 35.4422C293.212 35.4207 293.219 35.385 293.233 35.3564L293.269 35.2635C293.269 35.2635 293.29 35.1992 293.29 35.1778C293.447 34.699 293.553 34.2131 293.603 33.7129C293.653 33.2127 293.639 32.7125 293.582 32.2266C293.518 31.7407 293.425 31.2548 293.283 30.7761L293.304 30.7546ZM292.728 34.942C292.728 34.942 292.721 34.992 292.707 35.0134L292.686 35.092C292.686 35.092 292.657 35.1349 292.65 35.1635C292.65 35.1849 292.622 35.2135 292.615 35.235C292.565 35.335 292.515 35.4207 292.465 35.5136C292.408 35.5994 292.351 35.6851 292.288 35.7566C292.231 35.8423 292.16 35.9066 292.074 35.9781C292.003 36.0424 291.918 36.0996 291.832 36.1496L291.776 36.1853H291.74L291.704 36.2211L291.64 36.2496L291.569 36.2711C291.392 36.3354 291.2 36.3568 291 36.3425C290.794 36.3425 290.595 36.2925 290.375 36.2496C290.176 36.1853 289.969 36.1139 289.77 36.0138C289.578 35.9209 289.386 35.8066 289.194 35.6994L289.052 35.5994C289.052 35.5994 288.952 35.5422 288.91 35.5065L288.775 35.4065C288.775 35.4065 288.682 35.3421 288.647 35.3064C287.929 34.7633 287.317 34.0774 286.826 33.3128C286.336 32.541 285.966 31.705 285.731 30.8118C285.489 29.9257 285.354 29.0111 285.347 28.0893C285.347 27.6248 285.369 27.1604 285.418 26.7102L285.468 26.3672C285.468 26.3672 285.475 26.26 285.489 26.1957L285.525 26.0313L285.546 25.8598C285.546 25.8598 285.575 25.7455 285.582 25.6883L285.653 25.3454C285.731 25.0452 285.824 24.7523 285.916 24.4593C285.987 24.4807 286.065 24.5093 286.137 24.5307C286.243 24.5665 286.35 24.6022 286.457 24.6379C286.563 24.6737 286.67 24.7165 286.777 24.7594L287.104 24.8809L287.417 25.0167L287.495 25.0524L287.722 25.1667L287.879 25.2382C287.879 25.2382 287.978 25.2882 288.035 25.3096L288.192 25.3811C288.192 25.3811 288.284 25.4311 288.348 25.4668L288.647 25.6383C289.024 25.867 289.4 26.1385 289.756 26.4172L290.005 26.6387L290.069 26.6959C290.069 26.6959 290.104 26.7316 290.126 26.7602L290.368 27.0031C290.368 27.0031 290.446 27.0889 290.481 27.1246C290.567 27.2104 290.638 27.2961 290.709 27.3819C291.008 27.7249 291.285 28.0893 291.534 28.4609C291.79 28.8396 292.017 29.2469 292.202 29.6613C292.6 30.4831 292.878 31.362 292.984 32.2624C293.091 33.1627 293.02 34.0774 292.728 34.9348V34.942Z" fill="#AF9146"/>
<path d="M276.622 22.5946H276.707L276.785 22.5588L277.148 22.4731C277.269 22.4374 277.375 22.4088 277.489 22.373L277.575 22.3516C277.575 22.3516 277.639 22.3373 277.66 22.323L277.831 22.2659L277.994 22.2016C277.994 22.2016 278.051 22.1801 278.079 22.1658L278.165 22.1301L278.499 21.9943C278.606 21.9515 278.712 21.9014 278.819 21.8371L278.904 21.8014C278.904 21.8014 278.961 21.78 278.99 21.7657L279.139 21.6799L279.295 21.5942C279.295 21.5942 279.345 21.5727 279.381 21.5441L279.452 21.5013L279.765 21.3155C279.857 21.2512 279.964 21.1797 280.063 21.1083C280.113 21.0725 280.156 21.044 280.206 21.0011L280.348 20.8867L280.49 20.7796L280.561 20.7153L280.639 20.6581L280.91 20.4294C281.009 20.3437 281.087 20.2579 281.173 20.1793C281.521 19.8435 281.855 19.4862 282.154 19.1075C282.19 19.0646 282.225 19.0146 282.275 18.9646L282.382 18.8216L282.488 18.6716C282.488 18.6716 282.559 18.5716 282.595 18.5287L282.801 18.2214C282.801 18.2214 282.858 18.1214 282.894 18.0642L282.993 17.907L283.086 17.7498C283.086 17.7498 283.142 17.6355 283.171 17.5854C283.228 17.4783 283.292 17.3782 283.349 17.271C283.455 17.0495 283.576 16.8423 283.669 16.6136C283.782 16.3921 283.861 16.1778 283.96 15.9419C284.003 15.8348 284.046 15.7133 284.088 15.6061L284.152 15.4346L284.209 15.2631V15.2345C284.294 15.0273 284.351 14.8272 284.422 14.62C284.494 14.3699 284.565 14.1198 284.629 13.8768L284.714 13.5196C284.735 13.3981 284.757 13.2909 284.792 13.1694L284.828 12.9979C284.828 12.9979 284.856 12.8765 284.87 12.8121L284.942 12.462C285.105 11.5116 285.212 10.547 285.247 9.58944C285.262 9.34649 285.262 9.11069 285.276 8.86773C285.276 8.62478 285.276 8.39612 285.276 8.14602C285.276 7.67441 285.247 7.1885 285.212 6.70974C285.176 6.22383 285.091 5.78795 284.998 5.48068C284.906 5.18057 284.792 4.99478 284.714 5.00907C284.629 5.01622 284.565 5.22344 284.558 5.545C284.529 5.8594 284.558 6.28814 284.579 6.75976C284.614 7.22423 284.643 7.69584 284.643 8.16031C284.643 8.39612 284.643 8.62478 284.643 8.86773C284.643 9.09639 284.643 9.3322 284.614 9.57515C284.579 10.5112 284.472 11.4402 284.316 12.362L284.259 12.705C284.259 12.705 284.23 12.8121 284.223 12.8765L284.188 13.0479C284.159 13.1551 284.138 13.2766 284.117 13.3838L284.031 13.7268C283.967 13.9483 283.91 14.1627 283.854 14.3985C283.754 14.3628 283.669 14.327 283.59 14.2984L283.242 14.1913C283.242 14.1913 283.121 14.1555 283.071 14.1412L282.908 14.0912C282.908 14.0912 282.787 14.0555 282.737 14.0412L282.559 13.9983C282.438 13.9697 282.332 13.934 282.211 13.9126L281.87 13.834L281.507 13.7768C281.031 13.7053 280.554 13.6696 280.078 13.6553C279.594 13.6553 279.118 13.6768 278.641 13.7411L278.279 13.7911C278.165 13.8125 278.044 13.834 277.923 13.8626C277.802 13.884 277.681 13.9126 277.575 13.9483C277.454 13.9697 277.34 14.0055 277.233 14.0412C276.764 14.177 276.309 14.3485 275.882 14.5557C275.662 14.6557 275.448 14.7772 275.235 14.8844L274.922 15.0702L274.837 15.113L274.766 15.1631L274.609 15.2631C273.813 15.799 273.095 16.4779 272.497 17.271C272.426 17.3711 272.355 17.464 272.284 17.5783C272.213 17.6712 272.149 17.7855 272.078 17.8784C271.95 18.0856 271.829 18.3072 271.722 18.5358C271.616 18.7716 271.53 19.0003 271.459 19.2575C271.388 19.5148 271.353 19.772 271.353 20.0364C271.353 20.308 271.388 20.5866 271.481 20.851C271.566 21.1226 271.708 21.3655 271.886 21.5727C272.064 21.78 272.27 21.9515 272.483 22.0944C272.704 22.2301 272.938 22.3373 273.18 22.4374C273.415 22.5231 273.656 22.5803 273.898 22.6303C274.012 22.6517 274.133 22.6803 274.268 22.6946C274.389 22.7017 274.503 22.716 274.624 22.7303C275.1 22.7661 275.591 22.7518 276.067 22.6946C276.131 22.6946 276.188 22.6946 276.252 22.666L276.43 22.6446L276.608 22.616L276.622 22.5946ZM276.181 22.0086C276.181 22.0086 276.067 22.0229 276.01 22.0372C275.569 22.0944 275.114 22.0944 274.673 22.0729C274.567 22.0729 274.446 22.0586 274.339 22.0443C274.232 22.0372 274.126 22.0229 274.012 21.9943C273.799 21.9586 273.6 21.9014 273.393 21.83C273.187 21.7514 273.002 21.6585 272.817 21.5441C272.64 21.437 272.483 21.3012 272.362 21.1583C272.099 20.851 271.985 20.4723 271.985 20.0579C271.985 19.6434 272.113 19.2361 272.291 18.8288C272.391 18.6216 272.497 18.4286 272.618 18.2429C272.675 18.15 272.739 18.0499 272.796 17.9642C272.853 17.8713 272.924 17.7855 272.988 17.6855C273.536 16.9638 274.197 16.335 274.944 15.8348L275.093 15.7347L275.164 15.6918L275.235 15.6418L275.52 15.4703C275.726 15.3631 275.918 15.2488 276.117 15.1631C276.522 14.9701 276.942 14.8129 277.383 14.6915C277.489 14.6557 277.603 14.6271 277.71 14.6057C277.816 14.5771 277.923 14.5414 278.03 14.5342C278.136 14.5057 278.243 14.4842 278.364 14.4699L278.698 14.4199C279.139 14.3628 279.594 14.3342 280.049 14.3485C280.504 14.3485 280.945 14.3985 281.4 14.4556L281.734 14.52L282.069 14.5914C282.175 14.62 282.282 14.6414 282.403 14.6629L282.574 14.6986C282.574 14.6986 282.68 14.7415 282.737 14.7486L282.908 14.7986C282.908 14.7986 283.014 14.8344 283.071 14.8487L283.398 14.9558C283.491 14.9916 283.59 15.0273 283.669 15.0702L283.647 15.113L283.59 15.2774L283.526 15.4346C283.491 15.5418 283.441 15.649 283.406 15.7633C283.313 15.9705 283.228 16.1849 283.135 16.3921C283.036 16.5993 282.929 16.8066 282.837 17.0138C282.773 17.1138 282.73 17.221 282.666 17.3211C282.645 17.3711 282.609 17.4211 282.581 17.464L282.488 17.614L282.403 17.7569C282.403 17.7569 282.346 17.857 282.31 17.907L282.118 18.1857C282.118 18.1857 282.062 18.2857 282.019 18.3286L281.834 18.6001C281.834 18.6001 281.763 18.6859 281.72 18.7359C281.45 19.1003 281.137 19.429 280.803 19.7434C280.718 19.8149 280.639 19.9006 280.554 19.9721L280.291 20.1936L280.227 20.2436C280.227 20.2436 280.184 20.2794 280.156 20.2937L280.028 20.3866L279.893 20.4866C279.893 20.4866 279.8 20.5509 279.751 20.5866C279.658 20.6438 279.559 20.7153 279.466 20.7796L279.175 20.9511L279.103 21.0011C279.103 21.0011 279.061 21.0225 279.032 21.0368L278.748 21.2083C278.748 21.2083 278.698 21.2297 278.677 21.244L278.606 21.2798C278.499 21.3298 278.399 21.3727 278.293 21.4227L277.98 21.5584L277.902 21.5942C277.902 21.5942 277.852 21.6228 277.816 21.6228L277.66 21.6799L277.503 21.7442C277.503 21.7442 277.447 21.7514 277.418 21.7657L277.34 21.7871C277.226 21.8157 277.119 21.8514 277.013 21.8871L276.693 21.9586L276.608 21.9872H276.522L276.359 22.0229L276.188 22.0443L276.181 22.0086Z" fill="#AF9146"/>
<path d="M307.504 16.0774C307.504 16.0774 307.476 16.0202 307.469 15.9773L307.44 15.9345L307.419 15.8844C307.419 15.8844 307.383 15.8201 307.369 15.7844C307.298 15.6629 307.227 15.5557 307.135 15.4414C307.049 15.3485 306.957 15.2485 306.843 15.1556C306.751 15.0698 306.644 14.9841 306.537 14.9198C306.431 14.8483 306.31 14.784 306.203 14.7269C306.175 14.7126 306.139 14.6983 306.118 14.6911C306.096 14.6768 306.054 14.6625 306.032 14.6554L305.94 14.6197C305.94 14.6197 305.876 14.5911 305.855 14.5911C305.385 14.4339 304.909 14.3267 304.418 14.2767C303.927 14.2267 303.437 14.2409 302.96 14.2981C302.484 14.3624 302.008 14.4553 301.538 14.6054C301.076 14.7483 300.628 14.9341 300.201 15.1413C299.768 15.3628 299.355 15.5915 298.943 15.8702C298.552 16.1417 298.168 16.4418 297.812 16.7705C297.727 16.8563 297.634 16.9277 297.549 17.0278C297.499 17.0778 297.464 17.1135 297.414 17.1635L297.293 17.2993L297.179 17.4279C297.179 17.4279 297.129 17.4779 297.115 17.4994L297.058 17.578L296.817 17.8567C296.518 18.2425 296.248 18.6498 295.992 19.0643L295.814 19.3787C295.814 19.3787 295.757 19.4859 295.729 19.5359L295.65 19.6931C295.65 19.6931 295.586 19.8074 295.565 19.8503L295.352 20.3648L295.202 20.7078L295.074 21.0436C295.025 21.158 294.989 21.2794 294.954 21.3866C294.918 21.5009 294.868 21.6224 294.847 21.7296C294.826 21.7868 294.811 21.8511 294.79 21.9225C294.726 22.1298 294.669 22.337 294.605 22.5442C294.562 22.7371 294.513 22.9372 294.463 23.1159C294.442 23.2373 294.406 23.3517 294.378 23.4732L294.306 23.8233L294.235 24.1806L294.2 24.3449L294.164 24.5307C294.079 25.0023 294.008 25.4811 293.951 25.9527L293.901 26.31C293.887 26.4315 293.88 26.5529 293.866 26.6601C293.844 26.9031 293.83 27.1389 293.809 27.3818C293.745 28.3394 293.738 29.304 293.794 30.2687C293.794 30.5116 293.844 30.7403 293.866 30.9475C293.901 31.1547 293.951 31.3405 294.001 31.4977C294.093 31.7979 294.2 31.9836 294.285 31.9694C294.37 31.9622 294.427 31.755 294.442 31.4334C294.449 31.2762 294.449 31.0976 294.442 30.8904C294.442 30.6831 294.427 30.4616 294.413 30.2187C294.356 29.2826 294.37 28.3536 294.427 27.4176C294.449 27.1889 294.463 26.9531 294.491 26.7244C294.491 26.603 294.513 26.4886 294.527 26.3671L294.562 26.017C294.619 25.5525 294.69 25.0881 294.776 24.6307L294.989 23.6018C295.01 23.4946 295.039 23.3731 295.074 23.2659C295.11 23.0944 295.16 22.9229 295.202 22.7657C295.501 22.8586 295.8 22.9587 296.098 23.0301C296.219 23.0587 296.34 23.0801 296.447 23.1159C296.511 23.1302 296.568 23.1445 296.625 23.1516L296.987 23.2159C296.987 23.2159 297.108 23.2373 297.165 23.2373L297.521 23.2874C298.004 23.3517 298.481 23.3731 298.957 23.3731C299.917 23.3731 300.87 23.2302 301.801 22.973C302.726 22.7014 303.622 22.3013 304.418 21.7653C305.229 21.2294 305.947 20.5506 306.537 19.7717C306.573 19.7217 306.608 19.6717 306.644 19.6216L306.751 19.4787C306.751 19.4787 306.822 19.3787 306.843 19.3144L306.943 19.1572C307.071 18.9499 307.191 18.7356 307.298 18.4998C307.405 18.2711 307.49 18.0282 307.561 17.7852C307.632 17.5422 307.668 17.2707 307.682 17.0063C307.682 16.7348 307.661 16.4561 307.575 16.1846L307.54 16.0917L307.504 16.0774ZM307.014 16.9634C307.014 17.1707 306.964 17.3779 306.914 17.5994C306.857 17.8066 306.786 18.0139 306.694 18.2211C306.594 18.414 306.487 18.6141 306.367 18.807L306.274 18.9499C306.274 18.9499 306.21 19.05 306.175 19.1L306.082 19.2358C306.082 19.2358 306.018 19.3287 305.983 19.3644C305.449 20.1004 304.781 20.7149 304.027 21.2151C303.273 21.7153 302.448 22.094 301.574 22.337C300.706 22.5799 299.803 22.7157 298.9 22.73C298.445 22.73 297.99 22.7014 297.549 22.6514L297.215 22.6085C297.215 22.6085 297.108 22.5942 297.044 22.5799L296.881 22.5442L296.71 22.5228C296.71 22.5228 296.603 22.4942 296.546 22.487L296.212 22.4084C295.913 22.337 295.622 22.2441 295.338 22.1441C295.359 22.0726 295.387 21.994 295.409 21.9225C295.444 21.8154 295.48 21.7082 295.515 21.5938C295.551 21.4867 295.586 21.3723 295.636 21.2651L295.757 20.9364L295.885 20.622L295.921 20.5363L295.956 20.4648L296.027 20.3076L296.098 20.1433C296.098 20.1433 296.148 20.0504 296.177 19.9861L296.255 19.8289C296.255 19.8289 296.305 19.7288 296.34 19.6717L296.511 19.3644C296.738 18.9785 296.994 18.5998 297.272 18.2354L297.485 17.9781L297.549 17.9138C297.549 17.9138 297.585 17.8781 297.606 17.8567L297.848 17.6137C297.848 17.6137 297.933 17.528 297.969 17.4922C298.047 17.4065 298.132 17.335 298.217 17.2564C298.552 16.9563 298.907 16.6776 299.284 16.4204C299.654 16.1631 300.045 15.9345 300.45 15.7344C301.268 15.3342 302.128 15.0556 303.01 14.9484C303.892 14.834 304.788 14.9055 305.627 15.1985C305.648 15.1985 305.677 15.2128 305.712 15.227L305.783 15.2485C305.783 15.2485 305.833 15.2771 305.855 15.2842C305.876 15.2842 305.904 15.3128 305.926 15.3199C306.018 15.37 306.103 15.42 306.203 15.47C306.281 15.5272 306.367 15.5915 306.452 15.6486C306.523 15.713 306.594 15.7844 306.665 15.8702C306.729 15.9416 306.786 16.0274 306.836 16.1131L306.871 16.1774V16.2132L306.907 16.2489L306.928 16.306L306.957 16.3846C307.014 16.5633 307.035 16.7634 307.028 16.9634H307.014Z" fill="#AF9146"/>
<path d="M294.712 18.0356C297.357 17.0424 298.993 14.8844 298.993 14.8844C298.993 14.8844 296.362 14.3341 293.724 15.3345C291.078 16.3349 289.443 18.4929 289.443 18.4929C289.443 18.4929 292.074 19.036 294.712 18.0356Z" fill="#AF9146"/>
<path d="M284.188 18.9434C281.543 19.9367 279.907 22.0947 279.907 22.0947C279.907 22.0947 282.538 22.6449 285.176 21.6445C287.822 20.6441 289.457 18.4933 289.457 18.4933C289.457 18.4933 286.826 17.943 284.188 18.9434Z" fill="#AF9146"/>
<path d="M289.884 23.8449C290.866 26.5388 292.985 28.2109 292.985 28.2109C292.985 28.2109 293.518 25.5313 292.544 22.8374C291.563 20.1435 289.444 18.4785 289.444 18.4785C289.444 18.4785 288.91 21.1581 289.884 23.8449Z" fill="#AF9146"/>
<path d="M289.002 13.1191C288.021 10.4252 285.909 8.76025 285.909 8.76025C285.909 8.76025 285.369 11.4399 286.35 14.1267C287.331 16.8206 289.443 18.4927 289.443 18.4927C289.443 18.4927 289.984 15.813 289.002 13.1191Z" fill="#AF9146"/>
</svg>
