<svg width="407" height="27" viewBox="0 0 407 27" fill="none" xmlns="http://www.w3.org/2000/svg">
<path d="M187.86 12.4501C187.75 12.2451 187.615 12.0602 187.475 11.8903C187.405 11.8053 187.33 11.7203 187.255 11.6353C187.22 11.5903 187.18 11.5504 187.145 11.5154C187.105 11.4704 187.07 11.4404 187.03 11.3954C186.875 11.2404 186.71 11.0905 186.541 10.9505C186.441 10.8656 186.331 10.7806 186.221 10.7056L186.141 10.6556C186.141 10.6556 186.081 10.6206 186.056 10.5956C185.996 10.5606 185.946 10.5257 185.886 10.4907L185.716 10.3907C185.661 10.3557 185.601 10.3207 185.541 10.2957C185.426 10.2357 185.306 10.1758 185.191 10.1158C185.071 10.0558 184.946 10.0058 184.826 9.95582C184.771 9.93083 184.701 9.90584 184.641 9.88584C184.611 9.88084 184.586 9.86085 184.551 9.85585L184.456 9.82086L184.366 9.78587C184.366 9.78587 184.306 9.76088 184.271 9.75088L184.086 9.6909C184.086 9.6909 184.031 9.6759 183.996 9.66591L183.901 9.64091L183.811 9.61592C183.811 9.61592 183.746 9.59593 183.716 9.59093C183.466 9.52095 183.207 9.48096 182.947 9.43597C182.687 9.39099 182.427 9.37599 182.167 9.361C182.097 9.361 182.032 9.361 181.972 9.351H181.482C181.482 9.351 181.417 9.351 181.382 9.351C181.317 9.351 181.247 9.351 181.192 9.361L180.997 9.37599H180.947C180.947 9.37599 180.912 9.37599 180.897 9.37599H180.797C180.727 9.39099 180.667 9.40099 180.602 9.41098C179.563 9.53595 178.553 9.84585 177.603 10.2857C176.653 10.7306 175.769 11.3104 174.979 11.9852C174.879 12.0702 174.789 12.1552 174.689 12.2401L174.544 12.3751C174.544 12.3751 174.494 12.4201 174.479 12.4451L174.409 12.5101C174.319 12.605 174.219 12.7 174.124 12.795L174.109 12.765C174.064 12.715 174.024 12.675 173.979 12.62L173.924 12.5551L173.864 12.4751L173.744 12.3351C173.669 12.2302 173.594 12.1352 173.519 12.0352L173.459 11.9602C173.459 11.9602 173.429 11.9052 173.404 11.8803L173.294 11.7303C173.294 11.7303 173.259 11.6753 173.244 11.6503L173.189 11.5753C173.159 11.5254 173.124 11.4704 173.089 11.4104L172.99 11.2504C172.955 11.2005 172.925 11.1405 172.9 11.0905L172.85 11.0055L172.805 10.9205C172.77 10.8656 172.745 10.8056 172.715 10.7556C172.655 10.6456 172.595 10.5356 172.535 10.4257L172.495 10.3407C172.495 10.3407 172.47 10.2807 172.455 10.2557L172.37 10.0858L172.35 10.0408L172.335 10.0008L172.3 9.91083C172.275 9.85585 172.25 9.80087 172.225 9.74088L171.855 8.78617L171.58 8.07138L171.56 8.03139C171.56 8.03139 171.56 8.0064 171.555 8.02139V8.04639L171.51 8.14136L171.455 8.3213L171.325 8.6762L171.2 9.03609L171.14 9.21604L171.11 9.30101V9.31601H171.1V9.351L171.025 9.53095L170.99 9.61592C170.99 9.61592 170.965 9.6759 170.955 9.7009C170.765 10.1708 170.545 10.6206 170.3 11.0705C170.06 11.5154 169.795 11.9502 169.521 12.3751C169.436 12.5051 169.346 12.63 169.261 12.76C169.176 12.655 169.101 12.5451 169.016 12.4451C168.876 12.2651 168.731 12.0952 168.581 11.9252C168.746 11.7353 168.916 11.5304 169.066 11.3254C169.226 11.1155 169.361 10.8905 169.471 10.6906C169.581 10.4857 169.666 10.2857 169.72 10.1258C169.84 9.79587 169.865 9.57093 169.795 9.54594C169.73 9.52095 169.596 9.6909 169.411 9.96582C169.321 10.1008 169.201 10.2707 169.086 10.4507C168.956 10.6306 168.821 10.8256 168.671 11.0305C168.536 11.2105 168.396 11.3854 168.246 11.5553C168.151 11.4654 168.066 11.3704 167.976 11.2854C167.606 10.9205 167.201 10.5706 166.766 10.2707C166.546 10.1158 166.321 9.98081 166.087 9.85585C166.027 9.82086 165.967 9.79587 165.907 9.76088C165.877 9.74088 165.852 9.73589 165.817 9.71589C165.782 9.7009 165.757 9.6909 165.722 9.6759C165.607 9.62592 165.482 9.56594 165.352 9.52095C165.102 9.42598 164.852 9.351 164.597 9.28102C164.337 9.22104 164.077 9.17105 163.817 9.13606C163.557 9.10607 163.287 9.08608 163.027 9.08608C162.768 9.08608 162.498 9.10607 162.238 9.13107C161.978 9.16106 161.718 9.20604 161.453 9.27602C161.193 9.341 160.943 9.42598 160.698 9.53095C160.638 9.55594 160.573 9.58093 160.513 9.60592C160.483 9.62592 160.453 9.63092 160.423 9.65091L160.328 9.6909L160.238 9.73589C160.238 9.73589 160.178 9.76588 160.143 9.77587L160.058 9.82586L160.018 9.85585L159.978 9.88084L159.893 9.93083C159.893 9.93083 159.858 9.94583 159.848 9.95582C159.833 9.96582 159.818 9.97082 159.808 9.98081C159.748 10.0258 159.693 10.0558 159.638 10.1008C159.534 10.1858 159.429 10.2707 159.329 10.3657C159.139 10.5506 158.954 10.7456 158.784 10.9705C158.744 11.0305 158.699 11.0805 158.664 11.1405C158.624 11.2005 158.589 11.2604 158.559 11.3254L158.534 11.3804C158.534 11.3804 158.514 11.4104 158.509 11.4304C158.509 11.4454 158.489 11.4654 158.479 11.4804C158.479 11.4954 158.464 11.5154 158.464 11.5404C158.464 11.5553 158.454 11.5853 158.449 11.6003L158.429 11.6603C158.429 11.6603 158.429 11.7003 158.424 11.7303C158.424 11.7553 158.424 11.7803 158.424 11.7953C158.424 11.8053 158.424 11.8203 158.424 11.8303V11.9302C158.424 11.9302 158.439 11.9752 158.449 12.0002V12.0352L158.464 12.0602C158.464 12.0602 158.489 12.1352 158.509 12.1702C158.524 12.2052 158.539 12.2401 158.559 12.2751C158.574 12.3051 158.589 12.3401 158.609 12.3751L158.634 12.4251L158.664 12.4751L158.724 12.5651C158.724 12.5651 158.769 12.62 158.784 12.65C158.919 12.835 159.069 12.9949 159.229 13.1499C159.069 13.3048 158.919 13.4748 158.784 13.6547C158.769 13.6797 158.744 13.7147 158.724 13.7397L158.694 13.7797L158.664 13.8247L158.634 13.8747L158.609 13.9246C158.609 13.9246 158.574 13.9946 158.559 14.0296C158.539 14.0646 158.524 14.0946 158.509 14.1296C158.489 14.1646 158.479 14.2046 158.464 14.2396V14.2645L158.449 14.2995C158.449 14.2995 158.439 14.3445 158.429 14.3695V14.4695C158.429 14.4695 158.424 14.4945 158.424 14.5045C158.424 14.5295 158.424 14.5545 158.424 14.5745C158.424 14.5995 158.424 14.6144 158.429 14.6394L158.449 14.6994C158.449 14.6994 158.454 14.7444 158.464 14.7594C158.464 14.7794 158.479 14.8044 158.479 14.8194C158.479 14.8394 158.499 14.8544 158.509 14.8694C158.509 14.8894 158.524 14.9044 158.534 14.9244L158.559 14.9743C158.589 15.0443 158.624 15.0993 158.664 15.1593C158.709 15.2193 158.744 15.2793 158.784 15.3292C158.954 15.5542 159.139 15.7491 159.329 15.9341C159.429 16.029 159.534 16.114 159.638 16.199C159.693 16.244 159.748 16.284 159.808 16.3189C159.823 16.3289 159.833 16.3389 159.848 16.3439C159.868 16.3539 159.883 16.3639 159.893 16.3689L159.978 16.4239L160.058 16.4739L160.143 16.5239C160.143 16.5239 160.203 16.5589 160.238 16.5689L160.328 16.6089L160.423 16.6538C160.423 16.6538 160.483 16.6788 160.513 16.6938C160.573 16.7188 160.633 16.7438 160.698 16.7738C160.943 16.8738 161.193 16.9588 161.453 17.0287C161.718 17.0937 161.978 17.1387 162.238 17.1737C162.498 17.2037 162.768 17.2237 163.027 17.2137C163.287 17.2137 163.557 17.1987 163.817 17.1637C164.077 17.1287 164.337 17.0787 164.597 17.0187C164.857 16.9588 165.112 16.8738 165.352 16.7788C165.482 16.7388 165.597 16.6788 165.722 16.6289C165.757 16.6089 165.782 16.5989 165.817 16.5839C165.852 16.5689 165.877 16.5589 165.907 16.5439C165.967 16.5089 166.027 16.4839 166.087 16.4489C166.321 16.3189 166.546 16.184 166.766 16.029C167.201 15.7341 167.606 15.3842 167.976 15.0143C168.066 14.9244 168.161 14.8394 168.246 14.7444C168.396 14.9144 168.536 15.0943 168.671 15.2743C168.821 15.4742 168.956 15.6741 169.086 15.8491C169.211 16.029 169.321 16.199 169.411 16.3389C169.606 16.6089 169.74 16.7788 169.795 16.7538C169.855 16.7288 169.84 16.5089 169.72 16.174C169.666 16.014 169.581 15.8191 169.471 15.6142C169.361 15.4092 169.226 15.1843 169.066 14.9743C168.916 14.7694 168.756 14.5645 168.581 14.3795C168.731 14.2046 168.876 14.0296 169.016 13.8597C169.101 13.7547 169.186 13.6447 169.261 13.5448C169.351 13.6697 169.436 13.7997 169.521 13.9246C169.795 14.3445 170.065 14.7794 170.3 15.2293C170.545 15.6741 170.765 16.134 170.955 16.5989C170.965 16.6289 170.98 16.6588 170.99 16.6838L171.025 16.7738L171.09 16.9488V16.9737H171.11V17.0037L171.14 17.0887L171.2 17.2637L171.325 17.6236L171.455 17.9835L171.51 18.1584L171.545 18.2534V18.2784L171.56 18.2684L171.58 18.2284L171.865 17.5136L172.235 16.5689C172.26 16.5089 172.285 16.4489 172.31 16.3989L172.345 16.3089L172.36 16.269L172.375 16.224L172.46 16.054C172.46 16.054 172.485 15.994 172.505 15.969L172.545 15.8841C172.605 15.7741 172.665 15.6641 172.72 15.5542C172.755 15.5042 172.78 15.4442 172.815 15.3892L172.855 15.3042L172.905 15.2193C172.94 15.1693 172.975 15.1093 173.01 15.0593L173.109 14.8994C173.139 14.8444 173.174 14.7944 173.209 14.7344L173.259 14.6594C173.259 14.6594 173.294 14.6094 173.309 14.5795L173.419 14.4295C173.419 14.4295 173.454 14.3795 173.479 14.3495L173.534 14.2745C173.614 14.1746 173.689 14.0696 173.764 13.9746L173.879 13.8297L173.939 13.7547L173.999 13.6897C174.039 13.6347 174.084 13.5947 174.124 13.5448L174.139 13.5148C174.234 13.6097 174.324 13.7047 174.419 13.7997L174.484 13.8647C174.484 13.8647 174.534 13.9097 174.554 13.9346L174.694 14.0696C174.799 14.1546 174.889 14.2496 174.989 14.3245C175.789 15.0093 176.663 15.5892 177.613 16.024C178.558 16.4639 179.568 16.7738 180.612 16.8988C180.677 16.9088 180.737 16.9138 180.802 16.9238H180.902C180.902 16.9238 180.937 16.9438 180.957 16.9438H181.007L181.197 16.9588C181.267 16.9588 181.332 16.9588 181.392 16.9688C181.427 16.9688 181.457 16.9688 181.492 16.9688H181.982C182.047 16.9688 182.112 16.9688 182.172 16.9588C182.432 16.9438 182.692 16.9238 182.957 16.8838C183.217 16.8388 183.476 16.7988 183.726 16.7288C183.761 16.7288 183.796 16.7138 183.821 16.7038L183.911 16.6788L184.006 16.6538C184.006 16.6538 184.071 16.6338 184.096 16.6289L184.281 16.5689C184.281 16.5689 184.341 16.5489 184.376 16.5339L184.466 16.4989L184.561 16.4639C184.561 16.4639 184.616 16.4389 184.651 16.4289C184.711 16.4039 184.776 16.3789 184.836 16.3639C184.956 16.3089 185.081 16.259 185.196 16.199C185.316 16.149 185.431 16.079 185.551 16.024C185.611 15.989 185.666 15.964 185.726 15.9291L185.811 15.8791L185.896 15.8241C185.956 15.7941 186.006 15.7591 186.061 15.7241C186.086 15.7041 186.121 15.6891 186.146 15.6641L186.191 15.6391L186.231 15.6142C186.341 15.5342 186.451 15.4492 186.551 15.3642C186.715 15.2193 186.875 15.0743 187.035 14.9244C187.11 14.8444 187.19 14.7694 187.265 14.6844C187.34 14.5995 187.405 14.5245 187.48 14.4295C187.55 14.3445 187.615 14.2496 187.685 14.1546C187.75 14.0646 187.81 13.9696 187.87 13.8647C187.93 13.7647 187.98 13.6547 188.02 13.5348C188.03 13.4998 188.035 13.4748 188.045 13.4398C188.045 13.4048 188.06 13.3698 188.07 13.3448C188.07 13.3148 188.08 13.2798 188.085 13.2449C188.085 13.2099 188.085 13.1749 188.085 13.1349C188.085 12.9899 188.055 12.86 188.01 12.74C187.97 12.62 187.92 12.5101 187.86 12.4101V12.4501ZM159.139 12.3651C159.139 12.3651 159.104 12.3151 159.089 12.3001L159.059 12.2651L159.034 12.2302V12.2152L159.009 12.1952L158.984 12.1602C158.984 12.1602 158.959 12.1102 158.954 12.0952C158.944 12.0702 158.929 12.0452 158.919 12.0252C158.919 12.0002 158.904 11.9852 158.894 11.9602C158.874 11.9152 158.874 11.8703 158.874 11.8453V11.7603C158.874 11.7603 158.894 11.7353 158.904 11.7303C158.919 11.6853 158.934 11.6353 158.959 11.5903C158.984 11.5404 159.009 11.4954 159.044 11.4454C159.079 11.3954 159.114 11.3554 159.144 11.3004C159.289 11.1155 159.454 10.9355 159.633 10.7656C159.723 10.6806 159.818 10.6056 159.908 10.5257C159.958 10.4907 160.003 10.4607 160.053 10.4257C160.058 10.4257 160.078 10.4057 160.088 10.4007C160.093 10.4007 160.113 10.3807 160.118 10.3707L160.193 10.3207L160.238 10.2957L160.278 10.2707L160.353 10.2307C160.353 10.2307 160.403 10.2007 160.438 10.1858L160.523 10.1408L160.608 10.1008C160.608 10.1008 160.668 10.0758 160.693 10.0558C160.748 10.0308 160.798 10.0058 160.858 9.99081C161.088 9.89584 161.313 9.82086 161.548 9.76088C161.783 9.7009 162.028 9.65591 162.273 9.62592C162.513 9.59093 162.758 9.58093 163.002 9.58093C163.242 9.58093 163.487 9.59593 163.732 9.62592C163.977 9.65591 164.217 9.7009 164.457 9.76088C164.692 9.82086 164.927 9.88584 165.152 9.98081C165.272 10.0258 165.377 10.0758 165.487 10.1258C165.512 10.1358 165.547 10.1508 165.572 10.1708C165.597 10.1858 165.632 10.1958 165.657 10.2107C165.707 10.2357 165.767 10.2607 165.817 10.2957C166.037 10.4157 166.247 10.5456 166.446 10.6806C166.851 10.9605 167.236 11.2854 167.586 11.6353C167.681 11.7303 167.771 11.8203 167.866 11.9152C167.506 12.2751 167.111 12.605 166.691 12.885C166.252 12.615 165.792 12.3851 165.302 12.2052C164.807 12.0152 164.297 11.8903 163.772 11.8203C163.252 11.7553 162.718 11.7453 162.188 11.8203C161.658 11.8903 161.143 12.0252 160.648 12.2401C160.403 12.3401 160.168 12.4601 159.933 12.595L159.848 12.65L159.808 12.675C159.808 12.675 159.773 12.69 159.768 12.7C159.708 12.74 159.648 12.775 159.598 12.82L159.563 12.845C159.414 12.69 159.264 12.5351 159.139 12.3651ZM166.212 13.1749C165.867 13.3698 165.507 13.5448 165.137 13.6797C164.672 13.8497 164.192 13.9696 163.707 14.0346C163.217 14.0946 162.733 14.1046 162.243 14.0346C161.768 13.9746 161.288 13.8497 160.843 13.6547C160.613 13.5598 160.398 13.4498 160.188 13.3198L160.113 13.2698L160.078 13.2449C160.078 13.2449 160.053 13.2249 160.043 13.2199C160.008 13.1999 159.983 13.1749 159.953 13.1499C159.983 13.1249 160.008 13.1099 160.043 13.0849C160.053 13.0849 160.068 13.0649 160.078 13.0549L160.113 13.0299L160.188 12.9799C160.398 12.85 160.613 12.74 160.843 12.65C161.288 12.4601 161.768 12.3351 162.243 12.2651C162.733 12.2052 163.217 12.2052 163.707 12.2651C164.192 12.3251 164.672 12.4501 165.137 12.62C165.507 12.76 165.867 12.9299 166.212 13.1249V13.1749ZM167.586 14.7244C167.236 15.0743 166.851 15.3992 166.446 15.6791C166.247 15.8241 166.032 15.9541 165.817 16.064C165.767 16.089 165.707 16.124 165.657 16.149C165.632 16.169 165.597 16.174 165.572 16.194C165.547 16.209 165.512 16.219 165.487 16.234C165.377 16.284 165.262 16.3389 165.152 16.3789C164.927 16.4639 164.692 16.5439 164.457 16.5989C164.217 16.6588 163.977 16.7038 163.732 16.7388C163.487 16.7738 163.242 16.7788 163.002 16.7788C162.758 16.7788 162.513 16.7738 162.273 16.7388C162.028 16.7138 161.793 16.6588 161.548 16.5989C161.313 16.5439 161.078 16.4639 160.858 16.3689C160.798 16.3439 160.748 16.3189 160.693 16.3039C160.663 16.2939 160.633 16.279 160.608 16.259L160.523 16.219L160.438 16.174C160.438 16.174 160.388 16.149 160.353 16.134L160.278 16.089L160.238 16.064L160.193 16.039L160.118 15.989C160.118 15.989 160.093 15.969 160.088 15.964C160.078 15.964 160.058 15.9441 160.053 15.9341C160.003 15.9041 159.958 15.8691 159.908 15.8341C159.818 15.7591 159.723 15.6791 159.633 15.5942C159.454 15.4342 159.289 15.2543 159.144 15.0593C159.114 15.0093 159.079 14.9643 159.044 14.9144C159.009 14.8644 158.984 14.8194 158.959 14.7694C158.934 14.7194 158.919 14.6744 158.904 14.6344C158.904 14.6244 158.904 14.6094 158.894 14.5995V14.5145C158.894 14.5145 158.894 14.4445 158.894 14.4045C158.894 14.3795 158.909 14.3595 158.919 14.3345C158.929 14.3095 158.934 14.2845 158.954 14.2645C158.959 14.2396 158.979 14.2146 158.984 14.1996L159.009 14.1646V14.1496L159.034 14.1296L159.059 14.0946L159.089 14.0646C159.089 14.0646 159.119 14.0096 159.139 13.9946C159.264 13.8247 159.404 13.6697 159.563 13.5148L159.598 13.5448C159.648 13.5848 159.708 13.6297 159.768 13.6597C159.783 13.6697 159.793 13.6797 159.808 13.6897L159.848 13.7147L159.933 13.7647C160.163 13.8997 160.403 14.0196 160.648 14.1196C161.138 14.3345 161.658 14.4695 162.188 14.5395C162.718 14.6094 163.242 14.5995 163.772 14.5395C164.297 14.4695 164.817 14.3445 165.302 14.1546C165.782 13.9746 166.252 13.7447 166.691 13.4748C167.111 13.7547 167.506 14.0896 167.866 14.4445C167.771 14.5395 167.681 14.6344 167.586 14.7244ZM168.586 13.5997C168.461 13.7647 168.326 13.9197 168.191 14.0796C167.866 13.7547 167.511 13.4498 167.136 13.1849C167.511 12.9099 167.866 12.615 168.191 12.2901C168.326 12.4451 168.456 12.605 168.586 12.765C168.696 12.905 168.806 13.0499 168.916 13.1949C168.806 13.3398 168.696 13.4748 168.586 13.6197V13.5997ZM173.714 13.2349C173.669 13.2848 173.629 13.3398 173.584 13.3898L173.519 13.4648L173.459 13.5448L173.334 13.6947C173.259 13.7997 173.174 13.8997 173.099 14.0096L173.04 14.0896C173.04 14.0896 173 14.1396 172.98 14.1646L172.875 14.3245C172.875 14.3245 172.84 14.3795 172.815 14.4095L172.765 14.4945C172.73 14.5495 172.69 14.6094 172.655 14.6594L172.555 14.8294C172.52 14.8894 172.485 14.9393 172.455 14.9993L172.405 15.0843L172.35 15.1693C172.32 15.2293 172.285 15.2793 172.26 15.3392C172.2 15.4592 172.135 15.5692 172.075 15.6891L172.035 15.7741C172.035 15.7741 172 15.8341 171.99 15.8591L171.905 16.039L171.89 16.079L171.875 16.124L171.83 16.219C171.805 16.279 171.77 16.3389 171.755 16.3989L171.56 16.8888V16.8738H171.555L171.535 16.8238L171.46 16.6438L171.43 16.5489C171.43 16.5489 171.4 16.4889 171.385 16.4539C171.185 15.969 170.955 15.5042 170.705 15.0443C170.455 14.5795 170.185 14.1396 169.9 13.7047C169.78 13.5248 169.666 13.3548 169.536 13.1849C169.666 13.0149 169.78 12.835 169.9 12.665C170.185 12.2301 170.455 11.7853 170.705 11.3254C170.955 10.8656 171.185 10.4007 171.385 9.91083C171.4 9.88084 171.41 9.85585 171.43 9.82086L171.46 9.72589L171.535 9.54594L171.555 9.50595V9.48096L171.745 9.96582C171.77 10.0258 171.795 10.0858 171.825 10.1408L171.865 10.2357L171.88 10.2807L171.9 10.3207L171.98 10.5007C171.98 10.5007 172.01 10.5606 172.025 10.5856L172.065 10.6706C172.125 10.7906 172.185 10.9005 172.25 11.0205C172.285 11.0805 172.32 11.1305 172.345 11.1905L172.445 11.3604C172.48 11.4204 172.51 11.4704 172.545 11.5304L172.645 11.7003C172.68 11.7603 172.715 11.8153 172.755 11.8653L172.805 11.9502C172.805 11.9502 172.84 12.0002 172.865 12.0352L172.975 12.1952C172.975 12.1952 173.015 12.2451 173.035 12.2751L173.089 12.3501C173.164 12.4601 173.249 12.5651 173.324 12.665C173.369 12.715 173.409 12.765 173.454 12.82L173.509 12.895L173.579 12.9699C173.619 13.0249 173.664 13.0749 173.704 13.1249L173.754 13.1849L173.704 13.2449L173.714 13.2349ZM187.535 13.4048C187.505 13.4898 187.465 13.5748 187.425 13.6547C187.38 13.7397 187.325 13.8247 187.27 13.8997C187.215 13.9846 187.155 14.0646 187.095 14.1396C187.03 14.2146 186.97 14.2945 186.9 14.3695C186.835 14.4445 186.77 14.5245 186.69 14.5895C186.551 14.7344 186.401 14.8694 186.241 14.9993C186.146 15.0743 186.046 15.1543 185.956 15.2193L185.921 15.2443L185.886 15.2743C185.886 15.2743 185.836 15.3042 185.811 15.3242L185.651 15.4192L185.576 15.4692L185.491 15.5092C185.441 15.5342 185.381 15.5692 185.331 15.5942C185.221 15.6541 185.111 15.7041 184.996 15.7591C184.886 15.8091 184.771 15.8591 184.661 15.9091C184.601 15.9341 184.541 15.9541 184.481 15.979C184.456 15.989 184.426 16.004 184.401 16.014L184.316 16.049L184.231 16.079C184.231 16.079 184.171 16.099 184.146 16.109L183.971 16.169C183.971 16.169 183.911 16.184 183.876 16.194L183.786 16.219L183.691 16.244C183.691 16.244 183.636 16.259 183.601 16.269C183.366 16.3289 183.122 16.3789 182.877 16.4139C182.637 16.4489 182.392 16.4739 182.137 16.4889C182.082 16.4889 182.012 16.4889 181.957 16.4889H181.492C181.492 16.4889 181.432 16.4889 181.402 16.4889C181.342 16.4889 181.272 16.4889 181.217 16.4889L181.032 16.4739H180.982C180.982 16.4739 180.947 16.4739 180.937 16.4739H180.847C180.787 16.4539 180.717 16.4489 180.662 16.4389C179.678 16.3189 178.713 16.024 177.813 15.6042C176.903 15.1843 176.064 14.6344 175.299 13.9746C175.209 13.8997 175.114 13.8147 175.014 13.7297L174.879 13.5997C174.879 13.5997 174.839 13.5598 174.814 13.5348L174.744 13.4648C174.644 13.3698 174.554 13.2698 174.459 13.1749C174.554 13.0749 174.654 12.9799 174.744 12.885L174.814 12.82C174.814 12.82 174.854 12.775 174.879 12.75L175.014 12.62C175.109 12.5351 175.199 12.4501 175.299 12.3751C176.064 11.7303 176.903 11.1755 177.813 10.7456C178.713 10.3307 179.678 10.0308 180.662 9.91083C180.717 9.90584 180.787 9.89584 180.847 9.89584H180.937L180.982 9.88084H181.032L181.217 9.86085C181.272 9.86085 181.342 9.86085 181.402 9.86085C181.432 9.86085 181.457 9.86085 181.492 9.86085H181.957C182.012 9.86085 182.082 9.86085 182.137 9.87085C182.382 9.88584 182.637 9.90584 182.877 9.94582C183.122 9.98081 183.366 10.0308 183.601 10.0908C183.636 10.0908 183.661 10.1108 183.691 10.1158L183.786 10.1408L183.876 10.1708C183.876 10.1708 183.936 10.1858 183.971 10.1958L184.146 10.2557C184.146 10.2557 184.206 10.2707 184.231 10.2807L184.316 10.3157L184.401 10.3457C184.401 10.3457 184.456 10.3757 184.481 10.3807C184.541 10.4057 184.601 10.4257 184.661 10.4507C184.771 10.5007 184.886 10.5456 184.996 10.6056C185.106 10.6556 185.216 10.7156 185.331 10.7656C185.391 10.7906 185.441 10.8256 185.491 10.8506L185.576 10.8905L185.651 10.9455L185.811 11.0355C185.811 11.0355 185.861 11.0705 185.886 11.0905L185.956 11.1405C186.056 11.2105 186.146 11.2854 186.241 11.3604C186.401 11.4904 186.551 11.6353 186.69 11.7803C186.725 11.8153 186.76 11.8553 186.8 11.8903C186.835 11.9252 186.87 11.9652 186.9 12.0002C186.97 12.0752 187.035 12.1552 187.095 12.2302C187.22 12.3851 187.34 12.5551 187.43 12.715C187.475 12.8 187.515 12.885 187.55 12.9699C187.575 13.0549 187.59 13.1349 187.59 13.1999C187.59 13.2698 187.575 13.3448 187.55 13.4298L187.535 13.4048Z" fill="#AF9146"/>
<path d="M143.952 13.1748C143.952 12.6899 143.568 12.29 143.083 12.29C142.728 12.29 142.418 12.51 142.283 12.8199H139.644C139.519 12.59 139.284 12.425 138.999 12.425C138.714 12.425 138.479 12.58 138.349 12.8199H0V13.5247H138.369C138.494 13.7546 138.729 13.9196 139.014 13.9196C139.299 13.9196 139.534 13.7646 139.664 13.5247H142.298C142.433 13.8396 142.738 14.0545 143.098 14.0545C143.578 14.0545 143.972 13.6596 143.972 13.1698L143.952 13.1748Z" fill="#AF9146"/>
<path d="M152.585 12.0244C152.08 12.5792 151.415 12.9891 150.666 13.1691C151.415 13.344 152.08 13.7539 152.585 14.3087C152.825 13.8289 157.489 13.429 157.953 13.1691C157.489 12.9042 152.825 12.5043 152.585 12.0244Z" fill="#AF9146"/>
<path d="M152.55 14.9892L152.49 14.9143L152.455 14.8793L152.425 14.8393L152.33 14.7443L152.24 14.6393L152.13 14.5294L152.11 14.5144L152.095 14.4944L152.01 14.4094C152.01 14.4094 151.97 14.3694 151.955 14.3494L151.885 14.2944C151.885 14.2944 151.845 14.2495 151.82 14.2345L151.75 14.1745L151.735 14.1545L151.715 14.1395L151.685 14.1045L151.535 13.9845L151.491 13.9495L151.476 13.9345L151.376 13.8596L151.331 13.8246L151.291 13.7896L151.206 13.7296C151.206 13.7296 151.146 13.6896 151.111 13.6696C151.056 13.6296 150.986 13.5946 150.926 13.5497L150.901 13.5347L150.876 13.5147L150.776 13.4647L150.751 13.4497L150.726 13.4297L150.626 13.3797L150.601 13.3647L150.576 13.3447L150.476 13.2947L150.451 13.2797H150.426L150.316 13.2198H150.291L150.266 13.1948L150.216 13.1698H150.196L150.216 13.1498L150.266 13.1248H150.291L150.316 13.0998L150.426 13.0498H150.451L150.476 13.0248L150.526 12.9948L150.576 12.9698L150.626 12.9398L150.726 12.8849L150.751 12.8699L150.776 12.8499L150.876 12.7999L150.901 12.7849L150.926 12.7649C150.996 12.7249 151.056 12.6899 151.111 12.6499C151.146 12.6299 151.171 12.6049 151.206 12.5899L151.291 12.53L151.331 12.495L151.376 12.46L151.476 12.385L151.491 12.365L151.535 12.335L151.685 12.2151L151.715 12.1801L151.75 12.1451L151.82 12.0851C151.82 12.0851 151.86 12.0451 151.885 12.0251L151.955 11.9651C151.955 11.9651 151.995 11.9251 152.01 11.9051L152.24 11.6752L152.33 11.5752L152.425 11.4803L152.455 11.4403L152.49 11.4053L152.55 11.3253C152.55 11.3253 152.585 11.2853 152.6 11.2653L152.69 11.1504L152.575 11.2403C152.575 11.2403 152.535 11.2753 152.505 11.2953L152.43 11.3553L152.38 11.3853L152.28 11.4553L152.255 11.4703L152.23 11.4903L152.11 11.5652L151.985 11.6402H151.97L151.955 11.6602L151.92 11.6752L151.85 11.7202C151.85 11.7202 151.8 11.7452 151.775 11.7602L151.7 11.8052C151.7 11.8052 151.65 11.8302 151.625 11.8452L151.55 11.8901H151.535L151.516 11.9051L151.476 11.9251L151.391 11.9651L151.306 12.0101L151.266 12.0251H151.241L151.216 12.0451L151.121 12.0851L151.081 12.1001L151.036 12.1201L150.946 12.1551C150.946 12.1551 150.886 12.1801 150.851 12.1901C150.796 12.2151 150.726 12.23 150.661 12.255H150.636L150.611 12.275L150.561 12.29L150.506 12.305H150.481L150.456 12.325L150.356 12.36H150.331L150.306 12.375L150.256 12.39L150.206 12.41H150.181L150.156 12.425L150.056 12.45H150.006L149.956 12.475H149.901L149.876 12.495H149.851L149.751 12.52H149.701L149.651 12.535C149.586 12.555 149.516 12.5649 149.451 12.5699C149.316 12.5949 149.181 12.6149 149.046 12.6199C148.981 12.6199 148.911 12.6399 148.846 12.6399C148.826 12.6399 148.811 12.6399 148.796 12.6399H148.651C148.391 12.6649 148.146 12.6749 147.927 12.6749C147.702 12.6749 147.457 12.6749 147.207 12.6499H147.062C147.062 12.6499 147.032 12.6299 147.012 12.6299C146.947 12.6299 146.877 12.6199 146.812 12.6149C146.677 12.5949 146.542 12.5799 146.407 12.5649C146.342 12.5549 146.272 12.535 146.207 12.53H146.157L146.132 12.51H146.107L146.007 12.485H145.957L145.902 12.46H145.852L145.827 12.445H145.802L145.702 12.41H145.677L145.652 12.39L145.552 12.36H145.527L145.502 12.34L145.402 12.305H145.377L145.352 12.29L145.297 12.275L145.247 12.255H145.222L145.197 12.24C145.132 12.215 145.072 12.1951 145.007 12.1701C144.972 12.1601 144.947 12.1451 144.912 12.1351L144.822 12.1001L144.777 12.0851L144.738 12.0701L144.643 12.0251H144.618L144.593 12.0101L144.553 11.9901L144.468 11.9501L144.383 11.9051L144.343 11.8901H144.323L144.308 11.8702L144.233 11.8302C144.233 11.8302 144.183 11.8052 144.158 11.7852L144.083 11.7452C144.083 11.7452 144.033 11.7202 144.008 11.7002L143.903 11.6402H143.888L143.873 11.6252L143.743 11.5502L143.628 11.4703L143.578 11.4403L143.478 11.3703L143.453 11.3553L143.428 11.3353L143.348 11.2753C143.348 11.2753 143.298 11.2403 143.283 11.2253L143.168 11.1304L143.258 11.2503C143.258 11.2503 143.293 11.2953 143.308 11.3203L143.368 11.3953L143.403 11.4303L143.433 11.4703L143.528 11.5652L143.618 11.6702L143.848 11.9001C143.848 11.9001 143.888 11.9401 143.903 11.9601L143.973 12.0151C143.973 12.0151 144.013 12.0601 144.038 12.0751L144.108 12.1351L144.123 12.1551L144.173 12.2051L144.323 12.325L144.368 12.36L144.383 12.375L144.483 12.45L144.528 12.485L144.568 12.52L144.653 12.5799C144.653 12.5799 144.713 12.6199 144.748 12.6399C144.802 12.6799 144.872 12.7149 144.927 12.7599L144.957 12.7749L144.982 12.7949L145.082 12.8449L145.107 12.8599L145.132 12.8799L145.232 12.9298L145.257 12.9448L145.282 12.9648L145.382 13.0148L145.407 13.0298H145.432L145.542 13.0898H145.567L145.592 13.1148L145.642 13.1398H145.662L145.642 13.1598L145.592 13.1848H145.567L145.542 13.2098L145.432 13.2597H145.407L145.382 13.2847L145.332 13.3147L145.282 13.3397L145.232 13.3697L145.132 13.4247L145.032 13.4847L144.982 13.5097L144.957 13.5247L144.927 13.5447C144.862 13.5846 144.802 13.6196 144.748 13.6596C144.713 13.6796 144.688 13.7046 144.653 13.7196L144.568 13.7796L144.528 13.8146L144.483 13.8496L144.383 13.9245L144.368 13.9445L144.323 13.9745L144.173 14.0945L144.138 14.1295L144.123 14.1495L144.108 14.1645L144.038 14.2245C144.038 14.2245 143.998 14.2644 143.973 14.2844L143.903 14.3444C143.903 14.3444 143.863 14.3844 143.848 14.4044L143.763 14.4894L143.743 14.5044L143.728 14.5244L143.618 14.6343L143.528 14.7343L143.433 14.8293L143.403 14.8693L143.368 14.9043L143.308 14.9842C143.308 14.9842 143.273 15.0242 143.258 15.0492L143.168 15.1692L143.283 15.0742C143.283 15.0742 143.323 15.0442 143.348 15.0242L143.428 14.9642L143.453 14.9492L143.478 14.9292L143.528 14.8993L143.578 14.8643L143.603 14.8443L143.628 14.8293L143.743 14.7543L143.873 14.6743H143.888L143.903 14.6593L144.008 14.5993C144.008 14.5993 144.058 14.5744 144.083 14.5544L144.158 14.5144C144.158 14.5144 144.208 14.4894 144.233 14.4694L144.308 14.4294H144.323L144.343 14.4094L144.383 14.3944L144.468 14.3494L144.553 14.3094L144.593 14.2944H144.618L144.643 14.2744L144.738 14.2345L144.777 14.2145L144.822 14.1995L144.912 14.1645C144.912 14.1645 144.972 14.1395 145.007 14.1295C145.062 14.1045 145.132 14.0895 145.197 14.0645H145.222L145.247 14.0445L145.297 14.0295L145.352 14.0095H145.377L145.402 13.9945L145.502 13.9595H145.527L145.552 13.9445L145.602 13.9245L145.652 13.9096H145.677L145.702 13.8896L145.802 13.8646H145.852L145.902 13.8396H145.957L145.982 13.8246H146.007L146.107 13.7996H146.157L146.207 13.7796C146.272 13.7646 146.342 13.7546 146.407 13.7446C146.542 13.7196 146.677 13.7046 146.812 13.6946C146.877 13.6946 146.947 13.6796 147.012 13.6796C147.032 13.6796 147.047 13.6796 147.062 13.6796H147.207C147.467 13.6546 147.712 13.6446 147.927 13.6446C148.156 13.6446 148.401 13.6446 148.651 13.6696H148.796C148.796 13.6696 148.826 13.6896 148.846 13.6896C148.911 13.6896 148.981 13.6946 149.046 13.7046C149.181 13.7196 149.316 13.7396 149.451 13.7546C149.516 13.7646 149.586 13.7796 149.651 13.7896H149.701L149.726 13.8046H149.751L149.851 13.8296H149.901L149.956 13.8596H150.006L150.031 13.8746H150.056L150.156 13.9096H150.181L150.206 13.9245L150.256 13.9445L150.306 13.9595H150.331L150.356 13.9745L150.456 14.0095H150.481L150.506 14.0295L150.561 14.0445L150.611 14.0645H150.636L150.661 14.0795C150.726 14.1045 150.786 14.1195 150.851 14.1495C150.886 14.1545 150.911 14.1745 150.946 14.1795L151.036 14.2145L151.081 14.2345L151.121 14.2495L151.216 14.2944H151.241L151.266 14.3094L151.306 14.3244L151.391 14.3694L151.476 14.4094L151.516 14.4294H151.535L151.55 14.4444L151.625 14.4894C151.625 14.4894 151.675 14.5144 151.7 14.5294L151.775 14.5744C151.775 14.5744 151.825 14.5993 151.85 14.6143L151.92 14.6593L151.955 14.6743H151.97L151.985 14.6943L152.11 14.7693L152.23 14.8443L152.255 14.8643L152.28 14.8793L152.38 14.9492L152.405 14.9642L152.505 15.0442C152.505 15.0442 152.56 15.0742 152.575 15.0942L152.69 15.1842L152.6 15.0692C152.6 15.0692 152.565 15.0242 152.55 15.0092V14.9892Z" fill="#AF9146"/>
<path d="M248.247 12.6653C248.247 12.6653 248.292 12.6053 248.307 12.5803L248.342 12.5353L248.367 12.4953L248.382 12.4703L248.402 12.4453L248.427 12.3903C248.427 12.3903 248.457 12.3254 248.477 12.2904C248.492 12.2554 248.507 12.2204 248.527 12.1904C248.542 12.1554 248.552 12.1104 248.567 12.0754V12.0504L248.587 12.0154C248.587 12.0154 248.592 11.9755 248.602 11.9505V11.8455C248.602 11.8455 248.612 11.8205 248.612 11.8155C248.612 11.7855 248.612 11.7605 248.612 11.7455C248.612 11.7205 248.612 11.7005 248.602 11.6755L248.587 11.6156C248.587 11.6156 248.577 11.5756 248.567 11.5556C248.567 11.5406 248.552 11.5156 248.552 11.4956C248.552 11.4806 248.532 11.4656 248.527 11.4456C248.527 11.4306 248.507 11.4106 248.502 11.3956L248.477 11.3456C248.442 11.2757 248.407 11.2157 248.367 11.1557C248.322 11.0957 248.292 11.0357 248.247 10.9858C248.082 10.7658 247.897 10.5709 247.702 10.3809C247.602 10.286 247.502 10.201 247.392 10.116C247.342 10.076 247.282 10.031 247.222 10.001C247.207 9.99104 247.197 9.98105 247.182 9.97105C247.162 9.96605 247.147 9.95605 247.137 9.94606L247.058 9.89607L247.013 9.87108L246.973 9.84609L246.888 9.7961C246.888 9.7961 246.828 9.76111 246.798 9.75112L246.703 9.71113L246.613 9.66614C246.613 9.66614 246.553 9.64115 246.518 9.62615C246.458 9.59616 246.403 9.57117 246.333 9.54618C246.088 9.44621 245.838 9.36123 245.578 9.29125C245.318 9.22127 245.058 9.18128 244.798 9.14629C244.533 9.1113 244.268 9.09631 244.008 9.10631C243.743 9.10631 243.479 9.1213 243.219 9.15629C242.954 9.19128 242.694 9.24127 242.434 9.30125C242.174 9.36123 241.924 9.44621 241.679 9.53618C241.554 9.58116 241.434 9.64115 241.309 9.69113C241.274 9.71113 241.249 9.71613 241.219 9.73612C241.184 9.75112 241.159 9.76111 241.124 9.77611C241.064 9.8111 241.009 9.83609 240.949 9.87108C240.714 10.001 240.484 10.136 240.27 10.286C239.83 10.5859 239.43 10.9358 239.06 11.3007C238.965 11.3956 238.875 11.4806 238.79 11.5756C238.64 11.4056 238.495 11.2257 238.36 11.0457C238.21 10.8408 238.075 10.6459 237.95 10.4659C237.825 10.286 237.715 10.116 237.62 9.98105C237.43 9.71113 237.295 9.53618 237.235 9.56617C237.175 9.59116 237.19 9.8111 237.31 10.141C237.37 10.306 237.455 10.5009 237.56 10.7058C237.67 10.9108 237.805 11.1307 237.965 11.3456C238.115 11.5506 238.275 11.7555 238.455 11.9405C238.3 12.1104 238.16 12.2904 238.015 12.4603C237.93 12.5653 237.85 12.6753 237.77 12.7752C237.68 12.6503 237.595 12.5203 237.51 12.3903C237.235 11.9755 236.965 11.5406 236.731 11.0907C236.486 10.6459 236.271 10.186 236.076 9.71613C236.066 9.69113 236.051 9.65614 236.041 9.63115L236.006 9.54618L235.941 9.36623V9.34124H235.926V9.31624L235.891 9.23127L235.831 9.05132L235.706 8.69643L235.581 8.33653L235.521 8.15659L235.486 8.06661V8.03662L235.471 8.04662L235.456 8.0916L235.176 8.80639L234.806 9.76111C234.781 9.82109 234.756 9.88108 234.731 9.93106L234.696 10.016L234.681 10.056L234.666 10.101L234.581 10.271C234.581 10.271 234.556 10.3309 234.536 10.3559L234.496 10.4409C234.436 10.5509 234.376 10.6608 234.321 10.7758C234.286 10.8258 234.261 10.8858 234.226 10.9358L234.186 11.0207L234.136 11.1057C234.101 11.1557 234.066 11.2157 234.041 11.2657L233.941 11.4306C233.906 11.4806 233.876 11.5306 233.841 11.5906L233.791 11.6705C233.791 11.6705 233.756 11.7205 233.741 11.7455L233.631 11.9005C233.631 11.9005 233.596 11.9505 233.571 11.9755L233.512 12.0504C233.437 12.1554 233.362 12.2554 233.287 12.3503L233.167 12.4953L233.112 12.5703L233.052 12.6403C233.007 12.6902 232.967 12.7352 232.927 12.7852L232.907 12.8102C232.817 12.7152 232.722 12.6153 232.622 12.5303L232.557 12.4603C232.557 12.4603 232.507 12.4203 232.487 12.3903L232.347 12.2554C232.247 12.1704 232.152 12.0754 232.052 12.0005C231.252 11.3207 230.377 10.7408 229.428 10.306C228.483 9.86108 227.473 9.55617 226.429 9.42621C226.364 9.42121 226.304 9.41121 226.239 9.40122H226.139C226.139 9.40122 226.104 9.38622 226.089 9.38622H226.034L225.844 9.36623C225.774 9.36623 225.709 9.36623 225.649 9.36123C225.614 9.36123 225.584 9.36123 225.549 9.36123H225.059C224.994 9.36123 224.929 9.36123 224.869 9.36623C224.609 9.38622 224.349 9.41122 224.089 9.44621C223.824 9.48619 223.564 9.53118 223.315 9.59616C223.28 9.59616 223.245 9.61615 223.22 9.62615L223.13 9.65114L223.035 9.67614C223.035 9.67614 222.97 9.69113 222.945 9.70113L222.76 9.76111C222.76 9.76111 222.7 9.77611 222.665 9.7961L222.575 9.82609L222.48 9.86108C222.48 9.86108 222.425 9.88608 222.39 9.89607C222.33 9.92107 222.265 9.94606 222.205 9.96605C222.085 10.016 221.96 10.066 221.845 10.126C221.725 10.176 221.61 10.246 221.49 10.306C221.43 10.3409 221.375 10.3659 221.315 10.4009L221.145 10.5009C221.085 10.5359 221.035 10.5709 220.98 10.6059C220.955 10.6209 220.92 10.6359 220.895 10.6608L220.85 10.6908L220.81 10.7158C220.7 10.7908 220.59 10.8758 220.49 10.9608C220.325 11.1057 220.165 11.2507 220.005 11.4056C219.961 11.4456 219.931 11.4806 219.886 11.5256C219.851 11.5656 219.811 11.6006 219.776 11.6406C219.701 11.7305 219.636 11.8155 219.561 11.9005C219.416 12.0704 219.291 12.2554 219.171 12.4603C219.116 12.5653 219.061 12.6753 219.021 12.7952C218.981 12.9102 218.956 13.0401 218.946 13.1851C218.946 13.2201 218.946 13.2551 218.946 13.2951C218.946 13.3301 218.956 13.365 218.961 13.4C218.961 13.43 218.981 13.465 218.986 13.49C218.996 13.525 219.006 13.55 219.011 13.585C219.056 13.7049 219.106 13.8149 219.166 13.9199C219.221 14.0199 219.281 14.1198 219.351 14.2048C219.416 14.2998 219.481 14.3947 219.551 14.4797C219.616 14.5647 219.691 14.6497 219.771 14.7346C219.846 14.8196 219.921 14.8996 219.995 14.9746C220.145 15.1295 220.315 15.2795 220.48 15.4194C220.585 15.5044 220.69 15.5894 220.8 15.6644L220.845 15.6894L220.885 15.7144C220.885 15.7144 220.945 15.7493 220.97 15.7743C221.03 15.8093 221.08 15.8443 221.14 15.8793L221.22 15.9293L221.305 15.9793C221.365 16.0143 221.425 16.0493 221.48 16.0742C221.6 16.1342 221.72 16.1942 221.835 16.2542C221.955 16.3092 222.08 16.3642 222.195 16.4141C222.255 16.4391 222.325 16.4641 222.38 16.4841C222.415 16.4891 222.44 16.5091 222.475 16.5141L222.565 16.5491L222.66 16.5841C222.66 16.5841 222.72 16.6091 222.75 16.6191L222.935 16.6791C222.935 16.6791 222.995 16.6941 223.03 16.7041L223.12 16.7291L223.215 16.754C223.215 16.754 223.28 16.774 223.305 16.779C223.559 16.849 223.819 16.889 224.079 16.934C224.339 16.974 224.599 16.994 224.859 17.009C224.929 17.009 224.994 17.009 225.054 17.019H225.539C225.539 17.019 225.609 17.019 225.639 17.019C225.709 17.019 225.774 17.019 225.834 17.009L226.029 16.994H226.079C226.079 16.994 226.114 16.994 226.129 16.994H226.229C226.299 16.974 226.354 16.969 226.424 16.959C227.463 16.829 228.473 16.5241 229.423 16.0792C230.372 15.6394 231.252 15.0695 232.042 14.3847C232.142 14.2998 232.237 14.2148 232.337 14.1298L232.482 13.9949C232.482 13.9949 232.532 13.9499 232.547 13.9249L232.612 13.8599C232.707 13.7649 232.807 13.67 232.892 13.575L232.907 13.6C232.952 13.655 232.992 13.695 233.032 13.7449L233.092 13.8149L233.152 13.8899L233.272 14.0349C233.347 14.1398 233.422 14.2348 233.497 14.3348L233.556 14.4097C233.556 14.4097 233.586 14.4647 233.611 14.4897L233.721 14.6397C233.721 14.6397 233.756 14.6947 233.771 14.7196L233.821 14.7946C233.856 14.8446 233.891 14.8996 233.926 14.9546L234.026 15.1195C234.061 15.1695 234.091 15.2295 234.126 15.2795L234.176 15.3645L234.216 15.4494C234.251 15.5044 234.276 15.5594 234.311 15.6144C234.371 15.7244 234.426 15.8343 234.486 15.9443L234.531 16.0293C234.531 16.0293 234.556 16.0892 234.571 16.1142L234.656 16.2842L234.671 16.3292L234.691 16.3692L234.721 16.4541C234.746 16.5141 234.771 16.5691 234.796 16.6291L235.166 17.5738L235.456 18.2886L235.471 18.3286C235.471 18.3286 235.471 18.3586 235.481 18.3386V18.3136L235.521 18.2186L235.581 18.0387L235.706 17.6838L235.831 17.3239L235.891 17.1489L235.926 17.059V17.044H235.931V17.009L236.006 16.829L236.041 16.7441C236.041 16.7441 236.066 16.6841 236.076 16.6591C236.271 16.1942 236.486 15.7393 236.731 15.2895C236.975 14.8446 237.235 14.4097 237.51 13.9849C237.595 13.8599 237.69 13.7299 237.77 13.6C237.855 13.7049 237.93 13.8149 238.015 13.9199C238.16 14.0948 238.3 14.2648 238.455 14.4397C238.285 14.6247 238.115 14.8296 237.965 15.0346C237.805 15.2445 237.67 15.4694 237.56 15.6744C237.455 15.8793 237.37 16.0742 237.31 16.2342C237.19 16.5691 237.165 16.789 237.235 16.814C237.3 16.839 237.435 16.6691 237.62 16.3992C237.715 16.2592 237.83 16.0892 237.95 15.9093C238.075 15.7343 238.21 15.5344 238.36 15.3295C238.495 15.1545 238.64 14.9746 238.79 14.8046C238.88 14.8996 238.965 14.9896 239.06 15.0745C239.43 15.4444 239.83 15.7943 240.27 16.0892C240.484 16.2442 240.714 16.3792 240.949 16.5091C241.009 16.5441 241.064 16.5691 241.124 16.5991C241.159 16.6191 241.184 16.6291 241.219 16.6441C241.249 16.6591 241.274 16.6691 241.309 16.6841C241.429 16.7391 241.554 16.799 241.679 16.839C241.929 16.934 242.184 17.009 242.434 17.079C242.694 17.1389 242.954 17.1889 243.219 17.2239C243.479 17.2589 243.743 17.2739 244.008 17.2739C244.268 17.2739 244.533 17.2589 244.798 17.2339C245.058 17.1989 245.318 17.1539 245.578 17.0889C245.838 17.019 246.088 16.934 246.333 16.829C246.393 16.804 246.458 16.779 246.518 16.754C246.553 16.7391 246.578 16.7291 246.613 16.7141L246.703 16.6691L246.798 16.6291C246.798 16.6291 246.853 16.5941 246.888 16.5841L246.973 16.5341L247.013 16.5091L247.058 16.4841L247.137 16.4291C247.137 16.4291 247.172 16.4141 247.182 16.4042C247.197 16.3992 247.217 16.3892 247.222 16.3792C247.282 16.3392 247.342 16.3042 247.392 16.2592C247.502 16.1742 247.602 16.0892 247.702 15.9943C247.897 15.8093 248.082 15.6144 248.247 15.3895C248.292 15.3295 248.332 15.2795 248.367 15.2195C248.407 15.1595 248.442 15.0995 248.477 15.0346L248.502 14.9846C248.502 14.9846 248.517 14.9496 248.527 14.9296C248.527 14.9146 248.542 14.8996 248.552 14.8796C248.552 14.8646 248.567 14.8446 248.567 14.8196C248.567 14.8046 248.577 14.7796 248.587 14.7596L248.602 14.6997C248.602 14.6997 248.602 14.6597 248.612 14.6347C248.612 14.6097 248.612 14.5797 248.612 14.5647C248.612 14.5547 248.612 14.5397 248.612 14.5297V14.4297C248.612 14.4297 248.592 14.3847 248.587 14.3598V14.3248L248.567 14.2998C248.567 14.2998 248.542 14.2248 248.527 14.1898C248.507 14.1548 248.492 14.1198 248.477 14.0898C248.457 14.0548 248.442 14.0199 248.427 13.9849L248.402 13.9349L248.382 13.9099L248.367 13.8849L248.342 13.8399L248.307 13.7999C248.307 13.7999 248.267 13.7399 248.247 13.7149C248.112 13.525 247.962 13.365 247.802 13.2101C247.962 13.0551 248.112 12.8852 248.247 12.7102V12.6653ZM232.252 13.465L232.187 13.535C232.187 13.535 232.142 13.575 232.117 13.6L231.982 13.7299C231.892 13.8149 231.797 13.8999 231.697 13.9749C230.932 14.6247 230.093 15.1795 229.188 15.6044C228.288 16.0243 227.323 16.3192 226.339 16.4391C226.279 16.4491 226.214 16.4541 226.154 16.4541H226.059C226.059 16.4541 226.029 16.4741 226.019 16.4741H225.969L225.784 16.4891C225.724 16.4891 225.659 16.4891 225.599 16.4891C225.564 16.4891 225.539 16.4891 225.509 16.4891H225.044C224.984 16.4891 224.919 16.4891 224.859 16.4841C224.614 16.4641 224.364 16.4491 224.119 16.4042C223.874 16.3692 223.634 16.3192 223.399 16.2592C223.364 16.2592 223.34 16.2442 223.305 16.2342L223.215 16.2092L223.12 16.1842C223.12 16.1842 223.06 16.1692 223.03 16.1592L222.85 16.0992C222.85 16.0992 222.795 16.0792 222.77 16.0742L222.6 16.0043C222.6 16.0043 222.54 15.9793 222.515 15.9693C222.455 15.9443 222.4 15.9293 222.34 15.9043C222.22 15.8493 222.115 15.8093 222.005 15.7493C221.895 15.6994 221.785 15.6394 221.665 15.5894C221.61 15.5594 221.56 15.5294 221.51 15.5044L221.425 15.4594L221.35 15.4094L221.19 15.3145C221.19 15.3145 221.14 15.2795 221.115 15.2645L221.045 15.2145C220.945 15.1445 220.85 15.0695 220.76 14.9896C220.6 14.8646 220.45 14.7196 220.305 14.5797C220.23 14.5147 220.165 14.4397 220.095 14.3598C220.03 14.2848 219.961 14.2048 219.901 14.1298C219.836 14.0548 219.776 13.9699 219.726 13.8899C219.666 13.8049 219.616 13.7299 219.576 13.645C219.536 13.56 219.491 13.475 219.466 13.4C219.441 13.3151 219.426 13.2351 219.426 13.1701C219.426 13.1001 219.441 13.0251 219.466 12.9402C219.491 12.8502 219.536 12.7652 219.586 12.6803C219.676 12.5103 219.796 12.3503 219.921 12.1954C219.985 12.1204 220.045 12.0454 220.11 11.9655C220.145 11.9305 220.18 11.8905 220.215 11.8555C220.245 11.8205 220.28 11.7805 220.325 11.7455C220.465 11.6006 220.615 11.4656 220.775 11.3257C220.87 11.2507 220.97 11.1757 221.06 11.1057L221.13 11.0557C221.13 11.0557 221.18 11.0207 221.205 11.0057L221.365 10.9108L221.44 10.8608L221.525 10.8158C221.575 10.7908 221.635 10.7558 221.685 10.7308C221.795 10.6708 221.905 10.6209 222.02 10.5709C222.13 10.5159 222.245 10.4659 222.355 10.4159C222.415 10.3909 222.475 10.3709 222.535 10.3459C222.56 10.3409 222.59 10.3209 222.615 10.3159L222.785 10.246C222.785 10.246 222.845 10.231 222.87 10.221L223.045 10.161C223.045 10.161 223.105 10.141 223.14 10.136L223.23 10.111L223.325 10.086C223.325 10.086 223.379 10.066 223.414 10.056C223.649 10.001 223.894 9.94606 224.139 9.91107C224.379 9.88108 224.624 9.85608 224.874 9.83609C224.934 9.83609 225.004 9.83609 225.059 9.83609H225.524C225.524 9.83609 225.584 9.83609 225.614 9.83609C225.674 9.83609 225.744 9.83609 225.799 9.83609L225.984 9.85608H226.079L226.169 9.87108C226.229 9.87108 226.299 9.88108 226.354 9.88608C227.338 10.006 228.303 10.306 229.203 10.7208C230.113 11.1407 230.952 11.6955 231.717 12.3503C231.807 12.4253 231.902 12.5103 232.002 12.5953L232.137 12.7252C232.137 12.7252 232.177 12.7652 232.202 12.7952L232.272 12.8602C232.372 12.9552 232.462 13.0551 232.557 13.1501C232.462 13.2551 232.362 13.3451 232.272 13.44L232.252 13.465ZM237.09 13.695C236.806 14.1298 236.536 14.5747 236.286 15.0346C236.031 15.4944 235.806 15.9643 235.606 16.4491C235.586 16.4841 235.581 16.5091 235.561 16.5441L235.531 16.6341L235.456 16.814L235.436 16.859V16.884L235.246 16.3992C235.216 16.3392 235.191 16.2792 235.166 16.2192L235.126 16.1242L235.111 16.0792L235.091 16.0393L235.006 15.8593C235.006 15.8593 234.981 15.7993 234.966 15.7743L234.926 15.6894C234.866 15.5694 234.806 15.4594 234.741 15.3395C234.706 15.2795 234.671 15.2295 234.646 15.1695L234.546 14.9996C234.511 14.9396 234.481 14.8896 234.446 14.8296L234.346 14.6597C234.311 14.5997 234.276 14.5497 234.236 14.4947L234.186 14.4097C234.186 14.4097 234.151 14.3598 234.126 14.3248L234.016 14.1648C234.016 14.1648 233.976 14.1148 233.956 14.0898L233.901 14.0099C233.821 13.8999 233.741 13.7999 233.666 13.695L233.536 13.545L233.482 13.465L233.412 13.39C233.372 13.3401 233.327 13.2851 233.287 13.2351L233.237 13.1751L233.287 13.1151C233.327 13.0651 233.372 13.0152 233.412 12.9652L233.482 12.8852L233.536 12.8102C233.581 12.7602 233.621 12.7102 233.666 12.6553C233.741 12.5553 233.821 12.4503 233.901 12.3404L233.956 12.2654C233.956 12.2654 234.001 12.2154 234.016 12.1904L234.126 12.0254C234.126 12.0254 234.161 11.9755 234.186 11.9405L234.236 11.8555C234.271 11.8055 234.311 11.7455 234.346 11.6955L234.446 11.5256C234.481 11.4656 234.511 11.4106 234.546 11.3556L234.596 11.2657L234.646 11.1807C234.681 11.1207 234.716 11.0707 234.741 11.0107C234.796 10.8908 234.866 10.7808 234.926 10.6608L234.966 10.5759C234.966 10.5759 235.001 10.5159 235.006 10.4909L235.091 10.3159L235.111 10.271L235.126 10.231L235.166 10.136C235.191 10.076 235.226 10.016 235.246 9.95605L235.436 9.4712V9.48619H235.446L235.461 9.53618L235.536 9.71613L235.571 9.8111C235.571 9.8111 235.596 9.87108 235.611 9.90607C235.816 10.3909 236.041 10.8608 236.296 11.3207C236.546 11.7805 236.816 12.2204 237.1 12.6553C237.215 12.8352 237.335 13.0052 237.46 13.1751C237.335 13.3451 237.215 13.525 237.1 13.695H237.09ZM238.79 14.0698C238.655 13.9199 238.53 13.7549 238.395 13.595C238.285 13.455 238.175 13.3151 238.065 13.1701C238.175 13.0251 238.285 12.8852 238.395 12.7402C238.52 12.5803 238.655 12.4253 238.79 12.2654C239.115 12.5903 239.47 12.8952 239.85 13.1601C239.47 13.43 239.115 13.7299 238.79 14.0548V14.0698ZM247.852 13.9849C247.852 13.9849 247.887 14.0349 247.902 14.0548L247.927 14.0898L247.952 14.1198V14.1398L247.982 14.1548L248.007 14.1898C248.007 14.1898 248.032 14.2398 248.037 14.2598C248.047 14.2848 248.062 14.3098 248.072 14.3248C248.072 14.3498 248.087 14.3698 248.097 14.3947C248.112 14.4397 248.112 14.4797 248.112 14.5047V14.5897C248.112 14.5897 248.097 14.6147 248.087 14.6247C248.072 14.6697 248.057 14.7196 248.032 14.7596C248.007 14.8146 247.982 14.8546 247.947 14.9046C247.912 14.9546 247.877 14.9996 247.847 15.0496C247.702 15.2395 247.532 15.4194 247.357 15.5894C247.267 15.6744 247.172 15.7493 247.082 15.8243C247.033 15.8593 246.988 15.8943 246.938 15.9293C246.928 15.9293 246.913 15.9443 246.903 15.9543C246.898 15.9543 246.878 15.9693 246.873 15.9793L246.798 16.0293L246.753 16.0543L246.713 16.0792L246.638 16.1242C246.638 16.1242 246.588 16.1492 246.553 16.1692L246.468 16.2092L246.383 16.2542C246.383 16.2542 246.323 16.2792 246.298 16.2942C246.243 16.3192 246.193 16.3442 246.133 16.3642C245.903 16.4541 245.678 16.5341 245.443 16.5941C245.208 16.6541 244.963 16.6941 244.718 16.7291C244.478 16.764 244.233 16.774 243.988 16.774C243.743 16.774 243.504 16.754 243.259 16.7291C243.014 16.6941 242.769 16.6541 242.534 16.5941C242.299 16.5341 242.064 16.4641 241.839 16.3692C241.719 16.3292 241.614 16.2792 241.504 16.2242C241.479 16.2192 241.444 16.1992 241.419 16.1842C241.394 16.1692 241.359 16.1592 241.334 16.1392C241.284 16.1142 241.224 16.0892 241.174 16.0543C240.954 15.9343 240.744 15.8093 240.544 15.6744C240.14 15.3895 239.755 15.0695 239.4 14.7196C239.31 14.6247 239.22 14.5297 239.125 14.4397C239.485 14.0798 239.88 13.7449 240.299 13.465C240.739 13.7399 241.199 13.9699 241.689 14.1498C242.184 14.3348 242.694 14.4647 243.219 14.5297C243.738 14.5997 244.273 14.6097 244.803 14.5297C245.333 14.4647 245.848 14.3248 246.343 14.1148C246.588 14.0099 246.823 13.8899 247.058 13.7549L247.137 13.7049C247.137 13.7049 247.172 13.69 247.182 13.68C247.197 13.67 247.217 13.66 247.222 13.655C247.282 13.61 247.342 13.575 247.392 13.535L247.427 13.51C247.577 13.66 247.727 13.8149 247.852 13.9849ZM240.779 13.1751C241.124 12.9802 241.484 12.8102 241.854 12.6753C242.319 12.5053 242.794 12.3853 243.284 12.3154C243.768 12.2554 244.258 12.2454 244.743 12.3154C245.223 12.3753 245.703 12.5053 246.148 12.7002C246.373 12.7952 246.593 12.9052 246.803 13.0301L246.878 13.0851L246.913 13.1101C246.913 13.1101 246.938 13.1251 246.948 13.1351C246.983 13.1501 247.008 13.1751 247.038 13.2001C247.008 13.2251 246.983 13.2451 246.948 13.2701C246.938 13.2701 246.923 13.2851 246.913 13.2951L246.878 13.3201L246.803 13.37C246.593 13.5 246.373 13.61 246.148 13.7049C245.703 13.8899 245.223 14.0199 244.743 14.0898C244.258 14.1498 243.768 14.1498 243.284 14.0898C242.794 14.0299 242.319 13.8999 241.854 13.7299C241.484 13.595 241.124 13.425 240.779 13.2251V13.1751ZM247.852 12.3653C247.727 12.5353 247.587 12.6902 247.427 12.8452L247.392 12.8202C247.342 12.7752 247.282 12.7352 247.222 12.7002C247.207 12.6902 247.197 12.6803 247.182 12.6753C247.162 12.6653 247.147 12.6553 247.137 12.6503L247.058 12.5953C246.828 12.4603 246.588 12.3403 246.343 12.2404C245.853 12.0254 245.333 11.8905 244.803 11.8205C244.273 11.7555 243.743 11.7605 243.219 11.8205C242.694 11.8905 242.174 12.0154 241.689 12.2054C241.209 12.3853 240.739 12.6153 240.299 12.8852C239.88 12.6053 239.485 12.2754 239.125 11.9155C239.215 11.8205 239.31 11.7305 239.4 11.6356C239.755 11.2857 240.14 10.9608 240.544 10.6808C240.744 10.5359 240.954 10.4059 241.174 10.296C241.224 10.271 241.284 10.236 241.334 10.211C241.359 10.196 241.394 10.186 241.419 10.171C241.444 10.151 241.479 10.141 241.504 10.126C241.614 10.076 241.729 10.026 241.839 9.98105C242.064 9.89607 242.299 9.82109 242.534 9.76111C242.769 9.70113 243.014 9.65614 243.259 9.62615C243.504 9.59116 243.743 9.58117 243.988 9.58117C244.233 9.58117 244.478 9.59116 244.718 9.62615C244.963 9.65114 245.198 9.70113 245.443 9.76111C245.678 9.82109 245.913 9.89607 246.133 9.99104C246.193 10.016 246.243 10.041 246.298 10.056C246.323 10.066 246.358 10.086 246.383 10.101L246.468 10.141L246.553 10.186C246.553 10.186 246.603 10.211 246.638 10.231L246.713 10.271L246.753 10.296L246.798 10.3209L246.873 10.3709C246.873 10.3709 246.898 10.3909 246.903 10.4009C246.913 10.4009 246.928 10.4159 246.938 10.4259C246.988 10.4609 247.033 10.4909 247.082 10.5259C247.172 10.6059 247.267 10.6808 247.357 10.7658C247.532 10.9258 247.702 11.1057 247.847 11.3007C247.877 11.3556 247.912 11.3956 247.947 11.4456C247.982 11.4956 248.007 11.5406 248.032 11.5906C248.057 11.6406 248.072 11.6855 248.087 11.7305C248.087 11.7355 248.087 11.7555 248.097 11.7605V11.8455C248.097 11.8455 248.097 11.9155 248.097 11.9605C248.097 11.9855 248.082 12.0005 248.072 12.0254C248.062 12.0504 248.057 12.0754 248.037 12.0954C248.032 12.1204 248.012 12.1454 248.007 12.1604L247.982 12.1954V12.2154L247.952 12.2304L247.902 12.3004C247.902 12.3004 247.872 12.3503 247.852 12.3653Z" fill="#AF9146"/>
<path d="M268.631 12.8199C268.506 12.59 268.271 12.425 267.981 12.425C267.696 12.425 267.461 12.58 267.336 12.8199H264.697C264.562 12.505 264.262 12.29 263.902 12.29C263.422 12.29 263.027 12.6799 263.027 13.1748C263.027 13.6696 263.412 14.0645 263.902 14.0645C264.252 14.0645 264.562 13.8396 264.697 13.5347H267.336C267.461 13.7646 267.696 13.9246 267.981 13.9246C268.271 13.9246 268.506 13.7746 268.631 13.5347H407V12.8249H268.631V12.8199Z" fill="#AF9146"/>
<path d="M254.415 14.3195C254.92 13.7646 255.584 13.3548 256.329 13.1748C255.584 12.9949 254.92 12.59 254.415 12.0352C254.17 12.51 249.506 12.9099 249.046 13.1748C249.506 13.4397 254.17 13.8396 254.415 14.3195Z" fill="#AF9146"/>
<path d="M263.692 14.9895L263.632 14.9145L263.612 14.8995L263.597 14.8795L263.562 14.8395L263.522 14.7945L263.472 14.7445L263.377 14.6396L263.253 14.5146L263.238 14.4946L263.153 14.4096C263.153 14.4096 263.113 14.3696 263.093 14.3497L263.028 14.2947C263.028 14.2947 262.983 14.2497 262.958 14.2347L262.893 14.1747L262.878 14.1547L262.858 14.1397L262.823 14.1047L262.673 13.9848L262.633 13.9498L262.613 13.9348L262.598 13.9198L262.513 13.8598C262.513 13.8598 262.488 13.8398 262.473 13.8248L262.428 13.7898L262.348 13.7298C262.348 13.7298 262.288 13.6898 262.253 13.6699C262.193 13.6299 262.128 13.5949 262.068 13.5499L262.043 13.5349L262.018 13.5149L261.918 13.4649L261.893 13.4499L261.868 13.4299L261.768 13.3799L261.743 13.3649L261.718 13.3449L261.663 13.32L261.613 13.295L261.588 13.28H261.563L261.453 13.22H261.428L261.403 13.195L261.353 13.17H261.338L261.353 13.15L261.403 13.125H261.428L261.453 13.1L261.563 13.05H261.588L261.613 13.025L261.663 12.9951L261.718 12.9701L261.768 12.9401L261.868 12.8851L261.893 12.8701L261.918 12.8501L262.018 12.8001L262.043 12.7851L262.068 12.7651C262.138 12.7251 262.193 12.6901 262.253 12.6502C262.288 12.6302 262.313 12.6052 262.348 12.5902L262.428 12.5302L262.473 12.4952L262.513 12.4602L262.598 12.4002L262.633 12.3652L262.673 12.3352L262.823 12.2153L262.893 12.1453L262.958 12.0853C262.958 12.0853 263.003 12.0453 263.028 12.0253L263.093 11.9654C263.093 11.9654 263.138 11.9254 263.153 11.9054L263.253 11.8054L263.268 11.7854L263.377 11.6754L263.472 11.5755L263.522 11.5255L263.562 11.4805L263.597 11.4405L263.612 11.4205L263.632 11.4055L263.692 11.3255C263.692 11.3255 263.722 11.2856 263.742 11.2606L263.832 11.1406L263.717 11.2356C263.717 11.2356 263.672 11.2656 263.647 11.2856L263.572 11.3455L263.547 11.3605L263.522 11.3805L263.472 11.4105L263.422 11.4455L263.397 11.4655L263.372 11.4805L263.253 11.5555L263.128 11.6355H263.113L263.093 11.6504L263.058 11.6704L262.993 11.7104C262.993 11.7104 262.943 11.7354 262.918 11.7554L262.843 11.7954C262.843 11.7954 262.793 11.8204 262.768 11.8404L262.693 11.8804H262.673L262.658 11.9004L262.613 11.9154L262.533 11.9604L262.448 12.0003L262.403 12.0153H262.378L262.353 12.0353L262.218 12.0953L262.178 12.1103L262.088 12.1453C262.088 12.1453 262.028 12.1703 261.993 12.1803C261.933 12.2053 261.868 12.2203 261.798 12.2453H261.773L261.748 12.2653L261.698 12.2803L261.648 12.3003H261.623L261.598 12.3153L261.498 12.3502H261.473L261.448 12.3652L261.398 12.3852L261.348 12.4002H261.323L261.298 12.4202L261.193 12.4452H261.143L261.093 12.4702H261.043L261.018 12.4852H260.993L260.893 12.5102H260.843L260.793 12.5302C260.723 12.5452 260.658 12.5552 260.588 12.5652C260.453 12.5902 260.323 12.6052 260.188 12.6152C260.118 12.6152 260.053 12.6302 259.983 12.6302C259.969 12.6302 259.954 12.6302 259.934 12.6302H259.794C259.534 12.6552 259.289 12.6651 259.069 12.6651C258.844 12.6651 258.599 12.6651 258.349 12.6402H258.204C258.204 12.6402 258.169 12.6202 258.154 12.6202C258.084 12.6202 258.019 12.6152 257.954 12.6052C257.819 12.5902 257.684 12.5702 257.549 12.5552C257.479 12.5452 257.414 12.5302 257.349 12.5202H257.299L257.269 12.5052H257.244L257.144 12.4752H257.094L257.044 12.4502H256.994L256.969 12.4352H256.944L256.844 12.4002H256.819L256.794 12.3852L256.744 12.3652L256.689 12.3502H256.664L256.639 12.3352L256.54 12.3003H256.515L256.49 12.2803L256.44 12.2653L256.39 12.2453H256.365L256.34 12.2303C256.27 12.2053 256.215 12.1903 256.145 12.1603C256.115 12.1553 256.085 12.1353 256.055 12.1303L255.96 12.0953L255.92 12.0753L255.875 12.0603L255.785 12.0153H255.76L255.735 12.0003L255.69 11.9854L255.61 11.9404L255.525 11.9004L255.48 11.8804H255.465L255.45 11.8654L255.375 11.8204C255.375 11.8204 255.325 11.7954 255.3 11.7804L255.22 11.7354C255.22 11.7354 255.17 11.7104 255.145 11.6954L255.08 11.6504L255.045 11.6355H255.03L255.01 11.6155L254.885 11.5405L254.77 11.4655L254.745 11.4455L254.72 11.4305L254.665 11.3955L254.615 11.3605L254.59 11.3455L254.49 11.2656C254.49 11.2656 254.44 11.2356 254.425 11.2156L254.305 11.1206L254.4 11.2406C254.4 11.2406 254.43 11.2856 254.45 11.3006L254.51 11.3805L254.54 11.4105L254.575 11.4555L254.615 11.4955L254.64 11.5255L254.665 11.5505L254.76 11.6504L254.87 11.7604L254.885 11.7804L254.905 11.7954L254.93 11.8204L254.985 11.8804C254.985 11.8804 255.03 11.9254 255.045 11.9404L255.115 12.0003C255.115 12.0003 255.155 12.0453 255.18 12.0603L255.245 12.1203L255.265 12.1353L255.28 12.1553L255.315 12.1903L255.39 12.2453L255.465 12.3053L255.51 12.3402L255.525 12.3602L255.54 12.3752L255.625 12.4352L255.665 12.4702L255.71 12.5052L255.795 12.5652C255.795 12.5652 255.85 12.6052 255.885 12.6202C255.945 12.6652 256.01 12.7001 256.07 12.7401L256.095 12.7601L256.12 12.7751L256.22 12.8251L256.245 12.8451L256.27 12.8601L256.375 12.9101L256.4 12.9301L256.425 12.9451L256.525 12.9951L256.55 13.015H256.575L256.684 13.075H256.709L256.734 13.1L256.784 13.125H256.799L256.784 13.14L256.734 13.17H256.709L256.684 13.195L256.575 13.245H256.55L256.525 13.27L256.425 13.32L256.4 13.34L256.375 13.3549L256.27 13.4049L256.245 13.4249L256.22 13.4399L256.12 13.4899L256.095 13.5099L256.07 13.5249C256.005 13.5699 255.945 13.5999 255.885 13.6449C255.85 13.6599 255.825 13.6898 255.795 13.7048L255.71 13.7648L255.665 13.7998L255.625 13.8298L255.54 13.8898L255.525 13.9098L255.51 13.9248L255.465 13.9598L255.315 14.0797L255.245 14.1497L255.18 14.2047C255.18 14.2047 255.14 14.2497 255.115 14.2647L255.045 14.3247C255.045 14.3247 255.005 14.3696 254.985 14.3846L254.93 14.4446L254.76 14.6146L254.665 14.7195L254.615 14.7695L254.575 14.8145L254.54 14.8545L254.525 14.8695L254.51 14.8895L254.45 14.9645C254.45 14.9645 254.415 15.0095 254.4 15.0245L254.305 15.1444L254.425 15.0494C254.425 15.0494 254.465 15.0145 254.49 14.9995L254.565 14.9395L254.59 14.9245L254.615 14.9045L254.665 14.8695L254.72 14.8395L254.745 14.8195L254.77 14.8045L254.885 14.7245L255.01 14.6496H255.03L255.045 14.6346L255.08 14.6146L255.145 14.5746C255.145 14.5746 255.195 14.5496 255.22 14.5296L255.3 14.4896C255.3 14.4896 255.35 14.4646 255.375 14.4446L255.45 14.4046H255.465L255.48 14.3846L255.525 14.3696L255.61 14.3247L255.69 14.2847L255.735 14.2647H255.76L255.785 14.2497L255.875 14.2047L255.92 14.1897L255.96 14.1747L256.055 14.1397C256.055 14.1397 256.115 14.1147 256.145 14.1047C256.205 14.0797 256.27 14.0647 256.34 14.0347H256.365L256.39 14.0197L256.44 14.0048L256.49 13.9848H256.515L256.54 13.9698L256.639 13.9348H256.664L256.689 13.9198L256.744 13.8998L256.794 13.8848H256.819L256.844 13.8648L256.944 13.8398H256.994L257.044 13.8148H257.094L257.119 13.7998H257.144L257.244 13.7748H257.299L257.349 13.7548C257.414 13.7398 257.479 13.7298 257.549 13.7198C257.684 13.6948 257.819 13.6799 257.954 13.6699C258.019 13.6699 258.084 13.6549 258.154 13.6549C258.169 13.6549 258.189 13.6549 258.204 13.6549H258.349C258.609 13.6299 258.849 13.6199 259.069 13.6199C259.299 13.6199 259.539 13.6199 259.794 13.6449H259.934C259.934 13.6449 259.969 13.6599 259.983 13.6599C260.053 13.6599 260.118 13.6699 260.188 13.6798C260.323 13.6948 260.453 13.7148 260.588 13.7298C260.658 13.7398 260.723 13.7548 260.793 13.7648H260.843L260.868 13.7798H260.893L260.993 13.8048H261.043L261.093 13.8298H261.143L261.168 13.8498H261.193L261.298 13.8848H261.323L261.348 13.8998L261.398 13.9198L261.448 13.9348H261.473L261.498 13.9498L261.598 13.9848H261.623L261.648 14.0048L261.748 14.0347H261.773L261.798 14.0547C261.868 14.0797 261.928 14.0947 261.993 14.1197C262.028 14.1297 262.053 14.1497 262.088 14.1547L262.178 14.1897L262.218 14.2047L262.353 14.2647H262.378L262.403 14.2847L262.448 14.2997L262.533 14.3447L262.613 14.3846L262.658 14.4046H262.673L262.693 14.4196L262.768 14.4646C262.768 14.4646 262.818 14.4896 262.843 14.5046L262.918 14.5496C262.918 14.5496 262.968 14.5746 262.993 14.5896L263.058 14.6346L263.093 14.6496H263.113L263.128 14.6696L263.253 14.7445L263.372 14.8195L263.397 14.8395L263.422 14.8545L263.522 14.9245L263.572 14.9545L263.647 15.0145C263.647 15.0145 263.697 15.0494 263.717 15.0694L263.832 15.1594L263.742 15.0444C263.742 15.0444 263.707 14.9995 263.692 14.9745V14.9895Z" fill="#AF9146"/>
<mask id="mask0_71_6620" style="mask-type:luminance" maskUnits="userSpaceOnUse" x="199" y="0" width="15" height="11">
<path d="M199.681 0.233887H213.757V10.7708H199.681V0.233887Z" fill="white"/>
</mask>
<g mask="url(#mask0_71_6620)">
<path d="M200.641 3.73748L200.656 3.86244L200.671 3.9924V4.05239L200.696 4.11237L200.756 4.36729C200.781 4.45227 200.796 4.52725 200.821 4.61222L200.841 4.6722C200.841 4.6722 200.851 4.71719 200.856 4.73219L200.901 4.85215L200.941 4.97212C200.941 4.97212 200.956 5.0121 200.966 5.0321L200.991 5.09208L201.086 5.32701C201.116 5.40699 201.151 5.48196 201.191 5.56194L201.216 5.61692C201.216 5.61692 201.236 5.66191 201.246 5.67691L201.301 5.79187L201.361 5.90184C201.361 5.90184 201.376 5.93183 201.396 5.96182L201.426 6.02181L201.556 6.24174C201.596 6.31672 201.646 6.3867 201.696 6.45168C201.721 6.48667 201.741 6.52166 201.771 6.55665L201.851 6.65662L201.926 6.76159C201.926 6.76159 201.951 6.79658 201.966 6.81157L202.006 6.86156L202.166 7.0565C202.226 7.12648 202.286 7.18646 202.336 7.24644C202.571 7.49137 202.816 7.7313 203.076 7.94624C203.111 7.97123 203.141 7.99622 203.176 8.02121L203.276 8.09619L203.376 8.17617C203.376 8.17617 203.446 8.22615 203.481 8.25115L203.69 8.3961C203.69 8.3961 203.755 8.44109 203.795 8.46608L203.905 8.53106L204.015 8.60104C204.015 8.60104 204.09 8.64603 204.125 8.66103C204.2 8.70101 204.27 8.746 204.345 8.78599C204.495 8.86597 204.64 8.95094 204.795 9.01592C204.95 9.0959 205.1 9.15588 205.26 9.22086C205.335 9.25585 205.42 9.28084 205.495 9.31583L205.615 9.36082L205.73 9.40081H205.745C205.89 9.46079 206.035 9.50578 206.175 9.54576C206.345 9.59575 206.52 9.65073 206.69 9.69072L206.929 9.7507C207.014 9.7657 207.089 9.78569 207.174 9.81069L207.294 9.83568C207.294 9.83568 207.374 9.85567 207.419 9.86067L207.664 9.91066C208.319 10.0306 208.979 10.1106 209.644 10.1356C209.814 10.1406 209.974 10.1406 210.139 10.1506C210.308 10.1506 210.468 10.1506 210.638 10.1506C210.963 10.1506 211.298 10.1356 211.628 10.1106C211.963 10.0856 212.268 10.0256 212.478 9.95564C212.688 9.88566 212.813 9.81069 212.803 9.7507C212.798 9.69072 212.653 9.65073 212.433 9.64074C212.218 9.62574 211.923 9.64074 211.593 9.65573C211.273 9.68073 210.948 9.70072 210.628 9.70072C210.468 9.70072 210.308 9.70072 210.139 9.70072C209.979 9.70072 209.824 9.70072 209.654 9.68073C209.009 9.65573 208.369 9.58075 207.729 9.47079L207.494 9.4258C207.494 9.4258 207.419 9.4108 207.374 9.40081L207.259 9.37582C207.184 9.36082 207.099 9.34082 207.024 9.32583L206.79 9.26585C206.64 9.22086 206.485 9.18087 206.325 9.13589C206.35 9.07091 206.375 9.01092 206.395 8.95094L206.47 8.70101C206.47 8.70101 206.495 8.61604 206.505 8.58605L206.535 8.46608C206.535 8.46608 206.56 8.38111 206.57 8.34612L206.605 8.21616C206.62 8.13118 206.645 8.0562 206.665 7.97123L206.715 7.7213L206.755 7.46638C206.805 7.12648 206.83 6.78658 206.84 6.44668C206.84 6.10678 206.825 5.76188 206.78 5.42198L206.745 5.16706C206.73 5.08208 206.715 4.99711 206.695 4.91213C206.68 4.82716 206.665 4.74218 206.64 4.66721C206.62 4.57723 206.595 4.49226 206.57 4.41728C206.48 4.08738 206.36 3.76247 206.22 3.45756C206.15 3.29261 206.065 3.14765 205.99 2.9927L205.865 2.77276L205.83 2.71278L205.795 2.6628L205.73 2.55283C205.36 1.983 204.89 1.46815 204.345 1.04328C204.275 0.993289 204.21 0.943304 204.135 0.888321C204.065 0.838335 203.99 0.798347 203.925 0.748362C203.78 0.65339 203.63 0.568415 203.471 0.488439C203.311 0.413461 203.151 0.353479 202.976 0.303493C202.796 0.253509 202.621 0.228516 202.436 0.228516C202.251 0.228516 202.061 0.253509 201.876 0.318489C201.691 0.378471 201.521 0.483441 201.376 0.608403C201.236 0.738364 201.116 0.883323 201.016 1.03328C200.926 1.18823 200.851 1.35818 200.781 1.52813C200.721 1.69808 200.671 1.86803 200.646 2.04298C200.631 2.12795 200.611 2.21293 200.606 2.3029C200.596 2.38788 200.586 2.47785 200.581 2.56283C200.556 2.90272 200.561 3.25262 200.606 3.59752C200.606 3.64251 200.606 3.68749 200.621 3.72748L200.641 3.73748ZM201.041 2.60281C201.041 2.52784 201.051 2.44286 201.061 2.36289C201.066 2.28791 201.076 2.21293 201.091 2.13295C201.116 1.983 201.161 1.83804 201.211 1.69308C201.261 1.54813 201.326 1.40817 201.401 1.2832C201.481 1.15324 201.571 1.04328 201.671 0.9583C201.881 0.773355 202.141 0.68838 202.426 0.68838C202.716 0.68838 203.001 0.778353 203.276 0.908315C203.411 0.978294 203.555 1.05327 203.68 1.13825C203.745 1.17824 203.815 1.22322 203.875 1.26321C203.94 1.3082 204 1.35818 204.065 1.40317C204.56 1.78306 205 2.26291 205.345 2.79776L205.41 2.90273L205.48 3.0027L205.595 3.20764C205.67 3.35259 205.745 3.48755 205.805 3.63251C205.94 3.92243 206.05 4.22234 206.135 4.53724C206.16 4.61222 206.175 4.6922 206.19 4.76718C206.21 4.84215 206.235 4.92213 206.245 4.99711C206.26 5.07209 206.275 5.15206 206.285 5.23704L206.32 5.47197C206.36 5.79187 206.375 6.11178 206.37 6.43668C206.37 6.76159 206.335 7.07649 206.295 7.4014L206.25 7.63633L206.2 7.87626C206.185 7.95124 206.165 8.03121 206.15 8.11619L206.125 8.23615C206.125 8.23615 206.1 8.31113 206.09 8.35612L206.06 8.47108C206.06 8.47108 206.035 8.55106 206.025 8.59105L205.95 8.82098C205.925 8.89096 205.9 8.96094 205.875 9.01592L205.84 9.00093L205.73 8.96094L205.62 8.91595C205.545 8.89096 205.47 8.85597 205.395 8.83098C205.25 8.761 205.1 8.70101 204.955 8.63603C204.815 8.56605 204.67 8.49108 204.53 8.4211C204.46 8.38111 204.385 8.34612 204.32 8.30113C204.285 8.28614 204.25 8.26114 204.215 8.24115L204.115 8.18117L204.015 8.12618C204.015 8.12618 203.95 8.0812 203.915 8.0562L203.72 7.92124C203.72 7.92124 203.655 7.87626 203.63 7.85126L203.535 7.78129L203.446 7.7163C203.446 7.7163 203.386 7.66132 203.351 7.63633C203.101 7.44139 202.876 7.22145 202.656 6.98152C202.606 6.92154 202.546 6.86156 202.496 6.80158L202.346 6.61663L202.311 6.57164C202.311 6.57164 202.286 6.54165 202.276 6.52166L202.211 6.42669L202.141 6.33671C202.141 6.33671 202.101 6.26673 202.076 6.23174C202.036 6.16676 201.991 6.09678 201.941 6.0268L201.821 5.82186L201.791 5.77188C201.791 5.77188 201.771 5.73689 201.766 5.72189L201.706 5.61692L201.646 5.51695C201.646 5.51695 201.631 5.48197 201.621 5.46697L201.596 5.41698C201.561 5.33701 201.531 5.27203 201.496 5.19205L201.401 4.97212L201.376 4.91213C201.376 4.91213 201.361 4.87714 201.361 4.85215L201.321 4.74218L201.276 4.63222C201.276 4.63222 201.271 4.59723 201.261 4.57223L201.246 4.51225C201.226 4.43727 201.201 4.3573 201.176 4.28232L201.126 4.05239L201.111 3.9924V3.93242L201.086 3.81246L201.066 3.69249C201.066 3.69249 201.061 3.61751 201.051 3.57253C201.006 3.25762 201.006 2.93772 201.026 2.61781L201.041 2.60281Z" fill="#AF9146"/>
</g>
<path d="M206.174 21.7473C206.074 21.4124 205.949 21.0974 205.804 20.7925C205.654 20.4876 205.494 20.1877 205.299 19.8978C205.114 19.6179 204.904 19.343 204.679 19.088C204.619 19.0281 204.569 18.9631 204.504 18.9031C204.469 18.8681 204.445 18.8431 204.41 18.8081L204.32 18.7231L204.225 18.6382C204.225 18.6382 204.19 18.6132 204.175 18.5932L204.125 18.5532L203.93 18.3832C203.665 18.1683 203.385 17.9734 203.1 17.7934L202.88 17.6635C202.88 17.6635 202.805 17.6235 202.77 17.6085L202.665 17.5485C202.665 17.5485 202.585 17.5035 202.555 17.4885L202.435 17.4335L202.32 17.3835L202.2 17.3336L201.965 17.2336L201.73 17.1386C201.655 17.1036 201.57 17.0786 201.495 17.0536C201.42 17.0286 201.335 16.9937 201.26 16.9687C201.215 16.9487 201.175 16.9437 201.125 16.9237C200.981 16.8837 200.841 16.8387 200.696 16.7987C200.561 16.7637 200.426 16.7287 200.301 16.6937C200.216 16.6788 200.141 16.6538 200.061 16.6338L199.571 16.5338L199.456 16.5088L199.326 16.4838C199.001 16.4238 198.671 16.3688 198.346 16.3289L198.101 16.2939C198.016 16.2839 197.931 16.2789 197.856 16.2689C197.691 16.2539 197.532 16.2439 197.362 16.2239C196.697 16.1839 196.032 16.1739 195.372 16.2089C195.202 16.2089 195.042 16.2439 194.902 16.2589C194.757 16.2839 194.632 16.3189 194.522 16.3538C194.312 16.4238 194.188 16.4988 194.193 16.5588C194.203 16.6188 194.347 16.6588 194.562 16.6688C194.672 16.6788 194.797 16.6788 194.942 16.6688C195.087 16.6688 195.237 16.6588 195.402 16.6538C196.052 16.6088 196.692 16.6188 197.337 16.6688C197.497 16.6838 197.657 16.6937 197.816 16.7137C197.901 16.7137 197.976 16.7287 198.061 16.7387L198.301 16.7637C198.621 16.8037 198.941 16.8587 199.261 16.9137L199.376 16.9437L199.496 16.9687L199.966 17.0686C200.041 17.0886 200.126 17.1036 200.201 17.1286C200.321 17.1536 200.436 17.1886 200.546 17.2236C200.481 17.4335 200.411 17.6485 200.361 17.8634C200.346 17.9484 200.326 18.0334 200.301 18.1083C200.296 18.1533 200.286 18.1933 200.276 18.2383L200.251 18.3633L200.226 18.4932C200.226 18.4932 200.211 18.5782 200.211 18.6182L200.176 18.8781C200.136 19.218 200.116 19.5579 200.116 19.8978C200.116 20.5776 200.216 21.2624 200.396 21.9272C200.581 22.582 200.856 23.2218 201.225 23.7917C201.595 24.3715 202.065 24.8813 202.605 25.3012C202.64 25.3262 202.67 25.3512 202.705 25.3762L202.805 25.4512C202.805 25.4512 202.875 25.5061 202.915 25.5211L203.025 25.5911C203.165 25.6811 203.32 25.7661 203.48 25.846C203.64 25.921 203.805 25.981 203.975 26.031C204.14 26.081 204.325 26.111 204.509 26.116C204.694 26.116 204.889 26.101 205.074 26.041L205.139 26.016C205.139 26.016 205.184 25.996 205.209 25.991L205.244 25.971L205.274 25.956C205.274 25.956 205.319 25.931 205.344 25.921C205.429 25.871 205.504 25.8211 205.579 25.7511C205.654 25.6911 205.714 25.6211 205.779 25.5461C205.839 25.4762 205.899 25.4012 205.939 25.3262C205.989 25.2462 206.034 25.1612 206.074 25.0863C206.084 25.0713 206.089 25.0463 206.099 25.0263C206.109 25.0113 206.114 24.9863 206.124 24.9663L206.149 24.9013C206.149 24.9013 206.164 24.8563 206.164 24.8413C206.274 24.5064 206.349 24.1665 206.384 23.8166C206.419 23.4667 206.409 23.1169 206.369 22.777C206.324 22.4371 206.259 22.0972 206.159 21.7623L206.174 21.7473ZM205.769 24.6764C205.769 24.6764 205.764 24.7114 205.754 24.7264L205.739 24.7814C205.739 24.7814 205.719 24.8114 205.714 24.8313C205.714 24.8463 205.694 24.8663 205.689 24.8813C205.654 24.9513 205.619 25.0113 205.584 25.0763C205.544 25.1363 205.504 25.1962 205.459 25.2462C205.419 25.3062 205.369 25.3512 205.309 25.4012C205.259 25.4462 205.199 25.4862 205.139 25.5211L205.099 25.5461H205.074L205.049 25.5711L205.004 25.5911L204.954 25.6061C204.829 25.6511 204.694 25.6661 204.554 25.6561C204.41 25.6561 204.27 25.6211 204.115 25.5911C203.975 25.5461 203.83 25.4961 203.69 25.4262C203.555 25.3612 203.42 25.2812 203.285 25.2062L203.185 25.1363C203.185 25.1363 203.115 25.0963 203.085 25.0713L202.99 25.0013C202.99 25.0013 202.925 24.9563 202.9 24.9313C202.395 24.5514 201.965 24.0716 201.62 23.5367C201.275 22.9969 201.016 22.4121 200.851 21.7872C200.681 21.1674 200.586 20.5276 200.581 19.8828C200.581 19.5579 200.596 19.233 200.631 18.9181L200.666 18.6782C200.666 18.6782 200.671 18.6032 200.681 18.5582L200.706 18.4432L200.721 18.3233C200.721 18.3233 200.741 18.2433 200.746 18.2033L200.796 17.9634C200.851 17.7534 200.916 17.5485 200.981 17.3436C201.031 17.3586 201.085 17.3785 201.135 17.3935C201.21 17.4185 201.285 17.4435 201.36 17.4685C201.435 17.4935 201.51 17.5235 201.585 17.5535L201.815 17.6385L202.035 17.7334L202.09 17.7584L202.25 17.8384L202.36 17.8884C202.36 17.8884 202.43 17.9234 202.47 17.9384L202.58 17.9884C202.58 17.9884 202.645 18.0234 202.69 18.0483L202.9 18.1683C203.165 18.3283 203.43 18.5182 203.68 18.7132L203.855 18.8681L203.9 18.9081C203.9 18.9081 203.925 18.9331 203.94 18.9531L204.11 19.123C204.11 19.123 204.165 19.183 204.19 19.208C204.25 19.268 204.3 19.328 204.35 19.388C204.559 19.6279 204.754 19.8828 204.929 20.1427C205.109 20.4077 205.269 20.6926 205.399 20.9825C205.679 21.5573 205.874 22.1721 205.949 22.8019C206.024 23.4318 205.974 24.0716 205.769 24.6714V24.6764Z" fill="#AF9146"/>
<path d="M194.448 16.0387H194.508L194.563 16.0137L194.817 15.9537C194.902 15.9288 194.977 15.9088 195.057 15.8838L195.117 15.8688C195.117 15.8688 195.162 15.8588 195.177 15.8488L195.297 15.8088L195.412 15.7638C195.412 15.7638 195.452 15.7488 195.472 15.7388L195.532 15.7138L195.767 15.6188C195.842 15.5889 195.917 15.5539 195.992 15.5089L196.052 15.4839C196.052 15.4839 196.092 15.4689 196.112 15.4589L196.217 15.3989L196.327 15.3389C196.327 15.3389 196.362 15.3239 196.387 15.3039L196.437 15.2739L196.657 15.144C196.722 15.099 196.797 15.049 196.867 14.999C196.902 14.974 196.932 14.954 196.967 14.9241L197.067 14.8441L197.167 14.7691L197.217 14.7241L197.272 14.6841L197.462 14.5242C197.532 14.4642 197.587 14.4042 197.647 14.3492C197.892 14.1143 198.126 13.8644 198.336 13.5994C198.361 13.5695 198.386 13.5345 198.421 13.4995L198.496 13.3995L198.571 13.2945C198.571 13.2945 198.621 13.2246 198.646 13.1946L198.791 12.9796C198.791 12.9796 198.831 12.9096 198.856 12.8697L198.926 12.7597L198.991 12.6497C198.991 12.6497 199.031 12.5697 199.051 12.5348C199.091 12.4598 199.136 12.3898 199.176 12.3148C199.251 12.1599 199.336 12.0149 199.401 11.855C199.481 11.7 199.536 11.55 199.606 11.3851C199.636 11.3101 199.666 11.2251 199.696 11.1502L199.741 11.0302L199.781 10.9102V10.8902C199.841 10.7453 199.881 10.6053 199.931 10.4604C199.981 10.2854 200.031 10.1105 200.076 9.94052L200.136 9.6906C200.151 9.60562 200.166 9.53064 200.191 9.44567L200.216 9.3257C200.216 9.3257 200.236 9.24073 200.246 9.19574L200.296 8.95082C200.411 8.28601 200.486 7.61121 200.511 6.94141C200.521 6.77146 200.521 6.60651 200.531 6.43656C200.531 6.26661 200.531 6.10666 200.531 5.93171C200.531 5.6018 200.511 5.2619 200.486 4.927C200.461 4.5871 200.401 4.28219 200.336 4.06726C200.271 3.85732 200.191 3.72736 200.136 3.73735C200.076 3.74235 200.031 3.88731 200.026 4.11224C200.006 4.33218 200.026 4.63209 200.041 4.96199C200.066 5.2869 200.086 5.6168 200.086 5.9417C200.086 6.10666 200.086 6.26661 200.086 6.43656C200.086 6.59651 200.086 6.76146 200.066 6.93141C200.041 7.58622 199.966 8.23603 199.856 8.88084L199.816 9.12077C199.816 9.12077 199.796 9.19574 199.791 9.24073L199.766 9.36069C199.746 9.43567 199.731 9.52065 199.716 9.59562L199.656 9.83555C199.611 9.99051 199.571 10.1405 199.531 10.3054C199.461 10.2804 199.401 10.2554 199.346 10.2354L199.101 10.1605C199.101 10.1605 199.016 10.1355 198.981 10.1255L198.866 10.0905C198.866 10.0905 198.781 10.0655 198.746 10.0555L198.621 10.0255C198.536 10.0055 198.461 9.98051 198.376 9.96552L198.136 9.91053L197.882 9.87054C197.547 9.82056 197.212 9.79557 196.877 9.78557C196.537 9.78557 196.202 9.80056 195.867 9.84555L195.612 9.88054C195.532 9.89554 195.447 9.91053 195.362 9.93053C195.277 9.94552 195.192 9.96552 195.117 9.99051C195.032 10.0055 194.952 10.0305 194.877 10.0555C194.548 10.1505 194.228 10.2704 193.928 10.4154C193.773 10.4854 193.623 10.5703 193.473 10.6453L193.253 10.7753L193.193 10.8053L193.143 10.8403L193.033 10.9102C192.473 11.2851 191.968 11.76 191.548 12.3148C191.498 12.3848 191.448 12.4498 191.398 12.5298C191.348 12.5947 191.303 12.6747 191.254 12.7397C191.164 12.8847 191.079 13.0396 191.004 13.1996C190.929 13.3645 190.869 13.5245 190.819 13.7044C190.769 13.8844 190.744 14.0643 190.744 14.2493C190.744 14.4392 190.769 14.6341 190.834 14.8191C190.894 15.009 190.994 15.179 191.119 15.3239C191.244 15.4689 191.388 15.5889 191.538 15.6888C191.693 15.7838 191.858 15.8588 192.028 15.9288C192.193 15.9887 192.363 16.0287 192.533 16.0637C192.613 16.0787 192.698 16.0987 192.793 16.1087C192.878 16.1137 192.958 16.1237 193.043 16.1337C193.378 16.1587 193.723 16.1487 194.058 16.1087C194.103 16.1087 194.143 16.1087 194.188 16.0887L194.313 16.0737L194.438 16.0537L194.448 16.0387ZM194.138 15.6288C194.138 15.6288 194.058 15.6388 194.018 15.6488C193.708 15.6888 193.388 15.6888 193.078 15.6738C193.003 15.6738 192.918 15.6638 192.843 15.6538C192.768 15.6488 192.693 15.6388 192.613 15.6188C192.463 15.5939 192.323 15.5539 192.178 15.5039C192.033 15.4489 191.903 15.3839 191.773 15.3039C191.648 15.229 191.538 15.134 191.453 15.034C191.268 14.8191 191.189 14.5542 191.189 14.2642C191.189 13.9743 191.278 13.6894 191.403 13.4045C191.473 13.2595 191.548 13.1246 191.633 12.9946C191.673 12.9296 191.718 12.8597 191.758 12.7997C191.798 12.7347 191.848 12.6747 191.893 12.6047C192.278 12.0999 192.743 11.66 193.268 11.3101L193.373 11.2401L193.423 11.2101L193.473 11.1752L193.673 11.0552C193.818 10.9802 193.953 10.9002 194.093 10.8403C194.378 10.7053 194.672 10.5953 194.982 10.5104C195.057 10.4854 195.137 10.4654 195.212 10.4504C195.287 10.4304 195.362 10.4054 195.437 10.4004C195.512 10.3804 195.587 10.3654 195.672 10.3554L195.907 10.3204C196.217 10.2804 196.537 10.2604 196.857 10.2704C197.177 10.2704 197.487 10.3054 197.807 10.3454L198.041 10.3904L198.276 10.4404C198.351 10.4604 198.426 10.4754 198.511 10.4904L198.631 10.5154C198.631 10.5154 198.706 10.5453 198.746 10.5503L198.866 10.5853C198.866 10.5853 198.941 10.6103 198.981 10.6203L199.211 10.6953C199.276 10.7203 199.346 10.7453 199.401 10.7753L199.386 10.8053L199.346 10.9202L199.301 11.0302C199.276 11.1052 199.241 11.1802 199.216 11.2601C199.151 11.4051 199.091 11.555 199.026 11.7C198.956 11.845 198.881 11.9899 198.816 12.1349C198.771 12.2049 198.741 12.2798 198.696 12.3498C198.681 12.3848 198.656 12.4198 198.636 12.4498L198.571 12.5548L198.511 12.6547C198.511 12.6547 198.471 12.7247 198.446 12.7597L198.311 12.9546C198.311 12.9546 198.271 13.0246 198.241 13.0546L198.111 13.2445C198.111 13.2445 198.061 13.3045 198.032 13.3395C197.842 13.5944 197.622 13.8244 197.387 14.0443C197.327 14.0943 197.272 14.1543 197.212 14.2043L197.027 14.3592L196.982 14.3942C196.982 14.3942 196.952 14.4192 196.932 14.4292L196.842 14.4942L196.747 14.5642C196.747 14.5642 196.682 14.6091 196.647 14.6341C196.582 14.6741 196.512 14.7241 196.447 14.7691L196.242 14.8891L196.192 14.9241C196.192 14.9241 196.162 14.939 196.142 14.949L195.942 15.069C195.942 15.069 195.907 15.084 195.892 15.094L195.842 15.119C195.767 15.154 195.697 15.184 195.622 15.219L195.402 15.3139L195.347 15.3389C195.347 15.3389 195.312 15.3589 195.287 15.3589L195.177 15.3989L195.067 15.4439C195.067 15.4439 195.027 15.4489 195.007 15.4589L194.952 15.4739C194.872 15.4939 194.797 15.5189 194.722 15.5439L194.498 15.5939L194.438 15.6138H194.378L194.263 15.6388L194.143 15.6538L194.138 15.6288Z" fill="#AF9146"/>
<path d="M216.156 11.4802C216.156 11.4802 216.136 11.4403 216.131 11.4103L216.111 11.3803L216.096 11.3453C216.096 11.3453 216.071 11.3003 216.061 11.2753C216.011 11.1903 215.961 11.1153 215.896 11.0354C215.836 10.9704 215.771 10.9004 215.691 10.8354C215.626 10.7754 215.551 10.7155 215.476 10.6705C215.401 10.6205 215.316 10.5755 215.241 10.5355C215.221 10.5255 215.196 10.5155 215.181 10.5105C215.166 10.5005 215.136 10.4905 215.121 10.4855L215.056 10.4605C215.056 10.4605 215.011 10.4405 214.996 10.4405C214.666 10.3306 214.332 10.2556 213.987 10.2206C213.642 10.1856 213.297 10.1956 212.962 10.2356C212.627 10.2806 212.292 10.3456 211.962 10.4505C211.637 10.5505 211.322 10.6805 211.022 10.8254C210.718 10.9804 210.428 11.1403 210.138 11.3353C209.863 11.5252 209.593 11.7352 209.343 11.9651C209.283 12.0251 209.218 12.0751 209.158 12.145C209.123 12.18 209.098 12.205 209.063 12.24L208.978 12.335L208.898 12.425C208.898 12.425 208.863 12.4599 208.853 12.4749L208.813 12.5299L208.643 12.7249C208.433 12.9948 208.243 13.2797 208.063 13.5696L207.938 13.7896C207.938 13.7896 207.898 13.8645 207.878 13.8995L207.823 14.0095C207.823 14.0095 207.778 14.0895 207.763 14.1195L207.613 14.4794L207.509 14.7193L207.419 14.9542C207.384 15.0342 207.359 15.1192 207.334 15.1941C207.309 15.2741 207.274 15.3591 207.259 15.4341C207.244 15.4741 207.234 15.519 207.219 15.569C207.174 15.714 207.134 15.8589 207.089 16.0039C207.059 16.1389 207.024 16.2788 206.989 16.4038C206.974 16.4888 206.949 16.5687 206.929 16.6537L206.879 16.8986L206.829 17.1486L206.804 17.2635L206.779 17.3935C206.719 17.7234 206.669 18.0583 206.629 18.3882L206.594 18.6381C206.584 18.7231 206.579 18.8081 206.569 18.8831C206.554 19.053 206.544 19.218 206.529 19.3879C206.484 20.0577 206.479 20.7325 206.519 21.4073C206.519 21.5773 206.554 21.7372 206.569 21.8822C206.594 22.0271 206.629 22.1571 206.664 22.2671C206.729 22.477 206.804 22.607 206.864 22.597C206.924 22.592 206.964 22.447 206.974 22.2221C206.979 22.1121 206.979 21.9871 206.974 21.8422C206.974 21.6972 206.964 21.5423 206.954 21.3723C206.914 20.7175 206.924 20.0677 206.964 19.4129C206.979 19.2529 206.989 19.088 207.009 18.928C207.009 18.8431 207.024 18.7631 207.034 18.6781L207.059 18.4332C207.099 18.1083 207.149 17.7834 207.209 17.4635L207.359 16.7437C207.374 16.6687 207.394 16.5837 207.419 16.5088C207.444 16.3888 207.479 16.2688 207.509 16.1589C207.718 16.2238 207.928 16.2938 208.138 16.3438C208.223 16.3638 208.308 16.3788 208.383 16.4038C208.428 16.4138 208.468 16.4238 208.508 16.4288L208.763 16.4738C208.763 16.4738 208.848 16.4888 208.888 16.4888L209.138 16.5237C209.478 16.5687 209.813 16.5837 210.148 16.5837C210.823 16.5837 211.492 16.4838 212.147 16.3038C212.797 16.1139 213.427 15.834 213.987 15.4591C214.556 15.0842 215.061 14.6093 215.476 14.0645C215.501 14.0295 215.526 13.9945 215.551 13.9595L215.626 13.8595C215.626 13.8595 215.676 13.7896 215.691 13.7446L215.761 13.6346C215.851 13.4896 215.936 13.3397 216.011 13.1747C216.086 13.0148 216.146 12.8448 216.196 12.6749C216.246 12.5049 216.271 12.315 216.281 12.13C216.281 11.9401 216.266 11.7452 216.206 11.5552L216.181 11.4902L216.156 11.4802ZM215.811 12.1001C215.811 12.245 215.776 12.39 215.741 12.5449C215.701 12.6899 215.651 12.8348 215.586 12.9798C215.516 13.1148 215.441 13.2547 215.356 13.3897L215.291 13.4896C215.291 13.4896 215.246 13.5596 215.221 13.5946L215.156 13.6896C215.156 13.6896 215.111 13.7546 215.086 13.7796C214.711 14.2944 214.242 14.7243 213.712 15.0742C213.182 15.4241 212.602 15.689 211.987 15.8589C211.377 16.0289 210.743 16.1239 210.108 16.1339C209.788 16.1339 209.468 16.1139 209.158 16.0789L208.923 16.0489C208.923 16.0489 208.848 16.0389 208.803 16.0289L208.688 16.0039L208.568 15.9889C208.568 15.9889 208.493 15.9689 208.453 15.9639L208.218 15.9089C208.008 15.8589 207.803 15.794 207.603 15.724C207.618 15.674 207.638 15.619 207.653 15.569C207.678 15.4941 207.703 15.4191 207.728 15.3391C207.753 15.2641 207.778 15.1841 207.813 15.1092L207.898 14.8792L207.988 14.6593L208.013 14.5993L208.038 14.5493L208.088 14.4394L208.138 14.3244C208.138 14.3244 208.173 14.2594 208.193 14.2144L208.248 14.1045C208.248 14.1045 208.283 14.0345 208.308 13.9945L208.428 13.7796C208.588 13.5096 208.768 13.2447 208.963 12.9898L209.113 12.8098L209.158 12.7649C209.158 12.7649 209.183 12.7399 209.198 12.7249L209.368 12.5549C209.368 12.5549 209.428 12.4949 209.453 12.4699C209.508 12.41 209.568 12.36 209.628 12.305C209.863 12.0951 210.113 11.9001 210.378 11.7202C210.638 11.5402 210.913 11.3803 211.197 11.2403C211.772 10.9604 212.377 10.7654 212.997 10.6905C213.617 10.6105 214.247 10.6605 214.836 10.8654C214.851 10.8654 214.871 10.8754 214.896 10.8854L214.946 10.9004C214.946 10.9004 214.981 10.9204 214.996 10.9254C215.011 10.9254 215.031 10.9454 215.046 10.9504C215.111 10.9854 215.171 11.0204 215.241 11.0554C215.296 11.0954 215.356 11.1403 215.416 11.1803C215.466 11.2253 215.516 11.2753 215.566 11.3353C215.611 11.3853 215.651 11.4452 215.686 11.5052L215.711 11.5502V11.5752L215.736 11.6002L215.751 11.6402L215.771 11.6952C215.811 11.8201 215.826 11.9601 215.821 12.1001H215.811Z" fill="#AF9146"/>
<path d="M207.164 12.8495C209.023 12.1547 210.173 10.6452 210.173 10.6452C210.173 10.6452 208.324 10.2603 206.469 10.9601C204.61 11.6599 203.46 13.1694 203.46 13.1694C203.46 13.1694 205.309 13.5493 207.164 12.8495Z" fill="#AF9146"/>
<path d="M199.766 13.485C197.906 14.1798 196.757 15.6893 196.757 15.6893C196.757 15.6893 198.606 16.0742 200.461 15.3744C202.32 14.6746 203.47 13.1701 203.47 13.1701C203.47 13.1701 201.62 12.7852 199.766 13.485Z" fill="#AF9146"/>
<path d="M203.77 16.9136C204.46 18.798 205.95 19.9677 205.95 19.9677C205.95 19.9677 206.324 18.0932 205.64 16.2088C204.95 14.3243 203.46 13.1597 203.46 13.1597C203.46 13.1597 203.085 15.0341 203.77 16.9136Z" fill="#AF9146"/>
<path d="M203.15 9.41043C202.461 7.52598 200.976 6.36133 200.976 6.36133C200.976 6.36133 200.596 8.23577 201.286 10.1152C201.976 11.9997 203.46 13.1693 203.46 13.1693C203.46 13.1693 203.84 11.2949 203.15 9.41043Z" fill="#AF9146"/>
</svg>
