<svg width="64" height="64" viewBox="0 0 64 64" fill="none" xmlns="http://www.w3.org/2000/svg">
<path d="M32 60C47.464 60 60 47.464 60 32C60 16.536 47.464 4 32 4C16.536 4 4 16.536 4 32C4 47.464 16.536 60 32 60Z" fill="#AF9146"/>
<path d="M42.4274 40.5632L43.6712 32.6602H35.8904V27.534C35.8904 25.3714 36.9754 23.2622 40.4604 23.2622H44V16.534C44 16.534 40.789 16 37.7206 16C31.3096 16 27.1234 19.7859 27.1234 26.6368V32.6602H20V40.5632H27.1234V59.669C28.5534 59.888 30.0164 60 31.5068 60C32.9972 60 34.4604 59.888 35.8904 59.669V40.5632H42.4274Z" fill="#FDF4EC"/>
</svg>
