<svg width="331" height="216" viewBox="0 0 331 216" fill="none" xmlns="http://www.w3.org/2000/svg">
<path d="M69.52 135.68V136.48C69.0133 136.587 68.5067 136.92 68 137.48C67.4933 138.013 66.9333 138.867 66.32 140.04L58.24 156.04H57.56L48.2 138.76C47.6667 137.773 47.2133 137.16 46.84 136.92C46.4933 136.653 46.1733 136.52 45.88 136.52V135.68C46.4133 135.707 46.96 135.733 47.52 135.76C48.1067 135.787 48.7333 135.8 49.4 135.8C50.28 135.8 51.2133 135.8 52.2 135.8C53.2133 135.773 54.1467 135.733 55 135.68V136.52C54.3333 136.52 53.7467 136.6 53.24 136.76C52.7333 136.92 52.4 137.213 52.24 137.64C52.08 138.067 52.2 138.667 52.6 139.44L59.36 152.4L59.04 152.64L64.36 142.04C65.1067 140.573 65.4667 139.44 65.44 138.64C65.44 137.84 65.1333 137.293 64.52 137C63.9067 136.68 63.04 136.507 61.92 136.48V135.68C62.6933 135.707 63.48 135.733 64.28 135.76C65.08 135.787 65.8267 135.8 66.52 135.8C67.2133 135.8 67.7867 135.787 68.24 135.76C68.6933 135.733 69.12 135.707 69.52 135.68ZM60.04 151.84V159.76C60.04 160.72 60.12 161.44 60.28 161.92C60.44 162.4 60.7467 162.72 61.2 162.88C61.68 163.04 62.3733 163.147 63.28 163.2V164C62.6667 163.947 61.8933 163.92 60.96 163.92C60.0533 163.893 59.1333 163.88 58.2 163.88C57.16 163.88 56.1867 163.893 55.28 163.92C54.3733 163.92 53.64 163.947 53.08 164V163.2C53.9867 163.147 54.6667 163.04 55.12 162.88C55.6 162.72 55.92 162.4 56.08 161.92C56.24 161.44 56.32 160.72 56.32 159.76V151.56L58.48 154.04L60.04 151.84ZM77.8975 142.84C79.6042 142.84 81.1375 143.213 82.4975 143.96C83.8575 144.707 84.9375 145.88 85.7375 147.48C86.5642 149.08 86.9775 151.16 86.9775 153.72C86.9775 156.28 86.5642 158.36 85.7375 159.96C84.9375 161.533 83.8575 162.693 82.4975 163.44C81.1375 164.187 79.6042 164.56 77.8975 164.56C76.2175 164.56 74.6842 164.187 73.2975 163.44C71.9375 162.693 70.8442 161.533 70.0175 159.96C69.2175 158.36 68.8175 156.28 68.8175 153.72C68.8175 151.16 69.2175 149.08 70.0175 147.48C70.8442 145.88 71.9375 144.707 73.2975 143.96C74.6842 143.213 76.2175 142.84 77.8975 142.84ZM77.8975 143.64C76.3775 143.64 75.1242 144.427 74.1375 146C73.1775 147.573 72.6975 150.147 72.6975 153.72C72.6975 157.293 73.1775 159.867 74.1375 161.44C75.1242 162.987 76.3775 163.76 77.8975 163.76C79.4175 163.76 80.6575 162.987 81.6175 161.44C82.6042 159.867 83.0975 157.293 83.0975 153.72C83.0975 150.147 82.6042 147.573 81.6175 146C80.6575 144.427 79.4175 143.64 77.8975 143.64ZM108.172 142.96V159.68C108.172 160.88 108.385 161.773 108.812 162.36C109.265 162.92 110.065 163.2 111.212 163.2V164.04C110.385 163.96 109.558 163.92 108.732 163.92C107.958 163.92 107.212 163.96 106.492 164.04C105.798 164.12 105.158 164.267 104.572 164.48V159.76C103.905 161.493 102.958 162.733 101.732 163.48C100.532 164.2 99.2916 164.56 98.0116 164.56C97.0782 164.56 96.2649 164.427 95.5716 164.16C94.8782 163.893 94.3049 163.52 93.8516 163.04C93.3449 162.507 92.9982 161.813 92.8116 160.96C92.6249 160.107 92.5316 159.053 92.5316 157.8V147.76C92.5316 146.56 92.3182 145.68 91.8916 145.12C91.4649 144.533 90.6649 144.24 89.4916 144.24V143.4C90.3449 143.48 91.1716 143.52 91.9716 143.52C92.7449 143.52 93.4782 143.48 94.1716 143.4C94.8916 143.293 95.5449 143.147 96.1316 142.96V158.68C96.1316 159.507 96.1849 160.267 96.2916 160.96C96.3982 161.653 96.6649 162.213 97.0916 162.64C97.5182 163.067 98.2116 163.28 99.1716 163.28C100.212 163.28 101.132 162.96 101.932 162.32C102.758 161.68 103.398 160.813 103.852 159.72C104.332 158.627 104.572 157.4 104.572 156.04V147.76C104.572 146.56 104.358 145.68 103.932 145.12C103.505 144.533 102.705 144.24 101.532 144.24V143.4C102.385 143.48 103.212 143.52 104.012 143.52C104.785 143.52 105.518 143.48 106.212 143.4C106.932 143.293 107.585 143.147 108.172 142.96Z" fill="#AF9146"/>
<path d="M141.24 178.92C138.84 178.92 136.52 178.44 134.28 177.48C132.12 176.6 130.32 175.16 128.88 173.16C127.52 171.16 126.84 168.6 126.84 165.48C126.84 161 127.84 156.56 129.84 152.16C131.84 147.68 134.48 143.36 137.76 139.2C132.64 138.56 128.44 137.28 125.16 135.36C121.88 133.44 120.24 130.64 120.24 126.96C120.24 124.4 120.96 122.28 122.4 120.6C123.84 118.84 125.64 117.44 127.8 116.4C130.04 115.36 132.4 114.56 134.88 114C137.44 113.44 139.8 113.08 141.96 112.92C144.2 112.76 145.96 112.68 147.24 112.68C147.64 112.68 148.56 112.72 150 112.8C151.52 112.8 153.12 112.88 154.8 113.04C156.56 113.12 158.08 113.28 159.36 113.52C160.64 113.76 161.28 114.04 161.28 114.36C161.28 114.68 161 114.84 160.44 114.84C159.4 114.84 158.24 114.8 156.96 114.72C155.68 114.56 154.4 114.48 153.12 114.48C152.16 114.48 151.2 114.48 150.24 114.48C149.28 114.48 148.36 114.52 147.48 114.6C145.88 114.68 143.88 114.88 141.48 115.2C139.08 115.44 136.68 116 134.28 116.88C131.96 117.68 130 118.92 128.4 120.6C126.8 122.2 126 124.4 126 127.2C126 130.16 127.2 132.48 129.6 134.16C132.08 135.76 135.28 136.8 139.2 137.28C142.96 132.8 147.24 128.68 152.04 124.92C156.84 121.08 161.72 117.76 166.68 114.96C171.72 112.16 176.56 109.96 181.2 108.36C185.92 106.76 190.04 105.96 193.56 105.96C195.88 105.96 198.04 106.4 200.04 107.28C202.04 108.08 203.04 109.8 203.04 112.44C203.04 115.56 201.8 118.48 199.32 121.2C196.92 123.92 193.68 126.4 189.6 128.64C185.52 130.88 180.96 132.84 175.92 134.52C170.88 136.12 165.68 137.36 160.32 138.24C154.96 139.12 149.84 139.56 144.96 139.56H144C141.04 143.56 138.64 147.68 136.8 151.92C135.04 156.08 134.16 160.24 134.16 164.4C134.16 168.32 135.04 171.32 136.8 173.4C138.56 175.4 140.64 176.4 143.04 176.4C146.56 176.4 150.2 175.56 153.96 173.88C157.72 172.12 161.2 169.84 164.4 167.04C167.68 164.24 170.44 161.24 172.68 158.04C174.92 154.76 176.28 151.6 176.76 148.56C176.76 148.4 176.76 148.24 176.76 148.08C176.84 147.92 176.88 147.76 176.88 147.6C176.88 146.56 176.56 145.72 175.92 145.08C175.28 144.36 174.24 144 172.8 144C172.48 144 172.16 144.04 171.84 144.12C171.52 144.12 171.16 144.16 170.76 144.24C168.52 144.64 165.96 145.8 163.08 147.72C160.2 149.64 157.48 152.04 154.92 154.92C152.44 157.72 150.56 160.72 149.28 163.92C148.96 164.08 148.76 164.16 148.68 164.16C148.28 164.16 148.2 163.68 148.44 162.72C149.24 160.56 150.52 158.28 152.28 155.88C154.12 153.4 156.28 151.08 158.76 148.92C161.24 146.76 163.92 145 166.8 143.64C169.68 142.28 172.6 141.6 175.56 141.6C177.8 141.68 179.44 142.2 180.48 143.16C181.52 144.12 182.04 145.4 182.04 147C182.04 149.32 181.08 152 179.16 155.04C177.64 157.44 175.48 160.04 172.68 162.84C169.96 165.56 166.84 168.16 163.32 170.64C159.8 173.04 156.12 175 152.28 176.52C148.52 178.12 144.84 178.92 141.24 178.92ZM145.44 137.64C149.84 137.64 154.52 137.2 159.48 136.32C164.52 135.36 169.44 134.08 174.24 132.48C179.04 130.88 183.4 129 187.32 126.84C191.24 124.68 194.36 122.36 196.68 119.88C199.08 117.4 200.28 114.8 200.28 112.08C200.28 110.24 199.56 109.04 198.12 108.48C196.76 107.92 195.28 107.64 193.68 107.64C190.4 107.64 186.68 108.44 182.52 110.04C178.36 111.56 174.04 113.68 169.56 116.4C165.16 119.12 160.88 122.32 156.72 126C152.56 129.6 148.8 133.48 145.44 137.64Z" fill="#AF9146"/>
<path d="M194.88 142.84C197.227 142.84 199.053 143.56 200.36 145C201.693 146.413 202.36 148.627 202.36 151.64H188.24L188.2 150.88H198.52C198.573 149.573 198.467 148.373 198.2 147.28C197.933 146.16 197.507 145.267 196.92 144.6C196.36 143.933 195.627 143.6 194.72 143.6C193.493 143.6 192.4 144.213 191.44 145.44C190.507 146.667 189.947 148.613 189.76 151.28L189.88 151.44C189.827 151.84 189.787 152.28 189.76 152.76C189.733 153.24 189.72 153.72 189.72 154.2C189.72 156.013 190.013 157.573 190.6 158.88C191.187 160.187 191.947 161.187 192.88 161.88C193.84 162.547 194.827 162.88 195.84 162.88C196.64 162.88 197.4 162.76 198.12 162.52C198.84 162.253 199.507 161.827 200.12 161.24C200.733 160.653 201.267 159.867 201.72 158.88L202.52 159.2C202.227 160.08 201.747 160.933 201.08 161.76C200.413 162.587 199.573 163.267 198.56 163.8C197.547 164.307 196.373 164.56 195.04 164.56C193.12 164.56 191.467 164.12 190.08 163.24C188.72 162.36 187.667 161.147 186.92 159.6C186.2 158.027 185.84 156.227 185.84 154.2C185.84 151.853 186.213 149.84 186.96 148.16C187.707 146.453 188.76 145.147 190.12 144.24C191.48 143.307 193.067 142.84 194.88 142.84ZM211.754 132.64V160.28C211.754 161.4 211.981 162.16 212.434 162.56C212.914 162.96 213.701 163.16 214.794 163.16V164C214.341 163.973 213.648 163.947 212.714 163.92C211.808 163.867 210.888 163.84 209.954 163.84C209.048 163.84 208.128 163.867 207.194 163.92C206.261 163.947 205.568 163.973 205.114 164V163.16C206.208 163.16 206.981 162.96 207.434 162.56C207.914 162.16 208.154 161.4 208.154 160.28V137.44C208.154 136.24 207.941 135.36 207.514 134.8C207.088 134.213 206.288 133.92 205.114 133.92V133.08C205.968 133.16 206.794 133.2 207.594 133.2C208.368 133.2 209.101 133.16 209.794 133.08C210.514 132.973 211.168 132.827 211.754 132.64ZM226.169 142.84C228.516 142.84 230.342 143.56 231.649 145C232.982 146.413 233.649 148.627 233.649 151.64H219.529L219.489 150.88H229.809C229.862 149.573 229.756 148.373 229.489 147.28C229.222 146.16 228.796 145.267 228.209 144.6C227.649 143.933 226.916 143.6 226.009 143.6C224.782 143.6 223.689 144.213 222.729 145.44C221.796 146.667 221.236 148.613 221.049 151.28L221.169 151.44C221.116 151.84 221.076 152.28 221.049 152.76C221.022 153.24 221.009 153.72 221.009 154.2C221.009 156.013 221.302 157.573 221.889 158.88C222.476 160.187 223.236 161.187 224.169 161.88C225.129 162.547 226.116 162.88 227.129 162.88C227.929 162.88 228.689 162.76 229.409 162.52C230.129 162.253 230.796 161.827 231.409 161.24C232.022 160.653 232.556 159.867 233.009 158.88L233.809 159.2C233.516 160.08 233.036 160.933 232.369 161.76C231.702 162.587 230.862 163.267 229.849 163.8C228.836 164.307 227.662 164.56 226.329 164.56C224.409 164.56 222.756 164.12 221.369 163.24C220.009 162.36 218.956 161.147 218.209 159.6C217.489 158.027 217.129 156.227 217.129 154.2C217.129 151.853 217.502 149.84 218.249 148.16C218.996 146.453 220.049 145.147 221.409 144.24C222.769 143.307 224.356 142.84 226.169 142.84ZM248.563 142.84C250.75 142.84 252.563 143.747 254.003 145.56C255.443 147.347 256.163 150.067 256.163 153.72C256.163 156.12 255.75 158.133 254.923 159.76C254.123 161.36 253.043 162.56 251.683 163.36C250.323 164.16 248.843 164.56 247.243 164.56C245.91 164.56 244.617 164.187 243.363 163.44C242.137 162.667 241.217 161.533 240.603 160.04L241.403 160.48C242.07 161.547 242.897 162.347 243.883 162.88C244.87 163.387 245.883 163.64 246.923 163.64C248.71 163.64 250.043 162.84 250.923 161.24C251.83 159.613 252.283 157.107 252.283 153.72C252.283 151.56 252.11 149.76 251.763 148.32C251.417 146.88 250.883 145.813 250.163 145.12C249.443 144.4 248.523 144.04 247.403 144.04C246.177 144.04 245.03 144.6 243.963 145.72C242.923 146.813 242.283 148.427 242.043 150.56L241.563 150C241.857 147.733 242.643 145.973 243.923 144.72C245.23 143.467 246.777 142.84 248.563 142.84ZM242.323 132.68V161.92C241.977 162.213 241.617 162.52 241.243 162.84C240.897 163.133 240.55 163.427 240.203 163.72C239.857 164.013 239.497 164.32 239.123 164.64L238.443 164.36C238.55 163.987 238.617 163.613 238.643 163.24C238.697 162.84 238.723 162.44 238.723 162.04V137.48C238.723 136.28 238.51 135.4 238.083 134.84C237.657 134.253 236.857 133.96 235.683 133.96V133.12C236.537 133.2 237.363 133.24 238.163 133.24C238.937 133.24 239.67 133.2 240.363 133.12C241.083 133.013 241.737 132.867 242.323 132.68ZM271.663 142.84C272.383 142.84 273.009 142.987 273.543 143.28C274.103 143.573 274.529 143.96 274.823 144.44C275.143 144.893 275.303 145.413 275.303 146C275.303 146.667 275.089 147.253 274.663 147.76C274.263 148.267 273.716 148.52 273.023 148.52C272.463 148.52 271.969 148.347 271.543 148C271.116 147.627 270.903 147.107 270.903 146.44C270.903 145.933 271.036 145.507 271.303 145.16C271.596 144.787 271.916 144.493 272.263 144.28C272.076 144.013 271.796 143.88 271.423 143.88C270.596 143.88 269.836 144.133 269.143 144.64C268.449 145.12 267.863 145.747 267.383 146.52C266.903 147.293 266.529 148.12 266.263 149C265.996 149.853 265.863 150.653 265.863 151.4V159.88C265.863 161.187 266.236 162.067 266.983 162.52C267.756 162.947 268.796 163.16 270.103 163.16V164C269.489 163.973 268.623 163.947 267.503 163.92C266.383 163.867 265.196 163.84 263.942 163.84C263.036 163.84 262.129 163.867 261.223 163.92C260.343 163.947 259.676 163.973 259.223 164V163.16C260.316 163.16 261.089 162.96 261.543 162.56C262.023 162.16 262.263 161.4 262.263 160.28V147.76C262.263 146.56 262.049 145.68 261.623 145.12C261.196 144.533 260.396 144.24 259.223 144.24V143.4C260.076 143.48 260.903 143.52 261.703 143.52C262.476 143.52 263.209 143.48 263.903 143.4C264.623 143.293 265.276 143.147 265.863 142.96V147.96C266.156 147.187 266.569 146.413 267.103 145.64C267.663 144.84 268.329 144.173 269.103 143.64C269.876 143.107 270.729 142.84 271.663 142.84ZM282.715 164.28C281.622 164.28 280.675 164.08 279.875 163.68C279.075 163.253 278.462 162.667 278.035 161.92C277.635 161.173 277.435 160.307 277.435 159.32C277.435 158.147 277.702 157.187 278.235 156.44C278.795 155.693 279.502 155.093 280.355 154.64C281.208 154.187 282.102 153.813 283.035 153.52C283.995 153.2 284.902 152.907 285.755 152.64C286.608 152.347 287.302 152.013 287.835 151.64C288.395 151.267 288.675 150.773 288.675 150.16V147.68C288.675 146.56 288.502 145.707 288.155 145.12C287.835 144.533 287.395 144.147 286.835 143.96C286.275 143.747 285.648 143.64 284.955 143.64C284.288 143.64 283.568 143.733 282.795 143.92C282.048 144.107 281.448 144.493 280.995 145.08C281.502 145.187 281.942 145.453 282.315 145.88C282.688 146.307 282.875 146.853 282.875 147.52C282.875 148.187 282.662 148.72 282.235 149.12C281.808 149.493 281.262 149.68 280.595 149.68C279.822 149.68 279.248 149.44 278.875 148.96C278.528 148.453 278.355 147.893 278.355 147.28C278.355 146.587 278.528 146.027 278.875 145.6C279.222 145.173 279.662 144.773 280.195 144.4C280.808 143.973 281.595 143.613 282.555 143.32C283.542 143 284.648 142.84 285.875 142.84C286.968 142.84 287.902 142.973 288.675 143.24C289.448 143.48 290.088 143.84 290.595 144.32C291.288 144.96 291.742 145.747 291.955 146.68C292.168 147.587 292.275 148.68 292.275 149.96V161.08C292.275 161.747 292.368 162.227 292.555 162.52C292.768 162.813 293.088 162.96 293.515 162.96C293.808 162.96 294.088 162.893 294.355 162.76C294.622 162.627 294.942 162.413 295.315 162.12L295.755 162.8C295.195 163.227 294.662 163.587 294.155 163.88C293.648 164.147 292.968 164.28 292.115 164.28C291.342 164.28 290.702 164.147 290.195 163.88C289.688 163.613 289.302 163.227 289.035 162.72C288.795 162.187 288.675 161.52 288.675 160.72C287.955 161.92 287.088 162.813 286.075 163.4C285.088 163.987 283.968 164.28 282.715 164.28ZM284.155 162.68C285.035 162.68 285.848 162.427 286.595 161.92C287.368 161.413 288.062 160.653 288.675 159.64V151.8C288.355 152.253 287.888 152.64 287.275 152.96C286.662 153.253 285.995 153.56 285.275 153.88C284.555 154.173 283.862 154.533 283.195 154.96C282.555 155.36 282.022 155.893 281.595 156.56C281.168 157.227 280.955 158.093 280.955 159.16C280.955 160.227 281.235 161.08 281.795 161.72C282.382 162.36 283.168 162.68 284.155 162.68ZM303.397 136.76V143.44H309.317V144.24H303.397V159.72C303.397 160.973 303.624 161.853 304.077 162.36C304.53 162.867 305.157 163.12 305.957 163.12C306.757 163.12 307.45 162.8 308.037 162.16C308.624 161.493 309.13 160.387 309.557 158.84L310.357 159.04C310.09 160.587 309.557 161.893 308.757 162.96C307.984 164.027 306.784 164.56 305.157 164.56C304.25 164.56 303.504 164.44 302.917 164.2C302.33 163.987 301.81 163.667 301.357 163.24C300.77 162.627 300.357 161.893 300.117 161.04C299.904 160.187 299.797 159.053 299.797 157.64V144.24H295.957V143.44H299.797V137.32C300.464 137.293 301.104 137.24 301.717 137.16C302.33 137.08 302.89 136.947 303.397 136.76ZM320.818 142.84C323.164 142.84 324.991 143.56 326.298 145C327.631 146.413 328.298 148.627 328.298 151.64H314.178L314.138 150.88H324.458C324.511 149.573 324.404 148.373 324.138 147.28C323.871 146.16 323.444 145.267 322.858 144.6C322.298 143.933 321.564 143.6 320.658 143.6C319.431 143.6 318.338 144.213 317.378 145.44C316.444 146.667 315.884 148.613 315.698 151.28L315.817 151.44C315.764 151.84 315.724 152.28 315.698 152.76C315.671 153.24 315.658 153.72 315.658 154.2C315.658 156.013 315.951 157.573 316.538 158.88C317.124 160.187 317.884 161.187 318.818 161.88C319.778 162.547 320.764 162.88 321.778 162.88C322.578 162.88 323.338 162.76 324.058 162.52C324.778 162.253 325.444 161.827 326.058 161.24C326.671 160.653 327.204 159.867 327.658 158.88L328.458 159.2C328.164 160.08 327.684 160.933 327.018 161.76C326.351 162.587 325.511 163.267 324.498 163.8C323.484 164.307 322.311 164.56 320.978 164.56C319.058 164.56 317.404 164.12 316.018 163.24C314.658 162.36 313.604 161.147 312.858 159.6C312.138 158.027 311.778 156.227 311.778 154.2C311.778 151.853 312.151 149.84 312.898 148.16C313.644 146.453 314.698 145.147 316.058 144.24C317.418 143.307 319.004 142.84 320.818 142.84Z" fill="#AF9146"/>
<path d="M37.28 63.68V64.48C36.7733 64.5867 36.2133 64.8933 35.6 65.4C34.9867 65.88 34.4933 66.7333 34.12 67.96L26.56 92.2C26.5067 92.2 26.4533 92.2 26.4 92.2C26.3467 92.2 26.2933 92.2 26.24 92.2C26.1867 92.2 26.1333 92.2 26.08 92.2C26.0267 92.2 25.9733 92.2 25.92 92.2L17.44 67.04C17.0933 66 16.7067 65.32 16.28 65C15.8533 64.68 15.4533 64.5067 15.08 64.48V63.68C15.56 63.7067 16.16 63.7333 16.88 63.76C17.6 63.7867 18.2933 63.8 18.96 63.8C20 63.8 20.9733 63.7867 21.88 63.76C22.7867 63.7333 23.52 63.7067 24.08 63.68V64.48C23.28 64.5067 22.64 64.5867 22.16 64.72C21.7067 64.8533 21.44 65.1467 21.36 65.6C21.3067 66.0533 21.44 66.8 21.76 67.84L27.72 86.28L27.16 86.76L32.44 70.16C32.92 68.6933 33.1333 67.56 33.08 66.76C33.0533 65.9333 32.76 65.36 32.2 65.04C31.64 64.6933 30.8 64.5067 29.68 64.48V63.68C30.4533 63.7067 31.24 63.7333 32.04 63.76C32.84 63.7867 33.5867 63.8 34.28 63.8C34.9733 63.8 35.5467 63.7867 36 63.76C36.4533 63.7333 36.88 63.7067 37.28 63.68ZM9.32 63.68V64.48C8.62667 64.5333 8.12 64.6667 7.8 64.88C7.50667 65.0933 7.36 65.44 7.36 65.92C7.38667 66.3733 7.53333 67.0133 7.8 67.84L14 86.76L13 87.76L18.6 69.88L19.2 70.84L12.6 92.2C12.5467 92.2 12.4933 92.2 12.44 92.2C12.3867 92.2 12.3333 92.2 12.28 92.2C12.2267 92.2 12.1733 92.2 12.12 92.2C12.0667 92.2 12.0133 92.2 11.96 92.2L3.48 67.04C3.13333 66 2.69333 65.32 2.16 65C1.62667 64.68 1.14667 64.5067 0.72 64.48V63.68C1.25333 63.7067 1.90667 63.7333 2.68 63.76C3.48 63.7867 4.25333 63.8 5 63.8C5.88 63.8 6.69333 63.7867 7.44 63.76C8.21333 63.7333 8.84 63.7067 9.32 63.68ZM45.3175 70.84C47.6642 70.84 49.4908 71.56 50.7975 73C52.1308 74.4133 52.7975 76.6267 52.7975 79.64H38.6775L38.6375 78.88H48.9575C49.0108 77.5733 48.9042 76.3733 48.6375 75.28C48.3708 74.16 47.9442 73.2667 47.3575 72.6C46.7975 71.9333 46.0642 71.6 45.1575 71.6C43.9308 71.6 42.8375 72.2133 41.8775 73.44C40.9442 74.6667 40.3842 76.6133 40.1975 79.28L40.3175 79.44C40.2642 79.84 40.2242 80.28 40.1975 80.76C40.1708 81.24 40.1575 81.72 40.1575 82.2C40.1575 84.0133 40.4508 85.5733 41.0375 86.88C41.6242 88.1867 42.3842 89.1867 43.3175 89.88C44.2775 90.5467 45.2642 90.88 46.2775 90.88C47.0775 90.88 47.8375 90.76 48.5575 90.52C49.2775 90.2533 49.9442 89.8267 50.5575 89.24C51.1708 88.6533 51.7042 87.8667 52.1575 86.88L52.9575 87.2C52.6642 88.08 52.1842 88.9333 51.5175 89.76C50.8508 90.5867 50.0108 91.2667 48.9975 91.8C47.9842 92.3067 46.8108 92.56 45.4775 92.56C43.5575 92.56 41.9042 92.12 40.5175 91.24C39.1575 90.36 38.1042 89.1467 37.3575 87.6C36.6375 86.0267 36.2775 84.2267 36.2775 82.2C36.2775 79.8533 36.6508 77.84 37.3975 76.16C38.1442 74.4533 39.1975 73.1467 40.5575 72.24C41.9175 71.3067 43.5042 70.84 45.3175 70.84Z" fill="#AF9146"/>
<path d="M83.24 106.92C80.84 106.92 78.52 106.44 76.28 105.48C74.12 104.6 72.32 103.16 70.88 101.16C69.52 99.16 68.84 96.6 68.84 93.48C68.84 89 69.84 84.56 71.84 80.16C73.84 75.68 76.48 71.36 79.76 67.2C74.64 66.56 70.44 65.28 67.16 63.36C63.88 61.44 62.24 58.64 62.24 54.96C62.24 52.4 62.96 50.28 64.4 48.6C65.84 46.84 67.64 45.44 69.8 44.4C72.04 43.36 74.4 42.56 76.88 42C79.44 41.44 81.8 41.08 83.96 40.92C86.2 40.76 87.96 40.68 89.24 40.68C89.64 40.68 90.56 40.72 92 40.8C93.52 40.8 95.12 40.88 96.8 41.04C98.56 41.12 100.08 41.28 101.36 41.52C102.64 41.76 103.28 42.04 103.28 42.36C103.28 42.68 103 42.84 102.44 42.84C101.4 42.84 100.24 42.8 98.96 42.72C97.68 42.56 96.4 42.48 95.12 42.48C94.16 42.48 93.2 42.48 92.24 42.48C91.28 42.48 90.36 42.52 89.48 42.6C87.88 42.68 85.88 42.88 83.48 43.2C81.08 43.44 78.68 44 76.28 44.88C73.96 45.68 72 46.92 70.4 48.6C68.8 50.2 68 52.4 68 55.2C68 58.16 69.2 60.48 71.6 62.16C74.08 63.76 77.28 64.8 81.2 65.28C84.96 60.8 89.24 56.68 94.04 52.92C98.84 49.08 103.72 45.76 108.68 42.96C113.72 40.16 118.56 37.96 123.2 36.36C127.92 34.76 132.04 33.96 135.56 33.96C137.88 33.96 140.04 34.4 142.04 35.28C144.04 36.08 145.04 37.8 145.04 40.44C145.04 43.56 143.8 46.48 141.32 49.2C138.92 51.92 135.68 54.4 131.6 56.64C127.52 58.88 122.96 60.84 117.92 62.52C112.88 64.12 107.68 65.36 102.32 66.24C96.96 67.12 91.84 67.56 86.96 67.56H86C83.04 71.56 80.64 75.68 78.8 79.92C77.04 84.08 76.16 88.24 76.16 92.4C76.16 96.32 77.04 99.32 78.8 101.4C80.56 103.4 82.64 104.4 85.04 104.4C88.56 104.4 92.2 103.56 95.96 101.88C99.72 100.12 103.2 97.84 106.4 95.04C109.68 92.24 112.44 89.24 114.68 86.04C116.92 82.76 118.28 79.6 118.76 76.56C118.76 76.4 118.76 76.24 118.76 76.08C118.84 75.92 118.88 75.76 118.88 75.6C118.88 74.56 118.56 73.72 117.92 73.08C117.28 72.36 116.24 72 114.8 72C114.48 72 114.16 72.04 113.84 72.12C113.52 72.12 113.16 72.16 112.76 72.24C110.52 72.64 107.96 73.8 105.08 75.72C102.2 77.64 99.48 80.04 96.92 82.92C94.44 85.72 92.56 88.72 91.28 91.92C90.96 92.08 90.76 92.16 90.68 92.16C90.28 92.16 90.2 91.68 90.44 90.72C91.24 88.56 92.52 86.28 94.28 83.88C96.12 81.4 98.28 79.08 100.76 76.92C103.24 74.76 105.92 73 108.8 71.64C111.68 70.28 114.6 69.6 117.56 69.6C119.8 69.68 121.44 70.2 122.48 71.16C123.52 72.12 124.04 73.4 124.04 75C124.04 77.32 123.08 80 121.16 83.04C119.64 85.44 117.48 88.04 114.68 90.84C111.96 93.56 108.84 96.16 105.32 98.64C101.8 101.04 98.12 103 94.28 104.52C90.52 106.12 86.84 106.92 83.24 106.92ZM87.44 65.64C91.84 65.64 96.52 65.2 101.48 64.32C106.52 63.36 111.44 62.08 116.24 60.48C121.04 58.88 125.4 57 129.32 54.84C133.24 52.68 136.36 50.36 138.68 47.88C141.08 45.4 142.28 42.8 142.28 40.08C142.28 38.24 141.56 37.04 140.12 36.48C138.76 35.92 137.28 35.64 135.68 35.64C132.4 35.64 128.68 36.44 124.52 38.04C120.36 39.56 116.04 41.68 111.56 44.4C107.16 47.12 102.88 50.32 98.72 54C94.56 57.6 90.8 61.48 87.44 65.64Z" fill="#AF9146"/>
<path d="M145.32 70.96V87.68C145.32 88.88 145.533 89.7733 145.96 90.36C146.413 90.92 147.213 91.2 148.36 91.2V92.04C147.533 91.96 146.707 91.92 145.88 91.92C145.107 91.92 144.36 91.96 143.64 92.04C142.947 92.12 142.307 92.2667 141.72 92.48V87.76C141.053 89.4933 140.107 90.7333 138.88 91.48C137.68 92.2 136.44 92.56 135.16 92.56C134.227 92.56 133.413 92.4267 132.72 92.16C132.027 91.8933 131.453 91.52 131 91.04C130.493 90.5067 130.147 89.8133 129.96 88.96C129.773 88.1067 129.68 87.0533 129.68 85.8V75.76C129.68 74.56 129.467 73.68 129.04 73.12C128.613 72.5333 127.813 72.24 126.64 72.24V71.4C127.493 71.48 128.32 71.52 129.12 71.52C129.893 71.52 130.627 71.48 131.32 71.4C132.04 71.2933 132.693 71.1467 133.28 70.96V86.68C133.28 87.5067 133.333 88.2667 133.44 88.96C133.547 89.6533 133.813 90.2133 134.24 90.64C134.667 91.0667 135.36 91.28 136.32 91.28C137.36 91.28 138.28 90.96 139.08 90.32C139.907 89.68 140.547 88.8133 141 87.72C141.48 86.6267 141.72 85.4 141.72 84.04V75.76C141.72 74.56 141.507 73.68 141.08 73.12C140.653 72.5333 139.853 72.24 138.68 72.24V71.4C139.533 71.48 140.36 71.52 141.16 71.52C141.933 71.52 142.667 71.48 143.36 71.4C144.08 71.2933 144.733 71.1467 145.32 70.96ZM162.842 70.84C163.562 70.84 164.189 70.9867 164.722 71.28C165.282 71.5733 165.709 71.96 166.002 72.44C166.322 72.8933 166.482 73.4133 166.482 74C166.482 74.6667 166.269 75.2533 165.842 75.76C165.442 76.2667 164.896 76.52 164.202 76.52C163.642 76.52 163.149 76.3467 162.722 76C162.296 75.6267 162.082 75.1067 162.082 74.44C162.082 73.9333 162.216 73.5067 162.482 73.16C162.776 72.7867 163.096 72.4933 163.442 72.28C163.256 72.0133 162.976 71.88 162.602 71.88C161.776 71.88 161.016 72.1333 160.322 72.64C159.629 73.12 159.042 73.7467 158.562 74.52C158.082 75.2933 157.709 76.12 157.442 77C157.176 77.8533 157.042 78.6533 157.042 79.4V87.88C157.042 89.1867 157.416 90.0667 158.162 90.52C158.936 90.9467 159.976 91.16 161.282 91.16V92C160.669 91.9733 159.802 91.9467 158.682 91.92C157.562 91.8667 156.376 91.84 155.122 91.84C154.216 91.84 153.309 91.8667 152.402 91.92C151.522 91.9467 150.856 91.9733 150.402 92V91.16C151.496 91.16 152.269 90.96 152.722 90.56C153.202 90.16 153.442 89.4 153.442 88.28V75.76C153.442 74.56 153.229 73.68 152.802 73.12C152.376 72.5333 151.576 72.24 150.402 72.24V71.4C151.256 71.48 152.082 71.52 152.882 71.52C153.656 71.52 154.389 71.48 155.082 71.4C155.802 71.2933 156.456 71.1467 157.042 70.96V75.96C157.336 75.1867 157.749 74.4133 158.282 73.64C158.842 72.84 159.509 72.1733 160.282 71.64C161.056 71.1067 161.909 70.84 162.842 70.84ZM173.895 92.28C172.801 92.28 171.855 92.08 171.055 91.68C170.255 91.2533 169.641 90.6667 169.215 89.92C168.815 89.1733 168.615 88.3067 168.615 87.32C168.615 86.1467 168.881 85.1867 169.415 84.44C169.975 83.6933 170.681 83.0933 171.535 82.64C172.388 82.1867 173.281 81.8133 174.215 81.52C175.175 81.2 176.081 80.9067 176.935 80.64C177.788 80.3467 178.481 80.0133 179.015 79.64C179.575 79.2667 179.855 78.7733 179.855 78.16V75.68C179.855 74.56 179.681 73.7067 179.335 73.12C179.015 72.5333 178.575 72.1467 178.015 71.96C177.455 71.7467 176.828 71.64 176.135 71.64C175.468 71.64 174.748 71.7333 173.975 71.92C173.228 72.1067 172.628 72.4933 172.175 73.08C172.681 73.1867 173.121 73.4533 173.495 73.88C173.868 74.3067 174.055 74.8533 174.055 75.52C174.055 76.1867 173.841 76.72 173.415 77.12C172.988 77.4933 172.441 77.68 171.775 77.68C171.001 77.68 170.428 77.44 170.055 76.96C169.708 76.4533 169.535 75.8933 169.535 75.28C169.535 74.5867 169.708 74.0267 170.055 73.6C170.401 73.1733 170.841 72.7733 171.375 72.4C171.988 71.9733 172.775 71.6133 173.735 71.32C174.721 71 175.828 70.84 177.055 70.84C178.148 70.84 179.081 70.9733 179.855 71.24C180.628 71.48 181.268 71.84 181.775 72.32C182.468 72.96 182.921 73.7467 183.135 74.68C183.348 75.5867 183.455 76.68 183.455 77.96V89.08C183.455 89.7467 183.548 90.2267 183.735 90.52C183.948 90.8133 184.268 90.96 184.695 90.96C184.988 90.96 185.268 90.8933 185.535 90.76C185.801 90.6267 186.121 90.4133 186.495 90.12L186.935 90.8C186.375 91.2267 185.841 91.5867 185.335 91.88C184.828 92.1467 184.148 92.28 183.295 92.28C182.521 92.28 181.881 92.1467 181.375 91.88C180.868 91.6133 180.481 91.2267 180.215 90.72C179.975 90.1867 179.855 89.52 179.855 88.72C179.135 89.92 178.268 90.8133 177.255 91.4C176.268 91.9867 175.148 92.28 173.895 92.28ZM175.335 90.68C176.215 90.68 177.028 90.4267 177.775 89.92C178.548 89.4133 179.241 88.6533 179.855 87.64V79.8C179.535 80.2533 179.068 80.64 178.455 80.96C177.841 81.2533 177.175 81.56 176.455 81.88C175.735 82.1733 175.041 82.5333 174.375 82.96C173.735 83.36 173.201 83.8933 172.775 84.56C172.348 85.2267 172.135 86.0933 172.135 87.16C172.135 88.2267 172.415 89.08 172.975 89.72C173.561 90.36 174.348 90.68 175.335 90.68ZM194.577 64.76V71.44H200.497V72.24H194.577V87.72C194.577 88.9733 194.803 89.8533 195.257 90.36C195.71 90.8667 196.337 91.12 197.137 91.12C197.937 91.12 198.63 90.8 199.217 90.16C199.803 89.4933 200.31 88.3867 200.737 86.84L201.537 87.04C201.27 88.5867 200.737 89.8933 199.937 90.96C199.163 92.0267 197.963 92.56 196.337 92.56C195.43 92.56 194.683 92.44 194.097 92.2C193.51 91.9867 192.99 91.6667 192.537 91.24C191.95 90.6267 191.537 89.8933 191.297 89.04C191.083 88.1867 190.977 87.0533 190.977 85.64V72.24H187.137V71.44H190.977V65.32C191.643 65.2933 192.283 65.24 192.897 65.16C193.51 65.08 194.07 64.9467 194.577 64.76ZM211.997 70.84C214.344 70.84 216.171 71.56 217.477 73C218.811 74.4133 219.477 76.6267 219.477 79.64H205.357L205.317 78.88H215.637C215.691 77.5733 215.584 76.3733 215.317 75.28C215.051 74.16 214.624 73.2667 214.037 72.6C213.477 71.9333 212.744 71.6 211.837 71.6C210.611 71.6 209.517 72.2133 208.557 73.44C207.624 74.6667 207.064 76.6133 206.877 79.28L206.997 79.44C206.944 79.84 206.904 80.28 206.877 80.76C206.851 81.24 206.837 81.72 206.837 82.2C206.837 84.0133 207.131 85.5733 207.717 86.88C208.304 88.1867 209.064 89.1867 209.997 89.88C210.957 90.5467 211.944 90.88 212.957 90.88C213.757 90.88 214.517 90.76 215.237 90.52C215.957 90.2533 216.624 89.8267 217.237 89.24C217.851 88.6533 218.384 87.8667 218.837 86.88L219.637 87.2C219.344 88.08 218.864 88.9333 218.197 89.76C217.531 90.5867 216.691 91.2667 215.677 91.8C214.664 92.3067 213.491 92.56 212.157 92.56C210.237 92.56 208.584 92.12 207.197 91.24C205.837 90.36 204.784 89.1467 204.037 87.6C203.317 86.0267 202.957 84.2267 202.957 82.2C202.957 79.8533 203.331 77.84 204.077 76.16C204.824 74.4533 205.877 73.1467 207.237 72.24C208.597 71.3067 210.184 70.84 211.997 70.84ZM226.392 87.44C226.978 87.44 227.458 87.56 227.832 87.8C228.205 88.04 228.512 88.3467 228.752 88.72C229.045 89.1467 229.232 89.6133 229.312 90.12C229.392 90.6267 229.432 91.04 229.432 91.36C229.432 92.6667 229.098 93.8533 228.432 94.92C227.765 95.9867 226.725 96.8533 225.312 97.52L224.952 96.8C225.778 96.4533 226.485 95.9067 227.072 95.16C227.685 94.4133 227.992 93.6533 227.992 92.88C227.992 92.56 227.952 92.28 227.872 92.04C227.445 92.3867 226.952 92.56 226.392 92.56C225.698 92.56 225.098 92.3333 224.592 91.88C224.085 91.4267 223.832 90.8 223.832 90C223.832 89.2533 224.085 88.64 224.592 88.16C225.098 87.68 225.698 87.44 226.392 87.44Z" fill="#AF9146"/>
</svg>
