<svg width="456" height="246" viewBox="0 0 456 246" fill="none" xmlns="http://www.w3.org/2000/svg">
<path d="M47.424 192.352V193.472C46.1547 193.509 45.184 193.659 44.512 193.92C43.8773 194.144 43.448 194.592 43.224 195.264C43 195.899 42.888 196.907 42.888 198.288V226.064C42.888 227.408 43 228.416 43.224 229.088C43.448 229.76 43.8773 230.208 44.512 230.432C45.184 230.656 46.1547 230.805 47.424 230.88V232C46.5653 231.925 45.4827 231.888 44.176 231.888C42.9067 231.851 41.6187 231.832 40.312 231.832C38.856 231.832 37.4933 231.851 36.224 231.888C34.9547 231.888 33.928 231.925 33.144 232V230.88C34.4133 230.805 35.3653 230.656 36 230.432C36.672 230.208 37.12 229.76 37.344 229.088C37.568 228.416 37.68 227.408 37.68 226.064V195.264L37.904 195.432L24.184 232.28H23.288L9.176 195.936V225.504C9.176 226.848 9.288 227.912 9.512 228.696C9.77333 229.443 10.2587 229.984 10.968 230.32C11.7147 230.619 12.816 230.805 14.272 230.88V232C13.6 231.925 12.7227 231.888 11.64 231.888C10.5573 231.851 9.53067 231.832 8.56 231.832C7.62667 231.832 6.67467 231.851 5.704 231.888C4.77067 231.888 3.98667 231.925 3.352 232V230.88C4.62133 230.805 5.57333 230.619 6.208 230.32C6.88 229.984 7.328 229.443 7.552 228.696C7.776 227.912 7.888 226.848 7.888 225.504V198.288C7.888 196.907 7.776 195.899 7.552 195.264C7.328 194.592 6.88 194.144 6.208 193.92C5.57333 193.659 4.62133 193.509 3.352 193.472V192.352C3.98667 192.389 4.77067 192.427 5.704 192.464C6.67467 192.501 7.62667 192.52 8.56 192.52C9.38133 192.52 10.2213 192.501 11.08 192.464C11.976 192.427 12.7227 192.389 13.32 192.352L26.032 225.84L25.08 226.288L37.68 192.52C38.128 192.52 38.5573 192.52 38.968 192.52C39.416 192.52 39.864 192.52 40.312 192.52C41.6187 192.52 42.9067 192.501 44.176 192.464C45.4827 192.427 46.5653 192.389 47.424 192.352ZM64.0289 202.376C67.3142 202.376 69.8715 203.384 71.7009 205.4C73.5675 207.379 74.5009 210.477 74.5009 214.696H54.7329L54.6769 213.632H69.1249C69.1995 211.803 69.0502 210.123 68.6769 208.592C68.3035 207.024 67.7062 205.773 66.8849 204.84C66.1009 203.907 65.0742 203.44 63.8049 203.44C62.0875 203.44 60.5569 204.299 59.2129 206.016C57.9062 207.733 57.1222 210.459 56.8609 214.192L57.0289 214.416C56.9542 214.976 56.8982 215.592 56.8609 216.264C56.8235 216.936 56.8049 217.608 56.8049 218.28C56.8049 220.819 57.2155 223.003 58.0369 224.832C58.8582 226.661 59.9222 228.061 61.2289 229.032C62.5729 229.965 63.9542 230.432 65.3729 230.432C66.4929 230.432 67.5569 230.264 68.5649 229.928C69.5729 229.555 70.5062 228.957 71.3649 228.136C72.2235 227.315 72.9702 226.213 73.6049 224.832L74.7249 225.28C74.3142 226.512 73.6422 227.707 72.7089 228.864C71.7755 230.021 70.5995 230.973 69.1809 231.72C67.7622 232.429 66.1195 232.784 64.2529 232.784C61.5649 232.784 59.2502 232.168 57.3089 230.936C55.4049 229.704 53.9302 228.005 52.8849 225.84C51.8769 223.637 51.3729 221.117 51.3729 218.28C51.3729 214.995 51.8955 212.176 52.9409 209.824C53.9862 207.435 55.4609 205.605 57.3649 204.336C59.2689 203.029 61.4902 202.376 64.0289 202.376ZM92.357 202.376C95.6423 202.376 98.1997 203.384 100.029 205.4C101.896 207.379 102.829 210.477 102.829 214.696H83.061L83.005 213.632H97.453C97.5277 211.803 97.3783 210.123 97.005 208.592C96.6317 207.024 96.0343 205.773 95.213 204.84C94.429 203.907 93.4023 203.44 92.133 203.44C90.4157 203.44 88.885 204.299 87.541 206.016C86.2343 207.733 85.4503 210.459 85.189 214.192L85.357 214.416C85.2823 214.976 85.2263 215.592 85.189 216.264C85.1517 216.936 85.133 217.608 85.133 218.28C85.133 220.819 85.5437 223.003 86.365 224.832C87.1863 226.661 88.2503 228.061 89.557 229.032C90.901 229.965 92.2823 230.432 93.701 230.432C94.821 230.432 95.885 230.264 96.893 229.928C97.901 229.555 98.8343 228.957 99.693 228.136C100.552 227.315 101.298 226.213 101.933 224.832L103.053 225.28C102.642 226.512 101.97 227.707 101.037 228.864C100.104 230.021 98.9277 230.973 97.509 231.72C96.0903 232.429 94.4477 232.784 92.581 232.784C89.893 232.784 87.5783 232.168 85.637 230.936C83.733 229.704 82.2583 228.005 81.213 225.84C80.205 223.637 79.701 221.117 79.701 218.28C79.701 214.995 80.2237 212.176 81.269 209.824C82.3143 207.435 83.789 205.605 85.693 204.336C87.597 203.029 89.8183 202.376 92.357 202.376ZM116.093 193.864V203.216H124.381V204.336H116.093V226.008C116.093 227.763 116.41 228.995 117.045 229.704C117.68 230.413 118.557 230.768 119.677 230.768C120.797 230.768 121.768 230.32 122.589 229.424C123.41 228.491 124.12 226.941 124.717 224.776L125.837 225.056C125.464 227.221 124.717 229.051 123.597 230.544C122.514 232.037 120.834 232.784 118.557 232.784C117.288 232.784 116.242 232.616 115.421 232.28C114.6 231.981 113.872 231.533 113.237 230.936C112.416 230.077 111.837 229.051 111.501 227.856C111.202 226.661 111.053 225.075 111.053 223.096V204.336H105.677V203.216H111.053V194.648C111.986 194.611 112.882 194.536 113.741 194.424C114.6 194.312 115.384 194.125 116.093 193.864ZM136.898 202.376C138.391 202.376 139.661 202.619 140.706 203.104C141.751 203.589 142.517 204.037 143.002 204.448C144.234 205.456 144.981 204.784 145.242 202.432H146.53C146.455 203.477 146.399 204.728 146.362 206.184C146.325 207.603 146.306 209.525 146.306 211.952H145.018C144.794 210.571 144.402 209.227 143.842 207.92C143.319 206.613 142.535 205.549 141.49 204.728C140.445 203.869 139.082 203.44 137.402 203.44C136.095 203.44 134.994 203.813 134.098 204.56C133.239 205.269 132.81 206.333 132.81 207.752C132.81 208.872 133.146 209.843 133.818 210.664C134.49 211.448 135.367 212.195 136.45 212.904C137.533 213.576 138.709 214.323 139.978 215.144C141.397 216.04 142.685 216.955 143.842 217.888C144.999 218.821 145.914 219.848 146.586 220.968C147.295 222.088 147.65 223.413 147.65 224.944C147.65 226.661 147.202 228.099 146.306 229.256C145.41 230.413 144.234 231.291 142.778 231.888C141.359 232.485 139.791 232.784 138.074 232.784C137.253 232.784 136.469 232.709 135.722 232.56C135.013 232.448 134.322 232.261 133.65 232C133.277 231.813 132.885 231.589 132.474 231.328C132.101 231.067 131.727 230.787 131.354 230.488C130.981 230.189 130.645 230.208 130.346 230.544C130.047 230.843 129.823 231.459 129.674 232.392H128.386C128.461 231.197 128.517 229.741 128.554 228.024C128.591 226.307 128.61 224.029 128.61 221.192H129.898C130.159 223.283 130.533 225.112 131.018 226.68C131.503 228.248 132.269 229.48 133.314 230.376C134.359 231.235 135.815 231.664 137.682 231.664C138.429 231.664 139.175 231.496 139.922 231.16C140.706 230.824 141.359 230.264 141.882 229.48C142.405 228.696 142.666 227.651 142.666 226.344C142.666 224.701 142.069 223.357 140.874 222.312C139.679 221.267 138.167 220.165 136.338 219.008C134.994 218.149 133.725 217.291 132.53 216.432C131.373 215.573 130.421 214.603 129.674 213.52C128.965 212.437 128.61 211.131 128.61 209.6C128.61 207.92 128.983 206.557 129.73 205.512C130.514 204.429 131.541 203.645 132.81 203.16C134.079 202.637 135.442 202.376 136.898 202.376ZM166.594 192.352C167.378 192.389 168.405 192.427 169.674 192.464C170.944 192.501 172.194 192.52 173.426 192.52C175.181 192.52 176.861 192.501 178.466 192.464C180.072 192.427 181.21 192.408 181.882 192.408C184.906 192.408 187.408 192.837 189.386 193.696C191.402 194.555 192.896 195.731 193.866 197.224C194.874 198.68 195.378 200.323 195.378 202.152C195.378 203.272 195.154 204.467 194.706 205.736C194.258 207.005 193.474 208.2 192.354 209.32C191.272 210.44 189.778 211.373 187.874 212.12C185.97 212.829 183.562 213.184 180.65 213.184H175.274V212.064H180.09C182.741 212.064 184.757 211.653 186.138 210.832C187.557 209.973 188.509 208.853 188.994 207.472C189.517 206.053 189.778 204.485 189.778 202.768C189.778 199.819 189.069 197.541 187.65 195.936C186.269 194.293 183.88 193.472 180.482 193.472C178.765 193.472 177.645 193.789 177.122 194.424C176.6 195.059 176.338 196.347 176.338 198.288V226.064C176.338 227.408 176.45 228.416 176.674 229.088C176.898 229.76 177.328 230.208 177.962 230.432C178.634 230.656 179.605 230.805 180.874 230.88V232C180.016 231.925 178.933 231.888 177.626 231.888C176.357 231.851 175.069 231.832 173.762 231.832C172.306 231.832 170.944 231.851 169.674 231.888C168.405 231.888 167.378 231.925 166.594 232V230.88C167.864 230.805 168.816 230.656 169.45 230.432C170.122 230.208 170.57 229.76 170.794 229.088C171.018 228.416 171.13 227.408 171.13 226.064V198.288C171.13 196.907 171.018 195.899 170.794 195.264C170.57 194.592 170.122 194.144 169.45 193.92C168.816 193.659 167.864 193.509 166.594 193.472V192.352ZM175.498 212.232C177.514 212.307 179.101 212.4 180.258 212.512C181.416 212.587 182.349 212.661 183.058 212.736C183.805 212.811 184.514 212.904 185.186 213.016C187.688 213.427 189.48 214.192 190.562 215.312C191.682 216.395 192.504 218.093 193.026 220.408L194.426 226.12C194.8 227.763 195.173 228.957 195.546 229.704C195.957 230.413 196.573 230.749 197.394 230.712C198.029 230.675 198.552 230.469 198.962 230.096C199.41 229.723 199.877 229.219 200.362 228.584L201.202 229.2C200.418 230.357 199.597 231.253 198.738 231.888C197.917 232.485 196.741 232.784 195.21 232.784C193.829 232.784 192.616 232.373 191.57 231.552C190.525 230.731 189.741 229.125 189.218 226.736L187.986 221.136C187.65 219.531 187.258 218.149 186.81 216.992C186.4 215.797 185.802 214.864 185.018 214.192C184.272 213.52 183.152 213.184 181.658 213.184H175.61L175.498 212.232ZM208.563 189.16C209.533 189.16 210.373 189.515 211.083 190.224C211.792 190.933 212.147 191.773 212.147 192.744C212.147 193.715 211.792 194.555 211.083 195.264C210.373 195.973 209.533 196.328 208.563 196.328C207.592 196.328 206.752 195.973 206.043 195.264C205.333 194.555 204.979 193.715 204.979 192.744C204.979 191.773 205.333 190.933 206.043 190.224C206.752 189.515 207.592 189.16 208.563 189.16ZM211.475 202.544V226.792C211.475 228.36 211.792 229.424 212.427 229.984C213.099 230.544 214.2 230.824 215.731 230.824V232C215.096 231.963 214.125 231.925 212.819 231.888C211.549 231.813 210.261 231.776 208.955 231.776C207.685 231.776 206.397 231.813 205.091 231.888C203.784 231.925 202.813 231.963 202.179 232V230.824C203.709 230.824 204.792 230.544 205.427 229.984C206.099 229.424 206.435 228.36 206.435 226.792V209.264C206.435 207.584 206.136 206.352 205.539 205.568C204.941 204.747 203.821 204.336 202.179 204.336V203.16C203.373 203.272 204.531 203.328 205.651 203.328C206.733 203.328 207.76 203.272 208.731 203.16C209.739 203.011 210.653 202.805 211.475 202.544ZM227.601 193.864V203.216H235.889V204.336H227.601V226.008C227.601 227.763 227.918 228.995 228.553 229.704C229.188 230.413 230.065 230.768 231.185 230.768C232.305 230.768 233.276 230.32 234.097 229.424C234.918 228.491 235.628 226.941 236.225 224.776L237.345 225.056C236.972 227.221 236.225 229.051 235.105 230.544C234.022 232.037 232.342 232.784 230.065 232.784C228.796 232.784 227.75 232.616 226.929 232.28C226.108 231.981 225.38 231.533 224.745 230.936C223.924 230.077 223.345 229.051 223.009 227.856C222.71 226.661 222.561 225.075 222.561 223.096V204.336H217.185V203.216H222.561V194.648C223.494 194.611 224.39 194.536 225.249 194.424C226.108 194.312 226.892 194.125 227.601 193.864ZM263.806 202.544V225.952C263.806 227.632 264.104 228.883 264.702 229.704C265.336 230.488 266.456 230.88 268.062 230.88V232.056C266.904 231.944 265.747 231.888 264.59 231.888C263.507 231.888 262.462 231.944 261.454 232.056C260.483 232.168 259.587 232.373 258.766 232.672V226.064C257.832 228.491 256.507 230.227 254.79 231.272C253.11 232.28 251.374 232.784 249.582 232.784C248.275 232.784 247.136 232.597 246.166 232.224C245.195 231.851 244.392 231.328 243.758 230.656C243.048 229.909 242.563 228.939 242.302 227.744C242.04 226.549 241.91 225.075 241.91 223.32V209.264C241.91 207.584 241.611 206.352 241.014 205.568C240.416 204.747 239.296 204.336 237.654 204.336V203.16C238.848 203.272 240.006 203.328 241.126 203.328C242.208 203.328 243.235 203.272 244.206 203.16C245.214 203.011 246.128 202.805 246.95 202.544V224.552C246.95 225.709 247.024 226.773 247.174 227.744C247.323 228.715 247.696 229.499 248.294 230.096C248.891 230.693 249.862 230.992 251.206 230.992C252.662 230.992 253.95 230.544 255.07 229.648C256.227 228.752 257.123 227.539 257.758 226.008C258.43 224.477 258.766 222.76 258.766 220.856V209.264C258.766 207.584 258.467 206.352 257.87 205.568C257.272 204.747 256.152 204.336 254.51 204.336V203.16C255.704 203.272 256.862 203.328 257.982 203.328C259.064 203.328 260.091 203.272 261.062 203.16C262.07 203.011 262.984 202.805 263.806 202.544ZM278.873 232.392C277.342 232.392 276.017 232.112 274.897 231.552C273.777 230.955 272.918 230.133 272.321 229.088C271.761 228.043 271.481 226.829 271.481 225.448C271.481 223.805 271.854 222.461 272.601 221.416C273.385 220.371 274.374 219.531 275.569 218.896C276.764 218.261 278.014 217.739 279.321 217.328C280.665 216.88 281.934 216.469 283.129 216.096C284.324 215.685 285.294 215.219 286.041 214.696C286.825 214.173 287.217 213.483 287.217 212.624V209.152C287.217 207.584 286.974 206.389 286.489 205.568C286.041 204.747 285.425 204.205 284.641 203.944C283.857 203.645 282.98 203.496 282.009 203.496C281.076 203.496 280.068 203.627 278.985 203.888C277.94 204.149 277.1 204.691 276.465 205.512C277.174 205.661 277.79 206.035 278.313 206.632C278.836 207.229 279.097 207.995 279.097 208.928C279.097 209.861 278.798 210.608 278.201 211.168C277.604 211.691 276.838 211.952 275.905 211.952C274.822 211.952 274.02 211.616 273.497 210.944C273.012 210.235 272.769 209.451 272.769 208.592C272.769 207.621 273.012 206.837 273.497 206.24C273.982 205.643 274.598 205.083 275.345 204.56C276.204 203.963 277.305 203.459 278.649 203.048C280.03 202.6 281.58 202.376 283.297 202.376C284.828 202.376 286.134 202.563 287.217 202.936C288.3 203.272 289.196 203.776 289.905 204.448C290.876 205.344 291.51 206.445 291.809 207.752C292.108 209.021 292.257 210.552 292.257 212.344V227.912C292.257 228.845 292.388 229.517 292.649 229.928C292.948 230.339 293.396 230.544 293.993 230.544C294.404 230.544 294.796 230.451 295.169 230.264C295.542 230.077 295.99 229.779 296.513 229.368L297.129 230.32C296.345 230.917 295.598 231.421 294.889 231.832C294.18 232.205 293.228 232.392 292.033 232.392C290.95 232.392 290.054 232.205 289.345 231.832C288.636 231.459 288.094 230.917 287.721 230.208C287.385 229.461 287.217 228.528 287.217 227.408C286.209 229.088 284.996 230.339 283.577 231.16C282.196 231.981 280.628 232.392 278.873 232.392ZM280.889 230.152C282.121 230.152 283.26 229.797 284.305 229.088C285.388 228.379 286.358 227.315 287.217 225.896V214.92C286.769 215.555 286.116 216.096 285.257 216.544C284.398 216.955 283.465 217.384 282.457 217.832C281.449 218.243 280.478 218.747 279.545 219.344C278.649 219.904 277.902 220.651 277.305 221.584C276.708 222.517 276.409 223.731 276.409 225.224C276.409 226.717 276.801 227.912 277.585 228.808C278.406 229.704 279.508 230.152 280.889 230.152ZM307.716 188.096V226.792C307.716 228.36 308.033 229.424 308.668 229.984C309.34 230.544 310.441 230.824 311.971 230.824V232C311.337 231.963 310.366 231.925 309.06 231.888C307.79 231.813 306.502 231.776 305.196 231.776C303.926 231.776 302.638 231.813 301.332 231.888C300.025 231.925 299.054 231.963 298.42 232V230.824C299.95 230.824 301.033 230.544 301.668 229.984C302.34 229.424 302.676 228.36 302.676 226.792V194.816C302.676 193.136 302.377 191.904 301.78 191.12C301.182 190.299 300.062 189.888 298.42 189.888V188.712C299.614 188.824 300.772 188.88 301.892 188.88C302.974 188.88 304.001 188.824 304.972 188.712C305.98 188.563 306.894 188.357 307.716 188.096ZM324.859 202.376C326.352 202.376 327.622 202.619 328.667 203.104C329.712 203.589 330.478 204.037 330.963 204.448C332.195 205.456 332.942 204.784 333.203 202.432H334.491C334.416 203.477 334.36 204.728 334.323 206.184C334.286 207.603 334.267 209.525 334.267 211.952H332.979C332.755 210.571 332.363 209.227 331.803 207.92C331.28 206.613 330.496 205.549 329.451 204.728C328.406 203.869 327.043 203.44 325.363 203.44C324.056 203.44 322.955 203.813 322.059 204.56C321.2 205.269 320.771 206.333 320.771 207.752C320.771 208.872 321.107 209.843 321.779 210.664C322.451 211.448 323.328 212.195 324.411 212.904C325.494 213.576 326.67 214.323 327.939 215.144C329.358 216.04 330.646 216.955 331.803 217.888C332.96 218.821 333.875 219.848 334.547 220.968C335.256 222.088 335.611 223.413 335.611 224.944C335.611 226.661 335.163 228.099 334.267 229.256C333.371 230.413 332.195 231.291 330.739 231.888C329.32 232.485 327.752 232.784 326.035 232.784C325.214 232.784 324.43 232.709 323.683 232.56C322.974 232.448 322.283 232.261 321.611 232C321.238 231.813 320.846 231.589 320.435 231.328C320.062 231.067 319.688 230.787 319.315 230.488C318.942 230.189 318.606 230.208 318.307 230.544C318.008 230.843 317.784 231.459 317.635 232.392H316.347C316.422 231.197 316.478 229.741 316.515 228.024C316.552 226.307 316.571 224.029 316.571 221.192H317.859C318.12 223.283 318.494 225.112 318.979 226.68C319.464 228.248 320.23 229.48 321.275 230.376C322.32 231.235 323.776 231.664 325.643 231.664C326.39 231.664 327.136 231.496 327.883 231.16C328.667 230.824 329.32 230.264 329.843 229.48C330.366 228.696 330.627 227.651 330.627 226.344C330.627 224.701 330.03 223.357 328.835 222.312C327.64 221.267 326.128 220.165 324.299 219.008C322.955 218.149 321.686 217.291 320.491 216.432C319.334 215.573 318.382 214.603 317.635 213.52C316.926 212.437 316.571 211.131 316.571 209.6C316.571 207.92 316.944 206.557 317.691 205.512C318.475 204.429 319.502 203.645 320.771 203.16C322.04 202.637 323.403 202.376 324.859 202.376Z" fill="white"/>
<path d="M51.9248 110.352V111.472C51.2155 111.621 50.4315 112.051 49.5728 112.76C48.7141 113.432 48.0235 114.627 47.5008 116.344L36.9168 150.28C36.8421 150.28 36.7675 150.28 36.6928 150.28C36.6181 150.28 36.5435 150.28 36.4688 150.28C36.3941 150.28 36.3195 150.28 36.2448 150.28C36.1701 150.28 36.0955 150.28 36.0208 150.28L24.1488 115.056C23.6635 113.6 23.1221 112.648 22.5248 112.2C21.9275 111.752 21.3675 111.509 20.8448 111.472V110.352C21.5168 110.389 22.3568 110.427 23.3648 110.464C24.3728 110.501 25.3435 110.52 26.2768 110.52C27.7328 110.52 29.0955 110.501 30.3648 110.464C31.6341 110.427 32.6608 110.389 33.4448 110.352V111.472C32.3248 111.509 31.4288 111.621 30.7568 111.808C30.1221 111.995 29.7488 112.405 29.6368 113.04C29.5621 113.675 29.7488 114.72 30.1968 116.176L38.5408 141.992L37.7568 142.664L45.1488 119.424C45.8208 117.371 46.1195 115.784 46.0448 114.664C46.0075 113.507 45.5968 112.704 44.8128 112.256C44.0288 111.771 42.8528 111.509 41.2848 111.472V110.352C42.3675 110.389 43.4688 110.427 44.5888 110.464C45.7088 110.501 46.7541 110.52 47.7248 110.52C48.6955 110.52 49.4981 110.501 50.1328 110.464C50.7675 110.427 51.3648 110.389 51.9248 110.352ZM12.7808 110.352V111.472C11.8101 111.547 11.1008 111.733 10.6528 112.032C10.2421 112.331 10.0368 112.816 10.0368 113.488C10.0741 114.123 10.2795 115.019 10.6528 116.176L19.3328 142.664L17.9328 144.064L25.7728 119.032L26.6128 120.376L17.3728 150.28C17.2981 150.28 17.2235 150.28 17.1488 150.28C17.0741 150.28 16.9995 150.28 16.9248 150.28C16.8501 150.28 16.7755 150.28 16.7008 150.28C16.6261 150.28 16.5515 150.28 16.4768 150.28L4.60481 115.056C4.11948 113.6 3.50348 112.648 2.75681 112.2C2.01015 111.752 1.33815 111.509 0.740812 111.472V110.352C1.48748 110.389 2.40215 110.427 3.48481 110.464C4.60481 110.501 5.68748 110.52 6.73281 110.52C7.96481 110.52 9.10348 110.501 10.1488 110.464C11.2315 110.427 12.1088 110.389 12.7808 110.352ZM61.8613 106.152V127.096C62.832 124.557 64.176 122.803 65.8933 121.832C67.648 120.861 69.4773 120.376 71.3813 120.376C72.8 120.376 73.976 120.563 74.9093 120.936C75.88 121.309 76.6826 121.832 77.3173 122.504C78.0266 123.251 78.5306 124.184 78.8293 125.304C79.128 126.424 79.2773 127.936 79.2773 129.84V144.792C79.2773 146.36 79.5946 147.424 80.2293 147.984C80.9013 148.544 82.0026 148.824 83.5333 148.824V150C82.8986 149.963 81.928 149.925 80.6213 149.888C79.3146 149.813 78.0453 149.776 76.8133 149.776C75.5813 149.776 74.368 149.813 73.1733 149.888C72.016 149.925 71.1386 149.963 70.5413 150V148.824C71.8853 148.824 72.8373 148.544 73.3973 147.984C73.9573 147.424 74.2373 146.36 74.2373 144.792V128.608C74.2373 127.451 74.144 126.387 73.9573 125.416C73.7706 124.445 73.3413 123.661 72.6693 123.064C72.0346 122.467 71.0453 122.168 69.7013 122.168C68.1706 122.168 66.808 122.597 65.6133 123.456C64.456 124.315 63.5413 125.509 62.8693 127.04C62.1973 128.571 61.8613 130.325 61.8613 132.304V144.792C61.8613 146.36 62.1413 147.424 62.7013 147.984C63.2613 148.544 64.2133 148.824 65.5573 148.824V150C64.96 149.963 64.064 149.925 62.8693 149.888C61.712 149.813 60.5173 149.776 59.2853 149.776C58.0533 149.776 56.784 149.813 55.4773 149.888C54.1706 149.925 53.2 149.963 52.5653 150V148.824C54.096 148.824 55.1786 148.544 55.8133 147.984C56.4853 147.424 56.8213 146.36 56.8213 144.792V112.872C56.8213 111.192 56.5226 109.96 55.9253 109.176C55.328 108.355 54.208 107.944 52.5653 107.944V106.768C53.76 106.88 54.9173 106.936 56.0373 106.936C57.12 106.936 58.1466 106.88 59.1173 106.768C60.1253 106.619 61.04 106.413 61.8613 106.152ZM99.5992 120.376C102.885 120.376 105.442 121.384 107.271 123.4C109.138 125.379 110.071 128.477 110.071 132.696H90.3032L90.2472 131.632H104.695C104.77 129.803 104.621 128.123 104.247 126.592C103.874 125.024 103.277 123.773 102.455 122.84C101.671 121.907 100.645 121.44 99.3752 121.44C97.6579 121.44 96.1272 122.299 94.7832 124.016C93.4765 125.733 92.6925 128.459 92.4312 132.192L92.5992 132.416C92.5245 132.976 92.4685 133.592 92.4312 134.264C92.3939 134.936 92.3752 135.608 92.3752 136.28C92.3752 138.819 92.7859 141.003 93.6072 142.832C94.4285 144.661 95.4925 146.061 96.7992 147.032C98.1432 147.965 99.5245 148.432 100.943 148.432C102.063 148.432 103.127 148.264 104.135 147.928C105.143 147.555 106.077 146.957 106.935 146.136C107.794 145.315 108.541 144.213 109.175 142.832L110.295 143.28C109.885 144.512 109.213 145.707 108.279 146.864C107.346 148.021 106.17 148.973 104.751 149.72C103.333 150.429 101.69 150.784 99.8232 150.784C97.1352 150.784 94.8205 150.168 92.8792 148.936C90.9752 147.704 89.5005 146.005 88.4552 143.84C87.4472 141.637 86.9432 139.117 86.9432 136.28C86.9432 132.995 87.4659 130.176 88.5112 127.824C89.5565 125.435 91.0312 123.605 92.9352 122.336C94.8392 121.029 97.0605 120.376 99.5992 120.376ZM131.735 120.376C132.743 120.376 133.621 120.581 134.367 120.992C135.151 121.403 135.749 121.944 136.159 122.616C136.607 123.251 136.831 123.979 136.831 124.8C136.831 125.733 136.533 126.555 135.935 127.264C135.375 127.973 134.61 128.328 133.639 128.328C132.855 128.328 132.165 128.085 131.567 127.6C130.97 127.077 130.671 126.349 130.671 125.416C130.671 124.707 130.858 124.109 131.231 123.624C131.642 123.101 132.09 122.691 132.575 122.392C132.314 122.019 131.922 121.832 131.399 121.832C130.242 121.832 129.178 122.187 128.207 122.896C127.237 123.568 126.415 124.445 125.743 125.528C125.071 126.611 124.549 127.768 124.175 129C123.802 130.195 123.615 131.315 123.615 132.36V144.232C123.615 146.061 124.138 147.293 125.183 147.928C126.266 148.525 127.722 148.824 129.551 148.824V150C128.693 149.963 127.479 149.925 125.911 149.888C124.343 149.813 122.682 149.776 120.927 149.776C119.658 149.776 118.389 149.813 117.119 149.888C115.887 149.925 114.954 149.963 114.319 150V148.824C115.85 148.824 116.933 148.544 117.567 147.984C118.239 147.424 118.575 146.36 118.575 144.792V127.264C118.575 125.584 118.277 124.352 117.679 123.568C117.082 122.747 115.962 122.336 114.319 122.336V121.16C115.514 121.272 116.671 121.328 117.791 121.328C118.874 121.328 119.901 121.272 120.871 121.16C121.879 121.011 122.794 120.805 123.615 120.544V127.544C124.026 126.461 124.605 125.379 125.351 124.296C126.135 123.176 127.069 122.243 128.151 121.496C129.234 120.749 130.429 120.376 131.735 120.376ZM151.771 120.376C155.056 120.376 157.614 121.384 159.443 123.4C161.31 125.379 162.243 128.477 162.243 132.696H142.475L142.419 131.632H156.867C156.942 129.803 156.792 128.123 156.419 126.592C156.046 125.024 155.448 123.773 154.627 122.84C153.843 121.907 152.816 121.44 151.547 121.44C149.83 121.44 148.299 122.299 146.955 124.016C145.648 125.733 144.864 128.459 144.603 132.192L144.771 132.416C144.696 132.976 144.64 133.592 144.603 134.264C144.566 134.936 144.547 135.608 144.547 136.28C144.547 138.819 144.958 141.003 145.779 142.832C146.6 144.661 147.664 146.061 148.971 147.032C150.315 147.965 151.696 148.432 153.115 148.432C154.235 148.432 155.299 148.264 156.307 147.928C157.315 147.555 158.248 146.957 159.107 146.136C159.966 145.315 160.712 144.213 161.347 142.832L162.467 143.28C162.056 144.512 161.384 145.707 160.451 146.864C159.518 148.021 158.342 148.973 156.923 149.72C155.504 150.429 153.862 150.784 151.995 150.784C149.307 150.784 146.992 150.168 145.051 148.936C143.147 147.704 141.672 146.005 140.627 143.84C139.619 141.637 139.115 139.117 139.115 136.28C139.115 132.995 139.638 130.176 140.683 127.824C141.728 125.435 143.203 123.605 145.107 122.336C147.011 121.029 149.232 120.376 151.771 120.376Z" fill="white"/>
<path d="M304.637 116.376C307.026 116.376 309.173 116.899 311.077 117.944C312.981 118.989 314.493 120.632 315.613 122.872C316.77 125.112 317.349 128.024 317.349 131.608C317.349 135.192 316.77 138.104 315.613 140.344C314.493 142.547 312.981 144.171 311.077 145.216C309.173 146.261 307.026 146.784 304.637 146.784C302.285 146.784 300.138 146.261 298.197 145.216C296.293 144.171 294.762 142.547 293.605 140.344C292.485 138.104 291.925 135.192 291.925 131.608C291.925 128.024 292.485 125.112 293.605 122.872C294.762 120.632 296.293 118.989 298.197 117.944C300.138 116.899 302.285 116.376 304.637 116.376ZM304.637 117.496C302.509 117.496 300.754 118.597 299.373 120.8C298.029 123.003 297.357 126.605 297.357 131.608C297.357 136.611 298.029 140.213 299.373 142.416C300.754 144.581 302.509 145.664 304.637 145.664C306.765 145.664 308.501 144.581 309.845 142.416C311.226 140.213 311.917 136.611 311.917 131.608C311.917 126.605 311.226 123.003 309.845 120.8C308.501 118.597 306.765 117.496 304.637 117.496ZM347.144 117.16V118.28C346.435 118.355 345.782 118.672 345.184 119.232C344.587 119.792 344.027 120.781 343.504 122.2L334.32 146.28H333.368L323.064 121.472C322.355 120.016 321.646 119.139 320.936 118.84C320.264 118.504 319.704 118.336 319.256 118.336V117.16C320.078 117.272 320.936 117.365 321.832 117.44C322.728 117.477 323.699 117.496 324.744 117.496C325.902 117.496 327.115 117.459 328.384 117.384C329.691 117.309 330.904 117.235 332.024 117.16V118.336C331.091 118.336 330.251 118.411 329.504 118.56C328.795 118.672 328.347 119.064 328.16 119.736C327.974 120.371 328.198 121.472 328.832 123.04L335.72 140.12L335.384 140.232L341.768 123.544C342.254 122.312 342.44 121.341 342.328 120.632C342.254 119.885 341.88 119.325 341.208 118.952C340.536 118.579 339.528 118.355 338.184 118.28V117.16C338.856 117.197 339.435 117.235 339.92 117.272C340.406 117.272 340.872 117.291 341.32 117.328C341.806 117.328 342.328 117.328 342.888 117.328C343.747 117.328 344.512 117.309 345.184 117.272C345.894 117.235 346.547 117.197 347.144 117.16ZM334.32 146.28L332.416 151.152C332.043 152.085 331.651 152.869 331.24 153.504C330.867 154.139 330.456 154.661 330.008 155.072C329.411 155.632 328.702 156.005 327.88 156.192C327.059 156.416 326.312 156.528 325.64 156.528C324.931 156.528 324.278 156.397 323.68 156.136C323.12 155.875 322.672 155.483 322.336 154.96C322 154.475 321.832 153.877 321.832 153.168C321.832 152.272 322.094 151.544 322.616 150.984C323.139 150.461 323.867 150.2 324.8 150.2C325.584 150.2 326.256 150.424 326.816 150.872C327.376 151.32 327.656 151.973 327.656 152.832C327.656 153.467 327.507 153.989 327.208 154.4C326.91 154.811 326.555 155.128 326.144 155.352C326.219 155.389 326.275 155.408 326.312 155.408C326.387 155.408 326.443 155.408 326.48 155.408C327.488 155.408 328.384 155.053 329.168 154.344C329.952 153.672 330.643 152.571 331.24 151.04L333.256 145.832L334.32 146.28ZM356.947 146.392C355.416 146.392 354.091 146.112 352.971 145.552C351.851 144.955 350.992 144.133 350.395 143.088C349.835 142.043 349.555 140.829 349.555 139.448C349.555 137.805 349.928 136.461 350.675 135.416C351.459 134.371 352.448 133.531 353.643 132.896C354.838 132.261 356.088 131.739 357.395 131.328C358.739 130.88 360.008 130.469 361.203 130.096C362.398 129.685 363.368 129.219 364.115 128.696C364.899 128.173 365.291 127.483 365.291 126.624V123.152C365.291 121.584 365.048 120.389 364.563 119.568C364.115 118.747 363.499 118.205 362.715 117.944C361.931 117.645 361.054 117.496 360.083 117.496C359.15 117.496 358.142 117.627 357.059 117.888C356.014 118.149 355.174 118.691 354.539 119.512C355.248 119.661 355.864 120.035 356.387 120.632C356.91 121.229 357.171 121.995 357.171 122.928C357.171 123.861 356.872 124.608 356.275 125.168C355.678 125.691 354.912 125.952 353.979 125.952C352.896 125.952 352.094 125.616 351.571 124.944C351.086 124.235 350.843 123.451 350.843 122.592C350.843 121.621 351.086 120.837 351.571 120.24C352.056 119.643 352.672 119.083 353.419 118.56C354.278 117.963 355.379 117.459 356.723 117.048C358.104 116.6 359.654 116.376 361.371 116.376C362.902 116.376 364.208 116.563 365.291 116.936C366.374 117.272 367.27 117.776 367.979 118.448C368.95 119.344 369.584 120.445 369.883 121.752C370.182 123.021 370.331 124.552 370.331 126.344V141.912C370.331 142.845 370.462 143.517 370.723 143.928C371.022 144.339 371.47 144.544 372.067 144.544C372.478 144.544 372.87 144.451 373.243 144.264C373.616 144.077 374.064 143.779 374.587 143.368L375.203 144.32C374.419 144.917 373.672 145.421 372.963 145.832C372.254 146.205 371.302 146.392 370.107 146.392C369.024 146.392 368.128 146.205 367.419 145.832C366.71 145.459 366.168 144.917 365.795 144.208C365.459 143.461 365.291 142.528 365.291 141.408C364.283 143.088 363.07 144.339 361.651 145.16C360.27 145.981 358.702 146.392 356.947 146.392ZM358.963 144.152C360.195 144.152 361.334 143.797 362.379 143.088C363.462 142.379 364.432 141.315 365.291 139.896V128.92C364.843 129.555 364.19 130.096 363.331 130.544C362.472 130.955 361.539 131.384 360.531 131.832C359.523 132.243 358.552 132.747 357.619 133.344C356.723 133.904 355.976 134.651 355.379 135.584C354.782 136.517 354.483 137.731 354.483 139.224C354.483 140.717 354.875 141.912 355.659 142.808C356.48 143.704 357.582 144.152 358.963 144.152ZM385.79 102.096V140.792C385.79 142.36 386.107 143.424 386.742 143.984C387.414 144.544 388.515 144.824 390.046 144.824V146C389.411 145.963 388.44 145.925 387.134 145.888C385.864 145.813 384.576 145.776 383.27 145.776C382 145.776 380.712 145.813 379.406 145.888C378.099 145.925 377.128 145.963 376.494 146V144.824C378.024 144.824 379.107 144.544 379.742 143.984C380.414 143.424 380.75 142.36 380.75 140.792V108.816C380.75 107.136 380.451 105.904 379.854 105.12C379.256 104.299 378.136 103.888 376.494 103.888V102.712C377.688 102.824 378.846 102.88 379.966 102.88C381.048 102.88 382.075 102.824 383.046 102.712C384.054 102.563 384.968 102.357 385.79 102.096ZM399.293 103.16C400.264 103.16 401.104 103.515 401.813 104.224C402.522 104.933 402.877 105.773 402.877 106.744C402.877 107.715 402.522 108.555 401.813 109.264C401.104 109.973 400.264 110.328 399.293 110.328C398.322 110.328 397.482 109.973 396.773 109.264C396.064 108.555 395.709 107.715 395.709 106.744C395.709 105.773 396.064 104.933 396.773 104.224C397.482 103.515 398.322 103.16 399.293 103.16ZM402.205 116.544V140.792C402.205 142.36 402.522 143.424 403.157 143.984C403.829 144.544 404.93 144.824 406.461 144.824V146C405.826 145.963 404.856 145.925 403.549 145.888C402.28 145.813 400.992 145.776 399.685 145.776C398.416 145.776 397.128 145.813 395.821 145.888C394.514 145.925 393.544 145.963 392.909 146V144.824C394.44 144.824 395.522 144.544 396.157 143.984C396.829 143.424 397.165 142.36 397.165 140.792V123.264C397.165 121.584 396.866 120.352 396.269 119.568C395.672 118.747 394.552 118.336 392.909 118.336V117.16C394.104 117.272 395.261 117.328 396.381 117.328C397.464 117.328 398.49 117.272 399.461 117.16C400.469 117.011 401.384 116.805 402.205 116.544ZM418.331 107.864V117.216H426.619V118.336H418.331V140.008C418.331 141.763 418.649 142.995 419.283 143.704C419.918 144.413 420.795 144.768 421.915 144.768C423.035 144.768 424.006 144.32 424.827 143.424C425.649 142.491 426.358 140.941 426.955 138.776L428.075 139.056C427.702 141.221 426.955 143.051 425.835 144.544C424.753 146.037 423.073 146.784 420.795 146.784C419.526 146.784 418.481 146.616 417.659 146.28C416.838 145.981 416.11 145.533 415.475 144.936C414.654 144.077 414.075 143.051 413.739 141.856C413.441 140.661 413.291 139.075 413.291 137.096V118.336H407.915V117.216H413.291V108.648C414.225 108.611 415.121 108.536 415.979 108.424C416.838 108.312 417.622 108.125 418.331 107.864ZM455.152 117.16V118.28C454.443 118.355 453.79 118.672 453.192 119.232C452.595 119.792 452.035 120.781 451.512 122.2L442.328 146.28H441.376L431.072 121.472C430.363 120.016 429.654 119.139 428.944 118.84C428.272 118.504 427.712 118.336 427.264 118.336V117.16C428.086 117.272 428.944 117.365 429.84 117.44C430.736 117.477 431.707 117.496 432.752 117.496C433.91 117.496 435.123 117.459 436.392 117.384C437.699 117.309 438.912 117.235 440.032 117.16V118.336C439.099 118.336 438.259 118.411 437.512 118.56C436.803 118.672 436.355 119.064 436.168 119.736C435.982 120.371 436.206 121.472 436.84 123.04L443.728 140.12L443.392 140.232L449.776 123.544C450.262 122.312 450.448 121.341 450.336 120.632C450.262 119.885 449.888 119.325 449.216 118.952C448.544 118.579 447.536 118.355 446.192 118.28V117.16C446.864 117.197 447.443 117.235 447.928 117.272C448.414 117.272 448.88 117.291 449.328 117.328C449.814 117.328 450.336 117.328 450.896 117.328C451.755 117.328 452.52 117.309 453.192 117.272C453.902 117.235 454.555 117.197 455.152 117.16ZM442.328 146.28L440.424 151.152C440.051 152.085 439.659 152.869 439.248 153.504C438.875 154.139 438.464 154.661 438.016 155.072C437.419 155.632 436.71 156.005 435.888 156.192C435.067 156.416 434.32 156.528 433.648 156.528C432.939 156.528 432.286 156.397 431.688 156.136C431.128 155.875 430.68 155.483 430.344 154.96C430.008 154.475 429.84 153.877 429.84 153.168C429.84 152.272 430.102 151.544 430.624 150.984C431.147 150.461 431.875 150.2 432.808 150.2C433.592 150.2 434.264 150.424 434.824 150.872C435.384 151.32 435.664 151.973 435.664 152.832C435.664 153.467 435.515 153.989 435.216 154.4C434.918 154.811 434.563 155.128 434.152 155.352C434.227 155.389 434.283 155.408 434.32 155.408C434.395 155.408 434.451 155.408 434.488 155.408C435.496 155.408 436.392 155.053 437.176 154.344C437.96 153.672 438.651 152.571 439.248 151.04L441.264 145.832L442.328 146.28Z" fill="white"/>
<path d="M171.43 177.4C169.03 177.4 166.496 177 163.83 176.2C161.163 175.4 158.896 173.933 157.03 171.8C155.03 169.8 154.03 167.067 154.03 163.6C154.03 161.733 154.696 159.733 156.03 157.6C157.23 155.333 158.83 154.133 160.83 154C160.296 154.533 159.896 155.4 159.63 156.6C159.496 157.8 159.43 158.867 159.43 159.8C159.563 162.067 160.563 164 162.43 165.6C164.296 167.2 167.23 168 171.23 168C176.296 168 181.563 166.533 187.03 163.6C192.63 160.533 198.23 156.533 203.83 151.6C209.563 146.533 215.096 140.933 220.43 134.8C225.896 128.667 230.896 122.467 235.43 116.2C239.696 110.2 244.696 103.533 250.43 96.2C256.163 88.8667 262.363 81.7333 269.03 74.8C275.696 67.8667 282.496 62.1333 289.43 57.6C286.23 55.7333 282.296 54.2667 277.63 53.2C272.963 52 267.43 51.4 261.03 51.4C251.696 51.4 242.963 52.7333 234.83 55.4C226.696 58.0667 219.296 61.6 212.63 66C205.963 70.4 200.163 75.2667 195.23 80.6C190.43 85.8 186.696 91.1333 184.03 96.6C181.496 101.933 180.23 106.867 180.23 111.4C180.23 115.8 181.563 119.533 184.23 122.6C187.03 125.533 191.496 127.267 197.63 127.8C198.43 127.8 198.83 128 198.83 128.4C198.83 128.933 198.23 129.133 197.03 129C189.03 128.333 183.096 126.067 179.23 122.2C175.496 118.2 173.63 113.333 173.63 107.6C173.63 101.6 175.563 95.2667 179.43 88.6C183.43 81.8 189.163 75.4 196.63 69.4C204.096 63.2667 213.163 58.3333 223.83 54.6C234.63 50.7333 246.763 48.8 260.23 48.8C267.563 48.8 273.963 49.4 279.43 50.6C284.896 51.8 289.563 53.3333 293.43 55.2C300.763 50.8 307.896 48.6 314.83 48.6C318.296 48.6 321.63 49.5333 324.83 51.4C328.163 53.1333 329.83 56.4667 329.83 61.4C329.03 59.2667 327.03 57.2667 323.83 55.4C320.763 53.4 317.163 52.4 313.03 52.4C310.23 52.4 307.43 52.8 304.63 53.6C301.83 54.4 299.096 55.5333 296.43 57C301.096 59.9333 304.496 63.3333 306.63 67.2C308.763 71.0667 309.83 75.0667 309.83 79.2C309.83 84.6667 307.963 90 304.23 95.2C300.496 100.4 295.563 104.667 289.43 108C283.296 111.2 276.563 112.8 269.23 112.8C269.363 113.333 269.43 113.867 269.43 114.4C269.43 114.933 269.43 115.533 269.43 116.2C269.43 120.067 268.83 125 267.63 131C267.363 132.733 266.896 135.467 266.23 139.2C265.696 142.933 265.43 146.733 265.43 150.6C265.43 155.133 266.03 159.133 267.23 162.6C268.563 166.067 271.03 167.8 274.63 167.8C277.963 167.8 281.363 166.6 284.83 164.2C288.296 161.667 291.496 158.8 294.43 155.6C297.496 152.4 299.896 149.8 301.63 147.8C302.163 147.8 302.43 148.2 302.43 149C302.43 150.2 302.163 151.133 301.63 151.8C295.496 159 289.83 164.333 284.63 167.8C279.43 171.133 273.696 172.8 267.43 172.8C264.363 172.8 261.563 171.8 259.03 169.8C256.496 167.667 255.23 163.6 255.23 157.6C255.23 154.267 255.83 150.6 257.03 146.6C258.23 142.467 259.563 138.333 261.03 134.2C262.63 130.067 264.03 126.333 265.23 123C266.43 119.533 267.03 116.867 267.03 115C267.03 113.933 266.896 113.267 266.63 113C264.896 112.733 263.563 112.2 262.63 111.4C261.83 110.467 261.43 109.6 261.43 108.8C261.43 107.733 262.096 107.2 263.43 107.2C266.363 107.2 268.23 108.667 269.03 111.6C273.03 111.2 276.963 109.867 280.83 107.6C284.696 105.2 288.096 102.333 291.03 99C294.096 95.5333 296.496 91.8667 298.23 88C300.096 84.1333 301.03 80.4 301.03 76.8C301.03 73.6 300.296 70.5333 298.83 67.6C297.363 64.5333 295.096 61.8 292.03 59.4C286.83 62.7333 281.696 67 276.63 72.2C271.696 77.2667 266.896 82.7333 262.23 88.6C257.696 94.3333 253.43 100 249.43 105.6C245.43 111.2 241.83 116.267 238.63 120.8C233.963 127.2 229.163 133.733 224.23 140.4C219.296 147.067 214.096 153.2 208.63 158.8C203.163 164.4 197.363 168.867 191.23 172.2C185.096 175.667 178.496 177.4 171.43 177.4Z" fill="white"/>
</svg>
