<svg width="64" height="64" viewBox="0 0 64 64" fill="none" xmlns="http://www.w3.org/2000/svg">
<path d="M48 4H16C9.37258 4 4 9.37258 4 16V48C4 54.6274 9.37258 60 16 60H48C54.6274 60 60 54.6274 60 48V16C60 9.37258 54.6274 4 48 4Z" fill="#AF9146"/>
<path d="M48 4H16C9.37258 4 4 9.37258 4 16V48C4 54.6274 9.37258 60 16 60H48C54.6274 60 60 54.6274 60 48V16C60 9.37258 54.6274 4 48 4Z" fill="#AF9146"/>
<path d="M48 4H16C9.37258 4 4 9.37258 4 16V48C4 54.6274 9.37258 60 16 60H48C54.6274 60 60 54.6274 60 48V16C60 9.37258 54.6274 4 48 4Z" fill="#AF9146"/>
<path d="M46 21C46 22.6568 44.6568 24 43 24C41.3432 24 40 22.6568 40 21C40 19.3431 41.3432 18 43 18C44.6568 18 46 19.3431 46 21Z" fill="#FDF4EC"/>
<path fill-rule="evenodd" clip-rule="evenodd" d="M32 42C37.5228 42 42 37.5228 42 32C42 26.4772 37.5228 22 32 22C26.4772 22 22 26.4772 22 32C22 37.5228 26.4772 42 32 42ZM32 38C35.3138 38 38 35.3138 38 32C38 28.6862 35.3138 26 32 26C28.6862 26 26 28.6862 26 32C26 35.3138 28.6862 38 32 38Z" fill="#FDF4EC"/>
<path fill-rule="evenodd" clip-rule="evenodd" d="M12 31.2C12 24.4794 12 21.119 13.3079 18.5521C14.4584 16.2942 16.2942 14.4584 18.5521 13.3079C21.119 12 24.4794 12 31.2 12H32.8C39.5206 12 42.881 12 45.4478 13.3079C47.7058 14.4584 49.5416 16.2942 50.692 18.5521C52 21.119 52 24.4794 52 31.2V32.8C52 39.5206 52 42.881 50.692 45.4478C49.5416 47.7058 47.7058 49.5416 45.4478 50.692C42.881 52 39.5206 52 32.8 52H31.2C24.4794 52 21.119 52 18.5521 50.692C16.2942 49.5416 14.4584 47.7058 13.3079 45.4478C12 42.881 12 39.5206 12 32.8V31.2ZM31.2 16H32.8C36.2264 16 38.5554 16.0031 40.3558 16.1502C42.1096 16.2935 43.0064 16.5532 43.632 16.8719C45.1372 17.6389 46.361 18.8628 47.128 20.368C47.4468 20.9936 47.7066 21.8904 47.8498 23.6442C47.9968 25.4446 48 27.7736 48 31.2V32.8C48 36.2264 47.9968 38.5554 47.8498 40.3558C47.7066 42.1096 47.4468 43.0064 47.128 43.632C46.361 45.1372 45.1372 46.361 43.632 47.128C43.0064 47.4468 42.1096 47.7066 40.3558 47.8498C38.5554 47.9968 36.2264 48 32.8 48H31.2C27.7736 48 25.4446 47.9968 23.6442 47.8498C21.8904 47.7066 20.9936 47.4468 20.368 47.128C18.8628 46.361 17.6389 45.1372 16.8719 43.632C16.5532 43.0064 16.2935 42.1096 16.1502 40.3558C16.0031 38.5554 16 36.2264 16 32.8V31.2C16 27.7736 16.0031 25.4446 16.1502 23.6442C16.2935 21.8904 16.5532 20.9936 16.8719 20.368C17.6389 18.8628 18.8628 17.6389 20.368 16.8719C20.9936 16.5532 21.8904 16.2935 23.6442 16.1502C25.4446 16.0031 27.7736 16 31.2 16Z" fill="#FDF4EC"/>
</svg>
