<svg width="64" height="64" viewBox="0 0 64 64" fill="none" xmlns="http://www.w3.org/2000/svg">
<path d="M60 32C60 16.536 47.464 4 32 4C16.536 4 4 16.536 4 32C4 47.464 16.536 60 32 60C47.464 60 60 47.464 60 32Z" fill="#AF9146"/>
<path d="M25.2372 19.3843C25.2372 21.2534 23.617 22.7686 21.6186 22.7686C19.6201 22.7686 18 21.2534 18 19.3843C18 17.5152 19.6201 16 21.6186 16C23.617 16 25.2372 17.5152 25.2372 19.3843Z" fill="#FDF4EC"/>
<path d="M18.4951 25.2563H24.6807V44.0001H18.4951V25.2563Z" fill="#FDF4EC"/>
<path d="M34.6387 25.2564H28.4531V44.0002H34.6387C34.6387 44.0002 34.6387 38.0994 34.6387 34.41C34.6387 32.1954 35.3949 29.9712 38.4119 29.9712C41.8215 29.9712 41.8011 32.8692 41.7851 35.1144C41.7643 38.049 41.8139 41.044 41.8139 44.0002H47.9995V34.1076C47.9471 27.791 46.3011 24.8804 40.8861 24.8804C37.6703 24.8804 35.6769 26.3404 34.6387 27.6612V25.2564Z" fill="#FDF4EC"/>
</svg>
