<svg width="25" height="25" viewBox="0 0 25 25" fill="none" xmlns="http://www.w3.org/2000/svg">
<path d="M22.5004 17.1381V20.1381C22.5016 20.4166 22.4445 20.6923 22.3329 20.9475C22.2214 21.2026 22.0577 21.4317 21.8525 21.62C21.6473 21.8083 21.405 21.9516 21.1412 22.0408C20.8773 22.13 20.5978 22.1632 20.3204 22.1381C17.2433 21.8038 14.2874 20.7523 11.6904 19.0681C9.27425 17.5328 7.22576 15.4843 5.69042 13.0681C4.0004 10.4593 2.94866 7.48911 2.62042 4.39811C2.59543 4.12158 2.6283 3.84287 2.71692 3.57974C2.80555 3.3166 2.94799 3.0748 3.13519 2.86974C3.32238 2.66467 3.55023 2.50082 3.80421 2.38864C4.0582 2.27645 4.33276 2.21838 4.61042 2.21811H7.61042C8.09573 2.21334 8.56621 2.38519 8.93418 2.70165C9.30215 3.0181 9.5425 3.45756 9.61042 3.93811C9.73704 4.89818 9.97187 5.84084 10.3104 6.74811C10.445 7.10604 10.4741 7.49503 10.3943 7.86899C10.3146 8.24296 10.1293 8.58623 9.86042 8.85811L8.59042 10.1281C10.014 12.6317 12.0869 14.7046 14.5904 16.1281L15.8604 14.8581C16.1323 14.5893 16.4756 14.404 16.8495 14.3242C17.2235 14.2445 17.6125 14.2736 17.9704 14.4081C18.8777 14.7467 19.8204 14.9815 20.7804 15.1081C21.2662 15.1766 21.7098 15.4213 22.027 15.7956C22.3441 16.1699 22.5126 16.6477 22.5004 17.1381Z" stroke="#FDF4EC" stroke-width="2" stroke-linecap="round" stroke-linejoin="round"/>
</svg>
