<svg width="24" height="25" viewBox="0 0 24 25" fill="none" xmlns="http://www.w3.org/2000/svg">
<path d="M22.0004 17.2736V20.2736C22.0016 20.5521 21.9445 20.8278 21.8329 21.083C21.7214 21.3381 21.5577 21.5672 21.3525 21.7555C21.1473 21.9438 20.905 22.0871 20.6412 22.1763C20.3773 22.2655 20.0978 22.2987 19.8204 22.2736C16.7433 21.9393 13.7874 20.8878 11.1904 19.2036C8.77425 17.6683 6.72576 15.6198 5.19042 13.2036C3.5004 10.5948 2.44866 7.62461 2.12042 4.53361C2.09543 4.25708 2.1283 3.97837 2.21692 3.71524C2.30555 3.4521 2.44799 3.2103 2.63519 3.00523C2.82238 2.80017 3.05023 2.63632 3.30421 2.52413C3.5582 2.41195 3.83276 2.35387 4.11042 2.35361H7.11042C7.59573 2.34884 8.06621 2.52069 8.43418 2.83715C8.80215 3.1536 9.0425 3.59306 9.11042 4.07361C9.23704 5.03368 9.47187 5.97634 9.81042 6.88361C9.94497 7.24154 9.97408 7.63053 9.89433 8.00449C9.81457 8.37846 9.62928 8.72172 9.36042 8.99361L8.09042 10.2636C9.51398 12.7672 11.5869 14.8401 14.0904 16.2636L15.3604 14.9936C15.6323 14.7247 15.9756 14.5395 16.3495 14.4597C16.7235 14.38 17.1125 14.4091 17.4704 14.5436C18.3777 14.8822 19.3204 15.117 20.2804 15.2436C20.7662 15.3121 21.2098 15.5568 21.527 15.9311C21.8441 16.3054 22.0126 16.7832 22.0004 17.2736Z" stroke="#342D28" stroke-width="2" stroke-linecap="round" stroke-linejoin="round"/>
</svg>
