<svg width="190" height="144" viewBox="0 0 190 144" fill="none" xmlns="http://www.w3.org/2000/svg">
<path d="M18.16 108.48C18 108.48 17.92 108.44 17.92 108.36C17.92 108.04 18.24 107.68 18.88 107.28C22.72 104.4 26.52 100.76 30.28 96.36C34.12 91.88 37.68 87.04 40.96 81.84C44.24 76.56 47.04 71.16 49.36 65.64C51.76 60.12 53.44 54.84 54.4 49.8C54.56 48.76 54.68 47.76 54.76 46.8C54.92 45.84 55 44.96 55 44.16C55 40.96 54.32 38.4 52.96 36.48C51.6 34.56 49.44 33.6 46.48 33.6C42.96 33.68 39.36 34.68 35.68 36.6C32 38.44 28.48 40.92 25.12 44.04C21.76 47.16 18.64 50.68 15.76 54.6C12.96 58.44 10.6 62.44 8.68 66.6C6.76 70.76 5.48 74.76 4.84 78.6C4.68 79.56 4.56 80.44 4.48 81.24C4.4 82.04 4.36 82.8 4.36 83.52C4.36 86.16 4.88 88 5.92 89.04C7.04 90.08 8.52 90.6 10.36 90.6C12.84 90.6 15.68 89.8 18.88 88.2C22.08 86.6 25.28 84.36 28.48 81.48C31.68 78.6 34.64 75.28 37.36 71.52C40.08 67.68 42.28 63.56 43.96 59.16C45.64 54.68 46.52 50.08 46.6 45.36C46.6 44.72 46.72 44.4 46.96 44.4C47.2 44.4 47.48 44.68 47.8 45.24C48.12 45.8 48.28 46.4 48.28 47.04C48.28 51.04 47.48 55.2 45.88 59.52C44.36 63.76 42.28 67.88 39.64 71.88C37 75.88 34 79.48 30.64 82.68C27.36 85.8 23.96 88.32 20.44 90.24C17 92.08 13.64 93 10.36 93C7.56 93 5.24 92.08 3.4 90.24C1.56 88.32 0.64 85.44 0.64 81.6C0.64 80.24 0.76 78.8 1 77.28C1.64 73.44 3 69.44 5.08 65.28C7.24 61.04 9.88 56.96 13 53.04C16.2 49.12 19.68 45.6 23.44 42.48C27.2 39.28 31.08 36.76 35.08 34.92C39.08 33 42.96 32.04 46.72 32.04C51.28 32.04 54.72 33.32 57.04 35.88C59.36 38.44 60.52 41.8 60.52 45.96C60.52 46.76 60.48 47.6 60.4 48.48C60.32 49.28 60.2 50.12 60.04 51C58.2 60.52 54.56 69.64 49.12 78.36C43.76 87 37.36 94.6 29.92 101.16C32.32 99.56 35.24 97.12 38.68 93.84C42.2 90.48 45.96 86.68 49.96 82.44C53.96 78.2 57.88 73.84 61.72 69.36C65.32 65.2 69.2 60.92 73.36 56.52C77.6 52.04 81.92 47.88 86.32 44.04C90.8 40.2 95.16 37.12 99.4 34.8C103.64 32.4 107.56 31.2 111.16 31.2C112.76 31.2 114.32 31.44 115.84 31.92C117.44 32.32 118.76 33.12 119.8 34.32C120.84 35.44 121.36 37.04 121.36 39.12C121.36 40.16 121.04 41.28 120.4 42.48C119.76 43.6 118.88 44.28 117.76 44.52C118.56 43.4 118.96 42 118.96 40.32C118.96 36.8 116.28 35.04 110.92 35.04C107.4 35.04 103.56 36.16 99.4 38.4C95.32 40.64 91.12 43.6 86.8 47.28C82.48 50.96 78.28 54.92 74.2 59.16C70.2 63.32 66.48 67.4 63.04 71.4C59.44 75.56 55.8 79.6 52.12 83.52C48.44 87.44 44.92 90.96 41.56 94.08C38.2 97.2 35.16 99.68 32.44 101.52C29.8 103.28 27.72 104.16 26.2 104.16C24.52 105.44 22.84 106.48 21.16 107.28C19.56 108.08 18.56 108.48 18.16 108.48Z" fill="#AF9146"/>
<path d="M80.88 70.84C83.2267 70.84 85.0533 71.56 86.36 73C87.6933 74.4133 88.36 76.6267 88.36 79.64H74.24L74.2 78.88H84.52C84.5733 77.5733 84.4667 76.3733 84.2 75.28C83.9333 74.16 83.5067 73.2667 82.92 72.6C82.36 71.9333 81.6267 71.6 80.72 71.6C79.4933 71.6 78.4 72.2133 77.44 73.44C76.5067 74.6667 75.9467 76.6133 75.76 79.28L75.88 79.44C75.8267 79.84 75.7867 80.28 75.76 80.76C75.7333 81.24 75.72 81.72 75.72 82.2C75.72 84.0133 76.0133 85.5733 76.6 86.88C77.1867 88.1867 77.9467 89.1867 78.88 89.88C79.84 90.5467 80.8267 90.88 81.84 90.88C82.64 90.88 83.4 90.76 84.12 90.52C84.84 90.2533 85.5067 89.8267 86.12 89.24C86.7333 88.6533 87.2667 87.8667 87.72 86.88L88.52 87.2C88.2267 88.08 87.7467 88.9333 87.08 89.76C86.4133 90.5867 85.5733 91.2667 84.56 91.8C83.5467 92.3067 82.3733 92.56 81.04 92.56C79.12 92.56 77.4667 92.12 76.08 91.24C74.72 90.36 73.6667 89.1467 72.92 87.6C72.2 86.0267 71.84 84.2267 71.84 82.2C71.84 79.8533 72.2133 77.84 72.96 76.16C73.7067 74.4533 74.76 73.1467 76.12 72.24C77.48 71.3067 79.0667 70.84 80.88 70.84ZM104.834 70.84C105.848 70.84 106.688 70.9733 107.354 71.24C108.048 71.5067 108.621 71.88 109.074 72.36C109.581 72.8933 109.941 73.56 110.154 74.36C110.368 75.16 110.474 76.24 110.474 77.6V88.28C110.474 89.4 110.701 90.16 111.154 90.56C111.634 90.96 112.421 91.16 113.514 91.16V92C113.061 91.9733 112.368 91.9467 111.434 91.92C110.501 91.8667 109.594 91.84 108.714 91.84C107.834 91.84 106.968 91.8667 106.114 91.92C105.288 91.9467 104.661 91.9733 104.234 92V91.16C105.194 91.16 105.874 90.96 106.274 90.56C106.674 90.16 106.874 89.4 106.874 88.28V76.72C106.874 75.8933 106.808 75.1333 106.674 74.44C106.541 73.7467 106.234 73.1867 105.754 72.76C105.301 72.3333 104.594 72.12 103.634 72.12C102.514 72.12 101.528 72.44 100.674 73.08C99.8477 73.72 99.1944 74.6 98.7144 75.72C98.261 76.8133 98.0344 78.04 98.0344 79.4V88.28C98.0344 89.4 98.2344 90.16 98.6344 90.56C99.0344 90.96 99.7144 91.16 100.674 91.16V92C100.248 91.9733 99.6077 91.9467 98.7544 91.92C97.9277 91.8667 97.0744 91.84 96.1944 91.84C95.3144 91.84 94.4077 91.8667 93.4744 91.92C92.541 91.9467 91.8477 91.9733 91.3944 92V91.16C92.4877 91.16 93.261 90.96 93.7144 90.56C94.1944 90.16 94.4344 89.4 94.4344 88.28V75.76C94.4344 74.56 94.221 73.68 93.7944 73.12C93.3677 72.5333 92.5677 72.24 91.3944 72.24V71.4C92.2477 71.48 93.0744 71.52 93.8744 71.52C94.6477 71.52 95.381 71.48 96.0744 71.4C96.7944 71.2933 97.4477 71.1467 98.0344 70.96V75.68C98.7277 73.8667 99.6877 72.6133 100.914 71.92C102.168 71.2 103.474 70.84 104.834 70.84ZM133.422 70.96V87.68C133.422 88.88 133.635 89.7733 134.062 90.36C134.515 90.92 135.315 91.2 136.462 91.2V92.04C135.635 91.96 134.808 91.92 133.982 91.92C133.208 91.92 132.462 91.96 131.742 92.04C131.048 92.12 130.408 92.2667 129.822 92.48V87.76C129.155 89.4933 128.208 90.7333 126.982 91.48C125.782 92.2 124.542 92.56 123.262 92.56C122.328 92.56 121.515 92.4267 120.822 92.16C120.128 91.8933 119.555 91.52 119.102 91.04C118.595 90.5067 118.248 89.8133 118.062 88.96C117.875 88.1067 117.782 87.0533 117.782 85.8V75.76C117.782 74.56 117.568 73.68 117.142 73.12C116.715 72.5333 115.915 72.24 114.742 72.24V71.4C115.595 71.48 116.422 71.52 117.222 71.52C117.995 71.52 118.728 71.48 119.422 71.4C120.142 71.2933 120.795 71.1467 121.382 70.96V86.68C121.382 87.5067 121.435 88.2667 121.542 88.96C121.648 89.6533 121.915 90.2133 122.342 90.64C122.768 91.0667 123.462 91.28 124.422 91.28C125.462 91.28 126.382 90.96 127.182 90.32C128.008 89.68 128.648 88.8133 129.102 87.72C129.582 86.6267 129.822 85.4 129.822 84.04V75.76C129.822 74.56 129.608 73.68 129.182 73.12C128.755 72.5333 127.955 72.24 126.782 72.24V71.4C127.635 71.48 128.462 71.52 129.262 71.52C130.035 71.52 130.768 71.48 131.462 71.4C132.182 71.2933 132.835 71.1467 133.422 70.96ZM148.224 70.84C150.57 70.84 152.397 71.56 153.704 73C155.037 74.4133 155.704 76.6267 155.704 79.64H141.584L141.544 78.88H151.864C151.917 77.5733 151.81 76.3733 151.544 75.28C151.277 74.16 150.85 73.2667 150.264 72.6C149.704 71.9333 148.97 71.6 148.064 71.6C146.837 71.6 145.744 72.2133 144.784 73.44C143.85 74.6667 143.29 76.6133 143.104 79.28L143.224 79.44C143.17 79.84 143.13 80.28 143.104 80.76C143.077 81.24 143.064 81.72 143.064 82.2C143.064 84.0133 143.357 85.5733 143.944 86.88C144.53 88.1867 145.29 89.1867 146.224 89.88C147.184 90.5467 148.17 90.88 149.184 90.88C149.984 90.88 150.744 90.76 151.464 90.52C152.184 90.2533 152.85 89.8267 153.464 89.24C154.077 88.6533 154.61 87.8667 155.064 86.88L155.864 87.2C155.57 88.08 155.09 88.9333 154.424 89.76C153.757 90.5867 152.917 91.2667 151.904 91.8C150.89 92.3067 149.717 92.56 148.384 92.56C146.464 92.56 144.81 92.12 143.424 91.24C142.064 90.36 141.01 89.1467 140.264 87.6C139.544 86.0267 139.184 84.2267 139.184 82.2C139.184 79.8533 139.557 77.84 140.304 76.16C141.05 74.4533 142.104 73.1467 143.464 72.24C144.824 71.3067 146.41 70.84 148.224 70.84ZM165.898 70.84C166.965 70.84 167.871 71.0133 168.618 71.36C169.365 71.7067 169.911 72.0267 170.258 72.32C171.138 73.04 171.671 72.56 171.858 70.88H172.778C172.725 71.6267 172.685 72.52 172.658 73.56C172.631 74.5733 172.618 75.9467 172.618 77.68H171.698C171.538 76.6933 171.258 75.7333 170.858 74.8C170.485 73.8667 169.925 73.1067 169.178 72.52C168.431 71.9067 167.458 71.6 166.258 71.6C165.325 71.6 164.538 71.8667 163.898 72.4C163.285 72.9067 162.978 73.6667 162.978 74.68C162.978 75.48 163.218 76.1733 163.698 76.76C164.178 77.32 164.805 77.8533 165.578 78.36C166.351 78.84 167.191 79.3733 168.098 79.96C169.111 80.6 170.031 81.2533 170.858 81.92C171.685 82.5867 172.338 83.32 172.818 84.12C173.325 84.92 173.578 85.8667 173.578 86.96C173.578 88.1867 173.258 89.2133 172.618 90.04C171.978 90.8667 171.138 91.4933 170.098 91.92C169.085 92.3467 167.965 92.56 166.738 92.56C166.151 92.56 165.591 92.5067 165.058 92.4C164.551 92.32 164.058 92.1867 163.578 92C163.311 91.8667 163.031 91.7067 162.738 91.52C162.471 91.3333 162.205 91.1333 161.938 90.92C161.671 90.7067 161.431 90.72 161.218 90.96C161.005 91.1733 160.845 91.6133 160.738 92.28H159.818C159.871 91.4267 159.911 90.3867 159.938 89.16C159.965 87.9333 159.978 86.3067 159.978 84.28H160.898C161.085 85.7733 161.351 87.08 161.698 88.2C162.045 89.32 162.591 90.2 163.338 90.84C164.085 91.4533 165.125 91.76 166.458 91.76C166.991 91.76 167.525 91.64 168.058 91.4C168.618 91.16 169.085 90.76 169.458 90.2C169.831 89.64 170.018 88.8933 170.018 87.96C170.018 86.7867 169.591 85.8267 168.738 85.08C167.885 84.3333 166.805 83.5467 165.498 82.72C164.538 82.1067 163.631 81.4933 162.778 80.88C161.951 80.2667 161.271 79.5733 160.738 78.8C160.231 78.0267 159.978 77.0933 159.978 76C159.978 74.8 160.245 73.8267 160.778 73.08C161.338 72.3067 162.071 71.7467 162.978 71.4C163.885 71.0267 164.858 70.84 165.898 70.84Z" fill="#AF9146"/>
<path d="M88.2373 114.604C88.1863 114.509 88.1236 114.423 88.0586 114.344C88.0261 114.305 87.9913 114.266 87.9565 114.226C87.9402 114.205 87.9216 114.187 87.9054 114.17C87.8868 114.149 87.8706 114.136 87.852 114.115C87.78 114.043 87.7034 113.973 87.6245 113.908C87.5781 113.869 87.527 113.829 87.476 113.794L87.4388 113.771C87.4388 113.771 87.411 113.755 87.3994 113.743C87.3715 113.727 87.3483 113.711 87.3205 113.695L87.2415 113.648C87.216 113.632 87.1881 113.616 87.1603 113.604C87.1069 113.576 87.0512 113.548 86.9978 113.52C86.9421 113.493 86.8841 113.469 86.8284 113.446C86.8028 113.435 86.7703 113.423 86.7425 113.414C86.7286 113.411 86.7169 113.402 86.7007 113.4L86.6566 113.384L86.6148 113.367C86.6148 113.367 86.587 113.356 86.5707 113.351L86.4848 113.323C86.4848 113.323 86.4593 113.316 86.443 113.312L86.3989 113.3L86.3572 113.288C86.3572 113.288 86.327 113.279 86.3131 113.277C86.197 113.244 86.0763 113.226 85.9556 113.205C85.8349 113.184 85.7142 113.177 85.5935 113.17C85.561 113.17 85.5308 113.17 85.503 113.165H85.2755C85.2755 113.165 85.2453 113.165 85.2291 113.165C85.1989 113.165 85.1664 113.165 85.1409 113.17L85.0503 113.177H85.0271C85.0271 113.177 85.0109 113.177 85.0039 113.177H84.9575C84.925 113.184 84.8971 113.189 84.867 113.193C84.3842 113.251 83.9153 113.395 83.4743 113.599C83.0332 113.806 82.6224 114.075 82.2556 114.389C82.2092 114.428 82.1674 114.467 82.121 114.507L82.0537 114.57C82.0537 114.57 82.0305 114.591 82.0235 114.602L81.991 114.632C81.9492 114.676 81.9028 114.721 81.8587 114.765L81.8517 114.751C81.8309 114.727 81.8123 114.709 81.7914 114.683L81.7659 114.653L81.738 114.616L81.6823 114.551C81.6475 114.502 81.6127 114.458 81.5778 114.412L81.55 114.377C81.55 114.377 81.5361 114.351 81.5245 114.34L81.4734 114.27C81.4734 114.27 81.4571 114.245 81.4502 114.233L81.4246 114.198C81.4107 114.175 81.3945 114.149 81.3782 114.122L81.3318 114.047C81.3156 114.024 81.3016 113.996 81.29 113.973L81.2668 113.934L81.2459 113.894C81.2297 113.869 81.2181 113.841 81.2041 113.818C81.1763 113.767 81.1484 113.715 81.1206 113.664L81.102 113.625C81.102 113.625 81.0904 113.597 81.0834 113.585L81.044 113.507L81.0347 113.486L81.0277 113.467L81.0115 113.425C80.9999 113.4 80.9883 113.374 80.9767 113.346L80.8049 112.903L80.6772 112.571L80.6679 112.553C80.6679 112.553 80.6679 112.541 80.6656 112.548V112.559L80.6447 112.604L80.6192 112.687L80.5588 112.852L80.5008 113.019L80.473 113.103L80.459 113.142V113.149H80.4544V113.165L80.4196 113.249L80.4033 113.288C80.4033 113.288 80.3917 113.316 80.3871 113.328C80.2989 113.546 80.1967 113.755 80.083 113.964C79.9716 114.17 79.8486 114.372 79.7209 114.57C79.6814 114.63 79.6397 114.688 79.6002 114.748C79.5607 114.7 79.5259 114.649 79.4865 114.602C79.4215 114.519 79.3542 114.44 79.2845 114.361C79.3611 114.273 79.44 114.177 79.5097 114.082C79.5839 113.985 79.6466 113.88 79.6977 113.787C79.7488 113.692 79.7882 113.599 79.8137 113.525C79.8695 113.372 79.8811 113.267 79.8486 113.256C79.8184 113.244 79.7557 113.323 79.6698 113.451C79.6281 113.513 79.5723 113.592 79.519 113.676C79.4586 113.76 79.3959 113.85 79.3263 113.945C79.2636 114.029 79.1986 114.11 79.129 114.189C79.0849 114.147 79.0454 114.103 79.0037 114.064C78.8319 113.894 78.6439 113.732 78.4419 113.592C78.3398 113.52 78.2353 113.458 78.1262 113.4C78.0984 113.384 78.0705 113.372 78.0427 113.356C78.0288 113.346 78.0172 113.344 78.0009 113.335C77.9847 113.328 77.973 113.323 77.9568 113.316C77.9034 113.293 77.8454 113.265 77.785 113.244C77.669 113.2 77.5529 113.165 77.4345 113.133C77.3138 113.105 77.1931 113.082 77.0724 113.066C76.9517 113.052 76.8264 113.042 76.7057 113.042C76.585 113.042 76.4596 113.052 76.3389 113.063C76.2182 113.077 76.0975 113.098 75.9745 113.13C75.8538 113.161 75.7377 113.2 75.624 113.249C75.5962 113.26 75.566 113.272 75.5381 113.284C75.5242 113.293 75.5103 113.295 75.4963 113.305L75.4522 113.323L75.4105 113.344C75.4105 113.344 75.3826 113.358 75.3664 113.363L75.3269 113.386L75.3083 113.4L75.2898 113.411L75.2503 113.435C75.2503 113.435 75.2341 113.442 75.2294 113.446C75.2224 113.451 75.2155 113.453 75.2108 113.458C75.183 113.479 75.1575 113.493 75.1319 113.513C75.0832 113.553 75.0344 113.592 74.988 113.637C74.8998 113.722 74.8139 113.813 74.735 113.917C74.7164 113.945 74.6955 113.968 74.6793 113.996C74.6607 114.024 74.6445 114.052 74.6305 114.082L74.6189 114.108C74.6189 114.108 74.6097 114.122 74.6073 114.131C74.6073 114.138 74.598 114.147 74.5934 114.154C74.5934 114.161 74.5864 114.17 74.5864 114.182C74.5864 114.189 74.5818 114.203 74.5795 114.21L74.5702 114.238C74.5702 114.238 74.5702 114.256 74.5679 114.27C74.5679 114.282 74.5679 114.293 74.5679 114.3C74.5679 114.305 74.5679 114.312 74.5679 114.317V114.363C74.5679 114.363 74.5748 114.384 74.5795 114.396V114.412L74.5864 114.423C74.5864 114.423 74.598 114.458 74.6073 114.474C74.6143 114.491 74.6213 114.507 74.6305 114.523C74.6375 114.537 74.6445 114.553 74.6538 114.57L74.6654 114.593L74.6793 114.616L74.7071 114.658C74.7071 114.658 74.728 114.683 74.735 114.697C74.7977 114.783 74.8673 114.857 74.9416 114.929C74.8673 115.001 74.7977 115.08 74.735 115.164C74.728 115.175 74.7164 115.192 74.7071 115.203L74.6932 115.222L74.6793 115.243L74.6654 115.266L74.6538 115.289C74.6538 115.289 74.6375 115.322 74.6305 115.338C74.6213 115.354 74.6143 115.368 74.6073 115.384C74.598 115.401 74.5934 115.419 74.5864 115.435V115.447L74.5795 115.463C74.5795 115.463 74.5748 115.484 74.5702 115.496V115.542C74.5702 115.542 74.5679 115.554 74.5679 115.558C74.5679 115.57 74.5679 115.582 74.5679 115.591C74.5679 115.603 74.5679 115.61 74.5702 115.621L74.5795 115.649C74.5795 115.649 74.5818 115.67 74.5864 115.677C74.5864 115.686 74.5934 115.698 74.5934 115.705C74.5934 115.714 74.6027 115.721 74.6073 115.728C74.6073 115.737 74.6143 115.744 74.6189 115.753L74.6305 115.777C74.6445 115.809 74.6607 115.835 74.6793 115.863C74.7002 115.89 74.7164 115.918 74.735 115.941C74.8139 116.046 74.8998 116.136 74.988 116.222C75.0344 116.266 75.0832 116.306 75.1319 116.345C75.1575 116.366 75.183 116.385 75.2108 116.401C75.2178 116.406 75.2224 116.41 75.2294 116.413C75.2387 116.417 75.2457 116.422 75.2503 116.424L75.2898 116.45L75.3269 116.473L75.3664 116.496C75.3664 116.496 75.3942 116.512 75.4105 116.517L75.4522 116.536L75.4963 116.557C75.4963 116.557 75.5242 116.568 75.5381 116.575C75.566 116.587 75.5938 116.598 75.624 116.612C75.7377 116.659 75.8538 116.698 75.9745 116.731C76.0975 116.761 76.2182 116.782 76.3389 116.798C76.4596 116.812 76.585 116.821 76.7057 116.817C76.8264 116.817 76.9517 116.81 77.0724 116.793C77.1931 116.777 77.3138 116.754 77.4345 116.726C77.5552 116.698 77.6736 116.659 77.785 116.615C77.8454 116.596 77.8988 116.568 77.9568 116.545C77.973 116.536 77.9847 116.531 78.0009 116.524C78.0172 116.517 78.0288 116.512 78.0427 116.505C78.0705 116.489 78.0984 116.478 78.1262 116.461C78.2353 116.401 78.3398 116.338 78.4419 116.266C78.6439 116.129 78.8319 115.967 79.0037 115.795C79.0454 115.753 79.0895 115.714 79.129 115.67C79.1986 115.749 79.2636 115.832 79.3263 115.916C79.3959 116.009 79.4586 116.102 79.519 116.183C79.577 116.266 79.6281 116.345 79.6698 116.41C79.7604 116.536 79.823 116.615 79.8486 116.603C79.8764 116.591 79.8695 116.489 79.8137 116.334C79.7882 116.259 79.7488 116.169 79.6977 116.074C79.6466 115.979 79.5839 115.874 79.5097 115.777C79.44 115.681 79.3658 115.586 79.2845 115.5C79.3542 115.419 79.4215 115.338 79.4865 115.259C79.5259 115.21 79.5654 115.159 79.6002 115.113C79.642 115.171 79.6814 115.231 79.7209 115.289C79.8486 115.484 79.9739 115.686 80.083 115.895C80.1967 116.102 80.2989 116.315 80.3871 116.531C80.3917 116.545 80.3987 116.559 80.4033 116.57L80.4196 116.612L80.4498 116.694V116.705H80.459V116.719L80.473 116.759L80.5008 116.84L80.5588 117.007L80.6192 117.174L80.6447 117.255L80.661 117.299V117.311L80.6679 117.306L80.6772 117.288L80.8095 116.956L80.9813 116.517C80.9929 116.489 81.0045 116.461 81.0161 116.438L81.0324 116.396L81.0393 116.378L81.0463 116.357L81.0858 116.278C81.0858 116.278 81.0974 116.25 81.1066 116.239L81.1252 116.199C81.1531 116.148 81.1809 116.097 81.2065 116.046C81.2227 116.023 81.2343 115.995 81.2506 115.969L81.2691 115.93L81.2923 115.89C81.3086 115.867 81.3248 115.839 81.3411 115.816L81.3875 115.742C81.4014 115.716 81.4177 115.693 81.4339 115.665L81.4571 115.63C81.4571 115.63 81.4734 115.607 81.4804 115.593L81.5314 115.524C81.5314 115.524 81.5477 115.5 81.5593 115.486L81.5848 115.452C81.6219 115.405 81.6568 115.357 81.6916 115.312L81.745 115.245L81.7728 115.21L81.8007 115.18C81.8192 115.155 81.8401 115.136 81.8587 115.113L81.8657 115.099C81.9098 115.143 81.9516 115.187 81.9957 115.231L82.0258 115.261C82.0258 115.261 82.049 115.282 82.0583 115.294L82.1233 115.357C82.1721 115.396 82.2139 115.44 82.2603 115.475C82.6317 115.793 83.0379 116.062 83.4789 116.264C83.9176 116.468 84.3865 116.612 84.8716 116.67C84.9018 116.675 84.9296 116.677 84.9598 116.682H85.0062C85.0062 116.682 85.0225 116.691 85.0318 116.691H85.055L85.1432 116.698C85.1757 116.698 85.2059 116.698 85.2337 116.703C85.25 116.703 85.2639 116.703 85.2801 116.703H85.5076C85.5378 116.703 85.568 116.703 85.5958 116.698C85.7165 116.691 85.8372 116.682 85.9602 116.663C86.0809 116.642 86.2016 116.624 86.3177 116.591C86.334 116.591 86.3502 116.584 86.3618 116.58L86.4036 116.568L86.4477 116.557C86.4477 116.557 86.4779 116.547 86.4895 116.545L86.5754 116.517C86.5754 116.517 86.6032 116.508 86.6195 116.501L86.6612 116.485L86.7053 116.468C86.7053 116.468 86.7309 116.457 86.7471 116.452C86.775 116.441 86.8052 116.429 86.833 116.422C86.8887 116.396 86.9467 116.373 87.0001 116.345C87.0558 116.322 87.1092 116.29 87.1649 116.264C87.1928 116.248 87.2183 116.236 87.2462 116.22L87.2856 116.197L87.3251 116.171C87.353 116.157 87.3762 116.141 87.4017 116.125C87.4133 116.116 87.4296 116.109 87.4412 116.097L87.462 116.085L87.4806 116.074C87.5317 116.037 87.5827 115.997 87.6292 115.958C87.7058 115.89 87.78 115.823 87.8543 115.753C87.8891 115.716 87.9263 115.681 87.9611 115.642C87.9959 115.603 88.0261 115.568 88.0609 115.524C88.0934 115.484 88.1236 115.44 88.1561 115.396C88.1863 115.354 88.2141 115.31 88.242 115.261C88.2698 115.215 88.293 115.164 88.3116 115.108C88.3162 115.092 88.3186 115.08 88.3232 115.064C88.3232 115.048 88.3302 115.032 88.3348 115.02C88.3348 115.006 88.3395 114.99 88.3418 114.974C88.3418 114.957 88.3418 114.941 88.3418 114.922C88.3418 114.855 88.3278 114.795 88.307 114.739C88.2884 114.683 88.2652 114.632 88.2373 114.586V114.604ZM74.8998 114.565C74.8998 114.565 74.8836 114.542 74.8766 114.535L74.8627 114.519L74.8511 114.502V114.495L74.8394 114.486L74.8278 114.47C74.8278 114.47 74.8162 114.447 74.8139 114.44C74.8093 114.428 74.8023 114.416 74.7977 114.407C74.7977 114.396 74.7907 114.389 74.7861 114.377C74.7768 114.356 74.7768 114.335 74.7768 114.324V114.284C74.7768 114.284 74.7861 114.273 74.7907 114.27C74.7977 114.249 74.8046 114.226 74.8162 114.205C74.8278 114.182 74.8394 114.161 74.8557 114.138C74.8719 114.115 74.8882 114.096 74.9021 114.071C74.9694 113.985 75.046 113.901 75.1296 113.822C75.1714 113.783 75.2155 113.748 75.2573 113.711C75.2805 113.695 75.3014 113.681 75.3246 113.664C75.3269 113.664 75.3362 113.655 75.3408 113.653C75.3431 113.653 75.3524 113.643 75.3548 113.639L75.3896 113.616L75.4105 113.604L75.429 113.592L75.4638 113.574C75.4638 113.574 75.4871 113.56 75.5033 113.553L75.5428 113.532L75.5822 113.513C75.5822 113.513 75.6101 113.502 75.6217 113.493C75.6472 113.481 75.6704 113.469 75.6983 113.462C75.8051 113.418 75.9095 113.384 76.0186 113.356C76.1277 113.328 76.2414 113.307 76.3552 113.293C76.4666 113.277 76.5803 113.272 76.6941 113.272C76.8055 113.272 76.9192 113.279 77.033 113.293C77.1467 113.307 77.2581 113.328 77.3695 113.356C77.4786 113.384 77.5877 113.414 77.6922 113.458C77.7479 113.479 77.7966 113.502 77.8477 113.525C77.8593 113.53 77.8756 113.537 77.8872 113.546C77.8988 113.553 77.915 113.558 77.9266 113.565C77.9498 113.576 77.9777 113.588 78.0009 113.604C78.103 113.66 78.2005 113.72 78.2934 113.783C78.4814 113.913 78.6601 114.064 78.8226 114.226C78.8667 114.27 78.9085 114.312 78.9526 114.356C78.7855 114.523 78.6021 114.676 78.4071 114.806C78.2028 114.681 77.9893 114.574 77.7618 114.491C77.532 114.403 77.2953 114.344 77.0515 114.312C76.8101 114.282 76.5618 114.277 76.3157 114.312C76.0697 114.344 75.8306 114.407 75.6008 114.507C75.4871 114.553 75.378 114.609 75.2689 114.672L75.2294 114.697L75.2108 114.709C75.2108 114.709 75.1946 114.716 75.1923 114.721C75.1644 114.739 75.1366 114.755 75.1133 114.776L75.0971 114.788C75.0275 114.716 74.9578 114.644 74.8998 114.565ZM78.1843 114.941C78.0241 115.032 77.857 115.113 77.6852 115.175C77.4694 115.254 77.2465 115.31 77.0214 115.34C76.7939 115.368 76.5687 115.373 76.3413 115.34C76.1207 115.312 75.8979 115.254 75.6913 115.164C75.5845 115.12 75.4847 115.069 75.3872 115.008L75.3524 114.985L75.3362 114.974C75.3362 114.974 75.3246 114.964 75.3199 114.962C75.3037 114.953 75.2921 114.941 75.2782 114.929C75.2921 114.918 75.3037 114.911 75.3199 114.899C75.3246 114.899 75.3315 114.89 75.3362 114.885L75.3524 114.874L75.3872 114.85C75.4847 114.79 75.5845 114.739 75.6913 114.697C75.8979 114.609 76.1207 114.551 76.3413 114.519C76.5687 114.491 76.7939 114.491 77.0214 114.519C77.2465 114.546 77.4694 114.604 77.6852 114.683C77.857 114.748 78.0241 114.827 78.1843 114.918V114.941ZM78.8226 115.661C78.6601 115.823 78.4814 115.974 78.2934 116.104C78.2005 116.171 78.1007 116.232 78.0009 116.283C77.9777 116.294 77.9498 116.311 77.9266 116.322C77.915 116.331 77.8988 116.334 77.8872 116.343C77.8756 116.35 77.8593 116.355 77.8477 116.362C77.7966 116.385 77.7433 116.41 77.6922 116.429C77.5877 116.468 77.4786 116.505 77.3695 116.531C77.2581 116.559 77.1467 116.58 77.033 116.596C76.9192 116.612 76.8055 116.615 76.6941 116.615C76.5803 116.615 76.4666 116.612 76.3552 116.596C76.2414 116.584 76.1323 116.559 76.0186 116.531C75.9095 116.505 75.8004 116.468 75.6983 116.424C75.6704 116.413 75.6472 116.401 75.6217 116.394C75.6078 116.389 75.5938 116.382 75.5822 116.373L75.5428 116.355L75.5033 116.334C75.5033 116.334 75.4801 116.322 75.4638 116.315L75.429 116.294L75.4105 116.283L75.3896 116.271L75.3548 116.248C75.3548 116.248 75.3431 116.239 75.3408 116.236C75.3362 116.236 75.3269 116.227 75.3246 116.222C75.3014 116.208 75.2805 116.192 75.2573 116.176C75.2155 116.141 75.1714 116.104 75.1296 116.064C75.046 115.99 74.9694 115.907 74.9021 115.816C74.8882 115.793 74.8719 115.772 74.8557 115.749C74.8394 115.726 74.8278 115.705 74.8162 115.681C74.8046 115.658 74.7977 115.637 74.7907 115.619C74.7907 115.614 74.7907 115.607 74.7861 115.603V115.563C74.7861 115.563 74.7861 115.531 74.7861 115.512C74.7861 115.5 74.793 115.491 74.7977 115.48C74.8023 115.468 74.8046 115.456 74.8139 115.447C74.8162 115.435 74.8255 115.424 74.8278 115.417L74.8394 115.401V115.394L74.8511 115.384L74.8627 115.368L74.8766 115.354C74.8766 115.354 74.8905 115.329 74.8998 115.322C74.9578 115.243 75.0228 115.171 75.0971 115.099L75.1133 115.113C75.1366 115.131 75.1644 115.152 75.1923 115.166C75.1992 115.171 75.2039 115.175 75.2108 115.18L75.2294 115.192L75.2689 115.215C75.3756 115.278 75.4871 115.333 75.6008 115.38C75.8283 115.48 76.0697 115.542 76.3157 115.575C76.5618 115.607 76.8055 115.603 77.0515 115.575C77.2953 115.542 77.5367 115.484 77.7618 115.396C77.9847 115.312 78.2028 115.206 78.4071 115.08C78.6021 115.21 78.7855 115.366 78.9526 115.531C78.9085 115.575 78.8667 115.619 78.8226 115.661ZM79.2868 115.138C79.2288 115.215 79.1661 115.287 79.1035 115.361C78.9526 115.21 78.7878 115.069 78.6137 114.946C78.7878 114.818 78.9526 114.681 79.1035 114.53C79.1661 114.602 79.2265 114.676 79.2868 114.751C79.3379 114.816 79.389 114.883 79.44 114.95C79.389 115.018 79.3379 115.08 79.2868 115.148V115.138ZM81.6684 114.969C81.6475 114.992 81.6289 115.018 81.608 115.041L81.5778 115.076L81.55 115.113L81.492 115.182C81.4571 115.231 81.4177 115.278 81.3829 115.329L81.355 115.366C81.355 115.366 81.3364 115.389 81.3272 115.401L81.2784 115.475C81.2784 115.475 81.2622 115.5 81.2506 115.514L81.2273 115.554C81.2111 115.579 81.1925 115.607 81.1763 115.63L81.1299 115.709C81.1136 115.737 81.0974 115.76 81.0834 115.788L81.0602 115.828L81.0347 115.867C81.0208 115.895 81.0045 115.918 80.9929 115.946C80.9651 116.002 80.9349 116.053 80.907 116.109L80.8885 116.148C80.8885 116.148 80.8722 116.176 80.8676 116.187L80.8281 116.271L80.8211 116.29L80.8142 116.311L80.7933 116.355C80.7817 116.382 80.7654 116.41 80.7585 116.438L80.6679 116.666V116.659H80.6656L80.6563 116.635L80.6215 116.552L80.6076 116.508C80.6076 116.508 80.5937 116.48 80.5867 116.464C80.4939 116.239 80.3871 116.023 80.271 115.809C80.155 115.593 80.0296 115.389 79.8973 115.187C79.8416 115.104 79.7882 115.025 79.7279 114.946C79.7882 114.867 79.8416 114.783 79.8973 114.704C80.0296 114.502 80.155 114.296 80.271 114.082C80.3871 113.869 80.4939 113.653 80.5867 113.425C80.5937 113.411 80.5983 113.4 80.6076 113.384L80.6215 113.339L80.6563 113.256L80.6656 113.237V113.226L80.7538 113.451C80.7654 113.479 80.777 113.507 80.791 113.532L80.8095 113.576L80.8165 113.597L80.8258 113.616L80.8629 113.699C80.8629 113.699 80.8768 113.727 80.8838 113.739L80.9024 113.778C80.9302 113.834 80.9581 113.885 80.9883 113.941C81.0045 113.968 81.0208 113.992 81.0324 114.02L81.0788 114.098C81.095 114.126 81.109 114.149 81.1252 114.177L81.1716 114.256C81.1879 114.284 81.2041 114.31 81.2227 114.333L81.2459 114.372C81.2459 114.372 81.2622 114.396 81.2738 114.412L81.3248 114.486C81.3248 114.486 81.3434 114.509 81.3527 114.523L81.3782 114.558C81.413 114.609 81.4525 114.658 81.4873 114.704C81.5082 114.727 81.5268 114.751 81.5477 114.776L81.5732 114.811L81.6057 114.846C81.6243 114.871 81.6452 114.895 81.6637 114.918L81.6869 114.946L81.6637 114.974L81.6684 114.969ZM88.0864 115.048C88.0725 115.087 88.0539 115.127 88.0354 115.164C88.0145 115.203 87.989 115.243 87.9634 115.278C87.9379 115.317 87.91 115.354 87.8822 115.389C87.852 115.424 87.8242 115.461 87.7917 115.496C87.7615 115.531 87.7313 115.568 87.6942 115.598C87.6292 115.665 87.5595 115.728 87.4853 115.788C87.4412 115.823 87.3947 115.86 87.353 115.89L87.3367 115.902L87.3205 115.916C87.3205 115.916 87.2972 115.93 87.2856 115.939L87.2114 115.983L87.1765 116.006L87.1371 116.025C87.1139 116.037 87.086 116.053 87.0628 116.064C87.0117 116.092 86.9607 116.116 86.9073 116.141C86.8562 116.164 86.8028 116.187 86.7518 116.211C86.7239 116.222 86.6961 116.232 86.6682 116.243C86.6566 116.248 86.6427 116.255 86.6311 116.259L86.5916 116.276L86.5521 116.29C86.5521 116.29 86.5243 116.299 86.5127 116.304L86.4314 116.331C86.4314 116.331 86.4036 116.338 86.3873 116.343L86.3456 116.355L86.3015 116.366C86.3015 116.366 86.2759 116.373 86.2597 116.378C86.1506 116.406 86.0368 116.429 85.9231 116.445C85.8117 116.461 85.6979 116.473 85.5796 116.48C85.554 116.48 85.5215 116.48 85.496 116.48H85.2801C85.2801 116.48 85.2523 116.48 85.2384 116.48C85.2105 116.48 85.178 116.48 85.1525 116.48L85.0666 116.473H85.0434C85.0434 116.473 85.0271 116.473 85.0225 116.473H84.9807C84.9528 116.464 84.9204 116.461 84.8948 116.457C84.4375 116.401 83.9896 116.264 83.5717 116.069C83.1493 115.874 82.7593 115.619 82.4042 115.312C82.3624 115.278 82.3183 115.238 82.2719 115.199L82.2092 115.138C82.2092 115.138 82.1906 115.12 82.179 115.108L82.1465 115.076C82.1001 115.032 82.0583 114.985 82.0142 114.941C82.0583 114.895 82.1048 114.85 82.1465 114.806L82.179 114.776C82.179 114.776 82.1976 114.755 82.2092 114.744L82.2719 114.683C82.316 114.644 82.3578 114.604 82.4042 114.57C82.7593 114.27 83.1493 114.013 83.5717 113.813C83.9896 113.62 84.4375 113.481 84.8948 113.425C84.9204 113.423 84.9528 113.418 84.9807 113.418H85.0225L85.0434 113.411H85.0666L85.1525 113.402C85.178 113.402 85.2105 113.402 85.2384 113.402C85.2523 113.402 85.2639 113.402 85.2801 113.402H85.496C85.5215 113.402 85.554 113.402 85.5796 113.407C85.6933 113.414 85.8117 113.423 85.9231 113.442C86.0368 113.458 86.1506 113.481 86.2597 113.509C86.2759 113.509 86.2875 113.518 86.3015 113.52L86.3456 113.532L86.3873 113.546C86.3873 113.546 86.4152 113.553 86.4314 113.558L86.5127 113.585C86.5127 113.585 86.5405 113.592 86.5521 113.597L86.5916 113.613L86.6311 113.627C86.6311 113.627 86.6566 113.641 86.6682 113.643C86.6961 113.655 86.7239 113.664 86.7518 113.676C86.8028 113.699 86.8562 113.72 86.9073 113.748C86.9583 113.771 87.0094 113.799 87.0628 113.822C87.0907 113.834 87.1139 113.85 87.1371 113.862L87.1765 113.88L87.2114 113.906L87.2856 113.948C87.2856 113.948 87.3088 113.964 87.3205 113.973L87.353 113.996C87.3994 114.029 87.4412 114.064 87.4853 114.098C87.5595 114.159 87.6292 114.226 87.6942 114.293C87.7104 114.31 87.7267 114.328 87.7452 114.344C87.7615 114.361 87.7777 114.379 87.7917 114.396C87.8242 114.43 87.8543 114.467 87.8822 114.502C87.9402 114.574 87.9959 114.653 88.0377 114.727C88.0586 114.767 88.0772 114.806 88.0934 114.846C88.105 114.885 88.112 114.922 88.112 114.953C88.112 114.985 88.105 115.02 88.0934 115.059L88.0864 115.048Z" fill="#AF9146"/>
<path d="M67.8478 114.941C67.8478 114.716 67.669 114.53 67.4439 114.53C67.2791 114.53 67.1352 114.632 67.0725 114.776H65.8469C65.7889 114.67 65.6798 114.593 65.5475 114.593C65.4152 114.593 65.3061 114.665 65.2457 114.776H1V115.104H65.255C65.313 115.21 65.4221 115.287 65.5544 115.287C65.6868 115.287 65.7958 115.215 65.8562 115.104H67.0795C67.1421 115.25 67.2837 115.35 67.4509 115.35C67.6737 115.35 67.8571 115.166 67.8571 114.939L67.8478 114.941Z" fill="#AF9146"/>
<path d="M71.8565 114.407C71.6221 114.665 71.3134 114.855 70.9652 114.939C71.3134 115.02 71.6221 115.21 71.8565 115.468C71.968 115.245 74.1336 115.059 74.3495 114.939C74.1336 114.816 71.968 114.63 71.8565 114.407Z" fill="#AF9146"/>
<path d="M71.8404 115.784L71.8125 115.749L71.7963 115.733L71.7824 115.714L71.7383 115.67L71.6965 115.621L71.6454 115.57L71.6361 115.563L71.6292 115.554L71.5897 115.514C71.5897 115.514 71.5711 115.496 71.5642 115.487L71.5317 115.461C71.5317 115.461 71.5131 115.44 71.5015 115.433L71.469 115.405L71.462 115.396L71.4527 115.389L71.4388 115.373L71.3692 115.317L71.3483 115.301L71.3413 115.294L71.2949 115.259L71.274 115.243L71.2554 115.227L71.216 115.199C71.216 115.199 71.1881 115.18 71.1719 115.171C71.1463 115.152 71.1139 115.136 71.086 115.115L71.0744 115.108L71.0628 115.099L71.0164 115.076L71.0048 115.069L70.9932 115.059L70.9467 115.036L70.9351 115.029L70.9235 115.02L70.8771 114.997L70.8655 114.99H70.8539L70.8028 114.962H70.7912L70.7796 114.95L70.7564 114.939H70.7471L70.7564 114.929L70.7796 114.918H70.7912L70.8028 114.906L70.8539 114.883H70.8655L70.8771 114.871L70.9003 114.858L70.9235 114.846L70.9467 114.832L70.9932 114.806L71.0048 114.799L71.0164 114.79L71.0628 114.767L71.0744 114.76L71.086 114.751C71.1185 114.732 71.1463 114.716 71.1719 114.697C71.1881 114.688 71.1997 114.676 71.216 114.669L71.2554 114.642L71.274 114.625L71.2949 114.609L71.3413 114.574L71.3483 114.565L71.3692 114.551L71.4388 114.495L71.4527 114.479L71.469 114.463L71.5015 114.435C71.5015 114.435 71.5201 114.416 71.5317 114.407L71.5642 114.379C71.5642 114.379 71.5827 114.361 71.5897 114.351L71.6965 114.245L71.7383 114.198L71.7824 114.154L71.7963 114.136L71.8125 114.119L71.8404 114.082C71.8404 114.082 71.8566 114.064 71.8636 114.054L71.9054 114.001L71.852 114.043C71.852 114.043 71.8334 114.059 71.8195 114.068L71.7847 114.096L71.7615 114.11L71.715 114.143L71.7034 114.15L71.6918 114.159L71.6361 114.194L71.5781 114.228H71.5711L71.5642 114.238L71.5479 114.245L71.5154 114.266C71.5154 114.266 71.4922 114.277 71.4806 114.284L71.4458 114.305C71.4458 114.305 71.4226 114.317 71.411 114.324L71.3761 114.345H71.3692L71.3599 114.351L71.3413 114.361L71.3019 114.379L71.2624 114.4L71.2438 114.407H71.2322L71.2206 114.416L71.1765 114.435L71.158 114.442L71.1371 114.451L71.0953 114.468C71.0953 114.468 71.0674 114.479 71.0512 114.484C71.0256 114.495 70.9932 114.502 70.963 114.514H70.9514L70.9398 114.523L70.9166 114.53L70.891 114.537H70.8794L70.8678 114.546L70.8214 114.563H70.8098L70.7982 114.57L70.775 114.577L70.7517 114.586H70.7401L70.7285 114.593L70.6821 114.604H70.6589L70.6357 114.616H70.6102L70.5985 114.625H70.5869L70.5405 114.637H70.5173L70.4941 114.644C70.4639 114.653 70.4314 114.658 70.4012 114.66C70.3386 114.672 70.2759 114.681 70.2132 114.683C70.1831 114.683 70.1506 114.693 70.1204 114.693C70.1111 114.693 70.1041 114.693 70.0972 114.693H70.0299C69.9092 114.704 69.7954 114.709 69.6933 114.709C69.5888 114.709 69.4751 114.709 69.359 114.697H69.2917C69.2917 114.697 69.2778 114.688 69.2685 114.688C69.2383 114.688 69.2058 114.683 69.1757 114.681C69.113 114.672 69.0503 114.665 68.9876 114.658C68.9575 114.653 68.925 114.644 68.8948 114.642H68.8716L68.86 114.632H68.8484L68.802 114.621H68.7787L68.7532 114.609H68.73L68.7184 114.602H68.7068L68.6604 114.586H68.6488L68.6371 114.577L68.5907 114.563H68.5791L68.5675 114.553L68.5211 114.537H68.5095L68.4979 114.53L68.4723 114.523L68.4491 114.514H68.4375L68.4259 114.507C68.3957 114.495 68.3679 114.486 68.3377 114.475C68.3215 114.47 68.3099 114.463 68.2936 114.458L68.2518 114.442L68.2309 114.435L68.2124 114.428L68.1683 114.407H68.1567L68.1451 114.4L68.1265 114.391L68.087 114.372L68.0476 114.351L68.029 114.345H68.0197L68.0128 114.335L67.9779 114.317C67.9779 114.317 67.9547 114.305 67.9431 114.296L67.9083 114.277C67.9083 114.277 67.8851 114.266 67.8735 114.256L67.8247 114.228H67.8178L67.8108 114.221L67.7505 114.187L67.6971 114.15L67.6739 114.136L67.6274 114.103L67.6158 114.096L67.6042 114.087L67.5671 114.059C67.5671 114.059 67.5439 114.043 67.5369 114.036L67.4835 113.992L67.5253 114.047C67.5253 114.047 67.5416 114.068 67.5485 114.08L67.5764 114.115L67.5926 114.131L67.6065 114.15L67.6506 114.194L67.6924 114.242L67.7992 114.349C67.7992 114.349 67.8178 114.368 67.8247 114.377L67.8572 114.403C67.8572 114.403 67.8758 114.423 67.8874 114.43L67.9199 114.458L67.9269 114.468L67.9501 114.491L68.0197 114.546L68.0406 114.563L68.0476 114.57L68.094 114.604L68.1149 114.621L68.1335 114.637L68.1729 114.665C68.1729 114.665 68.2008 114.683 68.217 114.693C68.2425 114.711 68.275 114.728 68.3006 114.748L68.3145 114.755L68.3261 114.765L68.3725 114.788L68.3841 114.795L68.3957 114.804L68.4422 114.827L68.4538 114.834L68.4654 114.844L68.5118 114.867L68.5234 114.874H68.535L68.5861 114.902H68.5977L68.6093 114.913L68.6325 114.925H68.6418L68.6325 114.934L68.6093 114.946H68.5977L68.5861 114.957L68.535 114.981H68.5234L68.5118 114.992L68.4886 115.006L68.4654 115.018L68.4422 115.032L68.3957 115.057L68.3493 115.085L68.3261 115.097L68.3145 115.104L68.3006 115.113C68.2704 115.131 68.2425 115.148 68.217 115.166C68.2008 115.176 68.1892 115.187 68.1729 115.194L68.1335 115.222L68.1149 115.238L68.094 115.254L68.0476 115.289L68.0406 115.299L68.0197 115.312L67.9501 115.368L67.9338 115.384L67.9269 115.394L67.9199 115.401L67.8874 115.429C67.8874 115.429 67.8688 115.447 67.8572 115.456L67.8247 115.484C67.8247 115.484 67.8062 115.503 67.7992 115.512L67.7597 115.552L67.7505 115.558L67.7435 115.568L67.6924 115.619L67.6506 115.665L67.6065 115.709L67.5926 115.728L67.5764 115.744L67.5485 115.781C67.5485 115.781 67.5323 115.8 67.5253 115.812L67.4835 115.867L67.5369 115.823C67.5369 115.823 67.5555 115.809 67.5671 115.8L67.6042 115.772L67.6158 115.765L67.6274 115.756L67.6506 115.742L67.6739 115.726L67.6855 115.716L67.6971 115.709L67.7505 115.675L67.8108 115.637H67.8178L67.8247 115.63L67.8735 115.603C67.8735 115.603 67.8967 115.591 67.9083 115.582L67.9431 115.563C67.9431 115.563 67.9663 115.552 67.9779 115.542L68.0128 115.524H68.0197L68.029 115.514L68.0476 115.507L68.087 115.487L68.1265 115.468L68.1451 115.461H68.1567L68.1683 115.452L68.2124 115.433L68.2309 115.424L68.2518 115.417L68.2936 115.401C68.2936 115.401 68.3215 115.389 68.3377 115.384C68.3632 115.373 68.3957 115.366 68.4259 115.354H68.4375L68.4491 115.345L68.4723 115.338L68.4979 115.329H68.5095L68.5211 115.322L68.5675 115.305H68.5791L68.5907 115.299L68.6139 115.289L68.6371 115.282H68.6488L68.6604 115.273L68.7068 115.261H68.73L68.7532 115.25H68.7787L68.7903 115.243H68.802L68.8484 115.231H68.8716L68.8948 115.222C68.925 115.215 68.9575 115.21 68.9876 115.206C69.0503 115.194 69.113 115.187 69.1757 115.182C69.2058 115.182 69.2383 115.176 69.2685 115.176C69.2778 115.176 69.2848 115.176 69.2917 115.176H69.359C69.4797 115.164 69.5935 115.159 69.6933 115.159C69.8001 115.159 69.9138 115.159 70.0299 115.171H70.0972C70.0972 115.171 70.1111 115.18 70.1204 115.18C70.1506 115.18 70.1831 115.182 70.2132 115.187C70.2759 115.194 70.3386 115.203 70.4012 115.21C70.4314 115.215 70.4639 115.222 70.4941 115.227H70.5173L70.5289 115.234H70.5405L70.5869 115.245H70.6102L70.6357 115.259H70.6589L70.6705 115.266H70.6821L70.7285 115.282H70.7401L70.7517 115.289L70.775 115.299L70.7982 115.305H70.8098L70.8214 115.312L70.8678 115.329H70.8794L70.891 115.338L70.9166 115.345L70.9398 115.354H70.9514L70.963 115.361C70.9932 115.373 71.021 115.38 71.0512 115.394C71.0674 115.396 71.079 115.405 71.0953 115.408L71.1371 115.424L71.158 115.433L71.1765 115.44L71.2206 115.461H71.2322L71.2438 115.468L71.2624 115.475L71.3019 115.496L71.3413 115.514L71.3599 115.524H71.3692L71.3761 115.531L71.411 115.552C71.411 115.552 71.4342 115.563 71.4458 115.57L71.4806 115.591C71.4806 115.591 71.5038 115.603 71.5154 115.61L71.5479 115.63L71.5642 115.637H71.5711L71.5781 115.647L71.6361 115.682L71.6918 115.716L71.7034 115.726L71.715 115.733L71.7615 115.765L71.7731 115.772L71.8195 115.809C71.8195 115.809 71.845 115.823 71.852 115.832L71.9054 115.874L71.8636 115.821C71.8636 115.821 71.8473 115.8 71.8404 115.793V115.784Z" fill="#AF9146"/>
<path d="M116.28 114.704C116.28 114.704 116.3 114.676 116.307 114.665L116.324 114.644L116.335 114.625L116.342 114.614L116.351 114.602L116.363 114.577C116.363 114.577 116.377 114.547 116.386 114.53C116.393 114.514 116.4 114.498 116.409 114.484C116.416 114.468 116.421 114.447 116.428 114.43V114.419L116.437 114.403C116.437 114.403 116.44 114.384 116.444 114.372V114.324C116.444 114.324 116.449 114.312 116.449 114.31C116.449 114.296 116.449 114.284 116.449 114.277C116.449 114.266 116.449 114.256 116.444 114.245L116.437 114.217C116.437 114.217 116.433 114.198 116.428 114.189C116.428 114.182 116.421 114.17 116.421 114.161C116.421 114.154 116.412 114.147 116.409 114.138C116.409 114.131 116.4 114.122 116.398 114.115L116.386 114.092C116.37 114.059 116.354 114.031 116.335 114.003C116.314 113.975 116.3 113.948 116.28 113.924C116.203 113.822 116.117 113.732 116.027 113.644C115.98 113.599 115.934 113.56 115.883 113.521C115.859 113.502 115.832 113.481 115.804 113.467C115.797 113.463 115.792 113.458 115.785 113.453C115.776 113.451 115.769 113.446 115.764 113.442L115.727 113.418L115.706 113.407L115.688 113.395L115.648 113.372C115.648 113.372 115.62 113.356 115.606 113.351L115.562 113.333L115.52 113.312C115.52 113.312 115.493 113.3 115.476 113.293C115.449 113.279 115.423 113.268 115.39 113.256C115.277 113.21 115.161 113.17 115.04 113.138C114.919 113.105 114.799 113.086 114.678 113.07C114.555 113.054 114.432 113.047 114.311 113.052C114.188 113.052 114.065 113.059 113.944 113.075C113.821 113.091 113.701 113.114 113.58 113.142C113.459 113.17 113.343 113.21 113.229 113.251C113.171 113.272 113.116 113.3 113.058 113.323C113.041 113.333 113.03 113.335 113.016 113.344C113 113.351 112.988 113.356 112.972 113.363C112.944 113.379 112.918 113.391 112.891 113.407C112.781 113.467 112.675 113.53 112.575 113.599C112.371 113.739 112.185 113.901 112.013 114.071C111.969 114.115 111.927 114.154 111.888 114.198C111.818 114.119 111.751 114.036 111.688 113.952C111.619 113.857 111.556 113.767 111.498 113.683C111.44 113.599 111.389 113.521 111.345 113.458C111.256 113.333 111.194 113.251 111.166 113.265C111.138 113.277 111.145 113.379 111.201 113.532C111.229 113.609 111.268 113.699 111.317 113.794C111.368 113.89 111.431 113.992 111.505 114.092C111.574 114.187 111.649 114.282 111.732 114.368C111.66 114.447 111.595 114.53 111.528 114.609C111.489 114.658 111.451 114.709 111.414 114.755C111.373 114.697 111.333 114.637 111.294 114.577C111.166 114.384 111.041 114.182 110.932 113.973C110.818 113.767 110.718 113.553 110.627 113.335C110.623 113.323 110.616 113.307 110.611 113.295L110.595 113.256L110.565 113.172V113.161H110.558V113.149L110.542 113.11L110.514 113.026L110.456 112.861L110.398 112.694L110.37 112.611L110.354 112.569V112.555L110.347 112.56L110.34 112.58L110.21 112.912L110.038 113.356C110.026 113.384 110.015 113.411 110.003 113.435L109.987 113.474L109.98 113.493L109.973 113.514L109.933 113.593C109.933 113.593 109.922 113.62 109.913 113.632L109.894 113.671C109.866 113.722 109.838 113.774 109.813 113.827C109.796 113.85 109.785 113.878 109.769 113.901L109.75 113.941L109.727 113.98C109.711 114.003 109.694 114.031 109.683 114.054L109.636 114.131C109.62 114.154 109.606 114.177 109.59 114.205L109.567 114.242C109.567 114.242 109.55 114.266 109.543 114.277L109.492 114.349C109.492 114.349 109.476 114.372 109.465 114.384L109.437 114.419C109.402 114.468 109.367 114.514 109.332 114.558L109.276 114.625L109.251 114.66L109.223 114.693C109.202 114.716 109.184 114.737 109.165 114.76L109.156 114.772C109.114 114.728 109.07 114.681 109.023 114.642L108.993 114.609C108.993 114.609 108.97 114.591 108.961 114.577L108.896 114.514C108.849 114.475 108.805 114.43 108.759 114.396C108.387 114.08 107.981 113.811 107.54 113.609C107.102 113.402 106.633 113.261 106.148 113.2C106.117 113.198 106.09 113.193 106.059 113.189H106.013C106.013 113.189 105.997 113.182 105.99 113.182H105.964L105.876 113.172C105.843 113.172 105.813 113.172 105.785 113.17C105.769 113.17 105.755 113.17 105.739 113.17H105.512C105.481 113.17 105.451 113.17 105.423 113.172C105.303 113.182 105.182 113.193 105.061 113.21C104.938 113.228 104.818 113.249 104.701 113.279C104.685 113.279 104.669 113.288 104.657 113.293L104.616 113.305L104.571 113.316C104.571 113.316 104.541 113.323 104.53 113.328L104.444 113.356C104.444 113.356 104.416 113.363 104.4 113.372L104.358 113.386L104.314 113.402C104.314 113.402 104.288 113.414 104.272 113.418C104.244 113.43 104.214 113.442 104.186 113.451C104.13 113.474 104.072 113.497 104.019 113.525C103.963 113.548 103.91 113.581 103.854 113.609C103.826 113.625 103.801 113.637 103.773 113.653L103.694 113.699C103.666 113.716 103.643 113.732 103.617 113.748C103.606 113.755 103.59 113.762 103.578 113.774L103.557 113.787L103.539 113.799C103.487 113.834 103.436 113.873 103.39 113.913C103.313 113.98 103.239 114.047 103.165 114.119C103.144 114.138 103.13 114.154 103.109 114.175C103.093 114.194 103.074 114.21 103.058 114.229C103.023 114.27 102.993 114.31 102.958 114.349C102.891 114.428 102.833 114.514 102.777 114.609C102.752 114.658 102.726 114.709 102.708 114.765C102.689 114.818 102.677 114.878 102.673 114.946C102.673 114.962 102.673 114.978 102.673 114.997C102.673 115.013 102.677 115.029 102.68 115.046C102.68 115.059 102.689 115.076 102.691 115.087C102.696 115.104 102.701 115.115 102.703 115.131C102.724 115.187 102.747 115.238 102.775 115.287C102.8 115.333 102.828 115.38 102.861 115.419C102.891 115.463 102.921 115.507 102.954 115.547C102.984 115.586 103.019 115.626 103.056 115.665C103.091 115.705 103.125 115.742 103.16 115.777C103.23 115.849 103.309 115.918 103.385 115.983C103.434 116.023 103.483 116.062 103.534 116.097L103.555 116.109L103.573 116.12C103.573 116.12 103.601 116.137 103.613 116.148C103.641 116.164 103.664 116.181 103.692 116.197L103.729 116.22L103.768 116.243C103.796 116.26 103.824 116.276 103.85 116.287C103.905 116.315 103.961 116.343 104.014 116.371C104.07 116.396 104.128 116.422 104.181 116.445C104.209 116.457 104.242 116.468 104.267 116.478C104.284 116.48 104.295 116.489 104.311 116.492L104.353 116.508L104.397 116.524C104.397 116.524 104.425 116.536 104.439 116.54L104.525 116.568C104.525 116.568 104.553 116.575 104.569 116.58L104.611 116.591L104.655 116.603C104.655 116.603 104.685 116.612 104.697 116.615C104.815 116.647 104.936 116.666 105.057 116.687C105.177 116.705 105.298 116.714 105.419 116.721C105.451 116.721 105.481 116.721 105.509 116.726H105.734C105.734 116.726 105.767 116.726 105.781 116.726C105.813 116.726 105.843 116.726 105.871 116.721L105.962 116.714H105.985C105.985 116.714 106.001 116.714 106.008 116.714H106.055C106.087 116.705 106.113 116.703 106.145 116.698C106.628 116.638 107.097 116.496 107.538 116.29C107.979 116.085 108.387 115.821 108.754 115.503C108.801 115.463 108.845 115.424 108.891 115.384L108.958 115.322C108.958 115.322 108.982 115.301 108.989 115.289L109.019 115.259C109.063 115.215 109.109 115.171 109.149 115.127L109.156 115.138C109.177 115.164 109.195 115.183 109.214 115.206L109.242 115.238L109.27 115.273L109.325 115.34C109.36 115.389 109.395 115.433 109.43 115.48L109.458 115.514C109.458 115.514 109.471 115.54 109.483 115.552L109.534 115.621C109.534 115.621 109.55 115.647 109.557 115.658L109.581 115.693C109.597 115.716 109.613 115.742 109.629 115.767L109.676 115.844C109.692 115.867 109.706 115.895 109.722 115.918L109.745 115.958L109.764 115.997C109.78 116.023 109.792 116.048 109.808 116.074C109.836 116.125 109.861 116.176 109.889 116.227L109.91 116.267C109.91 116.267 109.922 116.294 109.929 116.306L109.968 116.385L109.975 116.406L109.984 116.424L109.998 116.464C110.01 116.492 110.022 116.517 110.033 116.545L110.205 116.984L110.34 117.316L110.347 117.334C110.347 117.334 110.347 117.348 110.351 117.339V117.327L110.37 117.283L110.398 117.2L110.456 117.035L110.514 116.868L110.542 116.786L110.558 116.745V116.738H110.56V116.721L110.595 116.638L110.611 116.598C110.611 116.598 110.623 116.571 110.627 116.559C110.718 116.343 110.818 116.132 110.932 115.923C111.045 115.716 111.166 115.514 111.294 115.317C111.333 115.259 111.377 115.199 111.414 115.138C111.454 115.187 111.489 115.238 111.528 115.287C111.595 115.368 111.66 115.447 111.732 115.528C111.653 115.614 111.574 115.709 111.505 115.805C111.431 115.902 111.368 116.007 111.317 116.102C111.268 116.197 111.229 116.287 111.201 116.362C111.145 116.517 111.133 116.619 111.166 116.631C111.196 116.643 111.259 116.564 111.345 116.438C111.389 116.373 111.442 116.294 111.498 116.211C111.556 116.13 111.619 116.037 111.688 115.942C111.751 115.86 111.818 115.777 111.888 115.698C111.93 115.742 111.969 115.784 112.013 115.823C112.185 115.995 112.371 116.157 112.575 116.294C112.675 116.366 112.781 116.429 112.891 116.489C112.918 116.506 112.944 116.517 112.972 116.531C112.988 116.54 113 116.545 113.016 116.552C113.03 116.559 113.041 116.564 113.058 116.571C113.113 116.596 113.171 116.624 113.229 116.643C113.346 116.687 113.464 116.721 113.58 116.754C113.701 116.782 113.821 116.805 113.944 116.821C114.065 116.838 114.188 116.844 114.311 116.844C114.432 116.844 114.555 116.838 114.678 116.826C114.799 116.81 114.919 116.789 115.04 116.759C115.161 116.726 115.277 116.687 115.39 116.638C115.418 116.626 115.449 116.615 115.476 116.603C115.493 116.596 115.504 116.591 115.52 116.585L115.562 116.564L115.606 116.545C115.606 116.545 115.632 116.529 115.648 116.524L115.688 116.501L115.706 116.489L115.727 116.478L115.764 116.452C115.764 116.452 115.78 116.445 115.785 116.441C115.792 116.438 115.801 116.434 115.804 116.429C115.832 116.41 115.859 116.394 115.883 116.373C115.934 116.334 115.98 116.294 116.027 116.25C116.117 116.164 116.203 116.074 116.28 115.969C116.3 115.942 116.319 115.918 116.335 115.89C116.354 115.863 116.37 115.835 116.386 115.805L116.398 115.781C116.398 115.781 116.405 115.765 116.409 115.756C116.409 115.749 116.416 115.742 116.421 115.733C116.421 115.726 116.428 115.716 116.428 115.705C116.428 115.698 116.433 115.686 116.437 115.677L116.444 115.649C116.444 115.649 116.444 115.631 116.449 115.619C116.449 115.607 116.449 115.593 116.449 115.586C116.449 115.582 116.449 115.575 116.449 115.57V115.524C116.449 115.524 116.44 115.503 116.437 115.491V115.475L116.428 115.463C116.428 115.463 116.416 115.429 116.409 115.412C116.4 115.396 116.393 115.38 116.386 115.366C116.377 115.35 116.37 115.333 116.363 115.317L116.351 115.294L116.342 115.282L116.335 115.271L116.324 115.25L116.307 115.231C116.307 115.231 116.289 115.203 116.28 115.192C116.217 115.104 116.147 115.029 116.073 114.957C116.147 114.885 116.217 114.806 116.28 114.725V114.704ZM108.852 115.076L108.822 115.108C108.822 115.108 108.801 115.127 108.789 115.138L108.726 115.199C108.685 115.238 108.64 115.278 108.594 115.312C108.239 115.614 107.849 115.872 107.429 116.069C107.011 116.264 106.563 116.401 106.106 116.457C106.078 116.461 106.048 116.464 106.02 116.464H105.976C105.976 116.464 105.962 116.473 105.957 116.473H105.934L105.848 116.48C105.82 116.48 105.79 116.48 105.762 116.48C105.746 116.48 105.734 116.48 105.72 116.48H105.505C105.477 116.48 105.447 116.48 105.419 116.478C105.305 116.468 105.189 116.461 105.075 116.441C104.961 116.424 104.85 116.401 104.741 116.373C104.725 116.373 104.713 116.366 104.697 116.362L104.655 116.35L104.611 116.338C104.611 116.338 104.583 116.331 104.569 116.327L104.486 116.299C104.486 116.299 104.46 116.29 104.448 116.287L104.37 116.255C104.37 116.255 104.342 116.243 104.33 116.239C104.302 116.227 104.277 116.22 104.249 116.208C104.193 116.183 104.144 116.164 104.093 116.137C104.042 116.113 103.991 116.085 103.935 116.062C103.91 116.048 103.887 116.034 103.863 116.023L103.824 116.002L103.789 115.979L103.715 115.935C103.715 115.935 103.692 115.918 103.68 115.911L103.648 115.888C103.601 115.856 103.557 115.821 103.515 115.784C103.441 115.726 103.371 115.658 103.304 115.593C103.269 115.563 103.239 115.528 103.207 115.491C103.176 115.456 103.144 115.419 103.116 115.384C103.086 115.35 103.058 115.31 103.035 115.273C103.007 115.234 102.984 115.199 102.965 115.159C102.947 115.12 102.926 115.08 102.914 115.046C102.903 115.006 102.896 114.969 102.896 114.939C102.896 114.906 102.903 114.871 102.914 114.832C102.926 114.79 102.947 114.751 102.97 114.711C103.012 114.632 103.067 114.558 103.125 114.486C103.156 114.451 103.183 114.417 103.214 114.379C103.23 114.363 103.246 114.345 103.262 114.328C103.276 114.312 103.292 114.293 103.313 114.277C103.378 114.21 103.448 114.147 103.522 114.082C103.566 114.047 103.613 114.013 103.655 113.98L103.687 113.957C103.687 113.957 103.71 113.941 103.722 113.934L103.796 113.89L103.831 113.866L103.87 113.846C103.894 113.834 103.922 113.818 103.945 113.806C103.996 113.778 104.047 113.755 104.1 113.732C104.151 113.706 104.205 113.683 104.256 113.66C104.284 113.648 104.311 113.639 104.339 113.627C104.351 113.625 104.365 113.616 104.376 113.613L104.455 113.581C104.455 113.581 104.483 113.574 104.495 113.569L104.576 113.541C104.576 113.541 104.604 113.532 104.62 113.53L104.662 113.518L104.706 113.507C104.706 113.507 104.732 113.497 104.748 113.493C104.857 113.467 104.971 113.442 105.084 113.425C105.196 113.411 105.31 113.4 105.426 113.391C105.454 113.391 105.486 113.391 105.512 113.391H105.727C105.727 113.391 105.755 113.391 105.769 113.391C105.797 113.391 105.83 113.391 105.855 113.391L105.941 113.4H105.985L106.027 113.407C106.055 113.407 106.087 113.411 106.113 113.414C106.57 113.469 107.018 113.609 107.436 113.801C107.858 113.996 108.248 114.254 108.603 114.558C108.645 114.593 108.689 114.632 108.736 114.672L108.798 114.732C108.798 114.732 108.817 114.751 108.829 114.765L108.861 114.795C108.907 114.839 108.949 114.885 108.993 114.93C108.949 114.978 108.903 115.02 108.861 115.064L108.852 115.076ZM111.099 115.183C110.966 115.384 110.841 115.591 110.725 115.805C110.607 116.018 110.502 116.236 110.409 116.461C110.4 116.478 110.398 116.489 110.388 116.506L110.374 116.547L110.34 116.631L110.33 116.652V116.663L110.242 116.438C110.228 116.41 110.217 116.383 110.205 116.355L110.186 116.311L110.179 116.29L110.17 116.271L110.131 116.188C110.131 116.188 110.119 116.16 110.112 116.148L110.094 116.109C110.066 116.053 110.038 116.002 110.008 115.946C109.991 115.918 109.975 115.895 109.964 115.867L109.917 115.788C109.901 115.76 109.887 115.737 109.871 115.709L109.824 115.631C109.808 115.603 109.792 115.579 109.773 115.554L109.75 115.514C109.75 115.514 109.734 115.491 109.722 115.475L109.671 115.401C109.671 115.401 109.653 115.377 109.643 115.366L109.618 115.329C109.581 115.278 109.543 115.231 109.509 115.183L109.448 115.113L109.423 115.076L109.39 115.041C109.372 115.018 109.351 114.992 109.332 114.969L109.309 114.941L109.332 114.913C109.351 114.89 109.372 114.867 109.39 114.844L109.423 114.806L109.448 114.772C109.469 114.748 109.488 114.725 109.509 114.7C109.543 114.653 109.581 114.605 109.618 114.553L109.643 114.519C109.643 114.519 109.664 114.495 109.671 114.484L109.722 114.407C109.722 114.407 109.738 114.384 109.75 114.368L109.773 114.328C109.789 114.305 109.808 114.277 109.824 114.254L109.871 114.175C109.887 114.147 109.901 114.122 109.917 114.096L109.94 114.054L109.964 114.015C109.98 113.987 109.996 113.964 110.008 113.936C110.033 113.88 110.066 113.829 110.094 113.774L110.112 113.734C110.112 113.734 110.128 113.706 110.131 113.695L110.17 113.613L110.179 113.593L110.186 113.574L110.205 113.53C110.217 113.502 110.233 113.474 110.242 113.446L110.33 113.221V113.228H110.335L110.342 113.251L110.377 113.335L110.393 113.379C110.393 113.379 110.405 113.407 110.412 113.423C110.507 113.648 110.611 113.866 110.73 114.08C110.846 114.293 110.971 114.498 111.103 114.7C111.157 114.783 111.212 114.862 111.27 114.941C111.212 115.02 111.157 115.104 111.103 115.183H111.099ZM111.888 115.357C111.825 115.287 111.767 115.21 111.704 115.136C111.653 115.071 111.602 115.006 111.551 114.939C111.602 114.871 111.653 114.806 111.704 114.739C111.762 114.665 111.825 114.593 111.888 114.519C112.039 114.67 112.204 114.811 112.38 114.934C112.204 115.059 112.039 115.199 111.888 115.35V115.357ZM116.096 115.317C116.096 115.317 116.112 115.34 116.119 115.35L116.131 115.366L116.143 115.38V115.389L116.156 115.396L116.168 115.412C116.168 115.412 116.18 115.436 116.182 115.445C116.187 115.456 116.194 115.468 116.198 115.475C116.198 115.487 116.205 115.496 116.21 115.507C116.217 115.528 116.217 115.547 116.217 115.559V115.598C116.217 115.598 116.21 115.61 116.205 115.614C116.198 115.635 116.191 115.658 116.18 115.677C116.168 115.702 116.156 115.721 116.14 115.744C116.124 115.767 116.108 115.788 116.094 115.812C116.027 115.9 115.948 115.983 115.866 116.062C115.825 116.102 115.78 116.137 115.739 116.171C115.715 116.188 115.695 116.204 115.671 116.22C115.667 116.22 115.66 116.227 115.655 116.232C115.653 116.232 115.644 116.239 115.641 116.243L115.606 116.267L115.585 116.278L115.567 116.29L115.532 116.311C115.532 116.311 115.509 116.322 115.493 116.331L115.453 116.35L115.414 116.371C115.414 116.371 115.386 116.383 115.374 116.39C115.349 116.401 115.326 116.413 115.298 116.422C115.191 116.464 115.086 116.501 114.977 116.529C114.868 116.557 114.754 116.575 114.641 116.591C114.529 116.608 114.416 116.612 114.302 116.612C114.188 116.612 114.077 116.603 113.963 116.591C113.849 116.575 113.735 116.557 113.626 116.529C113.517 116.501 113.408 116.468 113.304 116.424C113.248 116.406 113.199 116.383 113.148 116.357C113.137 116.355 113.12 116.345 113.109 116.338C113.097 116.331 113.081 116.327 113.069 116.318C113.046 116.306 113.018 116.294 112.995 116.278C112.893 116.222 112.795 116.164 112.703 116.102C112.515 115.969 112.336 115.821 112.171 115.658C112.129 115.614 112.087 115.57 112.043 115.528C112.21 115.361 112.394 115.206 112.589 115.076C112.793 115.203 113.007 115.31 113.234 115.394C113.464 115.48 113.701 115.54 113.944 115.57C114.186 115.603 114.434 115.607 114.68 115.57C114.926 115.54 115.165 115.475 115.395 115.377C115.509 115.329 115.618 115.273 115.727 115.21L115.764 115.187C115.764 115.187 115.78 115.18 115.785 115.176C115.792 115.171 115.801 115.166 115.804 115.164C115.832 115.143 115.859 115.127 115.883 115.108L115.899 115.097C115.968 115.166 116.038 115.238 116.096 115.317ZM112.812 114.941C112.972 114.851 113.139 114.772 113.311 114.709C113.527 114.63 113.747 114.574 113.975 114.542C114.2 114.514 114.427 114.509 114.652 114.542C114.875 114.57 115.098 114.63 115.305 114.721C115.409 114.765 115.511 114.816 115.609 114.874L115.644 114.899L115.66 114.911C115.66 114.911 115.671 114.918 115.676 114.923C115.692 114.93 115.704 114.941 115.718 114.953C115.704 114.964 115.692 114.974 115.676 114.985C115.671 114.985 115.664 114.992 115.66 114.997L115.644 115.008L115.609 115.032C115.511 115.092 115.409 115.143 115.305 115.187C115.098 115.273 114.875 115.333 114.652 115.366C114.427 115.394 114.2 115.394 113.975 115.366C113.747 115.338 113.527 115.278 113.311 115.199C113.139 115.136 112.972 115.057 112.812 114.964V114.941ZM116.096 114.565C116.038 114.644 115.973 114.716 115.899 114.788L115.883 114.776C115.859 114.755 115.832 114.737 115.804 114.721C115.797 114.716 115.792 114.711 115.785 114.709C115.776 114.704 115.769 114.7 115.764 114.697L115.727 114.672C115.62 114.609 115.509 114.553 115.395 114.507C115.168 114.407 114.926 114.345 114.68 114.312C114.434 114.282 114.188 114.284 113.944 114.312C113.701 114.345 113.459 114.403 113.234 114.491C113.011 114.574 112.793 114.681 112.589 114.806C112.394 114.676 112.21 114.523 112.043 114.356C112.085 114.312 112.129 114.27 112.171 114.226C112.336 114.064 112.515 113.913 112.703 113.783C112.795 113.716 112.893 113.655 112.995 113.604C113.018 113.593 113.046 113.576 113.069 113.565C113.081 113.558 113.097 113.553 113.109 113.546C113.12 113.537 113.137 113.532 113.148 113.525C113.199 113.502 113.253 113.479 113.304 113.458C113.408 113.418 113.517 113.384 113.626 113.356C113.735 113.328 113.849 113.307 113.963 113.293C114.077 113.277 114.188 113.272 114.302 113.272C114.416 113.272 114.529 113.277 114.641 113.293C114.754 113.305 114.864 113.328 114.977 113.356C115.086 113.384 115.196 113.418 115.298 113.463C115.326 113.474 115.349 113.486 115.374 113.493C115.386 113.497 115.402 113.507 115.414 113.514L115.453 113.532L115.493 113.553C115.493 113.553 115.516 113.565 115.532 113.574L115.567 113.593L115.585 113.604L115.606 113.616L115.641 113.639C115.641 113.639 115.653 113.648 115.655 113.653C115.66 113.653 115.667 113.66 115.671 113.664C115.695 113.681 115.715 113.695 115.739 113.711C115.78 113.748 115.825 113.783 115.866 113.822C115.948 113.897 116.027 113.98 116.094 114.071C116.108 114.096 116.124 114.115 116.14 114.138C116.156 114.161 116.168 114.182 116.18 114.205C116.191 114.229 116.198 114.249 116.205 114.27C116.205 114.273 116.205 114.282 116.21 114.284V114.324C116.21 114.324 116.21 114.356 116.21 114.377C116.21 114.389 116.203 114.396 116.198 114.407C116.194 114.419 116.191 114.43 116.182 114.44C116.18 114.451 116.17 114.463 116.168 114.47L116.156 114.486V114.495L116.143 114.502L116.119 114.535C116.119 114.535 116.105 114.558 116.096 114.565Z" fill="#AF9146"/>
<path d="M125.745 114.776C125.687 114.67 125.578 114.593 125.443 114.593C125.311 114.593 125.202 114.665 125.144 114.776H123.918C123.856 114.63 123.716 114.53 123.549 114.53C123.326 114.53 123.143 114.711 123.143 114.941C123.143 115.171 123.322 115.354 123.549 115.354C123.712 115.354 123.856 115.25 123.918 115.108H125.144C125.202 115.215 125.311 115.289 125.443 115.289C125.578 115.289 125.687 115.22 125.745 115.108H190V114.779H125.745V114.776Z" fill="#AF9146"/>
<path d="M119.143 115.473C119.378 115.215 119.687 115.025 120.032 114.941C119.687 114.858 119.378 114.67 119.143 114.412C119.03 114.633 116.864 114.818 116.651 114.941C116.864 115.064 119.03 115.25 119.143 115.473Z" fill="#AF9146"/>
<path d="M123.452 115.784L123.424 115.749L123.415 115.742L123.408 115.733L123.391 115.714L123.373 115.693L123.35 115.67L123.306 115.621L123.248 115.563L123.241 115.554L123.201 115.515C123.201 115.515 123.183 115.496 123.173 115.487L123.143 115.461C123.143 115.461 123.122 115.44 123.111 115.433L123.08 115.406L123.073 115.396L123.064 115.389L123.048 115.373L122.978 115.317L122.96 115.301L122.95 115.294L122.943 115.287L122.904 115.259C122.904 115.259 122.892 115.25 122.885 115.243L122.865 115.227L122.827 115.199C122.827 115.199 122.8 115.18 122.783 115.171C122.755 115.153 122.725 115.136 122.697 115.115L122.686 115.108L122.674 115.099L122.628 115.076L122.616 115.069L122.605 115.06L122.558 115.036L122.547 115.03L122.535 115.02L122.509 115.009L122.486 114.997L122.475 114.99H122.463L122.412 114.962H122.4L122.389 114.951L122.366 114.939H122.359L122.366 114.93L122.389 114.918H122.4L122.412 114.906L122.463 114.883H122.475L122.486 114.872L122.509 114.858L122.535 114.846L122.558 114.832L122.605 114.807L122.616 114.8L122.628 114.79L122.674 114.767L122.686 114.76L122.697 114.751C122.73 114.732 122.755 114.716 122.783 114.698C122.8 114.688 122.811 114.677 122.827 114.67L122.865 114.642L122.885 114.626L122.904 114.609L122.943 114.582L122.96 114.565L122.978 114.551L123.048 114.496L123.08 114.463L123.111 114.435C123.111 114.435 123.132 114.417 123.143 114.407L123.173 114.38C123.173 114.38 123.194 114.361 123.201 114.352L123.248 114.305L123.255 114.296L123.306 114.245L123.35 114.199L123.373 114.175L123.391 114.154L123.408 114.136L123.415 114.127L123.424 114.12L123.452 114.082C123.452 114.082 123.466 114.064 123.475 114.052L123.517 113.997L123.463 114.041C123.463 114.041 123.443 114.055 123.431 114.064L123.396 114.092L123.385 114.099L123.373 114.108L123.35 114.122L123.326 114.138L123.315 114.147L123.303 114.154L123.248 114.189L123.19 114.226H123.183L123.173 114.233L123.157 114.243L123.127 114.261C123.127 114.261 123.104 114.273 123.092 114.282L123.057 114.301C123.057 114.301 123.034 114.312 123.022 114.322L122.988 114.34H122.978L122.971 114.349L122.95 114.356L122.913 114.377L122.874 114.396L122.853 114.403H122.841L122.83 114.412L122.767 114.44L122.749 114.447L122.707 114.463C122.707 114.463 122.679 114.475 122.663 114.479C122.635 114.491 122.605 114.498 122.572 114.51H122.56L122.549 114.519L122.526 114.526L122.502 114.535H122.491L122.479 114.542L122.433 114.558H122.421L122.41 114.565L122.386 114.575L122.363 114.582H122.352L122.34 114.591L122.291 114.602H122.268L122.245 114.614H122.222L122.21 114.621H122.198L122.152 114.633H122.129L122.106 114.642C122.073 114.649 122.043 114.653 122.01 114.658C121.948 114.67 121.887 114.677 121.825 114.681C121.792 114.681 121.762 114.688 121.73 114.688C121.723 114.688 121.716 114.688 121.706 114.688H121.641C121.521 114.7 121.407 114.705 121.305 114.705C121.2 114.705 121.087 114.705 120.97 114.693H120.903C120.903 114.693 120.887 114.684 120.88 114.684C120.847 114.684 120.817 114.681 120.787 114.677C120.724 114.67 120.662 114.66 120.599 114.653C120.567 114.649 120.536 114.642 120.506 114.637H120.483L120.469 114.63H120.458L120.411 114.616H120.388L120.365 114.605H120.341L120.33 114.598H120.318L120.272 114.582H120.26L120.249 114.575L120.225 114.565L120.2 114.558H120.188L120.177 114.551L120.13 114.535H120.119L120.107 114.526L120.084 114.519L120.061 114.51H120.049L120.037 114.503C120.005 114.491 119.979 114.484 119.947 114.47C119.933 114.468 119.919 114.459 119.905 114.456L119.861 114.44L119.842 114.431L119.822 114.424L119.78 114.403H119.768L119.757 114.396L119.736 114.389L119.698 114.368L119.659 114.349L119.638 114.34H119.631L119.624 114.333L119.589 114.312C119.589 114.312 119.566 114.301 119.555 114.294L119.517 114.273C119.517 114.273 119.494 114.261 119.483 114.254L119.452 114.233L119.436 114.226H119.429L119.42 114.217L119.362 114.182L119.309 114.147L119.297 114.138L119.285 114.131L119.26 114.115L119.237 114.099L119.225 114.092L119.179 114.055C119.179 114.055 119.155 114.041 119.148 114.031L119.093 113.987L119.137 114.043C119.137 114.043 119.151 114.064 119.16 114.071L119.188 114.108L119.202 114.122L119.218 114.143L119.237 114.161L119.248 114.175L119.26 114.187L119.304 114.233L119.355 114.284L119.362 114.294L119.371 114.301L119.383 114.312L119.408 114.34C119.408 114.34 119.429 114.361 119.436 114.368L119.469 114.396C119.469 114.396 119.487 114.417 119.499 114.424L119.529 114.452L119.538 114.459L119.545 114.468L119.562 114.484L119.596 114.51L119.631 114.537L119.652 114.554L119.659 114.563L119.666 114.57L119.705 114.598L119.724 114.614L119.745 114.63L119.784 114.658C119.784 114.658 119.81 114.677 119.826 114.684C119.854 114.705 119.884 114.721 119.912 114.739L119.924 114.749L119.935 114.756L119.982 114.779L119.993 114.788L120.005 114.795L120.054 114.818L120.065 114.828L120.077 114.835L120.123 114.858L120.135 114.867H120.146L120.198 114.895H120.209L120.221 114.906L120.244 114.918H120.251L120.244 114.925L120.221 114.939H120.209L120.198 114.951L120.146 114.974H120.135L120.123 114.985L120.077 115.009L120.065 115.018L120.054 115.025L120.005 115.048L119.993 115.057L119.982 115.064L119.935 115.088L119.924 115.097L119.912 115.104C119.882 115.125 119.854 115.139 119.826 115.16C119.81 115.166 119.798 115.18 119.784 115.187L119.745 115.215L119.724 115.231L119.705 115.245L119.666 115.273L119.659 115.283L119.652 115.289L119.631 115.306L119.562 115.361L119.529 115.394L119.499 115.419C119.499 115.419 119.48 115.44 119.469 115.447L119.436 115.475C119.436 115.475 119.418 115.496 119.408 115.503L119.383 115.531L119.304 115.61L119.26 115.659L119.237 115.682L119.218 115.703L119.202 115.721L119.195 115.728L119.188 115.737L119.16 115.772C119.16 115.772 119.144 115.793 119.137 115.8L119.093 115.856L119.148 115.812C119.148 115.812 119.167 115.796 119.179 115.789L119.213 115.761L119.225 115.754L119.237 115.744L119.26 115.728L119.285 115.714L119.297 115.705L119.309 115.698L119.362 115.661L119.42 115.626H119.429L119.436 115.619L119.452 115.61L119.483 115.591C119.483 115.591 119.506 115.58 119.517 115.57L119.555 115.552C119.555 115.552 119.578 115.54 119.589 115.531L119.624 115.512H119.631L119.638 115.503L119.659 115.496L119.698 115.475L119.736 115.457L119.757 115.447H119.768L119.78 115.44L119.822 115.419L119.842 115.413L119.861 115.406L119.905 115.389C119.905 115.389 119.933 115.378 119.947 115.373C119.975 115.361 120.005 115.354 120.037 115.341H120.049L120.061 115.334L120.084 115.327L120.107 115.317H120.119L120.13 115.31L120.177 115.294H120.188L120.2 115.287L120.225 115.278L120.249 115.271H120.26L120.272 115.262L120.318 115.25H120.341L120.365 115.238H120.388L120.399 115.231H120.411L120.458 115.22H120.483L120.506 115.211C120.536 115.204 120.567 115.199 120.599 115.194C120.662 115.183 120.724 115.176 120.787 115.171C120.817 115.171 120.847 115.164 120.88 115.164C120.887 115.164 120.896 115.164 120.903 115.164H120.97C121.091 115.153 121.203 115.148 121.305 115.148C121.412 115.148 121.523 115.148 121.641 115.16H121.706C121.706 115.16 121.723 115.166 121.73 115.166C121.762 115.166 121.792 115.171 121.825 115.176C121.887 115.183 121.948 115.192 122.01 115.199C122.043 115.204 122.073 115.211 122.106 115.215H122.129L122.14 115.222H122.152L122.198 115.234H122.222L122.245 115.245H122.268L122.28 115.255H122.291L122.34 115.271H122.352L122.363 115.278L122.386 115.287L122.41 115.294H122.421L122.433 115.301L122.479 115.317H122.491L122.502 115.327L122.549 115.341H122.56L122.572 115.35C122.605 115.361 122.632 115.368 122.663 115.38C122.679 115.385 122.69 115.394 122.707 115.396L122.749 115.413L122.767 115.419L122.83 115.447H122.841L122.853 115.457L122.874 115.464L122.913 115.484L122.95 115.503L122.971 115.512H122.978L122.988 115.519L123.022 115.54C123.022 115.54 123.046 115.552 123.057 115.559L123.092 115.58C123.092 115.58 123.115 115.591 123.127 115.598L123.157 115.619L123.173 115.626H123.183L123.19 115.635L123.248 115.67L123.303 115.705L123.315 115.714L123.326 115.721L123.373 115.754L123.396 115.768L123.431 115.796C123.431 115.796 123.454 115.812 123.463 115.821L123.517 115.863L123.475 115.809C123.475 115.809 123.459 115.789 123.452 115.777V115.784Z" fill="#AF9146"/>
<mask id="mask0_472_32" style="mask-type:luminance" maskUnits="userSpaceOnUse" x="93" y="108" width="8" height="6">
<path d="M93.7266 108.932H100.263V113.825H93.7266V108.932Z" fill="white"/>
</mask>
<g mask="url(#mask0_472_32)">
<path d="M94.1727 110.559L94.1797 110.617L94.1867 110.677V110.705L94.1983 110.733L94.2261 110.851C94.2377 110.891 94.2447 110.925 94.2563 110.965L94.2656 110.993C94.2656 110.993 94.2702 111.014 94.2726 111.021L94.2934 111.076L94.312 111.132C94.312 111.132 94.319 111.151 94.3236 111.16L94.3352 111.188L94.3793 111.297C94.3933 111.334 94.4095 111.369 94.4281 111.406L94.4397 111.431C94.4397 111.431 94.449 111.452 94.4536 111.459L94.4791 111.513L94.507 111.564C94.507 111.564 94.514 111.578 94.5232 111.592L94.5372 111.619L94.5975 111.722C94.6161 111.756 94.6393 111.789 94.6625 111.819C94.6741 111.835 94.6834 111.852 94.6973 111.868L94.7345 111.914L94.7693 111.963C94.7693 111.963 94.7809 111.979 94.7879 111.986L94.8064 112.009L94.8807 112.1C94.9086 112.132 94.9364 112.16 94.9596 112.188C95.0687 112.302 95.1825 112.413 95.3032 112.513C95.3194 112.525 95.3333 112.536 95.3496 112.548L95.396 112.583L95.4424 112.62C95.4424 112.62 95.4749 112.643 95.4912 112.655L95.5887 112.722C95.5887 112.722 95.6188 112.743 95.6374 112.755L95.6885 112.785L95.7395 112.817C95.7395 112.817 95.7744 112.838 95.7906 112.845C95.8254 112.864 95.8579 112.884 95.8927 112.903C95.9624 112.94 96.0297 112.98 96.1016 113.01C96.1736 113.047 96.2432 113.075 96.3175 113.105C96.3523 113.121 96.3918 113.133 96.4266 113.149L96.4823 113.17L96.5357 113.189H96.5427C96.61 113.216 96.6773 113.237 96.7423 113.256C96.8212 113.279 96.9025 113.305 96.9814 113.323L97.0928 113.351C97.1323 113.358 97.1671 113.367 97.2065 113.379L97.2622 113.391C97.2622 113.391 97.2994 113.4 97.3203 113.402L97.434 113.425C97.7381 113.481 98.0445 113.518 98.3532 113.53C98.4321 113.532 98.5064 113.532 98.583 113.537C98.6619 113.537 98.7362 113.537 98.8151 113.537C98.966 113.537 99.1215 113.53 99.2747 113.518C99.4302 113.507 99.5718 113.479 99.6693 113.446C99.7668 113.414 99.8248 113.379 99.8202 113.351C99.8179 113.323 99.7505 113.305 99.6484 113.3C99.5486 113.293 99.4117 113.3 99.2585 113.307C99.1099 113.319 98.959 113.328 98.8105 113.328C98.7362 113.328 98.6619 113.328 98.583 113.328C98.5087 113.328 98.4368 113.328 98.3578 113.319C98.0584 113.307 97.7613 113.272 97.4642 113.221L97.3551 113.2C97.3551 113.2 97.3203 113.193 97.2994 113.189L97.246 113.177C97.2112 113.17 97.1717 113.161 97.1369 113.154L97.0278 113.126C96.9582 113.105 96.8862 113.086 96.8119 113.066C96.8235 113.035 96.8351 113.008 96.8444 112.98L96.8792 112.864C96.8792 112.864 96.8908 112.824 96.8955 112.81L96.9094 112.755C96.9094 112.755 96.921 112.715 96.9257 112.699L96.9419 112.638C96.9489 112.599 96.9605 112.564 96.9698 112.525L96.993 112.409L97.0116 112.29C97.0348 112.132 97.0464 111.975 97.051 111.817C97.051 111.659 97.044 111.499 97.0232 111.341L97.0069 111.223C96.9999 111.183 96.993 111.144 96.9837 111.104C96.9767 111.065 96.9698 111.025 96.9582 110.99C96.9489 110.949 96.9373 110.909 96.9257 110.874C96.8839 110.721 96.8282 110.57 96.7632 110.429C96.7307 110.352 96.6912 110.285 96.6564 110.213L96.5984 110.111L96.5821 110.083L96.5659 110.06L96.5357 110.009C96.3639 109.744 96.1457 109.505 95.8927 109.308C95.8602 109.284 95.8301 109.261 95.7952 109.236C95.7628 109.212 95.7279 109.194 95.6978 109.171C95.6304 109.126 95.5608 109.087 95.4865 109.05C95.4123 109.015 95.338 108.987 95.2567 108.964C95.1732 108.941 95.0919 108.929 95.006 108.929C94.9202 108.929 94.832 108.941 94.7461 108.971C94.6602 108.999 94.5813 109.048 94.514 109.106C94.449 109.166 94.3933 109.233 94.3468 109.303C94.305 109.375 94.2702 109.454 94.2377 109.533C94.2099 109.612 94.1867 109.691 94.1751 109.772C94.1681 109.811 94.1588 109.851 94.1565 109.892C94.1519 109.932 94.1472 109.974 94.1449 110.013C94.1333 110.171 94.1356 110.334 94.1565 110.494C94.1565 110.515 94.1565 110.535 94.1635 110.554L94.1727 110.559ZM94.3584 110.032C94.3584 109.997 94.3631 109.957 94.3677 109.92C94.37 109.886 94.3747 109.851 94.3816 109.814C94.3933 109.744 94.4141 109.677 94.4374 109.609C94.4606 109.542 94.4907 109.477 94.5256 109.419C94.5627 109.359 94.6045 109.308 94.6509 109.268C94.7484 109.182 94.8691 109.143 95.0014 109.143C95.136 109.143 95.2683 109.185 95.396 109.245C95.4587 109.277 95.526 109.312 95.584 109.352C95.6142 109.37 95.6467 109.391 95.6745 109.41C95.7047 109.431 95.7326 109.454 95.7628 109.475C95.9926 109.651 96.1968 109.874 96.357 110.122L96.3872 110.171L96.4196 110.217L96.473 110.313C96.5079 110.38 96.5427 110.443 96.5705 110.51C96.6332 110.645 96.6843 110.784 96.7237 110.93C96.7353 110.965 96.7423 111.002 96.7493 111.037C96.7585 111.072 96.7701 111.109 96.7748 111.144C96.7818 111.178 96.7887 111.216 96.7934 111.255L96.8096 111.364C96.8282 111.513 96.8351 111.661 96.8328 111.812C96.8328 111.963 96.8166 112.109 96.798 112.26L96.7771 112.369L96.7539 112.481C96.7469 112.515 96.7376 112.553 96.7307 112.592L96.7191 112.648C96.7191 112.648 96.7075 112.683 96.7028 112.703L96.6889 112.757C96.6889 112.757 96.6773 112.794 96.6727 112.813L96.6378 112.919C96.6262 112.952 96.6146 112.984 96.603 113.01L96.5868 113.003L96.5357 112.984L96.4846 112.963C96.4498 112.952 96.415 112.936 96.3802 112.924C96.3129 112.891 96.2432 112.864 96.1759 112.833C96.1109 112.801 96.0436 112.766 95.9786 112.734C95.9461 112.715 95.9113 112.699 95.8811 112.678C95.8649 112.671 95.8486 112.659 95.8324 112.65L95.786 112.622L95.7395 112.597C95.7395 112.597 95.7094 112.576 95.6931 112.564L95.6026 112.502C95.6026 112.502 95.5724 112.481 95.5608 112.469L95.5167 112.437L95.4749 112.406C95.4749 112.406 95.4471 112.381 95.4308 112.369C95.3148 112.279 95.2103 112.177 95.1082 112.065C95.085 112.037 95.0571 112.009 95.0339 111.982L94.9643 111.896L94.948 111.875C94.948 111.875 94.9364 111.861 94.9318 111.852L94.9016 111.807L94.8691 111.766C94.8691 111.766 94.8505 111.733 94.8389 111.717C94.8204 111.687 94.7995 111.654 94.7763 111.622L94.7205 111.527L94.7066 111.503C94.7066 111.503 94.6973 111.487 94.695 111.48L94.6672 111.431L94.6393 111.385C94.6393 111.385 94.6323 111.369 94.6277 111.362L94.6161 111.339C94.5998 111.301 94.5859 111.271 94.5697 111.234L94.5256 111.132L94.514 111.104C94.514 111.104 94.507 111.088 94.507 111.076L94.4884 111.025L94.4675 110.974C94.4675 110.974 94.4652 110.958 94.4606 110.946L94.4536 110.918C94.4443 110.884 94.4327 110.846 94.4211 110.812L94.3979 110.705L94.3909 110.677V110.649L94.3793 110.593L94.37 110.538C94.37 110.538 94.3677 110.503 94.3631 110.482C94.3422 110.336 94.3422 110.187 94.3515 110.039L94.3584 110.032Z" fill="#AF9146"/>
</g>
<path d="M96.7418 118.922C96.6954 118.766 96.6373 118.62 96.57 118.479C96.5004 118.337 96.4261 118.198 96.3356 118.063C96.2497 117.933 96.1522 117.805 96.0478 117.687C96.0199 117.659 95.9967 117.629 95.9665 117.601C95.9503 117.585 95.9387 117.573 95.9224 117.557L95.8806 117.518L95.8365 117.478C95.8365 117.478 95.8203 117.467 95.8133 117.457L95.7901 117.439L95.6996 117.36C95.5766 117.26 95.4466 117.169 95.3143 117.086L95.2121 117.025C95.2121 117.025 95.1773 117.007 95.1611 117L95.1123 116.972C95.1123 116.972 95.0752 116.951 95.0613 116.944L95.0056 116.919L94.9522 116.895L94.8965 116.872L94.7874 116.826L94.6783 116.782C94.6435 116.766 94.604 116.754 94.5692 116.742C94.5344 116.731 94.4949 116.714 94.4601 116.703C94.4392 116.694 94.4206 116.691 94.3974 116.682C94.3301 116.663 94.2651 116.642 94.1978 116.624C94.1351 116.608 94.0724 116.591 94.0144 116.575C93.975 116.568 93.9401 116.557 93.903 116.547L93.6755 116.501L93.6221 116.489L93.5618 116.478C93.4109 116.45 93.2577 116.424 93.1068 116.406L92.9931 116.389C92.9536 116.385 92.9142 116.383 92.8794 116.378C92.8028 116.371 92.7285 116.366 92.6496 116.357C92.3408 116.338 92.0321 116.334 91.7257 116.35C91.6468 116.35 91.5725 116.366 91.5075 116.373C91.4402 116.385 91.3822 116.401 91.3311 116.417C91.2336 116.45 91.1756 116.485 91.1779 116.513C91.1826 116.54 91.2499 116.559 91.3497 116.564C91.4008 116.568 91.4588 116.568 91.5261 116.564C91.5934 116.564 91.6631 116.559 91.7397 116.557C92.0414 116.536 92.3385 116.54 92.6379 116.564C92.7122 116.571 92.7865 116.575 92.8608 116.584C92.9002 116.584 92.9351 116.591 92.9745 116.596L93.0859 116.608C93.2345 116.626 93.383 116.652 93.5316 116.677L93.585 116.691L93.6407 116.703L93.8589 116.749C93.8937 116.759 93.9332 116.766 93.968 116.777C94.0237 116.789 94.0771 116.805 94.1281 116.821C94.098 116.919 94.0655 117.019 94.0423 117.118C94.0353 117.158 94.026 117.197 94.0144 117.232C94.0121 117.253 94.0074 117.272 94.0028 117.292L93.9912 117.35L93.9796 117.411C93.9796 117.411 93.9726 117.45 93.9726 117.469L93.9564 117.59C93.9378 117.747 93.9285 117.905 93.9285 118.063C93.9285 118.379 93.975 118.697 94.0585 119.005C94.1444 119.31 94.2721 119.607 94.4438 119.871C94.6156 120.141 94.8338 120.377 95.0845 120.572C95.1007 120.584 95.1147 120.595 95.1309 120.607L95.1773 120.642C95.1773 120.642 95.2098 120.667 95.2284 120.674L95.2795 120.707C95.3444 120.749 95.4164 120.788 95.4907 120.825C95.565 120.86 95.6416 120.888 95.7205 120.911C95.7971 120.934 95.883 120.948 95.9688 120.951C96.0547 120.951 96.1453 120.944 96.2311 120.916L96.2613 120.904C96.2613 120.904 96.2822 120.895 96.2938 120.893L96.3101 120.883L96.324 120.876C96.324 120.876 96.3449 120.865 96.3565 120.86C96.3959 120.837 96.4308 120.814 96.4656 120.781C96.5004 120.753 96.5283 120.721 96.5584 120.686C96.5863 120.653 96.6141 120.619 96.6327 120.584C96.6559 120.547 96.6768 120.507 96.6954 120.472C96.7 120.465 96.7023 120.454 96.707 120.445C96.7116 120.438 96.7139 120.426 96.7186 120.417L96.7302 120.387C96.7302 120.387 96.7372 120.366 96.7372 120.359C96.7882 120.203 96.823 120.045 96.8393 119.883C96.8555 119.72 96.8509 119.558 96.8323 119.4C96.8114 119.242 96.7813 119.084 96.7348 118.929L96.7418 118.922ZM96.5538 120.282C96.5538 120.282 96.5515 120.298 96.5468 120.305L96.5399 120.331C96.5399 120.331 96.5306 120.345 96.5283 120.354C96.5283 120.361 96.519 120.37 96.5166 120.377C96.5004 120.41 96.4842 120.438 96.4679 120.468C96.4493 120.496 96.4308 120.524 96.4099 120.547C96.3913 120.575 96.3681 120.595 96.3402 120.619C96.317 120.64 96.2892 120.658 96.2613 120.674L96.2427 120.686H96.2311L96.2195 120.698L96.1986 120.707L96.1754 120.714C96.1174 120.735 96.0547 120.742 95.9897 120.737C95.9224 120.737 95.8574 120.721 95.7855 120.707C95.7205 120.686 95.6532 120.663 95.5882 120.63C95.5255 120.6 95.4628 120.563 95.4002 120.528L95.3537 120.496C95.3537 120.496 95.3212 120.477 95.3073 120.465L95.2632 120.433C95.2632 120.433 95.233 120.412 95.2214 120.4C94.987 120.224 94.7874 120.001 94.6272 119.753C94.467 119.502 94.3463 119.231 94.2697 118.94C94.1908 118.653 94.1467 118.356 94.1444 118.056C94.1444 117.905 94.1514 117.754 94.1676 117.608L94.1839 117.497C94.1839 117.497 94.1862 117.462 94.1908 117.441L94.2024 117.388L94.2094 117.332C94.2094 117.332 94.2187 117.295 94.221 117.276L94.2442 117.165C94.2697 117.067 94.2999 116.972 94.3301 116.877C94.3533 116.884 94.3788 116.893 94.402 116.9C94.4369 116.912 94.4717 116.923 94.5065 116.935C94.5413 116.947 94.5761 116.96 94.611 116.974L94.7177 117.014L94.8199 117.058L94.8454 117.07L94.9197 117.107L94.9707 117.13C94.9707 117.13 95.0032 117.146 95.0218 117.153L95.0729 117.176C95.0729 117.176 95.103 117.193 95.1239 117.204L95.2214 117.26C95.3444 117.334 95.4675 117.422 95.5835 117.513L95.6648 117.585L95.6857 117.603C95.6857 117.603 95.6973 117.615 95.7042 117.624L95.7832 117.703C95.7832 117.703 95.8087 117.731 95.8203 117.743C95.8481 117.771 95.8714 117.798 95.8946 117.826C95.9921 117.938 96.0826 118.056 96.1638 118.177C96.2474 118.3 96.3217 118.432 96.382 118.567C96.512 118.834 96.6025 119.119 96.6373 119.412C96.6722 119.704 96.649 120.001 96.5538 120.28V120.282Z" fill="#AF9146"/>
<path d="M91.2964 116.271H91.3243L91.3498 116.26L91.4682 116.232C91.5076 116.22 91.5425 116.211 91.5796 116.199L91.6075 116.192C91.6075 116.192 91.6283 116.188 91.6353 116.183L91.691 116.165L91.7444 116.144C91.7444 116.144 91.763 116.137 91.7723 116.132L91.8001 116.12L91.9092 116.076C91.944 116.062 91.9788 116.046 92.0137 116.025L92.0415 116.014C92.0415 116.014 92.0601 116.007 92.0694 116.002L92.1181 115.974L92.1692 115.946C92.1692 115.946 92.1854 115.939 92.197 115.93L92.2202 115.916L92.3224 115.856C92.3526 115.835 92.3874 115.812 92.4199 115.788C92.4361 115.777 92.45 115.768 92.4663 115.754L92.5127 115.717L92.5591 115.682L92.5823 115.661L92.6079 115.642L92.6961 115.568C92.7286 115.54 92.7541 115.512 92.782 115.487C92.8957 115.378 93.0048 115.262 93.1023 115.139C93.1139 115.125 93.1255 115.108 93.1418 115.092L93.1766 115.046L93.2114 114.997C93.2114 114.997 93.2346 114.964 93.2462 114.951L93.3135 114.851C93.3135 114.851 93.3321 114.818 93.3437 114.8L93.3762 114.749L93.4064 114.698C93.4064 114.698 93.4249 114.66 93.4342 114.644C93.4528 114.609 93.4737 114.577 93.4923 114.542C93.5271 114.47 93.5665 114.403 93.5967 114.328C93.6338 114.256 93.6594 114.187 93.6919 114.11C93.7058 114.075 93.7197 114.036 93.7337 114.001L93.7545 113.945L93.7731 113.89V113.88C93.801 113.813 93.8195 113.748 93.8428 113.681C93.866 113.6 93.8892 113.518 93.9101 113.439L93.9379 113.323C93.9449 113.284 93.9518 113.249 93.9635 113.21L93.9751 113.154C93.9751 113.154 93.9843 113.114 93.989 113.094L94.0122 112.98C94.0656 112.671 94.1004 112.358 94.112 112.047C94.1167 111.968 94.1167 111.891 94.1213 111.812C94.1213 111.733 94.1213 111.659 94.1213 111.578C94.1213 111.425 94.112 111.267 94.1004 111.111C94.0888 110.953 94.0609 110.812 94.0308 110.712C94.0006 110.615 93.9635 110.554 93.9379 110.559C93.9101 110.561 93.8892 110.628 93.8869 110.733C93.8776 110.835 93.8869 110.974 93.8938 111.128C93.9054 111.278 93.9147 111.432 93.9147 111.582C93.9147 111.659 93.9147 111.733 93.9147 111.812C93.9147 111.887 93.9147 111.963 93.9054 112.042C93.8938 112.346 93.859 112.648 93.8079 112.947L93.7894 113.059C93.7894 113.059 93.7801 113.094 93.7778 113.114L93.7662 113.17C93.7569 113.205 93.7499 113.244 93.7429 113.279L93.7151 113.391C93.6942 113.463 93.6756 113.532 93.6571 113.609C93.6246 113.597 93.5967 113.586 93.5712 113.576L93.4574 113.542C93.4574 113.542 93.418 113.53 93.4017 113.525L93.3483 113.509C93.3483 113.509 93.3089 113.497 93.2926 113.493L93.2346 113.479C93.1951 113.47 93.1603 113.458 93.1209 113.451L93.0094 113.426L92.8911 113.407C92.7355 113.384 92.58 113.372 92.4245 113.367C92.2667 113.367 92.1111 113.374 91.9556 113.395L91.8372 113.412C91.8001 113.419 91.7606 113.426 91.7212 113.435C91.6817 113.442 91.6423 113.451 91.6075 113.463C91.568 113.47 91.5309 113.481 91.496 113.493C91.3428 113.537 91.1943 113.593 91.055 113.66C90.9831 113.692 90.9134 113.732 90.8438 113.767L90.7417 113.827L90.7138 113.841L90.6906 113.857L90.6395 113.89C90.3795 114.064 90.1451 114.284 89.9501 114.542C89.9269 114.574 89.9037 114.605 89.8805 114.642C89.8573 114.672 89.8364 114.709 89.8132 114.739C89.7714 114.807 89.7319 114.879 89.6971 114.953C89.6623 115.029 89.6344 115.104 89.6112 115.187C89.588 115.271 89.5764 115.354 89.5764 115.44C89.5764 115.528 89.588 115.619 89.6182 115.705C89.6461 115.793 89.6925 115.872 89.7505 115.939C89.8085 116.007 89.8758 116.062 89.9455 116.109C90.0174 116.153 90.094 116.188 90.173 116.22C90.2496 116.248 90.3285 116.267 90.4074 116.283C90.4445 116.29 90.484 116.299 90.5281 116.304C90.5676 116.306 90.6047 116.311 90.6442 116.315C90.7997 116.327 90.9598 116.322 91.1154 116.304C91.1363 116.304 91.1548 116.304 91.1757 116.294L91.2337 116.288L91.2918 116.278L91.2964 116.271ZM91.1525 116.081C91.1525 116.081 91.1154 116.086 91.0968 116.09C90.9529 116.109 90.8043 116.109 90.6604 116.102C90.6256 116.102 90.5861 116.097 90.5513 116.093C90.5165 116.09 90.4817 116.086 90.4445 116.076C90.3749 116.065 90.3099 116.046 90.2426 116.023C90.1753 115.997 90.1149 115.967 90.0546 115.93C89.9966 115.895 89.9455 115.851 89.906 115.805C89.8201 115.705 89.783 115.582 89.783 115.447C89.783 115.313 89.8248 115.18 89.8828 115.048C89.9153 114.981 89.9501 114.918 89.9896 114.858C90.0082 114.828 90.029 114.795 90.0476 114.767C90.0662 114.737 90.0894 114.709 90.1103 114.677C90.289 114.442 90.5049 114.238 90.7486 114.075L90.7974 114.043L90.8206 114.029L90.8438 114.013L90.9366 113.957C91.0039 113.922 91.0666 113.885 91.1316 113.857C91.2639 113.795 91.4009 113.744 91.5448 113.704C91.5796 113.692 91.6167 113.683 91.6516 113.676C91.6864 113.667 91.7212 113.655 91.756 113.653C91.7908 113.644 91.8256 113.637 91.8651 113.632L91.9742 113.616C92.1181 113.597 92.2667 113.588 92.4152 113.593C92.5638 113.593 92.7077 113.609 92.8562 113.627L92.9653 113.648L93.0744 113.672C93.1093 113.681 93.1441 113.688 93.1835 113.695L93.2392 113.706C93.2392 113.706 93.2741 113.72 93.2926 113.723L93.3483 113.739C93.3483 113.739 93.3832 113.75 93.4017 113.755L93.5085 113.79C93.5387 113.802 93.5712 113.813 93.5967 113.827L93.5897 113.841L93.5712 113.894L93.5503 113.945C93.5387 113.98 93.5224 114.015 93.5108 114.052C93.4806 114.12 93.4528 114.189 93.4226 114.256C93.3901 114.324 93.3553 114.391 93.3251 114.458C93.3042 114.491 93.2903 114.526 93.2694 114.558C93.2625 114.574 93.2508 114.591 93.2416 114.605L93.2114 114.653L93.1835 114.7C93.1835 114.7 93.165 114.732 93.1534 114.749L93.0907 114.839C93.0907 114.839 93.0721 114.872 93.0582 114.886L92.9978 114.974C92.9978 114.974 92.9746 115.002 92.9607 115.018C92.8725 115.136 92.7704 115.243 92.6613 115.345C92.6334 115.368 92.6079 115.396 92.58 115.419L92.4941 115.491L92.4733 115.508C92.4733 115.508 92.4593 115.519 92.45 115.524L92.4083 115.554L92.3642 115.587C92.3642 115.587 92.334 115.607 92.3177 115.619C92.2876 115.638 92.2551 115.661 92.2249 115.682L92.1297 115.737L92.1065 115.754C92.1065 115.754 92.0926 115.761 92.0833 115.765L91.9904 115.821C91.9904 115.821 91.9742 115.828 91.9672 115.833L91.944 115.844C91.9092 115.86 91.8767 115.874 91.8419 115.891L91.7398 115.935L91.7142 115.946C91.7142 115.946 91.698 115.956 91.6864 115.956L91.6353 115.974L91.5842 115.995C91.5842 115.995 91.5657 115.997 91.5564 116.002L91.5309 116.009C91.4937 116.018 91.4589 116.03 91.4241 116.041L91.3196 116.065L91.2918 116.074H91.2639L91.2105 116.086L91.1548 116.093L91.1525 116.081Z" fill="#AF9146"/>
<path d="M101.377 114.154C101.377 114.154 101.368 114.136 101.366 114.122L101.356 114.108L101.349 114.092C101.349 114.092 101.338 114.071 101.333 114.059C101.31 114.02 101.287 113.985 101.256 113.948C101.229 113.918 101.198 113.885 101.161 113.855C101.131 113.827 101.096 113.799 101.061 113.778C101.027 113.755 100.987 113.734 100.952 113.716C100.943 113.711 100.931 113.706 100.924 113.704C100.918 113.699 100.904 113.695 100.897 113.693L100.866 113.681C100.866 113.681 100.846 113.672 100.839 113.672C100.685 113.621 100.53 113.586 100.37 113.57C100.21 113.553 100.049 113.558 99.8939 113.576C99.7384 113.597 99.5828 113.628 99.4296 113.676C99.2788 113.723 99.1325 113.783 98.9933 113.85C98.8517 113.922 98.717 113.997 98.5824 114.087C98.4547 114.175 98.3294 114.273 98.2133 114.38C98.1855 114.407 98.1553 114.431 98.1275 114.463C98.1112 114.479 98.0996 114.491 98.0834 114.507L98.0439 114.551L98.0068 114.593C98.0068 114.593 97.9905 114.609 97.9859 114.616L97.9673 114.642L97.8884 114.732C97.7909 114.858 97.7027 114.99 97.6191 115.125L97.5611 115.227C97.5611 115.227 97.5425 115.262 97.5332 115.278L97.5077 115.329C97.5077 115.329 97.4868 115.366 97.4798 115.38L97.4102 115.547L97.3615 115.659L97.3197 115.768C97.3034 115.805 97.2918 115.844 97.2802 115.879C97.2686 115.916 97.2524 115.956 97.2454 115.99C97.2384 116.009 97.2338 116.03 97.2268 116.053C97.2059 116.12 97.1874 116.188 97.1665 116.255C97.1526 116.318 97.1363 116.383 97.1201 116.441C97.1131 116.48 97.1015 116.517 97.0922 116.557L97.069 116.671L97.0458 116.787L97.0342 116.84L97.0226 116.9C96.9947 117.054 96.9715 117.209 96.9529 117.362L96.9367 117.478C96.932 117.518 96.9297 117.557 96.9251 117.592C96.9181 117.671 96.9135 117.748 96.9065 117.827C96.8856 118.138 96.8833 118.451 96.9019 118.764C96.9019 118.843 96.9181 118.918 96.9251 118.985C96.9367 119.052 96.9529 119.112 96.9692 119.164C96.9994 119.261 97.0342 119.321 97.062 119.317C97.0899 119.314 97.1085 119.247 97.1131 119.143C97.1154 119.092 97.1154 119.034 97.1131 118.966C97.1131 118.899 97.1085 118.827 97.1038 118.748C97.0852 118.444 97.0899 118.142 97.1085 117.838C97.1154 117.764 97.1201 117.687 97.1293 117.613C97.1293 117.574 97.1363 117.536 97.141 117.497L97.1526 117.383C97.1711 117.232 97.1943 117.081 97.2222 116.933L97.2918 116.599C97.2988 116.564 97.3081 116.524 97.3197 116.49C97.3313 116.434 97.3475 116.378 97.3615 116.327C97.459 116.357 97.5564 116.39 97.6539 116.413C97.6934 116.422 97.7329 116.429 97.7677 116.441C97.7886 116.445 97.8071 116.45 97.8257 116.452L97.9441 116.473C97.9441 116.473 97.9835 116.48 98.0021 116.48L98.1182 116.497C98.276 116.517 98.4315 116.524 98.5871 116.524C98.9004 116.524 99.2115 116.478 99.5155 116.394C99.8173 116.306 100.11 116.176 100.37 116.002C100.634 115.828 100.869 115.608 101.061 115.354C101.073 115.338 101.085 115.322 101.096 115.306L101.131 115.259C101.131 115.259 101.154 115.227 101.161 115.206L101.194 115.155C101.236 115.088 101.275 115.018 101.31 114.941C101.345 114.867 101.372 114.788 101.396 114.709C101.419 114.63 101.431 114.542 101.435 114.456C101.435 114.368 101.428 114.277 101.4 114.189L101.389 114.159L101.377 114.154ZM101.217 114.442C101.217 114.51 101.201 114.577 101.184 114.649C101.166 114.716 101.143 114.783 101.113 114.851C101.08 114.913 101.045 114.978 101.006 115.041L100.976 115.088C100.976 115.088 100.955 115.12 100.943 115.136L100.913 115.18C100.913 115.18 100.892 115.211 100.88 115.222C100.706 115.461 100.488 115.661 100.242 115.823C99.996 115.986 99.7268 116.109 99.4412 116.188C99.1581 116.267 98.8633 116.311 98.5685 116.315C98.4199 116.315 98.2714 116.306 98.1275 116.29L98.0184 116.276C98.0184 116.276 97.9835 116.271 97.9627 116.267L97.9093 116.255L97.8536 116.248C97.8536 116.248 97.8187 116.239 97.8002 116.237L97.6911 116.211C97.5936 116.188 97.4984 116.158 97.4056 116.125C97.4125 116.102 97.4218 116.076 97.4288 116.053C97.4404 116.018 97.452 115.984 97.4636 115.946C97.4752 115.912 97.4868 115.874 97.5031 115.84L97.5425 115.733L97.5843 115.631L97.5959 115.603L97.6075 115.58L97.6307 115.529L97.6539 115.475C97.6539 115.475 97.6702 115.445 97.6795 115.424L97.705 115.373C97.705 115.373 97.7213 115.341 97.7329 115.322L97.7886 115.222C97.8628 115.097 97.9464 114.974 98.0369 114.855L98.1066 114.772L98.1275 114.751C98.1275 114.751 98.1391 114.739 98.146 114.732L98.2249 114.653C98.2249 114.653 98.2528 114.626 98.2644 114.614C98.2899 114.586 98.3178 114.563 98.3456 114.537C98.4547 114.44 98.5708 114.349 98.6938 114.266C98.8145 114.182 98.9422 114.108 99.0745 114.043C99.3414 113.913 99.6223 113.823 99.9101 113.788C100.198 113.751 100.49 113.774 100.764 113.869C100.771 113.869 100.781 113.874 100.792 113.878L100.815 113.885C100.815 113.885 100.832 113.894 100.839 113.897C100.846 113.897 100.855 113.906 100.862 113.908C100.892 113.925 100.92 113.941 100.952 113.957C100.978 113.976 101.006 113.997 101.034 114.015C101.057 114.036 101.08 114.059 101.103 114.087C101.124 114.11 101.143 114.138 101.159 114.166L101.171 114.187V114.199L101.182 114.21L101.189 114.229L101.198 114.254C101.217 114.312 101.224 114.377 101.222 114.442H101.217Z" fill="#AF9146"/>
<path d="M97.2016 114.79C98.065 114.468 98.5989 113.767 98.5989 113.767C98.5989 113.767 97.7401 113.588 96.8789 113.913C96.0154 114.238 95.4816 114.939 95.4816 114.939C95.4816 114.939 96.3404 115.115 97.2016 114.79Z" fill="#AF9146"/>
<path d="M93.766 115.085C92.9025 115.408 92.3687 116.109 92.3687 116.109C92.3687 116.109 93.2275 116.288 94.0886 115.963C94.9521 115.638 95.486 114.939 95.486 114.939C95.486 114.939 94.6272 114.76 93.766 115.085Z" fill="#AF9146"/>
<path d="M95.6255 116.677C95.9459 117.552 96.6376 118.096 96.6376 118.096C96.6376 118.096 96.8117 117.225 96.4937 116.35C96.1733 115.475 95.4816 114.934 95.4816 114.934C95.4816 114.934 95.3075 115.805 95.6255 116.677Z" fill="#AF9146"/>
<path d="M95.3377 113.193C95.0174 112.318 94.328 111.777 94.328 111.777C94.328 111.777 94.1516 112.648 94.4719 113.521C94.7922 114.396 95.4816 114.939 95.4816 114.939C95.4816 114.939 95.658 114.068 95.3377 113.193Z" fill="#AF9146"/>
</svg>
