<svg width="292" height="164" viewBox="0 0 292 164" fill="none" xmlns="http://www.w3.org/2000/svg">
<path d="M83.56 105.72C82.84 105.16 82.48 104.32 82.48 103.2C82.48 102.08 82.88 100.96 83.68 99.84C84.4 98.64 85.76 97.76 87.76 97.2C88.8 96.88 90.16 96.72 91.84 96.72C94.64 96.72 98.16 97.12 102.4 97.92C106.72 98.72 112.08 99.56 118.48 100.44C119.92 100.6 121.4 100.76 122.92 100.92C124.44 101.08 126.04 101.16 127.72 101.16C128.76 101.16 129.8 101.12 130.84 101.04C131.88 100.96 132.92 100.84 133.96 100.68C136.76 100.2 140.08 99.24 143.92 97.8C147.76 96.36 151.6 94.2 155.44 91.32C159.28 88.36 162.68 84.52 165.64 79.8C168.68 75 170.76 69.04 171.88 61.92C172.04 60.8 172.16 59.76 172.24 58.8C172.32 57.76 172.36 56.76 172.36 55.8C172.36 48.84 170.2 43.56 165.88 39.96C162.84 42.76 159.84 46 156.88 49.68C154 53.28 151.16 57.04 148.36 60.96C145.64 64.8 143.04 68.48 140.56 72C138.64 74.64 136.64 77.44 134.56 80.4C132.48 83.36 130.32 86.16 128.08 88.8C125.84 91.36 123.52 93.48 121.12 95.16C118.72 96.76 116.28 97.64 113.8 97.8C115.72 96.44 117.68 94.56 119.68 92.16C121.68 89.68 123.68 86.96 125.68 84C127.68 81.04 129.6 78.08 131.44 75.12C133.36 72.16 135.16 69.52 136.84 67.2C140.6 61.76 144.72 56.48 149.2 51.36C153.76 46.16 158.36 41.72 163 38.04C159.24 35.96 154.48 34.92 148.72 34.92C143.36 34.92 138.24 35.76 133.36 37.44C128.56 39.04 124.16 41.16 120.16 43.8C116.16 46.44 112.72 49.4 109.84 52.68C106.96 55.88 104.72 59.08 103.12 62.28C101.52 65.48 100.72 68.44 100.72 71.16C100.72 73.72 101.52 75.88 103.12 77.64C104.8 79.4 107.44 80.44 111.04 80.76C111.6 80.76 111.88 80.88 111.88 81.12C111.88 81.44 111.52 81.6 110.8 81.6C106.08 81.2 102.6 79.84 100.36 77.52C98.12 75.2 97 72.36 97 69C97 65.4 98.16 61.56 100.48 57.48C102.88 53.4 106.32 49.52 110.8 45.84C115.28 42.16 120.68 39.16 127 36.84C133.32 34.52 140.44 33.36 148.36 33.36C151.56 33.44 154.56 33.72 157.36 34.2C160.24 34.6 162.88 35.32 165.28 36.36C168.24 34.28 171.12 32.64 173.92 31.44C176.72 30.24 179.4 29.64 181.96 29.64C183.4 29.64 184.84 29.88 186.28 30.36C187.72 30.76 188.92 31.48 189.88 32.52C190.92 33.56 191.44 35.08 191.44 37.08C190.96 35.48 189.84 34.2 188.08 33.24C186.32 32.2 184.48 31.68 182.56 31.68C180.24 31.68 177.88 32.24 175.48 33.36C173.08 34.48 170.72 36 168.4 37.92C171.68 39.84 174.24 42.44 176.08 45.72C178 49 178.96 53.12 178.96 58.08C178.96 63.2 177.96 68.08 175.96 72.72C174.04 77.36 171.48 81.52 168.28 85.2C165.16 88.88 161.8 91.96 158.2 94.44C154.68 96.92 151.36 98.6 148.24 99.48C145.12 100.44 141.96 101.24 138.76 101.88C135.56 102.52 132.28 102.84 128.92 102.84C125.72 102.84 122.12 102.6 118.12 102.12C114.2 101.72 110.2 101.36 106.12 101.04C105.16 100.96 104.2 100.92 103.24 100.92C102.28 100.84 101.24 100.8 100.12 100.8C96.68 100.8 93.36 101.16 90.16 101.88C87.04 102.52 84.84 103.8 83.56 105.72Z" fill="#AF9146"/>
<path d="M194.6 70.84C195.32 70.84 195.947 70.9867 196.48 71.28C197.04 71.5733 197.467 71.96 197.76 72.44C198.08 72.8933 198.24 73.4133 198.24 74C198.24 74.6667 198.027 75.2533 197.6 75.76C197.2 76.2667 196.653 76.52 195.96 76.52C195.4 76.52 194.907 76.3467 194.48 76C194.053 75.6267 193.84 75.1067 193.84 74.44C193.84 73.9333 193.973 73.5067 194.24 73.16C194.533 72.7867 194.853 72.4933 195.2 72.28C195.013 72.0133 194.733 71.88 194.36 71.88C193.533 71.88 192.773 72.1333 192.08 72.64C191.387 73.12 190.8 73.7467 190.32 74.52C189.84 75.2933 189.467 76.12 189.2 77C188.933 77.8533 188.8 78.6533 188.8 79.4V87.88C188.8 89.1867 189.173 90.0667 189.92 90.52C190.693 90.9467 191.733 91.16 193.04 91.16V92C192.427 91.9733 191.56 91.9467 190.44 91.92C189.32 91.8667 188.133 91.84 186.88 91.84C185.973 91.84 185.067 91.8667 184.16 91.92C183.28 91.9467 182.613 91.9733 182.16 92V91.16C183.253 91.16 184.027 90.96 184.48 90.56C184.96 90.16 185.2 89.4 185.2 88.28V75.76C185.2 74.56 184.987 73.68 184.56 73.12C184.133 72.5333 183.333 72.24 182.16 72.24V71.4C183.013 71.48 183.84 71.52 184.64 71.52C185.413 71.52 186.147 71.48 186.84 71.4C187.56 71.2933 188.213 71.1467 188.8 70.96V75.96C189.093 75.1867 189.507 74.4133 190.04 73.64C190.6 72.84 191.267 72.1733 192.04 71.64C192.813 71.1067 193.667 70.84 194.6 70.84ZM208.911 70.84C211.258 70.84 213.085 71.56 214.391 73C215.725 74.4133 216.391 76.6267 216.391 79.64H202.271L202.231 78.88H212.551C212.605 77.5733 212.498 76.3733 212.231 75.28C211.965 74.16 211.538 73.2667 210.951 72.6C210.391 71.9333 209.658 71.6 208.751 71.6C207.525 71.6 206.431 72.2133 205.471 73.44C204.538 74.6667 203.978 76.6133 203.791 79.28L203.911 79.44C203.858 79.84 203.818 80.28 203.791 80.76C203.765 81.24 203.751 81.72 203.751 82.2C203.751 84.0133 204.045 85.5733 204.631 86.88C205.218 88.1867 205.978 89.1867 206.911 89.88C207.871 90.5467 208.858 90.88 209.871 90.88C210.671 90.88 211.431 90.76 212.151 90.52C212.871 90.2533 213.538 89.8267 214.151 89.24C214.765 88.6533 215.298 87.8667 215.751 86.88L216.551 87.2C216.258 88.08 215.778 88.9333 215.111 89.76C214.445 90.5867 213.605 91.2667 212.591 91.8C211.578 92.3067 210.405 92.56 209.071 92.56C207.151 92.56 205.498 92.12 204.111 91.24C202.751 90.36 201.698 89.1467 200.951 87.6C200.231 86.0267 199.871 84.2267 199.871 82.2C199.871 79.8533 200.245 77.84 200.991 76.16C201.738 74.4533 202.791 73.1467 204.151 72.24C205.511 71.3067 207.098 70.84 208.911 70.84ZM225.106 92.28C224.012 92.28 223.066 92.08 222.266 91.68C221.466 91.2533 220.852 90.6667 220.426 89.92C220.026 89.1733 219.826 88.3067 219.826 87.32C219.826 86.1467 220.092 85.1867 220.626 84.44C221.186 83.6933 221.892 83.0933 222.746 82.64C223.599 82.1867 224.492 81.8133 225.426 81.52C226.386 81.2 227.292 80.9067 228.146 80.64C228.999 80.3467 229.692 80.0133 230.226 79.64C230.786 79.2667 231.066 78.7733 231.066 78.16V75.68C231.066 74.56 230.892 73.7067 230.546 73.12C230.226 72.5333 229.786 72.1467 229.226 71.96C228.666 71.7467 228.039 71.64 227.346 71.64C226.679 71.64 225.959 71.7333 225.186 71.92C224.439 72.1067 223.839 72.4933 223.386 73.08C223.892 73.1867 224.332 73.4533 224.706 73.88C225.079 74.3067 225.266 74.8533 225.266 75.52C225.266 76.1867 225.052 76.72 224.626 77.12C224.199 77.4933 223.652 77.68 222.986 77.68C222.212 77.68 221.639 77.44 221.266 76.96C220.919 76.4533 220.746 75.8933 220.746 75.28C220.746 74.5867 220.919 74.0267 221.266 73.6C221.612 73.1733 222.052 72.7733 222.586 72.4C223.199 71.9733 223.986 71.6133 224.946 71.32C225.932 71 227.039 70.84 228.266 70.84C229.359 70.84 230.292 70.9733 231.066 71.24C231.839 71.48 232.479 71.84 232.986 72.32C233.679 72.96 234.132 73.7467 234.346 74.68C234.559 75.5867 234.666 76.68 234.666 77.96V89.08C234.666 89.7467 234.759 90.2267 234.946 90.52C235.159 90.8133 235.479 90.96 235.906 90.96C236.199 90.96 236.479 90.8933 236.746 90.76C237.012 90.6267 237.332 90.4133 237.706 90.12L238.146 90.8C237.586 91.2267 237.052 91.5867 236.546 91.88C236.039 92.1467 235.359 92.28 234.506 92.28C233.732 92.28 233.092 92.1467 232.586 91.88C232.079 91.6133 231.692 91.2267 231.426 90.72C231.186 90.1867 231.066 89.52 231.066 88.72C230.346 89.92 229.479 90.8133 228.466 91.4C227.479 91.9867 226.359 92.28 225.106 92.28ZM226.546 90.68C227.426 90.68 228.239 90.4267 228.986 89.92C229.759 89.4133 230.452 88.6533 231.066 87.64V79.8C230.746 80.2533 230.279 80.64 229.666 80.96C229.052 81.2533 228.386 81.56 227.666 81.88C226.946 82.1733 226.252 82.5333 225.586 82.96C224.946 83.36 224.412 83.8933 223.986 84.56C223.559 85.2267 223.346 86.0933 223.346 87.16C223.346 88.2267 223.626 89.08 224.186 89.72C224.772 90.36 225.559 90.68 226.546 90.68ZM252.548 70.84C253.481 70.84 254.294 70.9733 254.988 71.24C255.681 71.5067 256.254 71.88 256.708 72.36C257.214 72.8933 257.561 73.5867 257.748 74.44C257.934 75.2933 258.028 76.3467 258.028 77.6V88.28C258.028 89.4 258.254 90.16 258.708 90.56C259.188 90.96 259.974 91.16 261.068 91.16V92C260.614 91.9733 259.921 91.9467 258.988 91.92C258.054 91.8667 257.148 91.84 256.268 91.84C255.388 91.84 254.521 91.8667 253.668 91.92C252.841 91.9467 252.214 91.9733 251.788 92V91.16C252.748 91.16 253.428 90.96 253.828 90.56C254.228 90.16 254.428 89.4 254.428 88.28V76.72C254.428 75.8933 254.374 75.1333 254.268 74.44C254.161 73.7467 253.894 73.1867 253.468 72.76C253.041 72.3333 252.348 72.12 251.388 72.12C250.348 72.12 249.414 72.44 248.588 73.08C247.788 73.72 247.148 74.6 246.668 75.72C246.214 76.8133 245.988 78.04 245.988 79.4V88.28C245.988 89.4 246.188 90.16 246.588 90.56C246.988 90.96 247.668 91.16 248.628 91.16V92C248.201 91.9733 247.561 91.9467 246.708 91.92C245.881 91.8667 245.028 91.84 244.148 91.84C243.268 91.84 242.361 91.8667 241.428 91.92C240.494 91.9467 239.801 91.9733 239.348 92V91.16C240.441 91.16 241.214 90.96 241.668 90.56C242.148 90.16 242.388 89.4 242.388 88.28V75.76C242.388 74.56 242.174 73.68 241.748 73.12C241.321 72.5333 240.521 72.24 239.348 72.24V71.4C240.201 71.48 241.028 71.52 241.828 71.52C242.601 71.52 243.334 71.48 244.028 71.4C244.748 71.2933 245.401 71.1467 245.988 70.96V75.68C246.681 73.9467 247.628 72.7067 248.828 71.96C250.028 71.2133 251.268 70.84 252.548 70.84ZM264.588 70.84C265.521 70.84 266.334 70.9733 267.028 71.24C267.721 71.5067 268.294 71.88 268.748 72.36C269.254 72.8933 269.601 73.5867 269.788 74.44C269.974 75.2933 270.068 76.3467 270.068 77.6V88.28C270.068 89.4 270.294 90.16 270.748 90.56C271.228 90.96 272.014 91.16 273.108 91.16V92C272.654 91.9733 271.961 91.9467 271.028 91.92C270.094 91.8667 269.188 91.84 268.308 91.84C267.428 91.84 266.561 91.8667 265.708 91.92C264.881 91.9467 264.254 91.9733 263.828 92V91.16C264.788 91.16 265.468 90.96 265.868 90.56C266.268 90.16 266.468 89.4 266.468 88.28V76.72C266.468 75.8933 266.414 75.1333 266.308 74.44C266.201 73.7467 265.934 73.1867 265.508 72.76C265.081 72.3333 264.388 72.12 263.428 72.12C262.388 72.12 261.454 72.44 260.628 73.08C259.828 73.72 259.188 74.5867 258.708 75.68C258.254 76.7733 258.028 78 258.028 79.36L257.908 75.64C258.628 73.8 259.601 72.5467 260.828 71.88C262.054 71.1867 263.308 70.84 264.588 70.84ZM282.015 70.84C283.082 70.84 283.989 71.0133 284.735 71.36C285.482 71.7067 286.029 72.0267 286.375 72.32C287.255 73.04 287.789 72.56 287.975 70.88H288.895C288.842 71.6267 288.802 72.52 288.775 73.56C288.749 74.5733 288.735 75.9467 288.735 77.68H287.815C287.655 76.6933 287.375 75.7333 286.975 74.8C286.602 73.8667 286.042 73.1067 285.295 72.52C284.549 71.9067 283.575 71.6 282.375 71.6C281.442 71.6 280.655 71.8667 280.015 72.4C279.402 72.9067 279.095 73.6667 279.095 74.68C279.095 75.48 279.335 76.1733 279.815 76.76C280.295 77.32 280.922 77.8533 281.695 78.36C282.469 78.84 283.309 79.3733 284.215 79.96C285.229 80.6 286.149 81.2533 286.975 81.92C287.802 82.5867 288.455 83.32 288.935 84.12C289.442 84.92 289.695 85.8667 289.695 86.96C289.695 88.1867 289.375 89.2133 288.735 90.04C288.095 90.8667 287.255 91.4933 286.215 91.92C285.202 92.3467 284.082 92.56 282.855 92.56C282.269 92.56 281.709 92.5067 281.175 92.4C280.669 92.32 280.175 92.1867 279.695 92C279.429 91.8667 279.149 91.7067 278.855 91.52C278.589 91.3333 278.322 91.1333 278.055 90.92C277.789 90.7067 277.549 90.72 277.335 90.96C277.122 91.1733 276.962 91.6133 276.855 92.28H275.935C275.989 91.4267 276.029 90.3867 276.055 89.16C276.082 87.9333 276.095 86.3067 276.095 84.28H277.015C277.202 85.7733 277.469 87.08 277.815 88.2C278.162 89.32 278.709 90.2 279.455 90.84C280.202 91.4533 281.242 91.76 282.575 91.76C283.109 91.76 283.642 91.64 284.175 91.4C284.735 91.16 285.202 90.76 285.575 90.2C285.949 89.64 286.135 88.8933 286.135 87.96C286.135 86.7867 285.709 85.8267 284.855 85.08C284.002 84.3333 282.922 83.5467 281.615 82.72C280.655 82.1067 279.749 81.4933 278.895 80.88C278.069 80.2667 277.389 79.5733 276.855 78.8C276.349 78.0267 276.095 77.0933 276.095 76C276.095 74.8 276.362 73.8267 276.895 73.08C277.455 72.3067 278.189 71.7467 279.095 71.4C280.002 71.0267 280.975 70.84 282.015 70.84Z" fill="#AF9146"/>
<path d="M24.52 63.68V64.48C24.0133 64.5867 23.5067 64.92 23 65.48C22.4933 66.0133 21.9333 66.8667 21.32 68.04L13.24 84.04H12.56L3.2 66.76C2.66667 65.7733 2.21333 65.16 1.84 64.92C1.49333 64.6533 1.17333 64.52 0.88 64.52V63.68C1.41333 63.7067 1.96 63.7333 2.52 63.76C3.10667 63.7867 3.73333 63.8 4.4 63.8C5.28 63.8 6.21333 63.8 7.2 63.8C8.21333 63.7733 9.14667 63.7333 10 63.68V64.52C9.33333 64.52 8.74667 64.6 8.24 64.76C7.73333 64.92 7.4 65.2133 7.24 65.64C7.08 66.0667 7.2 66.6667 7.6 67.44L14.36 80.4L14.04 80.64L19.36 70.04C20.1067 68.5733 20.4667 67.44 20.44 66.64C20.44 65.84 20.1333 65.2933 19.52 65C18.9067 64.68 18.04 64.5067 16.92 64.48V63.68C17.6933 63.7067 18.48 63.7333 19.28 63.76C20.08 63.7867 20.8267 63.8 21.52 63.8C22.2133 63.8 22.7867 63.7867 23.24 63.76C23.6933 63.7333 24.12 63.7067 24.52 63.68ZM15.04 79.84V87.76C15.04 88.72 15.12 89.44 15.28 89.92C15.44 90.4 15.7467 90.72 16.2 90.88C16.68 91.04 17.3733 91.1467 18.28 91.2V92C17.6667 91.9467 16.8933 91.92 15.96 91.92C15.0533 91.8933 14.1333 91.88 13.2 91.88C12.16 91.88 11.1867 91.8933 10.28 91.92C9.37333 91.92 8.64 91.9467 8.08 92V91.2C8.98667 91.1467 9.66667 91.04 10.12 90.88C10.6 90.72 10.92 90.4 11.08 89.92C11.24 89.44 11.32 88.72 11.32 87.76V79.56L13.48 82.04L15.04 79.84ZM32.8975 70.84C34.6042 70.84 36.1375 71.2133 37.4975 71.96C38.8575 72.7067 39.9375 73.88 40.7375 75.48C41.5642 77.08 41.9775 79.16 41.9775 81.72C41.9775 84.28 41.5642 86.36 40.7375 87.96C39.9375 89.5333 38.8575 90.6933 37.4975 91.44C36.1375 92.1867 34.6042 92.56 32.8975 92.56C31.2175 92.56 29.6842 92.1867 28.2975 91.44C26.9375 90.6933 25.8442 89.5333 25.0175 87.96C24.2175 86.36 23.8175 84.28 23.8175 81.72C23.8175 79.16 24.2175 77.08 25.0175 75.48C25.8442 73.88 26.9375 72.7067 28.2975 71.96C29.6842 71.2133 31.2175 70.84 32.8975 70.84ZM32.8975 71.64C31.3775 71.64 30.1242 72.4267 29.1375 74C28.1775 75.5733 27.6975 78.1467 27.6975 81.72C27.6975 85.2933 28.1775 87.8667 29.1375 89.44C30.1242 90.9867 31.3775 91.76 32.8975 91.76C34.4175 91.76 35.6575 90.9867 36.6175 89.44C37.6042 87.8667 38.0975 85.2933 38.0975 81.72C38.0975 78.1467 37.6042 75.5733 36.6175 74C35.6575 72.4267 34.4175 71.64 32.8975 71.64ZM63.1716 70.96V87.68C63.1716 88.88 63.3849 89.7733 63.8116 90.36C64.2649 90.92 65.0649 91.2 66.2116 91.2V92.04C65.3849 91.96 64.5582 91.92 63.7316 91.92C62.9582 91.92 62.2116 91.96 61.4916 92.04C60.7982 92.12 60.1582 92.2667 59.5716 92.48V87.76C58.9049 89.4933 57.9582 90.7333 56.7316 91.48C55.5316 92.2 54.2916 92.56 53.0116 92.56C52.0782 92.56 51.2649 92.4267 50.5716 92.16C49.8782 91.8933 49.3049 91.52 48.8516 91.04C48.3449 90.5067 47.9982 89.8133 47.8116 88.96C47.6249 88.1067 47.5316 87.0533 47.5316 85.8V75.76C47.5316 74.56 47.3182 73.68 46.8916 73.12C46.4649 72.5333 45.6649 72.24 44.4916 72.24V71.4C45.3449 71.48 46.1716 71.52 46.9716 71.52C47.7449 71.52 48.4782 71.48 49.1716 71.4C49.8916 71.2933 50.5449 71.1467 51.1316 70.96V86.68C51.1316 87.5067 51.1849 88.2667 51.2916 88.96C51.3982 89.6533 51.6649 90.2133 52.0916 90.64C52.5182 91.0667 53.2116 91.28 54.1716 91.28C55.2116 91.28 56.1316 90.96 56.9316 90.32C57.7582 89.68 58.3982 88.8133 58.8516 87.72C59.3316 86.6267 59.5716 85.4 59.5716 84.04V75.76C59.5716 74.56 59.3582 73.68 58.9316 73.12C58.5049 72.5333 57.7049 72.24 56.5316 72.24V71.4C57.3849 71.48 58.2116 71.52 59.0116 71.52C59.7849 71.52 60.5182 71.48 61.2116 71.4C61.9316 71.2933 62.5849 71.1467 63.1716 70.96ZM80.6938 70.84C81.4138 70.84 82.0404 70.9867 82.5738 71.28C83.1338 71.5733 83.5604 71.96 83.8538 72.44C84.1738 72.8933 84.3338 73.4133 84.3338 74C84.3338 74.6667 84.1204 75.2533 83.6938 75.76C83.2938 76.2667 82.7471 76.52 82.0538 76.52C81.4938 76.52 81.0004 76.3467 80.5738 76C80.1471 75.6267 79.9338 75.1067 79.9338 74.44C79.9338 73.9333 80.0671 73.5067 80.3338 73.16C80.6271 72.7867 80.9471 72.4933 81.2938 72.28C81.1071 72.0133 80.8271 71.88 80.4538 71.88C79.6271 71.88 78.8671 72.1333 78.1738 72.64C77.4804 73.12 76.8938 73.7467 76.4138 74.52C75.9338 75.2933 75.5604 76.12 75.2938 77C75.0271 77.8533 74.8938 78.6533 74.8938 79.4V87.88C74.8938 89.1867 75.2671 90.0667 76.0138 90.52C76.7871 90.9467 77.8271 91.16 79.1338 91.16V92C78.5204 91.9733 77.6538 91.9467 76.5338 91.92C75.4138 91.8667 74.2271 91.84 72.9737 91.84C72.0671 91.84 71.1604 91.8667 70.2538 91.92C69.3738 91.9467 68.7071 91.9733 68.2538 92V91.16C69.3471 91.16 70.1204 90.96 70.5738 90.56C71.0538 90.16 71.2938 89.4 71.2938 88.28V75.76C71.2938 74.56 71.0804 73.68 70.6538 73.12C70.2271 72.5333 69.4271 72.24 68.2538 72.24V71.4C69.1071 71.48 69.9338 71.52 70.7338 71.52C71.5071 71.52 72.2404 71.48 72.9338 71.4C73.6538 71.2933 74.3071 71.1467 74.8938 70.96V75.96C75.1871 75.1867 75.6004 74.4133 76.1338 73.64C76.6938 72.84 77.3604 72.1733 78.1338 71.64C78.9071 71.1067 79.7604 70.84 80.6938 70.84Z" fill="#AF9146"/>
<path d="M15.84 125.12C18.3733 125.12 20.5867 125.693 22.48 126.84C24.4 127.987 25.88 129.64 26.92 131.8C27.9867 133.933 28.52 136.533 28.52 139.6C28.52 142.587 27.9733 145.2 26.88 147.44C25.8133 149.68 24.32 151.427 22.4 152.68C20.48 153.933 18.28 154.56 15.8 154.56C13.2667 154.56 11.04 153.987 9.12 152.84C7.22667 151.693 5.74667 150.04 4.68 147.88C3.64 145.72 3.12 143.12 3.12 140.08C3.12 137.093 3.66667 134.48 4.76 132.24C5.85333 130 7.34667 128.253 9.24 127C11.16 125.747 13.36 125.12 15.84 125.12ZM15.68 125.84C13.9467 125.84 12.44 126.44 11.16 127.64C9.88 128.84 8.88 130.493 8.16 132.6C7.46667 134.707 7.12 137.147 7.12 139.92C7.12 142.747 7.50667 145.213 8.28 147.32C9.08 149.4 10.1467 151.013 11.48 152.16C12.84 153.28 14.3333 153.84 15.96 153.84C17.6933 153.84 19.2 153.24 20.48 152.04C21.76 150.84 22.7467 149.187 23.44 147.08C24.16 144.947 24.52 142.507 24.52 139.76C24.52 136.907 24.12 134.44 23.32 132.36C22.5467 130.28 21.4933 128.68 20.16 127.56C18.8267 126.413 17.3333 125.84 15.68 125.84ZM49.9684 132.96V149.68C49.9684 150.88 50.1818 151.773 50.6084 152.36C51.0618 152.92 51.8618 153.2 53.0084 153.2V154.04C52.1818 153.96 51.3551 153.92 50.5284 153.92C49.7551 153.92 49.0084 153.96 48.2884 154.04C47.5951 154.12 46.9551 154.267 46.3684 154.48V149.76C45.7018 151.493 44.7551 152.733 43.5284 153.48C42.3284 154.2 41.0884 154.56 39.8084 154.56C38.8751 154.56 38.0618 154.427 37.3684 154.16C36.6751 153.893 36.1018 153.52 35.6484 153.04C35.1418 152.507 34.7951 151.813 34.6084 150.96C34.4218 150.107 34.3284 149.053 34.3284 147.8V137.76C34.3284 136.56 34.1151 135.68 33.6884 135.12C33.2618 134.533 32.4618 134.24 31.2884 134.24V133.4C32.1418 133.48 32.9684 133.52 33.7684 133.52C34.5418 133.52 35.2751 133.48 35.9684 133.4C36.6884 133.293 37.3418 133.147 37.9284 132.96V148.68C37.9284 149.507 37.9818 150.267 38.0884 150.96C38.1951 151.653 38.4618 152.213 38.8884 152.64C39.3151 153.067 40.0084 153.28 40.9684 153.28C42.0084 153.28 42.9284 152.96 43.7284 152.32C44.5551 151.68 45.1951 150.813 45.6484 149.72C46.1284 148.627 46.3684 147.4 46.3684 146.04V137.76C46.3684 136.56 46.1551 135.68 45.7284 135.12C45.3018 134.533 44.5018 134.24 43.3284 134.24V133.4C44.1818 133.48 45.0084 133.52 45.8084 133.52C46.5818 133.52 47.3151 133.48 48.0084 133.4C48.7284 133.293 49.3818 133.147 49.9684 132.96ZM67.4906 132.84C68.2106 132.84 68.8373 132.987 69.3706 133.28C69.9306 133.573 70.3573 133.96 70.6506 134.44C70.9706 134.893 71.1306 135.413 71.1306 136C71.1306 136.667 70.9173 137.253 70.4906 137.76C70.0906 138.267 69.544 138.52 68.8506 138.52C68.2906 138.52 67.7973 138.347 67.3706 138C66.944 137.627 66.7306 137.107 66.7306 136.44C66.7306 135.933 66.864 135.507 67.1306 135.16C67.424 134.787 67.744 134.493 68.0906 134.28C67.904 134.013 67.624 133.88 67.2506 133.88C66.424 133.88 65.664 134.133 64.9706 134.64C64.2773 135.12 63.6906 135.747 63.2106 136.52C62.7306 137.293 62.3573 138.12 62.0906 139C61.824 139.853 61.6906 140.653 61.6906 141.4V149.88C61.6906 151.187 62.064 152.067 62.8106 152.52C63.584 152.947 64.624 153.16 65.9306 153.16V154C65.3173 153.973 64.4506 153.947 63.3306 153.92C62.2106 153.867 61.024 153.84 59.7706 153.84C58.864 153.84 57.9573 153.867 57.0506 153.92C56.1706 153.947 55.504 153.973 55.0506 154V153.16C56.144 153.16 56.9173 152.96 57.3706 152.56C57.8506 152.16 58.0906 151.4 58.0906 150.28V137.76C58.0906 136.56 57.8773 135.68 57.4506 135.12C57.024 134.533 56.224 134.24 55.0506 134.24V133.4C55.904 133.48 56.7306 133.52 57.5306 133.52C58.304 133.52 59.0373 133.48 59.7306 133.4C60.4506 133.293 61.104 133.147 61.6906 132.96V137.96C61.984 137.187 62.3973 136.413 62.9306 135.64C63.4906 134.84 64.1573 134.173 64.9306 133.64C65.704 133.107 66.5573 132.84 67.4906 132.84ZM93.4047 125.68C98.178 125.68 101.725 126.88 104.045 129.28C106.365 131.653 107.525 135.067 107.525 139.52C107.525 142.427 106.951 144.973 105.805 147.16C104.685 149.32 103.045 151 100.885 152.2C98.7247 153.4 96.1114 154 93.0447 154C92.6447 154 92.1114 153.987 91.4447 153.96C90.778 153.933 90.0847 153.92 89.3647 153.92C88.6714 153.893 88.0314 153.88 87.4447 153.88C86.5114 153.88 85.5914 153.893 84.6847 153.92C83.778 153.92 83.0447 153.947 82.4847 154V153.2C83.3914 153.147 84.0714 153.04 84.5247 152.88C85.0047 152.72 85.3247 152.4 85.4847 151.92C85.6447 151.44 85.7247 150.72 85.7247 149.76V129.92C85.7247 128.933 85.6447 128.213 85.4847 127.76C85.3247 127.28 85.0047 126.96 84.5247 126.8C84.0714 126.613 83.3914 126.507 82.4847 126.48V125.68C83.0447 125.707 83.778 125.747 84.6847 125.8C85.5914 125.827 86.4847 125.827 87.3647 125.8C88.298 125.773 89.3514 125.747 90.5247 125.72C91.698 125.693 92.658 125.68 93.4047 125.68ZM92.4047 126.4C91.178 126.4 90.378 126.627 90.0047 127.08C89.6314 127.533 89.4447 128.453 89.4447 129.84V149.84C89.4447 151.227 89.6314 152.147 90.0047 152.6C90.4047 153.053 91.218 153.28 92.4447 153.28C95.3514 153.28 97.6047 152.76 99.2047 151.72C100.805 150.653 101.925 149.107 102.565 147.08C103.205 145.053 103.525 142.587 103.525 139.68C103.525 136.693 103.165 134.227 102.445 132.28C101.751 130.307 100.591 128.84 98.9647 127.88C97.3647 126.893 95.178 126.4 92.4047 126.4ZM120.591 132.84C122.938 132.84 124.764 133.56 126.071 135C127.404 136.413 128.071 138.627 128.071 141.64H113.951L113.911 140.88H124.231C124.284 139.573 124.178 138.373 123.911 137.28C123.644 136.16 123.218 135.267 122.631 134.6C122.071 133.933 121.338 133.6 120.431 133.6C119.204 133.6 118.111 134.213 117.151 135.44C116.218 136.667 115.658 138.613 115.471 141.28L115.591 141.44C115.538 141.84 115.498 142.28 115.471 142.76C115.444 143.24 115.431 143.72 115.431 144.2C115.431 146.013 115.724 147.573 116.311 148.88C116.898 150.187 117.658 151.187 118.591 151.88C119.551 152.547 120.538 152.88 121.551 152.88C122.351 152.88 123.111 152.76 123.831 152.52C124.551 152.253 125.218 151.827 125.831 151.24C126.444 150.653 126.978 149.867 127.431 148.88L128.231 149.2C127.938 150.08 127.458 150.933 126.791 151.76C126.124 152.587 125.284 153.267 124.271 153.8C123.258 154.307 122.084 154.56 120.751 154.56C118.831 154.56 117.178 154.12 115.791 153.24C114.431 152.36 113.378 151.147 112.631 149.6C111.911 148.027 111.551 146.227 111.551 144.2C111.551 141.853 111.924 139.84 112.671 138.16C113.418 136.453 114.471 135.147 115.831 134.24C117.191 133.307 118.778 132.84 120.591 132.84ZM137.545 126.76V133.44H143.465V134.24H137.545V149.72C137.545 150.973 137.772 151.853 138.225 152.36C138.679 152.867 139.305 153.12 140.105 153.12C140.905 153.12 141.599 152.8 142.185 152.16C142.772 151.493 143.279 150.387 143.705 148.84L144.505 149.04C144.239 150.587 143.705 151.893 142.905 152.96C142.132 154.027 140.932 154.56 139.305 154.56C138.399 154.56 137.652 154.44 137.065 154.2C136.479 153.987 135.959 153.667 135.505 153.24C134.919 152.627 134.505 151.893 134.265 151.04C134.052 150.187 133.945 149.053 133.945 147.64V134.24H130.105V133.44H133.945V127.32C134.612 127.293 135.252 127.24 135.865 127.16C136.479 127.08 137.039 126.947 137.545 126.76ZM150.926 154.28C149.833 154.28 148.886 154.08 148.086 153.68C147.286 153.253 146.673 152.667 146.246 151.92C145.846 151.173 145.646 150.307 145.646 149.32C145.646 148.147 145.913 147.187 146.446 146.44C147.006 145.693 147.713 145.093 148.566 144.64C149.419 144.187 150.313 143.813 151.246 143.52C152.206 143.2 153.113 142.907 153.966 142.64C154.819 142.347 155.513 142.013 156.046 141.64C156.606 141.267 156.886 140.773 156.886 140.16V137.68C156.886 136.56 156.713 135.707 156.366 135.12C156.046 134.533 155.606 134.147 155.046 133.96C154.486 133.747 153.859 133.64 153.166 133.64C152.499 133.64 151.779 133.733 151.006 133.92C150.259 134.107 149.659 134.493 149.206 135.08C149.713 135.187 150.153 135.453 150.526 135.88C150.899 136.307 151.086 136.853 151.086 137.52C151.086 138.187 150.873 138.72 150.446 139.12C150.019 139.493 149.473 139.68 148.806 139.68C148.033 139.68 147.459 139.44 147.086 138.96C146.739 138.453 146.566 137.893 146.566 137.28C146.566 136.587 146.739 136.027 147.086 135.6C147.433 135.173 147.873 134.773 148.406 134.4C149.019 133.973 149.806 133.613 150.766 133.32C151.753 133 152.859 132.84 154.086 132.84C155.179 132.84 156.113 132.973 156.886 133.24C157.659 133.48 158.299 133.84 158.806 134.32C159.499 134.96 159.953 135.747 160.166 136.68C160.379 137.587 160.486 138.68 160.486 139.96V151.08C160.486 151.747 160.579 152.227 160.766 152.52C160.979 152.813 161.299 152.96 161.726 152.96C162.019 152.96 162.299 152.893 162.566 152.76C162.833 152.627 163.153 152.413 163.526 152.12L163.966 152.8C163.406 153.227 162.873 153.587 162.366 153.88C161.859 154.147 161.179 154.28 160.326 154.28C159.553 154.28 158.913 154.147 158.406 153.88C157.899 153.613 157.513 153.227 157.246 152.72C157.006 152.187 156.886 151.52 156.886 150.72C156.166 151.92 155.299 152.813 154.286 153.4C153.299 153.987 152.179 154.28 150.926 154.28ZM152.366 152.68C153.246 152.68 154.059 152.427 154.806 151.92C155.579 151.413 156.273 150.653 156.886 149.64V141.8C156.566 142.253 156.099 142.64 155.486 142.96C154.873 143.253 154.206 143.56 153.486 143.88C152.766 144.173 152.073 144.533 151.406 144.96C150.766 145.36 150.233 145.893 149.806 146.56C149.379 147.227 149.166 148.093 149.166 149.16C149.166 150.227 149.446 151.08 150.006 151.72C150.593 152.36 151.379 152.68 152.366 152.68ZM169.728 123.4C170.421 123.4 171.021 123.653 171.528 124.16C172.034 124.667 172.288 125.267 172.288 125.96C172.288 126.653 172.034 127.253 171.528 127.76C171.021 128.267 170.421 128.52 169.728 128.52C169.034 128.52 168.434 128.267 167.928 127.76C167.421 127.253 167.168 126.653 167.168 125.96C167.168 125.267 167.421 124.667 167.928 124.16C168.434 123.653 169.034 123.4 169.728 123.4ZM171.808 132.96V150.28C171.808 151.4 172.034 152.16 172.488 152.56C172.968 152.96 173.754 153.16 174.848 153.16V154C174.394 153.973 173.701 153.947 172.768 153.92C171.861 153.867 170.941 153.84 170.008 153.84C169.101 153.84 168.181 153.867 167.248 153.92C166.314 153.947 165.621 153.973 165.168 154V153.16C166.261 153.16 167.034 152.96 167.488 152.56C167.968 152.16 168.208 151.4 168.208 150.28V137.76C168.208 136.56 167.994 135.68 167.568 135.12C167.141 134.533 166.341 134.24 165.168 134.24V133.4C166.021 133.48 166.848 133.52 167.648 133.52C168.421 133.52 169.154 133.48 169.848 133.4C170.568 133.293 171.221 133.147 171.808 132.96ZM183.247 122.64V150.28C183.247 151.4 183.473 152.16 183.927 152.56C184.407 152.96 185.193 153.16 186.287 153.16V154C185.833 153.973 185.14 153.947 184.207 153.92C183.3 153.867 182.38 153.84 181.447 153.84C180.54 153.84 179.62 153.867 178.687 153.92C177.753 153.947 177.06 153.973 176.607 154V153.16C177.7 153.16 178.473 152.96 178.927 152.56C179.407 152.16 179.647 151.4 179.647 150.28V127.44C179.647 126.24 179.433 125.36 179.007 124.8C178.58 124.213 177.78 123.92 176.607 123.92V123.08C177.46 123.16 178.287 123.2 179.087 123.2C179.86 123.2 180.593 123.16 181.287 123.08C182.007 122.973 182.66 122.827 183.247 122.64ZM195.492 132.84C196.559 132.84 197.465 133.013 198.212 133.36C198.959 133.707 199.505 134.027 199.852 134.32C200.732 135.04 201.265 134.56 201.452 132.88H202.372C202.319 133.627 202.279 134.52 202.252 135.56C202.225 136.573 202.212 137.947 202.212 139.68H201.292C201.132 138.693 200.852 137.733 200.452 136.8C200.079 135.867 199.519 135.107 198.772 134.52C198.025 133.907 197.052 133.6 195.852 133.6C194.919 133.6 194.132 133.867 193.492 134.4C192.879 134.907 192.572 135.667 192.572 136.68C192.572 137.48 192.812 138.173 193.292 138.76C193.772 139.32 194.399 139.853 195.172 140.36C195.945 140.84 196.785 141.373 197.692 141.96C198.705 142.6 199.625 143.253 200.452 143.92C201.279 144.587 201.932 145.32 202.412 146.12C202.919 146.92 203.172 147.867 203.172 148.96C203.172 150.187 202.852 151.213 202.212 152.04C201.572 152.867 200.732 153.493 199.692 153.92C198.679 154.347 197.559 154.56 196.332 154.56C195.745 154.56 195.185 154.507 194.652 154.4C194.145 154.32 193.652 154.187 193.172 154C192.905 153.867 192.625 153.707 192.332 153.52C192.065 153.333 191.799 153.133 191.532 152.92C191.265 152.707 191.025 152.72 190.812 152.96C190.599 153.173 190.439 153.613 190.332 154.28H189.412C189.465 153.427 189.505 152.387 189.532 151.16C189.559 149.933 189.572 148.307 189.572 146.28H190.492C190.679 147.773 190.945 149.08 191.292 150.2C191.639 151.32 192.185 152.2 192.932 152.84C193.679 153.453 194.719 153.76 196.052 153.76C196.585 153.76 197.119 153.64 197.652 153.4C198.212 153.16 198.679 152.76 199.052 152.2C199.425 151.64 199.612 150.893 199.612 149.96C199.612 148.787 199.185 147.827 198.332 147.08C197.479 146.333 196.399 145.547 195.092 144.72C194.132 144.107 193.225 143.493 192.372 142.88C191.545 142.267 190.865 141.573 190.332 140.8C189.825 140.027 189.572 139.093 189.572 138C189.572 136.8 189.839 135.827 190.372 135.08C190.932 134.307 191.665 133.747 192.572 133.4C193.479 133.027 194.452 132.84 195.492 132.84Z" fill="#AF9146"/>
</svg>
